<svg xmlns="http://www.w3.org/2000/svg" width="20.758" height="20.758" viewBox="0 0 20.758 20.758">
  <g id="グループ_3677" data-name="グループ 3677" transform="translate(-9561 553.758) rotate(-90)">
    <path id="パス_7252" data-name="パス 7252" d="M10.379,0A10.379,10.379,0,1,1,0,10.379,10.379,10.379,0,0,1,10.379,0Z" transform="translate(533 9561)" fill="#00b6c9"/>
    <path id="パス_7251" data-name="パス 7251" d="M128.666,25.643a.546.546,0,0,1-.386-.933l3.469-3.464-3.469-3.464a.546.546,0,0,1,.772-.773l3.857,3.85a.546.546,0,0,1,0,.773l-3.857,3.85A.545.545,0,0,1,128.666,25.643Z" transform="translate(413.468 9550.133)" fill="#fff"/>
  </g>
</svg>
