<svg xmlns="http://www.w3.org/2000/svg" width="598.912" height="99.47" viewBox="0 0 598.912 99.47">
  <path id="パス_7397" data-name="パス 7397" d="M38.736,1.4A36.629,36.629,0,0,1,25.441-1.021,35.446,35.446,0,0,1,14.313-7.827,31.922,31.922,0,0,1,6.691-18.191,30.591,30.591,0,0,1,3.92-31.216,33.19,33.19,0,0,1,6.733-44.8,34.79,34.79,0,0,1,14.6-55.984a37.351,37.351,0,0,1,11.823-7.588A38.413,38.413,0,0,1,41.069-66.33a42.157,42.157,0,0,1,4.693.336q2.877.336,5.941.836t5.613,1.079A21.173,21.173,0,0,1,61.1-62.942a2.218,2.218,0,0,1,.9.609,2.136,2.136,0,0,1,.38,1.025q.43,3.1.744,6.041a48.146,48.146,0,0,1,.314,5,2.276,2.276,0,0,1-.45,1.394,1.339,1.339,0,0,1-1.108.606,1.74,1.74,0,0,1-1.572-.8,9.853,9.853,0,0,1-.872-1.7A25.756,25.756,0,0,0,57.9-53.954a16.98,16.98,0,0,0-2.184-2.955,12.312,12.312,0,0,0-2.652-2.137,19.188,19.188,0,0,0-4.83-2.091,25.542,25.542,0,0,0-7.287-.9,22,22,0,0,0-10.238,2.363A23.644,23.644,0,0,0,22.9-53.2a29.977,29.977,0,0,0-4.937,9.316,34.865,34.865,0,0,0-1.7,10.909,39.535,39.535,0,0,0,1.866,12.57A29.019,29.019,0,0,0,23.269-10.9,22.151,22.151,0,0,0,30.9-4.923,21.659,21.659,0,0,0,40.223-2.88a15.909,15.909,0,0,0,7.013-1.212,16.308,16.308,0,0,0,3.3-2.054,8.494,8.494,0,0,0,1.905-2.9,11.179,11.179,0,0,0,.863-4.367q.03-.9.065-2.118t.085-2.435q.05-1.217.05-2.117a7,7,0,0,0-.23-1.908,2.261,2.261,0,0,0-.879-1.267,6.456,6.456,0,0,0-2.553-1.5,20.284,20.284,0,0,0-3.391-.884,26.636,26.636,0,0,0-2.667-.343,3.239,3.239,0,0,1-1.345-.587,1.528,1.528,0,0,1-.8-1.288,1.335,1.335,0,0,1,.771-1.205,2.78,2.78,0,0,1,1.287-.435q2.414,0,4.548.1t4.323.214q2.19.114,4.687.114,2.687,0,4.995-.2t5.123-.2a3.187,3.187,0,0,1,1.237.315,1.234,1.234,0,0,1,.72,1.257,1.463,1.463,0,0,1-.749,1.272,4.327,4.327,0,0,1-1.293.614,6.368,6.368,0,0,0-3.341,1.779,6.6,6.6,0,0,0-1.237,3.121q-.328,2.2-.443,3.886t-.115,3.614v2.9a1.374,1.374,0,0,0,.273.858,8.013,8.013,0,0,1,.56.858,8.438,8.438,0,0,0,.785.944,1.31,1.31,0,0,1,.427.9A3.223,3.223,0,0,1,63.945-6q-.252.65-1.352.85a11.32,11.32,0,0,0-2.749,1.121q-2.021,1.021-5.092,2.292a45.62,45.62,0,0,1-7.1,2.206A39.473,39.473,0,0,1,38.736,1.4ZM76.756.3A3.072,3.072,0,0,1,75.3.006a.977.977,0,0,1-.544-.922,1.16,1.16,0,0,1,.615-1.123,8.91,8.91,0,0,1,1.685-.623,6.461,6.461,0,0,0,2.893-1.45,3.207,3.207,0,0,0,.877-2.35V-28.483a11.41,11.41,0,0,0-.713-4.265,3.827,3.827,0,0,0-2.981-2.268,1.69,1.69,0,0,1-.772-.515,1.389,1.389,0,0,1-.344-.96,1.242,1.242,0,0,1,1.016-1.373,42.721,42.721,0,0,0,6-2.263q3.2-1.463,5.2-2.579A8.684,8.684,0,0,1,89.29-43.3a1.952,1.952,0,0,1,.738-.223q.645,0,.645.845,0,.358-.05,1.673t-.115,2.93q-.065,1.615-.135,3.041,0,.431.258.431a24.362,24.362,0,0,1,3.549-3.7,19.635,19.635,0,0,1,4.145-2.719,9.715,9.715,0,0,1,4.24-1.045,6.494,6.494,0,0,1,3.958,1.045,3.209,3.209,0,0,1,1.394,2.677,6.274,6.274,0,0,1-.652,2.592,8.42,8.42,0,0,1-1.7,2.462,3.12,3.12,0,0,1-2.219,1.045,4.068,4.068,0,0,1-1.517-.323q-.8-.323-1.689-.752-.858-.358-1.716-.7a4.447,4.447,0,0,0-1.658-.344,7,7,0,0,0-4.577,1.773q-2.12,1.773-2.12,7.005V-6.78a2.8,2.8,0,0,0,1.342,2.455,15.625,15.625,0,0,0,3.928,1.694,7.2,7.2,0,0,1,1.686.643,1.155,1.155,0,0,1,.586,1.073Q97.615.3,95.731.3A45.278,45.278,0,0,1,90.587.05,41.194,41.194,0,0,0,85.842-.2q-1.7,0-3,.1T80.152.15A32.506,32.506,0,0,1,76.756.3Zm54.683,1.1a20.561,20.561,0,0,1-10.361-2.629A19.7,19.7,0,0,1,113.74-8.48a20.317,20.317,0,0,1-2.723-10.51,21.913,21.913,0,0,1,1.708-8.5,24.744,24.744,0,0,1,4.78-7.4,23.3,23.3,0,0,1,7.174-5.236,20.4,20.4,0,0,1,8.817-1.936,20.586,20.586,0,0,1,10.712,2.829,21.733,21.733,0,0,1,7.588,7.452,19.04,19.04,0,0,1,2.822,10.11,25.181,25.181,0,0,1-2.608,11.29,20.91,20.91,0,0,1-7.738,8.537Q139.143,1.4,131.439,1.4Zm2.042-3.492a11.6,11.6,0,0,0,5.23-1.141,8.241,8.241,0,0,0,3.62-3.606,15.908,15.908,0,0,0,1.629-5.571,54.16,54.16,0,0,0,.429-6.866,27.814,27.814,0,0,0-1.561-9.41,18.224,18.224,0,0,0-4.363-7.1,9.178,9.178,0,0,0-6.61-2.72,11.11,11.11,0,0,0-4.139.734,8.311,8.311,0,0,0-3.355,2.6,12.27,12.27,0,0,0-2.528,5.941,47.488,47.488,0,0,0-.614,7.881,27.058,27.058,0,0,0,1.6,9.263,19.4,19.4,0,0,0,4.363,7.207A8.653,8.653,0,0,0,133.482-2.092Zm45.681,4.653a1.018,1.018,0,0,1-.589-.215,1.163,1.163,0,0,1-.43-.6l-14.1-34.791a8.8,8.8,0,0,0-2.157-3.423,7.479,7.479,0,0,0-3.015-1.823,8.351,8.351,0,0,1-1.506-.745,1.316,1.316,0,0,1-.648-1.173q0-.658.794-.822a6.851,6.851,0,0,1,1.352-.164q1.647,0,2.884.114t2.481.264a23.608,23.608,0,0,0,2.8.15,28.969,28.969,0,0,0,3.046-.15q1.415-.15,2.823-.264T176-41.2a5.975,5.975,0,0,1,1.3.193q.815.193.815.851a1.2,1.2,0,0,1-.736,1.13q-.736.37-1.536.7a2.614,2.614,0,0,0-1.564,1.392,5.675,5.675,0,0,0-.536,2.578A8.276,8.276,0,0,0,174.3-31.4l7.1,18.5a.376.376,0,0,0,.413.314.378.378,0,0,0,.414-.314l6.741-16.025a9.646,9.646,0,0,0,.564-2.109,14.18,14.18,0,0,0,.15-2.023,4.14,4.14,0,0,0-1.483-3.166,10.948,10.948,0,0,0-3.183-2.042,8.281,8.281,0,0,1-1.506-.743,1.316,1.316,0,0,1-.648-1.173q0-.658.773-.823a7,7,0,0,1,1.459-.165,30.118,30.118,0,0,1,3.689.236,35.118,35.118,0,0,0,4.275.236,43.528,43.528,0,0,0,4.83-.236,36.681,36.681,0,0,1,4.122-.236,5.673,5.673,0,0,1,1.337.194q.779.194.779.852a1.2,1.2,0,0,1-.735,1.129q-.735.371-1.535.7a8.857,8.857,0,0,0-2.091,1.1,2.715,2.715,0,0,0-.991,2.383,7.646,7.646,0,0,0,.194,1.67,10.018,10.018,0,0,0,.564,1.737l6.948,18q.356.809.627.809.342,0,.627-.739l6.875-16.511a7.518,7.518,0,0,0,.564-2.043,11.349,11.349,0,0,0,.136-1.943,4,4,0,0,0-1.055-2.843,5.8,5.8,0,0,0-2.241-1.557,13.54,13.54,0,0,1-1.536-.686,1.229,1.229,0,0,1-.736-1.144q0-.658.779-.852a5.673,5.673,0,0,1,1.337-.194,29.412,29.412,0,0,1,3.718.222,25.651,25.651,0,0,0,3.58.192,19.11,19.11,0,0,0,2.366-.107q.786-.107,1.56-.192t2.105-.115a6.571,6.571,0,0,1,1.387.165q.758.165.758.823a1.316,1.316,0,0,1-.648,1.173,8.283,8.283,0,0,1-1.506.743,6.293,6.293,0,0,0-3.046,2.321,18.181,18.181,0,0,0-2.4,4.134l-13.845,33.5a1.171,1.171,0,0,1-1.161.758,1.236,1.236,0,0,1-1.061-.758L192.509-25.07q-.212-.6-.483-.667-.272,0-.556.739L180.281,1.745A1.178,1.178,0,0,1,179.162,2.561ZM269.216.442a5.38,5.38,0,0,1-1.882-.294q-.785-.294-.785-.922a1.347,1.347,0,0,1,.756-1.2,7.076,7.076,0,0,1,2.225-.716,12.511,12.511,0,0,0,5.7-2.319q1.9-1.591,1.9-5.045v-39.67q0-4.367-.2-6.615a10.43,10.43,0,0,0-.606-3.117,1.568,1.568,0,0,0-1.12-1,11.164,11.164,0,0,0-2.718-.423q-1.521-.065-3.512-.065h-3.83a12.328,12.328,0,0,0-5.2,1.167,8.558,8.558,0,0,0-3.842,3.284q-.358.558-1.145,1.609a12.273,12.273,0,0,1-1.673,1.838,2.691,2.691,0,0,1-1.774.787.758.758,0,0,1-.753-.444,2.334,2.334,0,0,1-.208-1,4.9,4.9,0,0,1,.558-2.2,38.373,38.373,0,0,0,2.311-5.6,31.8,31.8,0,0,0,1.108-5.684q.2-1.613.794-2a2.134,2.134,0,0,1,1.167-.387q.516,0,1.352,1.229t1.409,2.029a5.084,5.084,0,0,0,2.968,1.413,19.837,19.837,0,0,0,4.09.471l36.07-.03a25.944,25.944,0,0,0,5.192-.429,16.292,16.292,0,0,0,3.38-1.041,8.745,8.745,0,0,0,2.168-1.562,2.746,2.746,0,0,1,2.051-.845q.417,0,.631.648a4.6,4.6,0,0,1,.214,1.448,8.659,8.659,0,0,1-.121,1.255q-.121.784-.221,1.284-.358,1.858-.695,2.991a19.888,19.888,0,0,0-.509,2.081,13.72,13.72,0,0,0-.173,2.393v1.461a6.726,6.726,0,0,1-.385,2.253q-.385,1.092-1.243,1.092-.787,0-1.26-1.042a18.394,18.394,0,0,1-.96-3,6.676,6.676,0,0,0-2.719-4.061q-2.058-1.409-6.712-1.409h-8.361a6.05,6.05,0,0,0-3.111.658q-1.086.658-1.444,3.015a56.03,56.03,0,0,0-.358,7.538v39.647a6.084,6.084,0,0,0,1.941,4.973,13.362,13.362,0,0,0,5.7,2.42,8.667,8.667,0,0,1,2.225.7A1.276,1.276,0,0,1,298.357-.8a.978.978,0,0,1-.727.923,5.1,5.1,0,0,1-1.882.293q-2.527,0-4.639-.135T287,.042q-1.991-.1-4.206-.1-2.355,0-4.48.1t-4.336.25Q271.772.442,269.216.442Zm60.1.958A20.561,20.561,0,0,1,318.95-1.229a19.7,19.7,0,0,1-7.338-7.252,20.317,20.317,0,0,1-2.723-10.51,21.913,21.913,0,0,1,1.708-8.5,24.744,24.744,0,0,1,4.78-7.4,23.3,23.3,0,0,1,7.174-5.236,20.4,20.4,0,0,1,8.817-1.936,20.586,20.586,0,0,1,10.712,2.829,21.733,21.733,0,0,1,7.588,7.452,19.04,19.04,0,0,1,2.822,10.11,25.181,25.181,0,0,1-2.608,11.29,20.91,20.91,0,0,1-7.738,8.537Q337.014,1.4,329.311,1.4Zm2.042-3.492a11.6,11.6,0,0,0,5.23-1.141,8.241,8.241,0,0,0,3.62-3.606,15.907,15.907,0,0,0,1.629-5.571,54.157,54.157,0,0,0,.429-6.866,27.814,27.814,0,0,0-1.561-9.41,18.224,18.224,0,0,0-4.363-7.1,9.178,9.178,0,0,0-6.61-2.72,11.11,11.11,0,0,0-4.139.734,8.311,8.311,0,0,0-3.355,2.6A12.27,12.27,0,0,0,319.7-29.23a47.49,47.49,0,0,0-.614,7.881,27.058,27.058,0,0,0,1.6,9.263,19.4,19.4,0,0,0,4.363,7.207A8.653,8.653,0,0,0,331.353-2.092ZM375.231,28.97q-8.934,0-14.073-3.177t-5.139-8.62a11.709,11.709,0,0,1,.771-4.559,8.109,8.109,0,0,1,2.762-3.288q1.573-1.258,3.735-2.948t4.227-3.314l4.461.722a21.354,21.354,0,0,0-6.062,5.19,10.227,10.227,0,0,0-1.842,6.148,8.246,8.246,0,0,0,3.506,6.749,13.82,13.82,0,0,0,8.736,2.721q6.248,0,9.586-2.7a12.749,12.749,0,0,0,3.553-4.616,13.579,13.579,0,0,0,1.284-5.768,4.288,4.288,0,0,0-1.391-3.288A10.72,10.72,0,0,0,384.813,6.1a46.715,46.715,0,0,0-8.383-1.187Q366.682,4.1,362.771,1.91a6.91,6.91,0,0,1-3.911-6.34,3.506,3.506,0,0,1,.55-1.864,7.667,7.667,0,0,1,1.9-1.922q2.039-1.569,3.212-2.462a18.013,18.013,0,0,0,1.853-1.58,6.382,6.382,0,0,0,1.123-1.53l3.95,1.73a9.955,9.955,0,0,0-3.555,2.048,3.524,3.524,0,0,0-1.413,2.319A2.66,2.66,0,0,0,367.9-5.472,12.317,12.317,0,0,0,372.3-4q2.973.541,7.607.9,9.78.616,14.41,3.1t4.63,7.115a16.41,16.41,0,0,1-2.066,7.838A27.173,27.173,0,0,1,391.4,22a27.955,27.955,0,0,1-7.614,5.08A20.617,20.617,0,0,1,375.231,28.97Zm1.258-43.041q3.569,0,5.851-3.734a17.948,17.948,0,0,0,2.282-9.492,13.69,13.69,0,0,0-1.2-5.784,11.1,11.1,0,0,0-3.166-4.173A6.845,6.845,0,0,0,375.9-38.8a6.147,6.147,0,0,0-4.073,1.621,11.469,11.469,0,0,0-3.025,4.25,14.6,14.6,0,0,0-1.134,5.845,17.514,17.514,0,0,0,1.184,6.552,11.942,11.942,0,0,0,3.21,4.715A6.628,6.628,0,0,0,376.488-14.07Zm-.773,3.819a16.74,16.74,0,0,1-8.105-2.115,18.409,18.409,0,0,1-6.383-5.68,13.471,13.471,0,0,1-2.495-7.9,14.307,14.307,0,0,1,2.595-8.481,17.686,17.686,0,0,1,6.813-5.724,20.2,20.2,0,0,1,8.979-2.059,17.906,17.906,0,0,1,5.325.736q2.367.736,4.9,1.306a25.968,25.968,0,0,0,3.8.748,32.216,32.216,0,0,0,3.335.164q1.316,0,3.014-.15t2.486-.15q1.416,0,1.416,1.763a3.818,3.818,0,0,1-1.116,2.508,1.439,1.439,0,0,1-.945.558h-2.7q-2.67,0-3.173.8a5.048,5.048,0,0,0-.294.9,9.612,9.612,0,0,0-.207,1.447q-.071.885-.071,2.279a19.409,19.409,0,0,1-2.373,9.487,19.5,19.5,0,0,1-6.264,6.944A14.987,14.987,0,0,1,375.715-10.252ZM421.749,1.47a17.017,17.017,0,0,1-9.63-2.758A18.593,18.593,0,0,1,405.6-9a26.123,26.123,0,0,1-2.358-11.363A21.8,21.8,0,0,1,406-31.227a21.965,21.965,0,0,1,7.355-7.853,18.3,18.3,0,0,1,10.092-2.958,15.485,15.485,0,0,1,7.3,1.687,13,13,0,0,1,5.067,4.623A12.339,12.339,0,0,1,437.666-29q0,3.333-3.028,3.333H413.914a2.33,2.33,0,0,0-1.979.764,5.059,5.059,0,0,0-.579,2.877,16.948,16.948,0,0,0,1.955,8.113A15.6,15.6,0,0,0,418.563-8.1a13.126,13.126,0,0,0,7.352,2.161,12.737,12.737,0,0,0,5.42-1.135,15.436,15.436,0,0,0,4.525-3.248,3.911,3.911,0,0,1,.628-.593.959.959,0,0,1,.558-.179q.888,0,.888,1.088a7.061,7.061,0,0,1-1.452,3.764,15.614,15.614,0,0,1-3.513,3.9A17.222,17.222,0,0,1,427.92.445,18.176,18.176,0,0,1,421.749,1.47Zm-7.692-30.619h8q2.544,0,4.027-.1a19.4,19.4,0,0,0,2.852-.4,1.008,1.008,0,0,0,.693-.78,5.93,5.93,0,0,0,.193-1.652,5.987,5.987,0,0,0-2.289-4.747A8.28,8.28,0,0,0,422-38.761a8.336,8.336,0,0,0-4.353,1.292,11.669,11.669,0,0,0-3.524,3.234,6.573,6.573,0,0,0-1.355,3.942Q412.769-29.148,414.056-29.148ZM460.437,1.4q-5.509,0-8.448-3.116t-2.938-9.1V-33.961a1.272,1.272,0,0,0-.629-1.194,6,6,0,0,0-2.543-.394h-.861q-.558,0-.952-.823a3.719,3.719,0,0,1-.394-1.611,1.2,1.2,0,0,1,.242-.571,1.4,1.4,0,0,1,.43-.471,36.687,36.687,0,0,0,4.187-2.8q2.041-1.573,3.812-3.184t2.9-2.8q.587-.53,1-.894a1.441,1.441,0,0,1,1-.364,2.089,2.089,0,0,1,1.08.258q.435.258.307,1.161l-.558,4.992a1.574,1.574,0,0,0,.529,1.573,3.494,3.494,0,0,0,1.9.414h11.573q.342,0,.642.665a3.478,3.478,0,0,1,.3,1.448,6.645,6.645,0,0,1-.329,2.1q-.329,1-.757,1h-9.7a7.351,7.351,0,0,0-3.207.458q-.793.458-.793,2.255v19.411a10.645,10.645,0,0,0,1.714,6.488,5.682,5.682,0,0,0,4.827,2.285,14.909,14.909,0,0,0,4.385-.494,13.089,13.089,0,0,0,2.754-1.248.816.816,0,0,1,.487-.2.659.659,0,0,1,.623.508,3.145,3.145,0,0,1,.193,1.125q0,.528-1.809,2.072A20.257,20.257,0,0,1,466.694.071,14.821,14.821,0,0,1,460.437,1.4ZM477.822.3q-2,0-2-1.216,0-1.016,2.3-1.745A15.529,15.529,0,0,0,480.9-3.888a3.051,3.051,0,0,0,1.348-2.785V-56.02a12.512,12.512,0,0,0-.827-4.735,4.074,4.074,0,0,0-3.4-2.465q-.958-.2-.958-1.458a1.2,1.2,0,0,1,.858-1.287q1.719-.5,4.031-1.23t4.659-1.582q2.347-.852,3.917-1.492a2.383,2.383,0,0,1,.833-.23.73.73,0,0,1,.616.258.975.975,0,0,1,.2.616,8.941,8.941,0,0,1-.206,1.614,30.706,30.706,0,0,0-.377,3.263q-.171,2.221-.2,6.346v19.43a12.443,12.443,0,0,0,.136,2.126,3.409,3.409,0,0,0,.506,1.284q1.572-1.228,3.834-2.722a27.815,27.815,0,0,1,5.12-2.623,16.294,16.294,0,0,1,6.043-1.129,10.79,10.79,0,0,1,8.426,3.821,14.507,14.507,0,0,1,3.38,9.982V-6.945a3.327,3.327,0,0,0,1.227,2.907,10.321,10.321,0,0,0,2.7,1.377,6.816,6.816,0,0,1,1.656.709,1.176,1.176,0,0,1,.586,1.037Q525.008.3,522.95.3A28.88,28.88,0,0,1,519.6.15q-1.209-.15-2.3-.25t-3.011-.1q-1.875,0-2.947.1t-2.209.25A26.959,26.959,0,0,1,505.84.3Q503.7.3,503.7-.945A1.1,1.1,0,0,1,504.311-2a11.959,11.959,0,0,1,1.6-.665,8.384,8.384,0,0,0,2.6-1.377A3.541,3.541,0,0,0,509.664-7V-27.17A7.8,7.8,0,0,0,508.4-31.5a9.8,9.8,0,0,0-3.13-3.091,7.357,7.357,0,0,0-3.893-1.142,17.582,17.582,0,0,0-4.009.535,9.887,9.887,0,0,0-3.741,1.665,5.345,5.345,0,0,0-1.758,2.207,11.2,11.2,0,0,0-.448,3.716V-6.731a3.317,3.317,0,0,0,1.163,2.77,10.122,10.122,0,0,0,2.534,1.27A5.549,5.549,0,0,1,496.7-2a1.222,1.222,0,0,1,.565,1.052Q497.262.3,495.35.3a28.67,28.67,0,0,1-3.262-.15Q490.826,0,489.68-.1t-2.946-.1q-1.7,0-2.953.1t-2.606.25A31.248,31.248,0,0,1,477.822.3Zm70.5,1.17a17.017,17.017,0,0,1-9.63-2.758A18.594,18.594,0,0,1,532.172-9a26.124,26.124,0,0,1-2.358-11.363,21.8,21.8,0,0,1,2.752-10.869,21.965,21.965,0,0,1,7.355-7.853,18.3,18.3,0,0,1,10.092-2.958,15.485,15.485,0,0,1,7.3,1.687,13,13,0,0,1,5.067,4.623A12.339,12.339,0,0,1,564.234-29q0,3.333-3.028,3.333H540.483a2.33,2.33,0,0,0-1.979.764,5.059,5.059,0,0,0-.579,2.877,16.948,16.948,0,0,0,1.955,8.113A15.6,15.6,0,0,0,545.132-8.1a13.126,13.126,0,0,0,7.352,2.161A12.737,12.737,0,0,0,557.9-7.07a15.436,15.436,0,0,0,4.525-3.248,3.913,3.913,0,0,1,.628-.593.959.959,0,0,1,.558-.179q.887,0,.887,1.088a7.061,7.061,0,0,1-1.452,3.764,15.613,15.613,0,0,1-3.513,3.9A17.222,17.222,0,0,1,554.489.445,18.176,18.176,0,0,1,548.317,1.47Zm-7.692-30.619h8q2.544,0,4.027-.1a19.4,19.4,0,0,0,2.852-.4,1.008,1.008,0,0,0,.693-.78,5.929,5.929,0,0,0,.193-1.652,5.987,5.987,0,0,0-2.289-4.747,8.28,8.28,0,0,0-5.528-1.934,8.336,8.336,0,0,0-4.353,1.292,11.67,11.67,0,0,0-3.524,3.234,6.573,6.573,0,0,0-1.355,3.942Q539.338-29.148,540.625-29.148ZM571.671.3a3.072,3.072,0,0,1-1.456-.294.977.977,0,0,1-.544-.922,1.16,1.16,0,0,1,.615-1.123,8.91,8.91,0,0,1,1.685-.623,6.461,6.461,0,0,0,2.893-1.45,3.207,3.207,0,0,0,.877-2.35V-28.483a11.41,11.41,0,0,0-.712-4.265,3.827,3.827,0,0,0-2.981-2.268,1.69,1.69,0,0,1-.772-.515,1.389,1.389,0,0,1-.344-.96,1.242,1.242,0,0,1,1.016-1.373,42.721,42.721,0,0,0,6-2.263q3.2-1.463,5.2-2.579A8.688,8.688,0,0,1,584.2-43.3a1.952,1.952,0,0,1,.738-.223q.645,0,.645.845,0,.358-.05,1.673t-.115,2.93q-.065,1.615-.135,3.041,0,.431.258.431a24.362,24.362,0,0,1,3.549-3.7,19.636,19.636,0,0,1,4.145-2.719,9.715,9.715,0,0,1,4.24-1.045,6.494,6.494,0,0,1,3.958,1.045,3.209,3.209,0,0,1,1.394,2.677,6.274,6.274,0,0,1-.652,2.592,8.42,8.42,0,0,1-1.7,2.462,3.12,3.12,0,0,1-2.219,1.045,4.068,4.068,0,0,1-1.517-.323q-.8-.323-1.689-.752-.858-.358-1.716-.7a4.446,4.446,0,0,0-1.658-.344,7,7,0,0,0-4.577,1.773q-2.12,1.773-2.12,7.005V-6.78a2.8,2.8,0,0,0,1.342,2.455,15.625,15.625,0,0,0,3.928,1.694,7.2,7.2,0,0,1,1.686.643,1.155,1.155,0,0,1,.586,1.073Q592.53.3,590.646.3A45.279,45.279,0,0,1,585.5.05a41.2,41.2,0,0,0-4.745-.25q-1.7,0-3,.1t-2.693.25A32.507,32.507,0,0,1,571.671.3Z" transform="translate(-3.92 70.5)" fill="#fff"/>
</svg>
