<svg xmlns="http://www.w3.org/2000/svg" width="224.806" height="124.628" viewBox="0 0 224.806 124.628">
  <path id="パス_8063" data-name="パス 8063" d="M-36.943,6.739a23.374,23.374,0,0,1-8.484-1.545,22.619,22.619,0,0,1-7.1-4.343,20.371,20.371,0,0,1-4.863-6.614,19.521,19.521,0,0,1-1.768-8.311,21.18,21.18,0,0,1,1.795-8.668,22.2,22.2,0,0,1,5.022-7.138A23.835,23.835,0,0,1-44.8-34.721a24.513,24.513,0,0,1,9.345-1.76,26.9,26.9,0,0,1,2.995.214q1.836.214,3.791.533t3.582.688a13.511,13.511,0,0,1,2.413.725,1.415,1.415,0,0,1,.572.389,1.363,1.363,0,0,1,.243.654q.274,1.98.475,3.855a30.725,30.725,0,0,1,.2,3.188,1.453,1.453,0,0,1-.287.889.855.855,0,0,1-.707.387,1.11,1.11,0,0,1-1-.51,6.288,6.288,0,0,1-.556-1.084,16.435,16.435,0,0,0-.974-2.033,10.835,10.835,0,0,0-1.393-1.886A7.857,7.857,0,0,0-27.8-31.834a12.244,12.244,0,0,0-3.082-1.334,16.3,16.3,0,0,0-4.65-.573,14.04,14.04,0,0,0-6.533,1.508,15.088,15.088,0,0,0-4.987,4.127A19.129,19.129,0,0,0-50.2-22.161,22.248,22.248,0,0,0-51.289-15.2,25.229,25.229,0,0,0-50.1-7.178a18.518,18.518,0,0,0,3.284,6.071A14.135,14.135,0,0,0-41.944,2.7a13.821,13.821,0,0,0,5.95,1.3,10.152,10.152,0,0,0,4.475-.773,10.407,10.407,0,0,0,2.107-1.311A5.42,5.42,0,0,0-28.2.076a7.133,7.133,0,0,0,.551-2.787q.019-.574.041-1.352t.054-1.554q.032-.777.032-1.351a4.466,4.466,0,0,0-.147-1.217,1.443,1.443,0,0,0-.561-.809,4.12,4.12,0,0,0-1.629-.954,12.944,12.944,0,0,0-2.164-.564,17,17,0,0,0-1.7-.219,2.067,2.067,0,0,1-.858-.374.975.975,0,0,1-.511-.822A.852.852,0,0,1-34.6-12.7a1.774,1.774,0,0,1,.821-.278q1.54,0,2.9.064t2.759.137q1.4.073,2.991.073,1.715,0,3.187-.128t3.269-.128a2.034,2.034,0,0,1,.789.2.787.787,0,0,1,.459.8.934.934,0,0,1-.478.812,2.761,2.761,0,0,1-.825.392,4.064,4.064,0,0,0-2.132,1.135,4.212,4.212,0,0,0-.79,1.992q-.209,1.4-.283,2.48T-22-2.837V-.984a.877.877,0,0,0,.174.547,5.113,5.113,0,0,1,.357.547,5.385,5.385,0,0,0,.5.6.836.836,0,0,1,.273.575,2.057,2.057,0,0,1-.161.726q-.161.415-.862.542a7.224,7.224,0,0,0-1.754.715q-1.29.652-3.249,1.463a29.112,29.112,0,0,1-4.531,1.408A25.189,25.189,0,0,1-36.943,6.739Zm24.262-.7a1.96,1.96,0,0,1-.929-.187.624.624,0,0,1-.347-.588.74.74,0,0,1,.392-.716,5.686,5.686,0,0,1,1.075-.4,4.123,4.123,0,0,0,1.846-.925,2.047,2.047,0,0,0,.56-1.5V-12.33a7.281,7.281,0,0,0-.455-2.722,2.442,2.442,0,0,0-1.9-1.447,1.078,1.078,0,0,1-.493-.329.886.886,0,0,1-.219-.613.792.792,0,0,1,.648-.876,27.262,27.262,0,0,0,3.83-1.444q2.041-.934,3.32-1.646a5.542,5.542,0,0,1,.672-.378,1.246,1.246,0,0,1,.471-.142q.412,0,.412.539,0,.228-.032,1.068t-.073,1.87q-.041,1.03-.086,1.941,0,.275.165.275A15.546,15.546,0,0,1-1.562-18.6a12.53,12.53,0,0,1,2.645-1.735A6.2,6.2,0,0,1,3.788-21a4.144,4.144,0,0,1,2.526.667A2.048,2.048,0,0,1,7.2-18.624a4,4,0,0,1-.416,1.654A5.373,5.373,0,0,1,5.7-15.4a1.991,1.991,0,0,1-1.416.667,2.6,2.6,0,0,1-.968-.206q-.512-.206-1.078-.48-.547-.228-1.095-.448A2.838,2.838,0,0,0,.09-16.084a4.468,4.468,0,0,0-2.921,1.131q-1.353,1.131-1.353,4.47v12a1.787,1.787,0,0,0,.856,1.566A9.971,9.971,0,0,0-.82,4.167a4.593,4.593,0,0,1,1.076.41.737.737,0,0,1,.374.684q0,.776-1.2.776a28.894,28.894,0,0,1-3.283-.16,26.287,26.287,0,0,0-3.028-.16q-1.085,0-1.912.064t-1.718.16A20.743,20.743,0,0,1-12.681,6.037Zm34.9.7A13.12,13.12,0,0,1,15.6,5.062,12.574,12.574,0,0,1,10.919.434,12.965,12.965,0,0,1,9.182-6.273a13.984,13.984,0,0,1,1.09-5.426,15.79,15.79,0,0,1,3.051-4.723A14.869,14.869,0,0,1,17.9-19.763,13.015,13.015,0,0,1,23.527-21a13.137,13.137,0,0,1,6.836,1.805A13.868,13.868,0,0,1,35.2-14.438a12.15,12.15,0,0,1,1.8,6.452,16.069,16.069,0,0,1-1.664,7.2A13.343,13.343,0,0,1,30.4,4.665,15.029,15.029,0,0,1,22.214,6.739Zm1.3-2.228a7.4,7.4,0,0,0,3.338-.728,5.259,5.259,0,0,0,2.31-2.3A10.151,10.151,0,0,0,30.2-2.073a34.561,34.561,0,0,0,.274-4.382,17.749,17.749,0,0,0-1-6A11.629,11.629,0,0,0,26.7-16.989a5.857,5.857,0,0,0-4.218-1.735,7.09,7.09,0,0,0-2.641.469A5.3,5.3,0,0,0,17.7-16.6a7.83,7.83,0,0,0-1.613,3.791,30.3,30.3,0,0,0-.392,5.029,17.266,17.266,0,0,0,1.019,5.911,12.38,12.38,0,0,0,2.784,4.6A5.522,5.522,0,0,0,23.517,4.511ZM52.667,7.48a.65.65,0,0,1-.376-.137.742.742,0,0,1-.274-.383l-9-22.2a5.616,5.616,0,0,0-1.376-2.185,4.773,4.773,0,0,0-1.924-1.164,5.329,5.329,0,0,1-.961-.475.84.84,0,0,1-.414-.748q0-.42.507-.524a4.372,4.372,0,0,1,.862-.1q1.051,0,1.841.073t1.583.169a15.065,15.065,0,0,0,1.79.1,18.486,18.486,0,0,0,1.944-.1q.9-.1,1.8-.169t1.976-.073a3.813,3.813,0,0,1,.831.123q.52.123.52.543a.765.765,0,0,1-.47.721q-.47.236-.98.447a1.668,1.668,0,0,0-1,.888,3.621,3.621,0,0,0-.342,1.645,5.281,5.281,0,0,0,.356,1.882L54.1-2.385a.24.24,0,0,0,.263.2.241.241,0,0,0,.264-.2l4.3-10.226a6.155,6.155,0,0,0,.36-1.346,9.047,9.047,0,0,0,.1-1.291,2.642,2.642,0,0,0-.946-2.02,6.986,6.986,0,0,0-2.031-1.3,5.285,5.285,0,0,1-.961-.474.84.84,0,0,1-.414-.748q0-.42.493-.525a4.469,4.469,0,0,1,.931-.105,19.22,19.22,0,0,1,2.354.151,22.41,22.41,0,0,0,2.728.151,27.777,27.777,0,0,0,3.082-.151,23.408,23.408,0,0,1,2.63-.151,3.62,3.62,0,0,1,.853.124q.5.124.5.543a.766.766,0,0,1-.469.72q-.469.237-.98.447a5.652,5.652,0,0,0-1.334.7,1.732,1.732,0,0,0-.632,1.521,4.88,4.88,0,0,0,.124,1.065,6.392,6.392,0,0,0,.36,1.108L70.1-2.71q.227.516.4.516.218,0,.4-.472L75.287-13.2a4.8,4.8,0,0,0,.36-1.3,7.242,7.242,0,0,0,.087-1.24,2.552,2.552,0,0,0-.674-1.814,3.7,3.7,0,0,0-1.43-.994,8.641,8.641,0,0,1-.98-.438.784.784,0,0,1-.47-.73q0-.42.5-.543a3.62,3.62,0,0,1,.853-.124,18.769,18.769,0,0,1,2.373.142,16.369,16.369,0,0,0,2.285.123,12.194,12.194,0,0,0,1.51-.068q.5-.068,1-.123t1.344-.073a4.193,4.193,0,0,1,.885.105q.484.105.484.525a.84.84,0,0,1-.414.748,5.285,5.285,0,0,1-.961.474,4.016,4.016,0,0,0-1.944,1.481,11.6,11.6,0,0,0-1.531,2.638L69.721,6.96a.747.747,0,0,1-.741.484A.789.789,0,0,1,68.3,6.96L61.185-10.152q-.136-.381-.308-.426-.173,0-.355.472L53.381,6.96A.752.752,0,0,1,52.667,7.48ZM-84.415,69.942a3.433,3.433,0,0,1-1.2-.187q-.5-.187-.5-.588a.859.859,0,0,1,.483-.767,4.515,4.515,0,0,1,1.42-.457,7.984,7.984,0,0,0,3.636-1.48,3.97,3.97,0,0,0,1.211-3.22V37.928q0-2.787-.128-4.221a6.656,6.656,0,0,0-.387-1.989,1,1,0,0,0-.715-.637,7.124,7.124,0,0,0-1.734-.27q-.971-.041-2.241-.041h-2.444a7.867,7.867,0,0,0-3.318.745,5.461,5.461,0,0,0-2.452,2.1q-.228.356-.73,1.027a7.832,7.832,0,0,1-1.068,1.173,1.717,1.717,0,0,1-1.132.5.484.484,0,0,1-.481-.283,1.489,1.489,0,0,1-.133-.639,3.13,3.13,0,0,1,.356-1.406A24.488,24.488,0,0,0-94.5,30.412a20.294,20.294,0,0,0,.707-3.627q.128-1.029.507-1.276a1.362,1.362,0,0,1,.745-.247q.329,0,.862.784t.9,1.295a3.245,3.245,0,0,0,1.894.9,12.658,12.658,0,0,0,2.61.3l23.018-.019a16.555,16.555,0,0,0,3.313-.274,10.4,10.4,0,0,0,2.157-.665,5.581,5.581,0,0,0,1.383-1,1.752,1.752,0,0,1,1.309-.539q.266,0,.4.414a2.938,2.938,0,0,1,.137.924,5.526,5.526,0,0,1-.077.8q-.077.5-.141.82-.228,1.186-.443,1.909a12.7,12.7,0,0,0-.325,1.328,8.756,8.756,0,0,0-.11,1.527v.932a4.293,4.293,0,0,1-.246,1.438q-.246.7-.793.7-.5,0-.8-.665a11.739,11.739,0,0,1-.613-1.914,4.26,4.26,0,0,0-1.735-2.591,7.8,7.8,0,0,0-4.283-.9h-5.335a3.861,3.861,0,0,0-1.985.42,2.6,2.6,0,0,0-.921,1.924,35.754,35.754,0,0,0-.228,4.81v25.3A3.883,3.883,0,0,0-71.358,66.4a8.527,8.527,0,0,0,3.636,1.544,5.531,5.531,0,0,1,1.42.447.815.815,0,0,1,.483.758.624.624,0,0,1-.464.589,3.256,3.256,0,0,1-1.2.187q-1.612,0-2.96-.086t-2.619-.15q-1.271-.064-2.684-.064-1.5,0-2.859.064t-2.767.16Q-82.784,69.942-84.415,69.942Zm38.349.611a13.12,13.12,0,0,1-6.612-1.678,12.574,12.574,0,0,1-4.683-4.627A12.965,12.965,0,0,1-59.1,57.541a13.983,13.983,0,0,1,1.09-5.426,15.79,15.79,0,0,1,3.051-4.723A14.869,14.869,0,0,1-50.38,44.05a13.015,13.015,0,0,1,5.627-1.235,13.137,13.137,0,0,1,6.836,1.805,13.868,13.868,0,0,1,4.842,4.755,12.15,12.15,0,0,1,1.8,6.452,16.069,16.069,0,0,1-1.664,7.2,13.343,13.343,0,0,1-4.938,5.448A15.029,15.029,0,0,1-46.067,70.553Zm1.3-2.228a7.4,7.4,0,0,0,3.338-.728,5.259,5.259,0,0,0,2.31-2.3,10.151,10.151,0,0,0,1.039-3.555,34.561,34.561,0,0,0,.274-4.382,17.749,17.749,0,0,0-1-6,11.629,11.629,0,0,0-2.784-4.529A5.857,5.857,0,0,0-45.8,45.089a7.09,7.09,0,0,0-2.641.469,5.3,5.3,0,0,0-2.141,1.658A7.83,7.83,0,0,0-52.2,51.007a30.3,30.3,0,0,0-.392,5.029,17.266,17.266,0,0,0,1.019,5.911,12.38,12.38,0,0,0,2.784,4.6A5.522,5.522,0,0,0-44.763,68.324Zm28,19.822q-5.7,0-8.981-2.028a6.2,6.2,0,0,1-3.279-5.5,7.472,7.472,0,0,1,.492-2.909,5.175,5.175,0,0,1,1.762-2.1q1-.8,2.384-1.882t2.7-2.115l2.847.461a13.627,13.627,0,0,0-3.869,3.312,6.526,6.526,0,0,0-1.176,3.923,5.262,5.262,0,0,0,2.237,4.307,8.819,8.819,0,0,0,5.575,1.736,9.515,9.515,0,0,0,6.117-1.723,8.136,8.136,0,0,0,2.267-2.946A8.665,8.665,0,0,0-6.87,77a2.736,2.736,0,0,0-.887-2.1,6.841,6.841,0,0,0-2.892-1.352A29.811,29.811,0,0,0-16,72.8q-6.221-.52-8.717-1.919a4.41,4.41,0,0,1-2.5-4.046,2.237,2.237,0,0,1,.351-1.19,4.892,4.892,0,0,1,1.209-1.226q1.3-1,2.05-1.571a11.494,11.494,0,0,0,1.183-1.009,4.073,4.073,0,0,0,.716-.976l2.521,1.1a6.352,6.352,0,0,0-2.268,1.307,2.249,2.249,0,0,0-.9,1.48,1.7,1.7,0,0,0,.911,1.416,7.86,7.86,0,0,0,2.808.942q1.9.345,4.854.575,6.241.393,9.2,1.979A4.948,4.948,0,0,1-1.627,74.2a10.472,10.472,0,0,1-1.318,5,17.34,17.34,0,0,1-3.5,4.491A17.839,17.839,0,0,1-11.3,86.938,13.156,13.156,0,0,1-16.764,88.146Zm.8-27.466A4.294,4.294,0,0,0-12.228,58.3a11.453,11.453,0,0,0,1.456-6.057,8.736,8.736,0,0,0-.769-3.691,7.085,7.085,0,0,0-2.021-2.663,4.368,4.368,0,0,0-2.773-.989,3.923,3.923,0,0,0-2.6,1.034,7.319,7.319,0,0,0-1.93,2.712,9.319,9.319,0,0,0-.724,3.73,11.176,11.176,0,0,0,.756,4.181,7.621,7.621,0,0,0,2.049,3.009A4.229,4.229,0,0,0-15.961,60.681Zm-.494,2.437a10.683,10.683,0,0,1-5.172-1.35A11.748,11.748,0,0,1-25.7,58.143a8.6,8.6,0,0,1-1.592-5.04,9.13,9.13,0,0,1,1.656-5.412,11.286,11.286,0,0,1,4.347-3.653,12.894,12.894,0,0,1,5.73-1.314,11.427,11.427,0,0,1,3.4.47q1.511.47,3.129.834a16.571,16.571,0,0,0,2.424.478,20.56,20.56,0,0,0,2.128.1q.84,0,1.923-.1t1.586-.1q.9,0,.9,1.125a2.436,2.436,0,0,1-.712,1.6.918.918,0,0,1-.6.356H-3.1q-1.7,0-2.025.511a3.222,3.222,0,0,0-.187.577,6.135,6.135,0,0,0-.132.923q-.045.565-.045,1.454a12.385,12.385,0,0,1-1.515,6.054,12.446,12.446,0,0,1-4,4.431A9.564,9.564,0,0,1-16.455,63.118ZM12.921,70.6a10.859,10.859,0,0,1-6.145-1.76,11.865,11.865,0,0,1-4.158-4.919,16.67,16.67,0,0,1-1.5-7.251A14.039,14.039,0,0,1,7.563,44.721,11.676,11.676,0,0,1,14,42.834a9.881,9.881,0,0,1,4.66,1.076,8.293,8.293,0,0,1,3.234,2.95,7.874,7.874,0,0,1,1.182,4.291q0,2.127-1.932,2.127H7.922a1.487,1.487,0,0,0-1.263.488A3.228,3.228,0,0,0,6.289,55.6a10.815,10.815,0,0,0,1.247,5.177,9.958,9.958,0,0,0,3.352,3.715,8.376,8.376,0,0,0,4.692,1.379,8.128,8.128,0,0,0,3.459-.724,9.85,9.85,0,0,0,2.888-2.072,2.5,2.5,0,0,1,.4-.378.612.612,0,0,1,.356-.114q.566,0,.566.694a4.506,4.506,0,0,1-.926,2.4,9.964,9.964,0,0,1-2.242,2.486,10.99,10.99,0,0,1-3.222,1.779A11.6,11.6,0,0,1,12.921,70.6ZM8.012,51.059h5.1q1.623,0,2.569-.064a12.382,12.382,0,0,0,1.82-.255.643.643,0,0,0,.442-.5,4.008,4.008,0,0,0-1.338-4.083,5.4,5.4,0,0,0-6.306-.41,7.447,7.447,0,0,0-2.249,2.064,4.2,4.2,0,0,0-.865,2.516Q7.191,51.059,8.012,51.059Zm29.6,19.494a7.054,7.054,0,0,1-5.391-1.988,8.163,8.163,0,0,1-1.875-5.809V47.988a.811.811,0,0,0-.4-.762,3.831,3.831,0,0,0-1.623-.251H27.77q-.356,0-.607-.525a2.373,2.373,0,0,1-.251-1.028.767.767,0,0,1,.155-.364.892.892,0,0,1,.274-.3,23.412,23.412,0,0,0,2.672-1.787q1.3-1,2.432-2.032T34.3,39.152l.635-.57a.92.92,0,0,1,.635-.232,1.333,1.333,0,0,1,.689.165q.278.165.2.741L36.1,42.44a1,1,0,0,0,.338,1,2.23,2.23,0,0,0,1.212.264h7.385q.218,0,.41.424a2.22,2.22,0,0,1,.191.924,4.24,4.24,0,0,1-.21,1.339q-.21.635-.483.635H38.751a4.691,4.691,0,0,0-2.047.292q-.506.292-.506,1.439V61.148a6.793,6.793,0,0,0,1.094,4.14,3.626,3.626,0,0,0,3.08,1.458,9.514,9.514,0,0,0,2.8-.315,8.353,8.353,0,0,0,1.757-.8.521.521,0,0,1,.311-.128.42.42,0,0,1,.4.324,2.007,2.007,0,0,1,.123.718q0,.337-1.155,1.322a12.926,12.926,0,0,1-3,1.833A9.458,9.458,0,0,1,37.609,70.553Zm11.094-.7q-1.276,0-1.276-.776,0-.648,1.468-1.114a9.909,9.909,0,0,0,1.773-.783,1.947,1.947,0,0,0,.86-1.777V33.911A7.984,7.984,0,0,0,51,30.889a2.6,2.6,0,0,0-2.169-1.573q-.611-.128-.611-.93a.767.767,0,0,1,.547-.822q1.1-.319,2.572-.785t2.973-1.01q1.5-.543,2.5-.952a1.521,1.521,0,0,1,.531-.147.466.466,0,0,1,.393.165.622.622,0,0,1,.128.393,5.706,5.706,0,0,1-.132,1.03,19.588,19.588,0,0,0-.241,2.082q-.109,1.417-.128,4.05v12.4a7.941,7.941,0,0,0,.087,1.357,2.175,2.175,0,0,0,.323.819q1-.784,2.447-1.737a17.75,17.75,0,0,1,3.267-1.674,10.4,10.4,0,0,1,3.856-.72,6.885,6.885,0,0,1,5.377,2.438,9.258,9.258,0,0,1,2.157,6.37V65.227a2.123,2.123,0,0,0,.783,1.855,6.587,6.587,0,0,0,1.722.879,4.349,4.349,0,0,1,1.057.452.75.75,0,0,1,.374.662q0,.776-1.313.776a18.43,18.43,0,0,1-2.141-.1q-.772-.1-1.471-.16t-1.921-.064q-1.2,0-1.881.064t-1.41.16a17.2,17.2,0,0,1-2.095.1q-1.368,0-1.368-.795a.7.7,0,0,1,.392-.671,7.631,7.631,0,0,1,1.02-.424,5.351,5.351,0,0,0,1.658-.879,2.26,2.26,0,0,0,.738-1.892V52.321a4.98,4.98,0,0,0-.805-2.765,6.253,6.253,0,0,0-2-1.972,4.7,4.7,0,0,0-2.484-.729,11.22,11.22,0,0,0-2.558.342,6.309,6.309,0,0,0-2.388,1.062,3.411,3.411,0,0,0-1.122,1.408,7.148,7.148,0,0,0-.286,2.372V65.364a2.117,2.117,0,0,0,.742,1.768,6.459,6.459,0,0,0,1.617.811,3.542,3.542,0,0,1,1.007.443.78.78,0,0,1,.36.671q0,.795-1.22.795a18.3,18.3,0,0,1-2.081-.1q-.805-.1-1.537-.16t-1.88-.064q-1.085,0-1.884.064t-1.663.16A19.941,19.941,0,0,1,48.7,69.851Zm44.986.747a10.859,10.859,0,0,1-6.145-1.76,11.865,11.865,0,0,1-4.158-4.919,16.67,16.67,0,0,1-1.5-7.251A14.039,14.039,0,0,1,88.33,44.721a11.676,11.676,0,0,1,6.44-1.887,9.881,9.881,0,0,1,4.66,1.076,8.293,8.293,0,0,1,3.234,2.95,7.874,7.874,0,0,1,1.182,4.291q0,2.127-1.932,2.127H88.689a1.487,1.487,0,0,0-1.263.488,3.228,3.228,0,0,0-.369,1.836A10.815,10.815,0,0,0,88.3,60.779a9.958,9.958,0,0,0,3.352,3.715,8.376,8.376,0,0,0,4.692,1.379,8.128,8.128,0,0,0,3.459-.724,9.85,9.85,0,0,0,2.888-2.072,2.5,2.5,0,0,1,.4-.378.612.612,0,0,1,.356-.114q.566,0,.566.694a4.506,4.506,0,0,1-.926,2.4,9.963,9.963,0,0,1-2.242,2.486,10.99,10.99,0,0,1-3.222,1.779A11.6,11.6,0,0,1,93.689,70.6ZM88.78,51.059h5.1q1.623,0,2.569-.064a12.382,12.382,0,0,0,1.82-.255.643.643,0,0,0,.442-.5,4.008,4.008,0,0,0-1.338-4.083,5.4,5.4,0,0,0-6.306-.41,7.447,7.447,0,0,0-2.249,2.064,4.2,4.2,0,0,0-.865,2.516Q87.959,51.059,88.78,51.059Zm19.812,18.792a1.96,1.96,0,0,1-.929-.187.624.624,0,0,1-.347-.588.74.74,0,0,1,.392-.716,5.686,5.686,0,0,1,1.075-.4,4.123,4.123,0,0,0,1.846-.925,2.046,2.046,0,0,0,.56-1.5V51.484a7.281,7.281,0,0,0-.455-2.722,2.442,2.442,0,0,0-1.9-1.447,1.078,1.078,0,0,1-.493-.329.886.886,0,0,1-.219-.613.792.792,0,0,1,.648-.876,27.262,27.262,0,0,0,3.83-1.444q2.041-.934,3.32-1.646a5.542,5.542,0,0,1,.672-.378,1.246,1.246,0,0,1,.471-.142q.412,0,.412.539,0,.228-.032,1.068t-.073,1.87q-.041,1.03-.086,1.941,0,.275.165.275a15.547,15.547,0,0,1,2.265-2.363,12.53,12.53,0,0,1,2.645-1.735,6.2,6.2,0,0,1,2.706-.667,4.144,4.144,0,0,1,2.526.667,2.048,2.048,0,0,1,.889,1.708,4,4,0,0,1-.416,1.654,5.374,5.374,0,0,1-1.083,1.571,1.991,1.991,0,0,1-1.416.667,2.6,2.6,0,0,1-.968-.206q-.512-.206-1.078-.48-.547-.228-1.095-.448a2.838,2.838,0,0,0-1.058-.219,4.468,4.468,0,0,0-2.921,1.131q-1.353,1.131-1.353,4.47v12a1.787,1.787,0,0,0,.856,1.566,9.971,9.971,0,0,0,2.507,1.081,4.592,4.592,0,0,1,1.076.41.737.737,0,0,1,.374.684q0,.776-1.2.776a28.894,28.894,0,0,1-3.283-.16,26.286,26.286,0,0,0-3.028-.16q-1.085,0-1.912.064t-1.718.16A20.744,20.744,0,0,1,108.592,69.851Z" transform="translate(96.329 36.481)" fill="#fff"/>
</svg>
