<svg width="63" height="66" viewBox="0 0 63 66" fill="none" xmlns="http://www.w3.org/2000/svg">
<path d="M62.9937 0H0V66H62.9937V0Z" fill="#B81C22"/>
<path d="M10.9531 31.3288H11.6301C16.102 31.3288 19.7385 27.5187 19.7385 22.8348V15.8555H18.075V22.8348C18.075 26.558 15.1836 29.5875 11.6301 29.5875H10.9531V31.3304V31.3288Z" fill="white"/>
<path d="M10.832 12.7878H27.8355V13.75C27.8355 17.4733 24.944 20.5028 21.3905 20.5028H20.5373V22.2456H21.3905C25.8609 22.2456 29.4989 18.4355 29.4989 13.75V11.0449H10.832V12.7878Z" fill="white"/>
<path d="M37.2162 22.1648H28.1094V20.4219H37.2162V22.1648Z" fill="white"/>
<path d="M47.2143 22.0903H40.4198V31.1835H38.7578V10.8555H40.4198V20.3475H47.4217C49.2037 20.3475 50.8938 20.9419 52.3099 22.0655L52.3306 22.0841L52.8935 22.5621L52.8772 24.7924L51.2952 23.4483C50.1724 22.5606 48.8319 22.0919 47.4217 22.0919H47.2143V22.0903Z" fill="white"/>
<path d="M52.0565 37.221H34.625V35.5293H52.0565V37.221Z" fill="white"/>
<path d="M52.5125 55.012H34.1641V53.3203H52.5125V55.012Z" fill="white"/>
<path d="M44.1404 52.1916H42.5273V38.3105H44.1404V52.1916Z" fill="white"/>
<path d="M31.3844 40.7072H18.7344V39.2266H31.3844V40.7072Z" fill="white"/>
<path d="M30.491 44.4012H18.7461V42.7111H28.8765V37.2171H18.7461V35.5254H30.491V44.4012Z" fill="white"/>
<path d="M25.367 54.1177H23.7539V34.6914H25.367V54.1177Z" fill="white"/>
<path d="M30.3052 48.104H18.8047V46.625H30.3052V48.104Z" fill="white"/>
<path d="M30.3052 51.2736H18.8047V49.793H30.3052V51.2736Z" fill="white"/>
<path d="M10.3887 49.7754L13.9067 52.763C15.3673 54.1924 17.2722 54.9793 19.2734 54.9793H31.2716V53.2892H19.2734C17.6751 53.2892 16.1538 52.6575 14.9895 51.5106L14.9688 51.4888L10.3828 47.5918L10.3902 49.7754H10.3887Z" fill="white"/>
<path d="M10.3828 55.0329C12.2818 54.8095 14.0341 53.869 15.3243 52.3775C16.6382 50.8596 17.361 48.8948 17.361 46.8446V42.707H15.4561C14.8192 43.3821 14.0889 43.9517 13.295 44.3987H15.748V46.8446C15.748 50.1287 13.4579 52.8741 10.3843 53.3289V55.0314L10.3828 55.0329Z" fill="white"/>
<path d="M11.4883 44.4046C13.0895 43.9654 14.5367 42.9923 15.5914 41.6389C16.732 40.1738 17.36 38.3239 17.36 36.4304V34.8691H11.0039V36.5593H15.7469C15.6936 39.3265 13.9546 41.7708 11.4883 42.6415V44.403V44.4046Z" fill="white"/>
</svg>
