<svg height="24.467" viewBox="0 0 198.659 24.467" width="198.659" xmlns="http://www.w3.org/2000/svg"><g transform="translate(-49.479 -136.353)"><g fill="#666464"><path d="m102.636 136.448h2.3l6.705 24.028h-2.619l-2.041-8.3h-6.376l-2.037 8.3h-2.552zm1.109 2.928-2.661 10.851h5.377z" transform="translate(-16.842 -.034)"/><path d="m124.733 150.6a6.321 6.321 0 0 1 1.731-2.113 3.473 3.473 0 0 1 2.092-.7 4.221 4.221 0 0 1 1.706.379v2.034a4.937 4.937 0 0 0 -1.688-.379 3.275 3.275 0 0 0 -2.739 1.533 5.866 5.866 0 0 0 -1.1 3.514v9.714h-2.118v-16.418h1.929z" transform="translate(-26.469 -4.137)"/><path d="m138.593 140.713h1.946v4.892h3.118v1.877h-3.118v11.471a1.462 1.462 0 0 0 .379 1.094 1.566 1.566 0 0 0 1.137.37 3.214 3.214 0 0 0 1.6-.551v2.153a7.022 7.022 0 0 1 -2.222.378 3.084 3.084 0 0 1 -2.171-.775 3.033 3.033 0 0 1 -.844-2.345v-11.8h-2.256v-1.877h2.256z" transform="translate(-31.373 -1.578)"/><path d="m160.594 162.858a8.261 8.261 0 0 1 -5.123 2.1 5.7 5.7 0 0 1 -4.744-2.351 9.756 9.756 0 0 1 -1.812-6.124 9.96 9.96 0 0 1 1.87-6.295 5.749 5.749 0 0 1 4.728-2.4 4.926 4.926 0 0 1 4.065 1.938 7.656 7.656 0 0 1 1.533 4.9v1.068h-9.955v.844a7.523 7.523 0 0 0 1.334 4.841 3.946 3.946 0 0 0 3.127 1.636q2.481 0 4.978-2.739zm-1.791-9.008a4.5 4.5 0 0 0 -1.048-3.062 3.074 3.074 0 0 0 -2.286-1.02 3.639 3.639 0 0 0 -2.466 1.02 5.744 5.744 0 0 0 -1.624 3.062z" transform="translate(-35.988 -4.138)"/><path d="m172.627 150.6a6.306 6.306 0 0 1 1.731-2.113 3.471 3.471 0 0 1 2.092-.7 4.218 4.218 0 0 1 1.7.379v2.034a4.93 4.93 0 0 0 -1.687-.379 3.277 3.277 0 0 0 -2.739 1.533 5.866 5.866 0 0 0 -1.1 3.514v9.714h-2.119v-16.418h1.93z" transform="translate(-43.802 -4.137)"/><path d="m186.959 150.6a6.321 6.321 0 0 1 1.731-2.113 3.471 3.471 0 0 1 2.092-.7 4.223 4.223 0 0 1 1.706.379v2.034a4.937 4.937 0 0 0 -1.688-.379 3.275 3.275 0 0 0 -2.739 1.533 5.862 5.862 0 0 0 -1.1 3.514v9.714h-2.118v-16.418h1.929z" transform="translate(-48.989 -4.137)"/><path d="m198.125 149.268a9.553 9.553 0 0 1 4.427-1.482 4.946 4.946 0 0 1 3.91 1.5 5.969 5.969 0 0 1 1.326 4.07v8.674q0 .949.9.948a1.9 1.9 0 0 0 .93-.258v1.861a4.023 4.023 0 0 1 -1.688.378q-2.239 0-2.308-2.637a6.407 6.407 0 0 1 -1.877 1.973 4.063 4.063 0 0 1 -2.239.664 4.305 4.305 0 0 1 -3.29-1.429 4.951 4.951 0 0 1 -1.327-3.5 4.638 4.638 0 0 1 1.646-3.635q1.644-1.446 7.087-1.963v-1.413a3.114 3.114 0 0 0 -.9-2.3 3.051 3.051 0 0 0 -2.247-.9 7.37 7.37 0 0 0 -4.341 1.912zm7.492 6.838q-4.243.519-5.368 1.459a3.174 3.174 0 0 0 -.3 4.558 2.766 2.766 0 0 0 2.079.854 3.123 3.123 0 0 0 2.577-1.313 5.35 5.35 0 0 0 1.013-3.367z" transform="translate(-53.348 -4.138)"/><path d="m228.1 163.839a7.474 7.474 0 0 1 -3.755 1.119 5.9 5.9 0 0 1 -4.892-2.42 9.469 9.469 0 0 1 -1.877-5.985 9.913 9.913 0 0 1 1.955-6.218 6.089 6.089 0 0 1 5.055-2.549 6.984 6.984 0 0 1 3.514 1.039v2.406a5.4 5.4 0 0 0 -3.359-1.413 4.294 4.294 0 0 0 -3.531 1.877 7.563 7.563 0 0 0 -1.43 4.72 8.084 8.084 0 0 0 1.291 4.546 3.978 3.978 0 0 0 3.479 1.964 6.231 6.231 0 0 0 3.548-1.413z" transform="translate(-60.836 -4.138)"/><path d="m247.654 162.858a8.264 8.264 0 0 1 -5.123 2.1 5.7 5.7 0 0 1 -4.743-2.351 9.752 9.752 0 0 1 -1.812-6.124 9.963 9.963 0 0 1 1.869-6.295 5.747 5.747 0 0 1 4.728-2.4 4.925 4.925 0 0 1 4.065 1.938 7.652 7.652 0 0 1 1.533 4.9v1.068h-9.955v.844a7.519 7.519 0 0 0 1.335 4.841 3.945 3.945 0 0 0 3.127 1.636q2.48 0 4.978-2.739zm-1.792-9.008a4.491 4.491 0 0 0 -1.049-3.062 3.072 3.072 0 0 0 -2.285-1.02 3.641 3.641 0 0 0 -2.466 1.02 5.744 5.744 0 0 0 -1.625 3.062z" transform="translate(-67.496 -4.138)"/><path d="m265.69 136.448h2.342v10.438h8.457v-10.438h2.342v24.028h-2.342v-11.558h-8.457v11.558h-2.342z" transform="translate(-78.25 -.034)"/><path d="m295.483 147.785a5.489 5.489 0 0 1 4.517 2.351 9.949 9.949 0 0 1 1.808 6.226 12.406 12.406 0 0 1 -.715 4.229 6.942 6.942 0 0 1 -2.213 3.178 5.439 5.439 0 0 1 -3.479 1.189 5.368 5.368 0 0 1 -4.642-2.429 10.361 10.361 0 0 1 -1.7-6.08 11.048 11.048 0 0 1 1.068-5.029 6.07 6.07 0 0 1 2.61-2.877 6.361 6.361 0 0 1 2.747-.758m.147 2.033a3.54 3.54 0 0 0 -3.245 1.826 9.71 9.71 0 0 0 -1.087 4.978 8.831 8.831 0 0 0 1.07 4.53 3.324 3.324 0 0 0 3 1.826 3.545 3.545 0 0 0 3.011-1.7 8.64 8.64 0 0 0 1.182-4.952 8.507 8.507 0 0 0 -1.156-4.806 3.329 3.329 0 0 0 -2.779-1.7" transform="translate(-86.707 -4.137)"/><path d="m321.065 150.525a5.2 5.2 0 0 1 1.653-2.058 3.863 3.863 0 0 1 2.256-.68 3.594 3.594 0 0 1 2.92 1.249 4.978 4.978 0 0 1 1.042 3.3v12.246h-2.17v-12.26a2.66 2.66 0 0 0 -.629-1.863 2.042 2.042 0 0 0 -1.576-.69 2.847 2.847 0 0 0 -2.333 1.311 4.852 4.852 0 0 0 -.973 2.966v10.536h-2.17v-12.249a2.884 2.884 0 0 0 -.526-1.886 1.959 1.959 0 0 0 -1.593-.629 2.874 2.874 0 0 0 -2.412 1.3 5.4 5.4 0 0 0 -.947 3.264v10.2h-2.118v-16.417h1.894l.225 2.1a5.243 5.243 0 0 1 1.662-1.861 3.918 3.918 0 0 1 2.179-.62 3.66 3.66 0 0 1 2.265.68 4.044 4.044 0 0 1 1.352 2.058" transform="translate(-94.825 -4.138)"/><path d="m353.382 162.858a8.261 8.261 0 0 1 -5.123 2.1 5.706 5.706 0 0 1 -4.744-2.351 9.756 9.756 0 0 1 -1.811-6.124 9.963 9.963 0 0 1 1.869-6.295 5.748 5.748 0 0 1 4.728-2.4 4.924 4.924 0 0 1 4.065 1.938 7.653 7.653 0 0 1 1.533 4.9v1.068h-9.955v.844a7.519 7.519 0 0 0 1.335 4.841 3.946 3.946 0 0 0 3.127 1.636q2.479 0 4.977-2.739zm-1.791-9.008a4.494 4.494 0 0 0 -1.048-3.062 3.074 3.074 0 0 0 -2.286-1.02 3.64 3.64 0 0 0 -2.466 1.02 5.744 5.744 0 0 0 -1.624 3.062z" transform="translate(-105.76 -4.138)"/></g><path d="m49.479 160.536h24.183v-24.183h-24.183zm22.672-12.86h-4.018v-9.812h4.019zm-11.151 5.67h-10.01v-4.16h10.01zm-.878-5.671h-8.068l3.933-7.937zm-3.407-9.812h4.285v8.226zm5.8 0h4.111v9.812h-4.115zm-7.281 0-4.239 8.554v-8.554zm-4.239 16.993h10.005v4.167h-10.009zm11.52-5.671h9.641v9.838h-9.645z" fill="#e60012"/></g></svg>