<svg xmlns="http://www.w3.org/2000/svg" width="205.496" height="50" viewBox="0 0 205.496 50"><g transform="translate(0 165.595)"><path d="M43.83-143.523h-.048a2.73,2.73,0,0,0-2.441,1.578,2.813,2.813,0,0,0-.279,1.226v2.749a.724.724,0,0,1-.332.608l-13.577,8.742a.724.724,0,0,1-.738.027.722.722,0,0,1-.377-.635v-6.067a.724.724,0,0,1,.332-.609l18.72-12.05a.463.463,0,0,1,.048-.029,2.438,2.438,0,0,0,.33-.216,2.238,2.238,0,0,0,.861-1.769,2.283,2.283,0,0,0-1-1.87L24.419-165.3a2.394,2.394,0,0,0-2.171-.065,2.249,2.249,0,0,0-.357.228.566.566,0,0,1-.053.037L.952-151.651A2.213,2.213,0,0,0,0-149.874l0,.056c0,.016,0,.027,0,.044v26.41a2.782,2.782,0,0,0,2.753,2.8,2.782,2.782,0,0,0,2.753-2.8v-25.082a.723.723,0,0,1,.332-.609l17.054-10.98a.723.723,0,0,1,.783,0l14.682,9.453a.724.724,0,0,1,.332.609.724.724,0,0,1-.332.609l-14.743,9.493a.726.726,0,0,1-.783,0l-11.1-7.148a2.406,2.406,0,0,0-1.305-.385A2.406,2.406,0,0,0,8.393-146.3a2.4,2.4,0,0,0-.329,1.818,2.4,2.4,0,0,0,1.052,1.52L20.2-135.823a.72.72,0,0,1,.332.608V-118.4a2.783,2.783,0,0,0,2.753,2.808,2.783,2.783,0,0,0,2.753-2.808v-3.358a.726.726,0,0,1,.332-.609l13.578-8.742a.724.724,0,0,1,.738-.027.727.727,0,0,1,.377.636v7.138a2.825,2.825,0,0,0,.28,1.226,2.708,2.708,0,0,0,2.422,1.576l.058,0a2.788,2.788,0,0,0,2.746-2.8v-17.352A2.786,2.786,0,0,0,43.83-143.523Z" fill="#fff"/><path d="M91.227-123.983a1.74,1.74,0,0,1-1.758-1.628V-140a3.579,3.579,0,0,1,3.587-3.728h7.893a3.6,3.6,0,0,1,3.728,3.615v4.51a3.621,3.621,0,0,1-3.5,3.558H95.091a1.637,1.637,0,0,1-1.643-1.628,1.637,1.637,0,0,1,1.643-1.628h5.769c.156,0,.39,0,.39-.425v-4.329c0-.315-.125-.416-.39-.416H93.229c-.263,0-.36.295-.36.472v14.386A1.637,1.637,0,0,1,91.227-123.983Z" transform="translate(-27.585 -6.742)" fill="#fff"/><path d="M289.743-125.165h-7.317c-.2,0-.386-.257-.386-.552v-.372l5.538-.932a4.553,4.553,0,0,0,3.778-4.244v-1.38a3.894,3.894,0,0,0-3.6-3.776h-5.32a3.742,3.742,0,0,0-3.753,3.9v6.591c0,2.581,1.4,4.121,3.753,4.121h7.3a1.677,1.677,0,0,0,1.676-1.675A1.679,1.679,0,0,0,289.743-125.165Zm-7.7-7.359c0-.36.127-.542.478-.542H287.6a.4.4,0,0,1,.4.423v1.36c0,.244-.163.761-.975.956l-4.99.84v-3.037Z" transform="translate(-85.924 -8.994)" fill="#fff"/><path d="M187.834-125.165h-7.316c-.2,0-.385-.257-.385-.552v-.372l5.538-.932a4.552,4.552,0,0,0,3.778-4.244v-1.38a3.894,3.894,0,0,0-3.6-3.776h-5.319a3.743,3.743,0,0,0-3.753,3.9v6.591c0,2.581,1.4,4.121,3.753,4.121h7.3a1.676,1.676,0,0,0,1.676-1.675A1.678,1.678,0,0,0,187.834-125.165Zm-7.7-7.359c0-.36.127-.542.477-.542h5.083a.4.4,0,0,1,.4.423v1.36c0,.244-.163.761-.974.956l-4.989.84Z" transform="translate(-54.504 -8.994)" fill="#fff"/><path d="M124.5-125.165h-7.314c-.2,0-.387-.257-.387-.552v-.372l5.539-.932a4.552,4.552,0,0,0,3.777-4.244v-1.38a3.894,3.894,0,0,0-3.6-3.776H117.2a3.742,3.742,0,0,0-3.753,3.9v6.591c0,2.581,1.4,4.121,3.753,4.121h7.3a1.676,1.676,0,0,0,1.677-1.675A1.678,1.678,0,0,0,124.5-125.165Zm-7.7-7.359c0-.36.127-.542.478-.542h5.083a.394.394,0,0,1,.4.423v1.36c0,.244-.163.761-.974.956l-4.991.84Z" transform="translate(-34.977 -8.994)" fill="#fff"/><path d="M135.984-133.067h6.72c.2,0,.385.257.385.552v.371l-5.538.932a4.553,4.553,0,0,0-3.778,4.244v1.379a3.893,3.893,0,0,0,3.594,3.775h5.32a3.741,3.741,0,0,0,3.754-3.893V-132.3c0-2.58-1.4-4.123-3.754-4.123h-6.7a1.677,1.677,0,0,0-1.676,1.676A1.677,1.677,0,0,0,135.984-133.067Zm7.106,7.361c0,.359-.126.54-.477.54h-5.083a.394.394,0,0,1-.4-.423v-1.36c0-.244.164-.761.974-.956l4.989-.839v3.038Z" transform="translate(-41.245 -8.994)" fill="#fff"/><path d="M159.451-133.037h6.931a1.669,1.669,0,0,0,1.676-1.66,1.668,1.668,0,0,0-1.676-1.659h-6.931a3.751,3.751,0,0,0-3.987,3.764v6.711a3.8,3.8,0,0,0,3.987,4.134l6.931,0a1.668,1.668,0,0,0,1.676-1.66,1.667,1.667,0,0,0-1.676-1.658h-6.931c-.7,0-.633-.287-.633-.812v-6.712C158.818-132.874,158.921-133.037,159.451-133.037Z" transform="translate(-47.932 -9.014)" fill="#fff"/><path d="M221.321-143.725a1.677,1.677,0,0,0-1.676,1.677v6.744h-8.506v-6.744a1.677,1.677,0,0,0-1.676-1.677,1.677,1.677,0,0,0-1.676,1.677v16.266a1.677,1.677,0,0,0,1.676,1.676,1.677,1.677,0,0,0,1.676-1.676v-6.169h8.506v6.169a1.677,1.677,0,0,0,1.676,1.676A1.677,1.677,0,0,0,223-125.782v-16.266A1.678,1.678,0,0,0,221.321-143.725Z" transform="translate(-64.064 -6.742)" fill="#fff"/><path d="M241.633-136.42H236.62a3.792,3.792,0,0,0-3.848,3.858v7a3.935,3.935,0,0,0,3.874,3.791h4.987a3.871,3.871,0,0,0,3.856-3.791v-6.982A3.89,3.89,0,0,0,241.633-136.42Zm.5,10.777c0,.365-.095.519-.5.519h-4.987c-.355,0-.521-.139-.521-.547v-6.874a.476.476,0,0,1,.521-.521h4.987c.364,0,.5.153.5.521Z" transform="translate(-71.767 -8.994)" fill="#fff"/><path d="M265.448-136.568H263.47a2.659,2.659,0,0,0-1.844.649,2.655,2.655,0,0,0-1.845-.649H257.8a3.559,3.559,0,0,0-3.533,3.488v9.627a1.677,1.677,0,0,0,1.676,1.676,1.676,1.676,0,0,0,1.676-1.676v-9.584a.168.168,0,0,1,.182-.179h1.959c.138,0,.178.059.178.179,0,.008,0,4.9,0,4.9a1.677,1.677,0,0,0,1.677,1.676,1.677,1.677,0,0,0,1.676-1.676v-4.9a.174.174,0,0,1,.178-.179h1.977a.158.158,0,0,1,.181.179v9.584a1.678,1.678,0,0,0,1.678,1.676,1.676,1.676,0,0,0,1.676-1.676v-9.627A3.562,3.562,0,0,0,265.448-136.568Z" transform="translate(-78.394 -8.949)" fill="#fff"/></g></svg>