<svg xmlns="http://www.w3.org/2000/svg" viewBox="0 0 61.19 62.68"><defs><style>.cls-1{fill:#564c43;}</style></defs><title>アセット 1</title><g id="レイヤー_2" data-name="レイヤー 2"><g id="文字"><path class="cls-1" d="M7.57,17.39H7.42A5.89,5.89,0,0,0,1.5,23.32V30.9a5.74,5.74,0,0,0,1.73,4.2,5.81,5.81,0,0,0,4.19,1.72h.15a5.8,5.8,0,0,0,4.17-1.72,5.74,5.74,0,0,0,1.73-4.2V23.32a5.72,5.72,0,0,0-1.73-4.2A5.67,5.67,0,0,0,7.57,17.39Zm0,16.47H7.42A2.51,2.51,0,0,1,4.9,31.31V22.87a2.39,2.39,0,0,1,.72-1.77,2.43,2.43,0,0,1,1.8-.74h.15a2.38,2.38,0,0,1,1.77.74,2.4,2.4,0,0,1,.75,1.77v8.44a2.42,2.42,0,0,1-.75,1.8A2.39,2.39,0,0,1,7.57,33.86Z"/><path class="cls-1" d="M18.87,29l2,.14a4.71,4.71,0,0,0,.92,0,5.81,5.81,0,0,0,5.71-5.75V23A4.87,4.87,0,0,0,26,19.31a5.57,5.57,0,0,0-3.76-1.45l-6.75.08V36.35h3.4Zm2.9-2.82a3.39,3.39,0,0,1-.78,0L18.87,26V20.89l3.37-.06A2.13,2.13,0,0,1,24.15,23v.43A2.85,2.85,0,0,1,21.77,26.18Z"/><polygon class="cls-1" points="32.97 36.35 36.47 36.35 36.47 20.82 40.69 20.82 40.69 17.86 28.75 17.86 28.75 20.82 32.97 20.82 32.97 36.35"/><polygon class="cls-1" points="10.04 45.28 4.9 45.28 4.9 37.79 1.5 37.79 1.5 56.28 4.9 56.28 4.9 48.23 10.04 48.23 10.04 56.28 13.42 56.28 13.42 37.79 10.04 37.79 10.04 45.28"/><path class="cls-1" d="M21.86,37.33h-.15a5.87,5.87,0,0,0-5.92,5.92v7.58A5.74,5.74,0,0,0,17.52,55a5.83,5.83,0,0,0,4.19,1.72h.15A5.82,5.82,0,0,0,26,55a5.76,5.76,0,0,0,1.71-4.2V43.25a5.86,5.86,0,0,0-5.89-5.92Zm0,16.46h-.15a2.49,2.49,0,0,1-2.52-2.55V42.81A2.43,2.43,0,0,1,19.91,41a2.48,2.48,0,0,1,1.8-.74h.15a2.54,2.54,0,0,1,2.52,2.52v8.43a2.46,2.46,0,0,1-.75,1.81A2.43,2.43,0,0,1,21.86,53.79Z"/><polygon class="cls-1" points="37.97 46.9 37.31 49.31 36.64 46.85 33.69 37.79 30 37.79 30 56.28 33.4 56.28 33.4 47.54 35.79 54.63 38.82 54.63 41.21 47.5 41.21 56.28 44.61 56.28 44.61 37.79 40.92 37.79 37.97 46.9"/><polygon class="cls-1" points="58.26 40.76 58.26 37.82 46.96 37.79 46.96 56.28 58.26 56.28 58.26 53.32 50.36 53.32 50.36 48.11 57.55 48.11 57.55 45.18 50.36 45.18 50.36 40.76 58.26 40.76"/><polygon class="cls-1" points="20.02 2.23 0 15.58 61.19 15.58 20.02 2.23"/><rect class="cls-1" x="46.73" width="5" height="12.79"/><path class="cls-1" d="M.92,61.66V58.05h.76v3.09H3.31v.52Z"/><path class="cls-1" d="M3.93,58.53v-.6h.72v.6Zm0,3.13V59h.72v2.68Z"/><path class="cls-1" d="M5.53,61.66V59.44H5.16V59h.37v-.19c0-.69.33-1,1-1a2.14,2.14,0,0,1,.65.1v.48a1.31,1.31,0,0,0-.55-.12c-.24,0-.37.18-.37.55V59h.68v.46H6.25v2.22Z"/><path class="cls-1" d="M9.6,61.57a3.49,3.49,0,0,1-1,.15,1.44,1.44,0,0,1-1-.38,1.39,1.39,0,0,1-.39-1,1.42,1.42,0,0,1,.35-1,1.21,1.21,0,0,1,.94-.38,1,1,0,0,1,.87.37,2.13,2.13,0,0,1,.26,1.18H7.94a.75.75,0,0,0,.84.76,2.23,2.23,0,0,0,.82-.17ZM7.93,60.05h1c0-.45-.14-.68-.44-.68S8,59.6,7.93,60.05Z"/><path class="cls-1" d="M10.38,61.58V61a2.47,2.47,0,0,0,.91.23c.3,0,.45-.1.45-.31s-.12-.23-.37-.34l-.24-.09a1.55,1.55,0,0,1-.57-.35.61.61,0,0,1-.17-.46.67.67,0,0,1,.29-.59,1.35,1.35,0,0,1,.81-.21,3.47,3.47,0,0,1,.78.1v.51a2.1,2.1,0,0,0-.72-.16c-.29,0-.45.1-.45.29s.11.22.33.3l.21.08a2,2,0,0,1,.65.36.61.61,0,0,1,.19.47.74.74,0,0,1-.31.62,1.37,1.37,0,0,1-.82.23A3.61,3.61,0,0,1,10.38,61.58Z"/><path class="cls-1" d="M14.55,61.64a1.31,1.31,0,0,1-.41.08c-.62,0-.94-.29-.94-.88v-1.4h-.3V59h.3v-.45l.72-.08V59h.57v.46h-.57v1.31c0,.32.13.49.41.49a.69.69,0,0,0,.22,0Z"/><path class="cls-1" d="M15.3,62.62l.61-1-1-2.68h.77l.66,1.79L17.14,59h.55L16,62.62Z"/><path class="cls-1" d="M18.1,61.66V57.81h.72v3.85Z"/><path class="cls-1" d="M21.7,61.57a3.42,3.42,0,0,1-1,.15,1.46,1.46,0,0,1-1.06-.38,1.58,1.58,0,0,1,0-2,1.18,1.18,0,0,1,.94-.38,1,1,0,0,1,.85.37,2,2,0,0,1,.27,1.18H20.05a.74.74,0,0,0,.83.76,2.19,2.19,0,0,0,.82-.17ZM20,60.05h1c0-.45-.15-.68-.45-.68S20.09,59.6,20,60.05Z"/><path class="cls-1" d="M25.68,61.66v-.51a1,1,0,0,1-1.63.22,1.59,1.59,0,0,1-.28-1,1.7,1.7,0,0,1,.31-1.07,1,1,0,0,1,.84-.4,1.07,1.07,0,0,1,.76.33V57.81h.72v3.85Zm0-2a.76.76,0,0,0-.56-.29.5.5,0,0,0-.43.25,1.41,1.41,0,0,0-.15.69c0,.55.17.82.52.82a.79.79,0,0,0,.62-.41Z"/><path class="cls-1" d="M29.38,61.57a3.53,3.53,0,0,1-1,.15,1.5,1.5,0,0,1-1.07-.38,1.42,1.42,0,0,1-.38-1,1.35,1.35,0,0,1,.36-1,1.17,1.17,0,0,1,.93-.38,1,1,0,0,1,.86.37,2,2,0,0,1,.27,1.18H27.72a.75.75,0,0,0,.84.76,2.23,2.23,0,0,0,.82-.17Zm-1.67-1.52h1c0-.45-.14-.68-.44-.68S27.75,59.6,27.71,60.05Z"/><path class="cls-1" d="M30,61.58V61a2.51,2.51,0,0,0,.92.23c.3,0,.44-.1.44-.31s-.12-.23-.36-.34l-.25-.09a1.64,1.64,0,0,1-.57-.35.65.65,0,0,1-.16-.46.7.7,0,0,1,.29-.59,1.35,1.35,0,0,1,.81-.21,3.46,3.46,0,0,1,.77.1v.51a2.05,2.05,0,0,0-.71-.16c-.3,0-.45.1-.45.29s.11.22.33.3l.21.08a2.38,2.38,0,0,1,.66.36.68.68,0,0,1,.17.47.76.76,0,0,1-.3.62,1.42,1.42,0,0,1-.82.23A3.74,3.74,0,0,1,30,61.58Z"/><path class="cls-1" d="M32.75,58.53v-.6h.72v.6Zm0,3.13V59h.72v2.68Z"/><path class="cls-1" d="M34.29,62.49l.06-.52a2.16,2.16,0,0,0,.85.21.81.81,0,0,0,.58-.18.78.78,0,0,0,.17-.56v-.36a.88.88,0,0,1-.87.58.9.9,0,0,1-.75-.36,1.49,1.49,0,0,1-.29-1,1.59,1.59,0,0,1,.32-1,1,1,0,0,1,.83-.39,1.06,1.06,0,0,1,.76.33L36,59h.65v2a4.51,4.51,0,0,1-.07.89,1,1,0,0,1-.3.46,1.52,1.52,0,0,1-1,.31A3,3,0,0,1,34.29,62.49ZM36,60.66v-1a.72.72,0,0,0-.54-.3.48.48,0,0,0-.43.25,1.21,1.21,0,0,0-.17.67q0,.78.51.78A.77.77,0,0,0,36,60.66Z"/><path class="cls-1" d="M37.37,61.66V59h.72v.51a1,1,0,0,1,.91-.57.74.74,0,0,1,.56.23.86.86,0,0,1,.2.62v1.89h-.71V60c0-.31-.1-.46-.3-.46s-.45.17-.66.49v1.68Z"/><path class="cls-1" d="M42.16,61.66V59.44h-.37V59h.37v-.19c0-.69.34-1,1-1a2.14,2.14,0,0,1,.65.1v.48a1.26,1.26,0,0,0-.54-.12c-.25,0-.37.18-.37.55V59h.67v.46h-.67v2.22Z"/><path class="cls-1" d="M45.37,61.37a1.11,1.11,0,0,1-.77.35A.75.75,0,0,1,44,61.5.72.72,0,0,1,43.8,61a.77.77,0,0,1,.36-.68,1.8,1.8,0,0,1,1-.24h.2v-.24c0-.29-.16-.42-.48-.42a1.72,1.72,0,0,0-.85.24v-.5a2.61,2.61,0,0,1,1-.19c.7,0,1.05.28,1.05.83v1.19c0,.21.07.32.2.32h.1v.4a1.3,1.3,0,0,1-.4.07.54.54,0,0,1-.57-.35Zm0-.39v-.54H45.2c-.47,0-.7.15-.7.44a.33.33,0,0,0,.1.25.35.35,0,0,0,.24.1A.83.83,0,0,0,45.37,61Z"/><path class="cls-1" d="M48.86,61.6a3.2,3.2,0,0,1-.83.12,1.28,1.28,0,0,1-1.38-1.4,1.39,1.39,0,0,1,.38-1,1.46,1.46,0,0,1,1.06-.37,2.77,2.77,0,0,1,.75.11v.52a2.3,2.3,0,0,0-.71-.14.61.61,0,0,0-.52.25,1,1,0,0,0-.2.65,1,1,0,0,0,.21.67.7.7,0,0,0,.57.26,1.83,1.83,0,0,0,.67-.14Z"/><path class="cls-1" d="M50.93,61.64a1.31,1.31,0,0,1-.41.08c-.63,0-.94-.29-.94-.88v-1.4h-.31V59h.31v-.45l.72-.08V59h.57v.46H50.3v1.31c0,.32.14.49.41.49a.69.69,0,0,0,.22,0Z"/><path class="cls-1" d="M52.59,61.72a1.31,1.31,0,0,1-1-.38,1.39,1.39,0,0,1-.37-1,1.36,1.36,0,0,1,.37-1,1.33,1.33,0,0,1,1-.38,1.32,1.32,0,0,1,1,.38,1.35,1.35,0,0,1,.38,1,1.37,1.37,0,0,1-.38,1A1.35,1.35,0,0,1,52.59,61.72Zm0-.45c.42,0,.62-.32.62-1a1.26,1.26,0,0,0-.16-.69.52.52,0,0,0-.45-.26.53.53,0,0,0-.45.26,1.57,1.57,0,0,0,0,1.38A.5.5,0,0,0,52.6,61.27Z"/><path class="cls-1" d="M54.46,61.66V59h.72v.51a.91.91,0,0,1,.85-.57.34.34,0,0,1,.14,0v.64a.8.8,0,0,0-.29,0,.79.79,0,0,0-.7.43v1.7Z"/><path class="cls-1" d="M56.84,62.62l.6-1-1-2.68h.78l.66,1.79L58.67,59h.56l-1.66,3.64Z"/></g></g></svg>