<svg xmlns="http://www.w3.org/2000/svg" xmlns:xlink="http://www.w3.org/1999/xlink" width="122" height="91.769" viewBox="0 0 122 91.769"><defs><clipPath id="a"><rect width="122" height="91.769" fill="none"/></clipPath></defs><path d="M7.6,129.74l-5.972,5.408V129.74H0v12.567H1.627v-6.682l6.086,6.682H9.878l-6.558-6.9,6.428-5.669Z" transform="translate(0 -50.86)" fill="#3f4242"/><g clip-path="url(#a)"><path d="M32.659,142.307l-1.318-3.38H25.809l-1.318,3.38H22.717l5.109-12.567h1.5l5.109,12.567Zm-2.994-7.789c-.472-1.229-1.09-3.073-1.09-3.073s-.618,1.9-1.09,3.088l-1.221,3.118h4.621Z" transform="translate(-8.905 -50.86)" fill="#3f4242"/><path d="M56.627,142.307l-1.969-7.082c-.277-1.014-.716-3.1-.83-3.718-.114.6-.57,2.751-.862,3.779l-2.051,7.021H49.208L45.221,129.74h1.773l2.083,7.159c.325,1.168.716,2.842,1.009,4.01.212-.891.667-2.858.993-4.01L53.1,129.74h1.481l2.034,7.144c.244.891.7,2.751.976,4.01.277-1.214.7-2.934,1.009-4l2.083-7.159h1.773L58.5,142.307Z" transform="translate(-17.727 -50.86)" fill="#3f4242"/><path d="M86.255,142.307l-1.318-3.38H79.405l-1.318,3.38H76.313l5.109-12.567h1.5l5.109,12.567Zm-2.994-7.789c-.472-1.229-1.09-3.073-1.09-3.073s-.619,1.9-1.091,3.088l-1.22,3.118h4.621Z" transform="translate(-29.916 -50.86)" fill="#3f4242"/><path d="M111.642,142.307l-6.086-6.682v6.682h-1.627V129.74h1.627v5.408l5.972-5.408h2.148l-6.428,5.669,6.558,6.9Z" transform="translate(-40.742 -50.86)" fill="#3f4242"/><path d="M137.428,129.74h1.659v8.066c0,2.749-1.984,4.793-5.337,4.793-3.368,0-5.337-2.043-5.337-4.793V129.74h1.659v7.989a3.4,3.4,0,0,0,3.678,3.533,3.34,3.34,0,0,0,3.678-3.533Z" transform="translate(-50.34 -50.86)" fill="#3f4242"/><path d="M156.107,142.306V129.739h3.6c2.522,0,4.263.876,4.263,3.011a2.7,2.7,0,0,1-2.05,2.673,2.986,2.986,0,0,1,2.717,3.119c0,2.319-1.823,3.763-4.751,3.763Zm3.417-7.4c1.758,0,2.8-.645,2.8-2.043S161.249,131,159.605,131h-1.888v3.9Zm.13,6.145c2.115,0,3.271-.86,3.271-2.58s-1.53-2.35-3.124-2.35h-2.083v4.931Z" transform="translate(-61.197 -50.86)" fill="#3f4242"/><path d="M178.182,135.877a6.839,6.839,0,1,1,6.834,6.575,6.485,6.485,0,0,1-6.834-6.575m11.927,0a5.095,5.095,0,1,0-5.094,5.208,4.994,4.994,0,0,0,5.094-5.208" transform="translate(-69.851 -50.683)" fill="#3f4242"/><path d="M108.368,19.206,86.634.687a3.028,3.028,0,0,0-3.8-.032L60.358,19.211A4.78,4.78,0,0,0,58.8,22.626v35.9l-.374,0c-4.265-.016-11-.05-12.073-.076l-.364-.009V22.554a2.4,2.4,0,0,1,.652-1.491L69.04,2.571A1.311,1.311,0,0,0,69.353.84a1.243,1.243,0,0,0-.858-.531,1.262,1.262,0,0,0-.963.274L45.056,19.139A4.776,4.776,0,0,0,43.5,22.554v35.68a2.709,2.709,0,0,0,2.619,2.786H59.9a1.221,1.221,0,0,0,.872-.362,1.27,1.27,0,0,0,.35-.672l.016-.278c.065-.883.118-9.736.153-25.6l0-1.142.671.924C74.113,50.6,80.88,59.842,81.535,60.6l.148.173a1.229,1.229,0,0,0,.823.317H107.28a2.709,2.709,0,0,0,2.618-2.786V22.626a4.932,4.932,0,0,0-1.53-3.421M107.407,58.6H82.917l-.111-.153C69.755,40.511,62.351,30.438,61.4,29.315l-.086-.1,0-.134c-.007-.411-.012-4.249-.015-6.453a2.4,2.4,0,0,1,.653-1.493l22.5-18.583L84.5,2.53a.657.657,0,0,1,.39-.018l.072.022L106.751,21.1a2.5,2.5,0,0,1,.656,1.524Z" transform="translate(-17.052 0)" fill="#3f4242"/></g></svg>