<?xml version="1.0" encoding="UTF-8"?>
<svg id="ZENSHOO" xmlns="http://www.w3.org/2000/svg" version="1.1" viewBox="0 0 253.6 40">
  <!-- Generator: Adobe Illustrator 29.1.0, SVG Export Plug-In . SVG Version: 2.1.0 Build 142)  -->
  <defs>
    <style>
      .st0 {
        fill: #231815;
      }
    </style>
  </defs>
  <g>
    <g>
      <path class="st0" d="M38.8,13.9h1.2V2.8c0-1.5-1.2-2.8-2.8-2.8H.6v1.2h36.7c.9,0,1.6.7,1.6,1.6v11.1h0Z"/>
      <path class="st0" d="M2.8,40h36.6v-1.2H2.8c-.9,0-1.6-.7-1.6-1.6v-11.1H0v11.1c0,1.5,1.2,2.8,2.8,2.8h0Z"/>
    </g>
    <polygon class="st0" points="11.7 29.1 29.1 11.7 28.3 10.9 10.9 28.3 11.7 29.1"/>
  </g>
  <g>
    <path class="st0" d="M61.5,26.5l8.4-12.4h0c0,0-7.7,0-7.7,0v-1.7h10.3v1.2l-8.4,12.3h0c0,0,8.5,0,8.5,0v1.7h-11.1v-1.2Z"/>
    <path class="st0" d="M99.7,20.5h-5.9v5.5h6.6v1.7h-8.6v-15.2h8.2v1.7h-6.3v4.8h5.9v1.6h0Z"/>
    <path class="st0" d="M119.7,27.6v-15.2h2.2l4.9,7.7c1.1,1.8,2,3.4,2.7,4.9h0c-.2-2-.2-3.9-.2-6.3v-6.4h1.9v15.2h-2l-4.8-7.7c-1.1-1.7-2.1-3.4-2.8-5.1h0c.1,1.9.1,3.8.1,6.3v6.5h-1.8Z"/>
    <path class="st0" d="M150.8,25.2c.9.6,2.2,1,3.5,1,2,0,3.2-1.1,3.2-2.6s-.8-2.2-2.9-3c-2.5-.9-4-2.2-4-4.3s2-4.1,4.9-4.1,2.7.4,3.3.8l-.5,1.6c-.5-.3-1.5-.7-2.9-.7-2.1,0-2.9,1.2-2.9,2.3s.9,2.1,3,2.9c2.6,1,3.9,2.2,3.9,4.5s-1.7,4.4-5.3,4.4-3.1-.5-3.9-1l.5-1.7Z"/>
    <path class="st0" d="M180.6,12.4v6.4h7.4v-6.4h2v15.2h-2v-7.2h-7.4v7.2h-2v-15.2h2Z"/>
    <path class="st0" d="M221.8,19.9c0,5.2-3.2,8-7.1,8s-6.9-3.1-6.9-7.8,3-8,7.1-8c4.2,0,6.9,3.2,6.9,7.7ZM210,20.1c0,3.3,1.8,6.2,4.9,6.2s4.9-2.9,4.9-6.3-1.6-6.2-4.9-6.2-4.9,3-4.9,6.4Z"/>
    <path class="st0" d="M253.6,19.9c0,5.2-3.2,8-7.1,8s-6.9-3.1-6.9-7.8,3-8,7.1-8c4.2,0,6.9,3.2,6.9,7.7ZM241.7,20.1c0,3.3,1.8,6.2,4.9,6.2s4.9-2.9,4.9-6.3-1.6-6.2-4.9-6.2-4.9,3-4.9,6.4Z"/>
  </g>
</svg>