  <svg class="header__logo" width="431" height="82" xmlns="http://www.w3.org/2000/svg"><g fill="none" fill-rule="evenodd"><g fill="#FEFEFE" fill-rule="nonzero"><path d="M418.3 53.096c3.85 0 6.893 1.226 9.13 3.679 2.22 2.435 3.33 5.81 3.33 10.124l-.026 1.424h-18.745c.16 2.148.86 3.858 2.094 5.129 1.236 1.253 2.82 1.88 4.754 1.88 1.504 0 2.748-.358 3.733-1.074.967-.716 2.068-2.041 3.303-3.975l5.103 2.847c-.788 1.343-1.62 2.493-2.498 3.45-.877.959-1.817 1.746-2.82 2.364a11.308 11.308 0 01-3.25 1.356c-1.163.287-2.425.43-3.786.43-3.903 0-7.036-1.253-9.4-3.76-2.363-2.524-3.544-5.872-3.544-10.044 0-4.136 1.146-7.484 3.437-10.044 2.31-2.524 5.371-3.786 9.185-3.786zm.134 5.451a6.26 6.26 0 00-2.068.336 5.916 5.916 0 00-1.759.967c-.528.42-.98.926-1.356 1.517a7.051 7.051 0 00-.86 2.014h12.14c-.842-3.222-2.874-4.834-6.097-4.834zM365.913 53.82h6.043v2.418c1.163-1.218 2.157-2.041 2.98-2.471.878-.448 1.979-.671 3.304-.671 2.954 0 5.29 1.289 7.009 3.867 1.898-2.578 4.467-3.867 7.708-3.867 5.89 0 8.835 3.571 8.835 10.715v16.167h-6.07V65.449c0-2.506-.304-4.279-.912-5.317-.627-1.057-1.657-1.585-3.089-1.585-1.665 0-2.878.627-3.639 1.88-.76 1.253-1.141 3.268-1.141 6.043v13.508h-6.07V65.53c0-4.655-1.342-6.983-4.028-6.983-1.7 0-2.94.636-3.72 1.907-.778 1.271-1.167 3.276-1.167 6.016v13.508h-6.043V53.82zM347.616 53.096c3.903 0 7.215 1.333 9.936 4.001 2.686 2.668 4.029 5.944 4.029 9.83 0 3.92-1.352 7.205-4.056 9.855-2.721 2.632-6.06 3.948-10.017 3.948-3.92 0-7.206-1.343-9.856-4.028-2.65-2.65-3.974-5.98-3.974-9.99 0-3.778 1.351-6.992 4.055-9.642 2.703-2.65 5.998-3.974 9.883-3.974zm0 5.451c-2.31 0-4.18.77-5.613 2.31-1.432 1.54-2.149 3.527-2.149 5.962 0 2.614.699 4.682 2.095 6.203 1.433 1.54 3.321 2.31 5.667 2.31 2.363 0 4.252-.761 5.666-2.283 1.415-1.522 2.122-3.554 2.122-6.096 0-2.542-.707-4.574-2.122-6.096-1.432-1.54-3.32-2.31-5.666-2.31zM306.913 34.619h6.043v21.377c2.148-1.934 4.52-2.9 7.116-2.9 2.954 0 5.318.957 7.09 2.873 1.504 1.665 2.256 4.324 2.256 7.976v16.033h-6.043V64.509c0-2.095-.371-3.612-1.114-4.552-.743-.94-1.938-1.41-3.585-1.41-2.113 0-3.599.654-4.458 1.96-.842 1.326-1.262 3.6-1.262 6.822v12.649h-6.043V34.619zM289.3 53.096c3.85 0 6.893 1.226 9.13 3.679 2.22 2.435 3.33 5.81 3.33 10.124l-.026 1.424h-18.745c.16 2.148.86 3.858 2.094 5.129 1.236 1.253 2.82 1.88 4.754 1.88 1.504 0 2.748-.358 3.733-1.074.967-.716 2.068-2.041 3.303-3.975l5.103 2.847c-.788 1.343-1.62 2.493-2.498 3.45-.877.959-1.817 1.746-2.82 2.364a11.308 11.308 0 01-3.25 1.356c-1.163.287-2.425.43-3.786.43-3.903 0-7.036-1.253-9.4-3.76-2.363-2.524-3.544-5.872-3.544-10.044 0-4.136 1.146-7.484 3.437-10.044 2.31-2.524 5.371-3.786 9.185-3.786zm.134 5.451a6.26 6.26 0 00-2.068.336 5.916 5.916 0 00-1.759.967c-.528.42-.98.926-1.356 1.517a7.051 7.051 0 00-.86 2.014h12.14c-.842-3.222-2.874-4.834-6.097-4.834zM259.913 53.82h6.043v2.337c1.11-1.164 2.094-1.96 2.954-2.39.877-.448 1.915-.671 3.115-.671 1.593 0 3.258.519 4.995 1.557l-2.766 5.532c-1.146-.823-2.265-1.235-3.357-1.235-3.294 0-4.941 2.489-4.941 7.466v13.562h-6.043V53.82zM206.956 53.82v15.013c0 4.333 1.71 6.499 5.129 6.499 3.42 0 5.13-2.166 5.13-6.5V53.822h6.042v15.146c0 2.095-.26 3.903-.779 5.425-.501 1.36-1.37 2.587-2.605 3.68-2.041 1.772-4.637 2.658-7.788 2.658-3.133 0-5.72-.886-7.761-2.659-1.254-1.092-2.14-2.318-2.659-3.68-.501-1.217-.752-3.025-.752-5.424V53.821h6.043zM194.71 40.742v7.412c-3.617-3.026-7.358-4.538-11.226-4.538-4.26 0-7.85 1.53-10.769 4.592-2.936 3.044-4.404 6.767-4.404 11.172 0 4.35 1.468 8.02 4.404 11.01 2.937 2.99 6.535 4.485 10.796 4.485 2.056 0 3.822-.312 5.3-.935l.313-.139c.86-.358 1.75-.841 2.672-1.45a31.583 31.583 0 002.914-2.202v7.546c-3.58 2.023-7.34 3.035-11.28 3.035-5.925 0-10.983-2.068-15.173-6.204-4.171-4.171-6.257-9.202-6.257-15.093 0-5.281 1.746-9.99 5.237-14.126 4.297-5.066 9.856-7.6 16.677-7.6 3.724 0 7.323 1.012 10.796 3.035zM241.616 53.096c3.903 0 7.215 1.333 9.936 4.001 2.686 2.668 4.029 5.944 4.029 9.83 0 3.92-1.352 7.205-4.056 9.855-2.721 2.632-6.06 3.948-10.017 3.948-3.92 0-7.206-1.343-9.856-4.028-2.65-2.65-3.974-5.98-3.974-9.99 0-3.778 1.351-6.992 4.055-9.642 2.703-2.65 5.998-3.974 9.883-3.974zm0 5.451c-2.31 0-4.18.77-5.613 2.31-1.432 1.54-2.149 3.527-2.149 5.962 0 2.614.699 4.682 2.095 6.203 1.433 1.54 3.321 2.31 5.667 2.31 2.363 0 4.252-.761 5.666-2.283 1.415-1.522 2.122-3.554 2.122-6.096 0-2.542-.707-4.574-2.122-6.096-1.432-1.54-3.32-2.31-5.666-2.31z"/></g><path stroke="#FEFEFE" stroke-width="6" stroke-linejoin="round" d="M4 82V42.316L127.655 4 128 82"/><g fill="#FEFEFE" fill-rule="nonzero"><path d="M272.476 9.436l.18-.072h.054c0-.018.018-.018.018-.018.018 0 .054.036.054.036l-.026.062c-.022.044-.051.085-.154.226l-.66.844c-1.032 1.302-1.812 2.195-3.642 4.25l-.94 1.031c-.759.82-1.049 1.08-1.562 1.471-.252.216-.378.414-.378.63 0 .54.324 1.17.594 1.17.16 0 .277-.085.516-.37l.096-.116c1.494-1.908 3.96-3.348 5.724-3.348.702 0 1.404.144 1.782.36.72.432 1.116 1.242 1.116 2.232 0 1.53-.81 2.772-2.178 3.366-.27-.522-.468-.81-.792-1.116a3.322 3.322 0 00-2.286-.882c-1.116 0-1.944.648-1.944 1.53 0 1.098 1.134 1.8 2.898 1.8 3.258 0 5.652-1.908 5.652-4.482 0-2.016-1.548-3.366-3.852-3.366-1.512 0-2.97.504-4.896 1.71l-.036-.036.52-.534 1.586-1.698c.493-.525.926-.97 1.425-1.475l1.507-1.51c.56-.548.756-.687 1.208-.921.216-.108.306-.216.306-.342 0-.216-.126-.414-.54-.81-.45-.45-.738-.63-.972-.63a.43.43 0 00-.252.09l-.165.138c-.244.193-.366.225-.951.42l-.424.126c-1.165.335-2.562.648-2.978.648-.594 0-1.08-.468-1.35-1.314-.126.18-.162.306-.162.468 0 .378.18.846.504 1.332.342.504.702.756 1.026.756.123 0 .313-.053.591-.17l.631-.271c1.166-.492 2.538-1.026 3.152-1.215zm-.576 12.186l-.412.087a4.18 4.18 0 01-.866.075c-1.26 0-2.052-.432-2.052-1.098 0-.558.45-.918 1.134-.918 1.008 0 1.836.702 2.196 1.854zM253.372 23.026c1.116-.486 1.998-1.062 2.682-1.71 1.242-1.17 1.944-2.808 1.944-4.572 0-.918-.126-1.476-.576-2.394l-.014-.296c-.004-.132-.004-.24-.004-.316 0-.666.054-1.764.126-2.448a24.14 24.14 0 011.926-.072c.93 0 1.638.041 2.428.136l1.188.148c.054.004.086.004.128.004.27 0 .396-.108.396-.306s-.072-.324-.288-.486c-.45-.36-1.17-.666-1.53-.666l-.081.003c-.107.01-.225.051-.585.195l-.24.077c-.214.062-.443.102-.911.147l-1.955.158c-.13.012-.245.025-.458.05.072-.864.198-1.368.396-1.746l.096-.185c.074-.146.084-.193.084-.301 0-.252-.252-.486-.684-.63a6.017 6.017 0 00-1.746-.252c-.486 0-.612.054-.828.324.918.126 1.35.378 1.548.882.144.396.198.918.198 1.998l-1.196.134c-.792.094-1.42.181-2.355.328l-1.057.168c-.792.126-1.188.162-1.548.162-.72 0-1.278-.306-1.746-.918a.602.602 0 00-.09.216c0 .288.324.882.72 1.314.414.432.828.684 1.152.684.108 0 .306-.054.414-.09.414-.216.72-.342 1.17-.486 1.458-.432 3.132-.774 4.536-.9l.014.186c.004.085.004.152.004.174l-.018 1.872c-.468-.252-.666-.306-1.008-.306-1.332 0-2.322 1.17-2.322 2.754 0 1.476.954 2.592 2.214 2.592.414 0 .738-.108 1.152-.36-.45 1.926-1.332 3.078-3.42 4.5l.144.234zm3.312-7.074c0 1.116-.378 1.692-1.152 1.692-.846 0-1.458-.828-1.458-1.962 0-1.098.63-1.944 1.44-1.944.792 0 1.17.72 1.17 2.214zM242.34 12.28V6.52l.391-.144c.425-.165.489-.232.489-.376 0-.163-.211-.246-.859-.314L240.8 5.56l.058.396c.083.68.085 1.605.102 6.324h-2.46c-.6 0-1.2-.06-1.74-.18l.12.72.37-.045a8.995 8.995 0 011.02-.054l2.69-.001.013.498c.007.372.007.69.007.802l-.01 3.045a324.268 324.268 0 01-.09 5.995c0 .22.1.28.38.28l.266-.008c.318-.019.645-.065.754-.112.12-.04.16-.12.18-.28l-.07-2.45c-.05-2.111-.05-3.585-.05-7.77h4.94c.12 0 .24-.08.24-.18 0-.06-.04-.16-.12-.26l-.546-.507a29.084 29.084 0 00-1.194-1.013l-.346.372c-.35.38-.55.62-.954 1.148h-2.02zm-12.46-6.02l.12.68.396-.042c.3-.028.555-.038.984-.038h5.42c.12 0 .2-.06.2-.14 0-.04-.04-.1-.12-.2l-1.62-1.3-.318.31c-.273.274-.442.465-.802.87h-2.76c-.42 0-1.06-.06-1.5-.14zm-.9 2.72l.12.72.337-.045a7.93 7.93 0 01.965-.054l7.338-.001c.06 0 .14-.08.14-.14 0-.02-.02-.08-.08-.14l-.563-.51c-.321-.288-.584-.51-1.077-.91l-.681.747-.439.493h-4.32c-.56 0-1.2-.06-1.74-.16zm.84 2.68l.12.68.621-.04c.244-.013.476-.02.819-.02h5c.08 0 .16-.06.16-.12 0-.04-.02-.12-.08-.18l-.361-.335c-.372-.34-.61-.536-1.139-.925l-.28.298c-.24.262-.39.442-.72.802h-2.58c-.52 0-.92-.04-1.56-.16zm.06 2.74l.1.68.416-.038c.31-.026.547-.038.817-.041L236.42 15c.08 0 .16-.06.16-.14 0-.04-.04-.1-.12-.2l-.498-.476a34.08 34.08 0 00-.942-.844l-1.02 1.2h-2.62l-.44-.005a4.867 4.867 0 01-1.06-.135zm1.48 7.56h3.22v.86c.02.18.12.26.34.26l.24-.009c.219-.014.466-.042.58-.071.16-.04.2-.12.22-.3l-.013-.268c-.031-.784-.047-2.386-.047-3.692v-.56c.4-.28.62-.52.62-.64 0-.04-.02-.08-.04-.14 0-.02-.02-.06-.04-.12l-1.2-.96-.86.96h-2.86l-.541-.39c-.306-.214-.546-.37-.999-.65l.052.627c.016.234.024.433.027.69l-.004 1.428a157.75 157.75 0 01-.075 4.075c.02.2.1.26.34.26l.309-.004c.596-.017.731-.099.731-.376v-.98zm0-4.22h3.22v3.76h-3.22v-3.76zM225.58 21.52c-2.48-.44-3.94-1-5.5-2.18 1.1-1.16 1.78-2.18 2.88-4.44l.308-.095c.506-.162.692-.263.692-.365 0-.08-.06-.16-.2-.28l-.499-.377a38.368 38.368 0 00-.961-.683l-.78.86h-4.9c-.74 0-1.26-.04-1.86-.18l.16.78.258-.05a4.81 4.81 0 01.742-.07h.38c.5 2.08 1.14 3.44 2.28 4.88-1.84 1.8-3.6 2.96-5.96 3.98l.12.3c2.78-.82 4.7-1.84 6.56-3.48 1.34 1.36 2.78 2.32 4.78 3.2.142-.462.269-.687.534-.942l.106-.098c.28-.26.46-.34.84-.42l.02-.34zm-3.96-7.1c-.74 1.96-1.32 2.98-2.36 4.2-1.28-1.26-2.06-2.56-2.48-4.2h4.84zm-14.06-8.18l.14.76.41-.041c.49-.046.774-.059 1.11-.059h4.98c.12 0 .2-.04.2-.12 0-.02-.04-.1-.08-.16l-.557-.489a17.31 17.31 0 00-1.043-.831l-.48.555c-.135.16-.27.325-.48.585h-2.54c-.5 0-1.04-.06-1.66-.2zm-.76 2.56l.18.8.356-.056c.488-.07.819-.084 1.604-.084h6.18c.14 0 .22-.04.22-.12 0-.04-.04-.1-.08-.18l-.41-.336c-.422-.342-.699-.544-1.29-.964L212.58 9h-3.64c-.92 0-1.34-.04-2.14-.2zm1.18 3.4c.6-.1.84-.12 1.52-.12h4.5c.14 0 .22-.06.22-.12 0-.04-.04-.12-.08-.18l-.519-.476c-.299-.266-.548-.47-1.001-.844-.32.38-.66.76-1 1.16h-2.12c-.54 0-.96-.04-1.68-.18l.16.76zm-.02 2.6a9.78 9.78 0 011.287-.099l4.633-.001c.06 0 .14-.06.14-.14 0-.02-.06-.12-.12-.2l-.361-.323c-.372-.327-.61-.517-1.139-.937l-.306.31c-.26.271-.414.455-.714.83h-1.88c-.58 0-1-.04-1.7-.2l.16.76zm1.18 7.06h2.98v.32c0 .18.06.24.3.24.34 0 .78-.06.92-.14.1-.04.12-.1.14-.24l-.045-1.93c-.007-.42-.013-.811-.014-1.06l.003-.65c.003-.142.007-.303.016-.5l.316-.195c.277-.176.324-.233.324-.325 0-.08-.1-.22-.24-.34l-.273-.232a8.397 8.397 0 00-.787-.588l-.76.82h-2.72l-.648-.415c-.23-.143-.454-.274-.832-.485l.024.712c.017.643.028 1.39.033 2.064l-.002 1.795c-.006.515-.021 1.214-.055 2.469.04.22.14.3.44.3.18 0 .5-.02.66-.06.14-.04.2-.08.22-.24v-1.32zm0-4.36h2.98v3.9h-2.98v-3.9zm5-3.72l-.16-.2c1.72-1.74 2.245-3.2 2.278-6.42l.002-.34c0-.5-.02-.74-.08-1.38.7.4.9.54 1.52 1h2.66l.552-.613c.072-.081.15-.173.248-.287l.59.458c.16.127.31.252.53.442.18.18.22.26.22.34 0 .14-.12.24-.74.56v3.64c0 .34.08.36 1.08.36l.285-.005c.42-.02.582-.092.715-.275l.047-.077c.131-.236.237-.655.793-2.843l.26.02-.18 2.58v.08c0 .3.02.32.42.52.14.08.24.24.24.42 0 .56-.54.7-2.7.7l-.416-.002c-.956-.009-1.292-.054-1.504-.178-.234-.144-.322-.353-.337-.772l-.003-.208.016-.536c.004-.204.004-.395.004-.704V6.9h-2.88l-.059.895c-.141 1.828-.37 2.648-.961 3.605-.6.98-1.22 1.58-2.44 2.38zM190.61 10.3l.198-.162c.864.684 1.278.846 2.25.846.576 0 1.098-.072 1.926-.234.396-.774.63-1.44.63-1.836 0-.486-.342-.774-1.278-1.008.306-.162.468-.198.81-.198.414 0 .936.108 1.404.306.45.18.648.378.648.594 0 .126-.072.252-.288.522-.162.216-.378.54-.522.738l-.42.66-.03.042.493-.144c1.135-.343 1.575-.563 2.099-1.008a.505.505 0 01.342-.126c.702 0 1.206.252 1.206.594 0 .216-.234.396-.774.576-1.602.522-2.466.738-3.924 1.026-.283.394-.484.691-.807 1.181l-.567.867c-.197.294-.334.487-.552.796 1.008-.522 1.638-.72 2.322-.72 1.062 0 1.854.72 2.016 1.8l1.764-.882.946-.489c.997-.533 1.268-.767 1.268-1.023 0-.306-.306-.63-.828-.846.198-.09.288-.108.414-.108.792 0 2.034 1.098 2.034 1.818 0 .295-.119.425-.52.528l-.128.03c-1.08.252-3.42 1.152-4.824 1.854l.014.54c.004.229.004.454.004.918l-.004.383c-.015.602-.065 1.015-.14 1.165a.571.571 0 01-.504.342c-.342 0-.576-.234-.576-.54 0-.06 0-.12.005-.19l.013-.116c.072-.522.108-1.134.126-1.926l-.443.248c-.821.469-1.262.788-1.663 1.174-.594.576-.882 1.134-.882 1.674 0 .972.99 1.44 3.006 1.44 1.26 0 2.52-.18 3.618-.504a1.33 1.33 0 01.342-.054c.558 0 1.26.504 1.26.9 0 .234-.198.414-.558.486-.738.144-2.106.252-3.222.252-1.692 0-2.934-.18-3.654-.522-.918-.432-1.332-1.026-1.332-1.908 0-.846.414-1.62 1.296-2.466.468-.45 1.044-.864 2.232-1.602l-.014-.37c-.028-.494-.09-.743-.238-1.052-.162-.324-.522-.54-.918-.54-1.188 0-2.61.954-3.906 2.61l-.168.221c-.228.283-.35.355-.498.355-.288 0-.486-.378-.486-.954 0-.347.015-.39.406-.714l.116-.096c1.278-1.008 2.07-1.944 3.348-3.87l-.348.05c-.306.04-.502.054-.737.057l-.121.001c-1.224 0-1.854-.324-2.682-1.386zM170.885 11.962c-.135 1.213-.27 1.931-.55 2.754l-.08.228c-.357 1.05-.945 1.995-1.512 2.541-.483.441-.546.546-.546.903 0 .777.294 1.491.63 1.491s.861-.525 1.281-1.323c.714-1.302 1.155-3.444 1.155-5.523l-.003-.465a27.962 27.962 0 00-.018-.606h-.357zm2.646-.168l-.004 7.434c-.008.419-.028.976-.08 2.289.039.582.203.841.624 1.01l.183.065c.395.124 1.163.143 4.359.143l.722-.007c1.316-.026 2.735-.115 3.142-.203.63-.126.945-.378.945-.735 0-.261-.166-.456-.498-.54l-.132-.027c-.273-.042-.42-.168-.42-.378v-.063l.273-4.578-.273-.021-.514 2.146c-.394 1.603-.598 2.277-.767 2.6-.21.42-.588.504-2.289.504l-2.94-.021-.271-.02c-.476-.046-.569-.133-.569-.421v-10.92l.614-.233c.246-.1.297-.145.307-.229l.003-.063c0-.231-.252-.294-2.52-.63.063.903.105 2.016.105 2.898zm.42-6.489c1.794.878 3.425 2.045 4.658 3.35l.277.304c.315.357.462.462.588.462.231 0 .42-.42.42-.945 0-.294-.063-.672-.168-.945-.105-.252-.273-.42-.609-.63-1.365-.84-2.52-1.281-5.019-1.89l-.147.294zm8.82 6.657l.273-.168.508.5c2.123 2.13 3.209 3.782 3.209 4.855 0 .378-.168.987-.42 1.491-.21.399-.399.588-.588.588-.19 0-.312-.174-.428-.631l-.034-.146c-.609-2.667-1.302-4.473-2.52-6.489z"/></g></g></svg>