<?xml version="1.0" encoding="UTF-8"?><svg id="_イヤー_2" xmlns="http://www.w3.org/2000/svg" viewBox="0 0 500 39.35"><defs><style>.cls-1{fill:#8c114a;}</style></defs><g id="_イヤー_1-2"><g><polygon class="cls-1" points="136.31 0 119.37 29.34 102.43 0 90.87 0 73.93 29.34 57 0 45.44 0 28.5 29.34 11.56 0 0 0 22.72 39.35 34.28 39.35 51.22 10.01 68.15 39.35 79.72 39.35 96.65 10.01 113.59 39.35 125.15 39.35 142.09 10.01 159.03 39.35 170.59 39.35 147.87 0 136.31 0"/><g><g><polygon class="cls-1" points="222.68 20.34 217.87 9.36 213.53 9.36 208.74 20.3 204.19 9.36 198.44 9.36 207.46 30.88 209.77 30.88 215.68 17.44 221.56 30.88 223.92 30.88 232.93 9.36 227.22 9.36 222.68 20.34"/><polygon class="cls-1" points="246.17 9.36 240.38 9.36 240.38 9.36 238.14 9.36 238.14 13.96 240.38 13.96 240.38 26.03 238.14 26.03 238.14 30.63 240.38 30.63 240.38 30.63 246.17 30.63 246.17 30.63 248.41 30.63 248.41 26.03 246.17 26.03 246.17 13.96 248.41 13.96 248.41 9.36 246.17 9.36 246.17 9.36"/><polygon class="cls-1" points="255.21 13.9 261.65 13.9 261.65 30.63 267.45 30.63 267.45 13.9 273.88 13.9 273.88 9.36 255.21 9.36 255.21 13.9"/><polygon class="cls-1" points="295.06 17.65 286.61 17.65 286.61 9.36 280.81 9.36 280.81 30.63 286.61 30.63 286.61 22.31 295.06 22.31 295.06 30.63 300.86 30.63 300.86 9.36 295.06 9.36 295.06 17.65"/><path class="cls-1" d="M323.23,10.69c-1.87-.88-4.03-1.33-6.41-1.33h-8.61V30.63h8.36c2.45,0,4.66-.44,6.57-1.3,1.95-.88,3.47-2.14,4.54-3.74,1.07-1.61,1.61-3.48,1.61-5.56s-.54-3.89-1.6-5.53c-1.06-1.63-2.56-2.91-4.46-3.81Zm-9.23,3.21h2.24c2.21,0,3.97,.56,5.25,1.66,1.26,1.09,1.87,2.54,1.87,4.44s-.61,3.27-1.86,4.39c-1.26,1.13-2.98,1.7-5.11,1.7h-2.38V13.9Z"/><path class="cls-1" d="M352.19,10.45c-1.8-.89-3.85-1.34-6.09-1.34s-4.43,.47-6.24,1.41c-1.83,.94-3.28,2.28-4.33,3.99-1.04,1.71-1.57,3.56-1.57,5.5s.53,3.88,1.58,5.54c1.04,1.66,2.52,2.98,4.38,3.93,1.84,.94,3.92,1.41,6.16,1.41s4.35-.47,6.17-1.39c1.84-.93,3.31-2.26,4.37-3.95,1.06-1.69,1.6-3.56,1.6-5.54s-.55-3.93-1.64-5.63c-1.08-1.7-2.56-3.02-4.38-3.92Zm.36,9.55c0,1.79-.58,3.21-1.79,4.33-1.22,1.14-2.74,1.69-4.66,1.69-1.26,0-2.4-.26-3.38-.77-.98-.51-1.72-1.2-2.27-2.13-.54-.92-.82-1.97-.82-3.13s.27-2.23,.79-3.14c.53-.91,1.26-1.61,2.25-2.12,1-.52,2.14-.78,3.4-.78s2.4,.26,3.4,.77c.99,.51,1.73,1.21,2.27,2.13,.54,.92,.81,1.98,.81,3.14Z"/><polygon class="cls-1" points="386.51 9.36 384.2 9.36 378.29 22.8 372.41 9.36 370.05 9.36 361.04 30.88 366.76 30.88 371.29 19.9 376.11 30.88 380.44 30.88 385.23 19.94 389.78 30.88 395.53 30.88 386.51 9.36"/></g><g><path class="cls-1" d="M429.95,19.51h-7.17c-.11,0-.2,.09-.2,.2v3.02c0,.11,.09,.2,.2,.2h3.11v2.99c-.71,.26-1.33,.45-1.84,.54-.54,.1-1.12,.15-1.72,.15-2.16,0-3.92-.61-5.24-1.82-1.31-1.2-1.97-2.81-1.97-4.78,0-1.3,.31-2.5,.91-3.56,.6-1.05,1.46-1.87,2.56-2.43,1.1-.57,2.38-.85,3.8-.85,2.3,0,4.68,.61,7.06,1.82,.06,.03,.13,.03,.19,0,.06-.04,.09-.1,.09-.17v-3.53c0-.08-.05-.15-.11-.18-2.44-1.1-4.93-1.66-7.41-1.66-2.15,0-4.12,.45-5.88,1.34-1.76,.89-3.15,2.16-4.13,3.76-.98,1.61-1.48,3.43-1.48,5.41s.49,3.75,1.47,5.34c.97,1.59,2.35,2.84,4.08,3.72,1.73,.88,3.69,1.32,5.82,1.32,1.5,0,2.96-.2,4.35-.59,1.39-.39,2.61-.94,3.6-1.64,.05-.04,.08-.1,.08-.16v-8.24c0-.11-.09-.2-.2-.2Z"/><path class="cls-1" d="M444.67,16.4c-.48-.22-.97-.33-1.46-.33-.77,0-1.46,.09-2.27,.52-.55,.29-1.06,.9-1.66,1.99v-2.06c0-.11-.09-.2-.2-.2h-3.52c-.11,0-.2,.09-.2,.2v13.36c0,.11,.09,.2,.2,.2h3.52c.11,0,.2-.09,.2-.2v-6.1c0-.64,.15-1.28,.46-1.92,.31-.64,.71-1.16,1.22-1.54,.49-.38,.99-.57,1.49-.57,.57,0,1.36,.37,2.34,1.11,.05,.04,.11,.05,.17,.03,.06-.02,.11-.06,.13-.11l1.26-3.08c.03-.08,0-.17-.06-.23-.61-.5-1.16-.87-1.62-1.09Z"/><path class="cls-1" d="M481.2,16.32h-3.52c-.11,0-.2,.09-.2,.2v7.51c-.31,.61-.73,1.08-1.23,1.42-.51,.34-1.04,.51-1.59,.51-.67,0-1.18-.2-1.58-.62-.4-.41-.6-1.03-.6-1.85v-6.97c0-.11-.09-.2-.2-.2h-3.5c-.11,0-.2,.09-.2,.2v8.56c0,1.55,.46,2.83,1.37,3.8,.91,.97,2.12,1.46,3.61,1.46,1.4,0,2.72-.6,3.92-1.79v1.33c0,.11,.09,.2,.2,.2h3.52c.11,0,.2-.09,.2-.2v-13.36c0-.11-.09-.2-.2-.2Z"/><path class="cls-1" d="M498.2,18.04c-1.2-1.31-2.8-1.98-4.76-1.98-1.12,0-2.19,.32-3.2,.95v-.49c0-.11-.09-.2-.2-.2h-3.49c-.11,0-.2,.09-.2,.2v20.1c0,.11,.09,.2,.2,.2h3.52c.11,0,.2-.09,.2-.2v-6.96c.98,.45,1.97,.67,2.94,.67,1.31,0,2.5-.31,3.53-.91,1.04-.61,1.85-1.47,2.41-2.56,.56-1.08,.84-2.33,.84-3.7,0-2.09-.61-3.81-1.8-5.13Zm-2.19,5.24c0,1.2-.32,2.18-.96,2.94-.63,.75-1.45,1.12-2.51,1.12-.7,0-1.46-.23-2.27-.68v-6.55c.56-.4,1.03-.67,1.37-.8,.36-.13,.74-.2,1.12-.2,1.04,0,1.82,.35,2.38,1.08,.57,.73,.85,1.77,.85,3.09Z"/><path class="cls-1" d="M460.42,16.96c-1.16-.59-2.46-.89-3.88-.89s-2.69,.3-3.84,.89c-1.15,.59-2.06,1.43-2.71,2.51-.65,1.07-.97,2.31-.97,3.68s.31,2.67,.92,3.73c.61,1.07,1.52,1.92,2.69,2.54,1.17,.61,2.48,.92,3.91,.92s2.74-.31,3.92-.92c1.19-.62,2.1-1.47,2.71-2.54,.61-1.06,.92-2.32,.92-3.73s-.32-2.59-.96-3.66c-.64-1.08-1.55-1.93-2.71-2.52Zm.17,6.21c0,.76-.16,1.43-.49,2-.32,.56-.81,1.01-1.44,1.34-.64,.33-1.35,.5-2.11,.5s-1.48-.17-2.11-.5c-.62-.33-1.1-.78-1.43-1.34-.32-.57-.49-1.24-.49-2s.17-1.4,.52-1.96c.34-.57,.83-1.01,1.44-1.33,.62-.32,1.31-.48,2.07-.48s1.47,.16,2.09,.48c.62,.32,1.1,.77,1.44,1.33,.34,.57,.51,1.23,.51,1.95Z"/></g></g></g></g></svg>