<?xml version="1.0" encoding="UTF-8"?>
<svg id="_レイヤー_2" data-name="レイヤー_2" xmlns="http://www.w3.org/2000/svg" viewBox="0 0 521.01 96">
  <defs>
    <style>
      .cls-1 {
        fill: #148b6e;
      }

      .cls-2 {
        fill: #182e5a;
      }
    </style>
  </defs>
  <g id="_レイヤー_1-2" data-name="レイヤー_1">
    <g>
      <g>
        <polygon class="cls-2" points="0 96 48.74 96 0 27 0 96"/>
        <polygon class="cls-2" points="109.75 0 61.01 0 109.75 69 109.75 0"/>
        <polygon class="cls-1" points="34.72 0 7.23 0 75.03 96 102.52 96 34.72 0"/>
      </g>
      <g>
        <rect class="cls-2" x="239.18" y="12" width="8.74" height="72"/>
        <path class="cls-2" d="M278.27,84h-8.74V12h8.74v72ZM317.36,12l-31.17,33.74,32.71,38.26h-10.8l-32.5-38.06,30.96-33.94h10.8Z"/>
        <path class="cls-2" d="M341.52,84h-8.74V12h8.74v72ZM380.61,12l-31.17,33.74,32.71,38.26h-10.8l-32.5-38.06,30.96-33.94h10.8Z"/>
        <path class="cls-2" d="M404.78,84h-8.74V12h8.74v72ZM400.87,12h36.31v8.23h-36.31v-8.23ZM400.87,40.8h34.25v8.23h-34.25v-8.23ZM400.87,75.77h36.31v8.23h-36.31v-8.23Z"/>
        <polygon class="cls-2" points="521.01 12 521.01 87.6 466.49 30.41 466.49 84 457.75 84 457.75 8.4 512.26 65.59 512.26 12 521.01 12"/>
        <polygon class="cls-2" points="154.33 8.4 154.33 84 163.07 84 163.07 30.41 163.07 17.57 154.33 8.4"/>
        <polygon class="cls-2" points="208.84 12 208.84 65.59 208.84 78.43 217.58 87.6 217.58 12 208.84 12"/>
        <polygon class="cls-1" points="208.84 65.59 163.07 17.57 163.07 30.41 208.84 78.43 208.84 65.59"/>
      </g>
    </g>
  </g>
</svg>