<svg xmlns="http://www.w3.org/2000/svg" width="120" height="41.239" viewBox="0 0 120 41.239">
  <g id="Group_454" data-name="Group 454" transform="translate(-169.127 -543.27)">
    <g id="Group_449" data-name="Group 449" transform="translate(185.209 543.27)">
      <g id="Group_448" data-name="Group 448" transform="translate(0)">
        <g id="Group_437" data-name="Group 437">
          <path id="Path_580" data-name="Path 580" d="M203.855,549.826l-.036-.089c0-.055.045-.085.172-.115a11.562,11.562,0,0,0,1.46-.461,4.048,4.048,0,0,0,.969-.482h0a.282.282,0,0,1-.081-.061l-.038-.033a3.89,3.89,0,0,1-.393-.42,1.333,1.333,0,0,0-.138-.169.636.636,0,0,0-.137.114,3.943,3.943,0,0,1-1.949.977.1.1,0,0,1-.11-.1v-.043l.052-.047c.052-.016.1-.029.11-.036a3.513,3.513,0,0,0,2.007-1.755c0-.015-.013-.023-.1-.039a.464.464,0,0,1-.408-.347,6.3,6.3,0,0,1-.009-.684,1.316,1.316,0,0,0-.013-.3c-.042-.052-.058-.075-.058-.1s.009-.111.131-.111c.007,0,.659.12.659.336,0,.041-.029.073-.09.135a.6.6,0,0,0-.05.054c0,.029,0,.362,0,.387,0,.058,0,.129.636.129a3.529,3.529,0,0,0,.939-.09.622.622,0,0,0,.268-.492c.012-.077.023-.15.1-.15a.1.1,0,0,1,.1.117.683.683,0,0,0,.071.22c.2.279.232.317.232.4,0,.282-.475.567-1.384.567l-.378,0c.06.033.1.063.1.114,0,.132-.207.178-.209.179a.244.244,0,0,0-.141.125.07.07,0,0,1,.035-.006h1.247a.177.177,0,0,0,.154-.07c.079-.088.115-.128.183-.128.023,0,.028,0,.238.118l.348.185a.209.209,0,0,1,.08.131c0,.1-.093.145-.18.145a.267.267,0,0,0-.2.092,4.635,4.635,0,0,1-.613.6,1.168,1.168,0,0,0-.1.087,5.687,5.687,0,0,0,1.815.277,3.2,3.2,0,0,0,.523-.04.346.346,0,0,1,.076-.016h.067l.022.089a.128.128,0,0,1-.066.106l-.1.07c-.217.156-.244.177-.311.289-.111.178-.135.216-.241.216a6.3,6.3,0,0,1-.868-.142,4.614,4.614,0,0,1-1.277-.472c-.082-.048-.1-.048-.115-.048a.244.244,0,0,0-.122.041,7.729,7.729,0,0,1-2.821.755Zm2.222-1.964a.08.08,0,0,0-.034,0,2.6,2.6,0,0,0,.774.564,2.059,2.059,0,0,0,.595-.578c0,.009-.037.009-.06.009Zm2.858-.726c-.178,0-.225-.128-.331-.41a2.869,2.869,0,0,0-.557-.942c-.062-.086-.088-.122-.088-.173v-.068l.1-.014a2.432,2.432,0,0,1,.528.289,1.941,1.941,0,0,1,.119-.2,1.776,1.776,0,0,0,.125-.215l-4.333.013c-.124,0-.124,0-.137.116-.081.713-.493.749-.574.749a.319.319,0,0,1-.321-.321c0-.139.058-.22.2-.382a1.074,1.074,0,0,0,.279-.737c0-.065,0-.173.1-.173.026,0,.1,0,.224.287.071.143.071.143.149.143h.886a2.453,2.453,0,0,1-.155-.341c-.08-.2-.181-.466-.33-.466-.031,0-.391.014-.422.014-.736,0-.736-.055-.736-.124s.047-.117.152-.117c.047,0,1.884-.17,2.631-.26a6.378,6.378,0,0,0,1.784-.434c.093-.072.126-.094.161-.094a7.271,7.271,0,0,1,.857.526.146.146,0,0,1,.07.119c0,.145-.193.145-.265.145-.026,0-.276-.014-.3-.014-.04,0-.514.043-.64.058.024.018.07.061.16.131.261.2.294.226.294.314s-.1.123-.3.193c-.03.011-.053.018-.063.023a2.854,2.854,0,0,0-.47.329h1.059c.1,0,.133,0,.2-.1l.039-.069c.056-.1.075-.132.132-.132.021,0,.083,0,.439.32.217.188.262.228.262.332,0,.194-.3.194-.462.194a1.4,1.4,0,0,0-.582.237l-.085.053a1.12,1.12,0,0,1,.51.782C209.242,546.964,209.084,547.136,208.935,547.136Zm-1.57-2.043c.082,0,.089,0,.282-.445a2.162,2.162,0,0,0,.142-.466c0-.03,0-.037-.073-.037s-.452.034-.529.042c-.128.006-.257.016-.37.024s-.2.015-.262.017c.03.025.124.1.132.111a.73.73,0,0,1,.252.478.321.321,0,0,1-.173.277Zm-.885,0c-.127-.094-.135-.318-.14-.465a1.49,1.49,0,0,0-.077-.359c-.01-.023-.026-.026-.094-.026-.015,0-.559.015-.85.028a.654.654,0,0,1,.425.552.427.427,0,0,1-.1.27Zm-2.156,1.994a.3.3,0,0,1-.293-.314c0-.148.041-.188.357-.505a.781.781,0,0,0,.209-.282l.027-.084a.564.564,0,0,1,.081-.2l.02-.02.049-.011c.1,0,.145.161.145.48C204.92,547.042,204.424,547.087,204.324,547.087Zm2.562-.7c-.09,0-.118-.04-.223-.188l-.16-.22c-.1-.143-.206-.286-.266-.355a.141.141,0,0,1-.052-.094V545.5l.015-.036.02-.028.061-.01a2.093,2.093,0,0,1,.607.264.407.407,0,0,1,.236.367A.3.3,0,0,1,206.886,546.383Z" transform="translate(-203.461 -543.27)" fill="#fff"/>
        </g>
        <g id="Group_438" data-name="Group 438" transform="translate(9.921 0.274)">
          <path id="Path_581" data-name="Path 581" d="M226.879,550.045l-.035-.1c0-.031,0-.031.182-.252.072-.087.146-.177.169-.209a2.24,2.24,0,0,0,.382-1,.042.042,0,0,0-.044-.026c-.008,0-.1.01-.107.01a.886.886,0,0,1-.786-.99c0-.216.053-.932.74-1.038.14-.02.14-.02.14-.363s0-.355-.073-.355a8.976,8.976,0,0,0-1.225.279c-.043.013-.133.051-.237.1a2.205,2.205,0,0,1-.537.19c-.181,0-.807-.316-.807-.652a.141.141,0,0,1,.081-.135l.123.008c.127.015.333.038.405.038a14.5,14.5,0,0,0,1.9-.238c.353-.061.353-.061.353-.187a4.184,4.184,0,0,0-.1-.938.809.809,0,0,0-.046-.068c-.051-.07-.077-.109-.077-.148,0-.117.156-.117.215-.117.384,0,.652.173.652.42a1.15,1.15,0,0,1-.015.12c-.006.042-.013.082-.013.1,0,.116.186.215.578.381a1.488,1.488,0,0,0,.593.135c.036,0,.133-.009.225-.019s.17-.016.2-.016c.174,0,.469.072.469.342,0,.314-.337.314-.448.314-.076,0-.287-.017-.493-.034s-.378-.03-.443-.03a3.244,3.244,0,0,0-.734.065c-.058.026-.071.15-.071.7a.858.858,0,0,0,.087.432,2.279,2.279,0,0,1,.209.976,2.548,2.548,0,0,1-1.349,2.306Zm.462-3.189c-.131,0-.333.249-.333.58a.444.444,0,0,0,.39.5c.186,0,.214-.293.214-.467a1.3,1.3,0,0,0-.086-.466A.233.233,0,0,0,227.341,546.856Zm.723-1.689a.207.207,0,0,0,.052,0,1.149,1.149,0,0,0,.424-.069,5.184,5.184,0,0,0-.458-.285,1.782,1.782,0,0,0-.024.288c0,.05.006.061.007.062Z" transform="translate(-224.641 -543.855)" fill="#fff"/>
        </g>
        <g id="Group_439" data-name="Group 439" transform="translate(19.412 0.626)">
          <path id="Path_582" data-name="Path 582" d="M247.147,550.078c-.756,0-1.265-.41-1.265-.793a.746.746,0,0,1,.765-.638,1.1,1.1,0,0,1,.856.476c.1.133.129.164.186.164a.989.989,0,0,0,.664-.946,1.044,1.044,0,0,0-1.122-1,2.115,2.115,0,0,0-1.6,1.149c-.151.256-.239.407-.46.407a.261.261,0,0,1-.272-.265c0-.2.08-.383.573-.959a23.026,23.026,0,0,0,1.587-2.114,2.3,2.3,0,0,0,.318-.517c0-.009-.019-.031-.066-.031-.225,0-.609.317-.735.421-.3.245-.41.283-.56.283-.375,0-.616-.482-.616-.554,0-.089.064-.089.236-.089a3.377,3.377,0,0,0,1.065-.248c.441-.192.5-.217.667-.217.289,0,.807.185.807.554,0,.242-.188.37-.529.605a4.629,4.629,0,0,0-1.084,1.351l.116-.042a1.775,1.775,0,0,1,.641-.116,1.6,1.6,0,0,1,1.652,1.532A1.731,1.731,0,0,1,247.147,550.078Zm-.535-1.035a.222.222,0,0,0-.228.179c0,.133.267.263.538.263.043,0,.052-.032.052-.059A.414.414,0,0,0,246.612,549.043Z" transform="translate(-244.904 -544.606)" fill="#fff"/>
        </g>
        <g id="Group_440" data-name="Group 440" transform="translate(27.882 0.056)">
          <path id="Path_583" data-name="Path 583" d="M265.836,549.818c-.156,0-.177-.067-.227-.231-.041-.134-.29-.228-.578-.337l-.063-.025c-.072-.029-.115-.045-.115-.109,0-.033.023-.089.11-.089.048,0,.243.024.341.037.178.02.4.027.489.027.126,0,.195,0,.3-.2a1.222,1.222,0,0,0,.1-.546c0-.295-.051-.388-.068-.4.007.007-.081.083-.122.12l-.067.058a5.22,5.22,0,0,1-2.426,1.2h-.068l-.028-.081c0-.034,0-.058.241-.18a7.263,7.263,0,0,0,2.2-1.681.4.4,0,0,0,.118-.209c0-.036-.052-.137-.088-.137-.015.006-.107.083-.182.146a5.449,5.449,0,0,1-2.2,1.128h-.068l-.028-.081c0-.047,0-.047.348-.251.1-.062.2-.12.238-.143a4.76,4.76,0,0,0,1.505-1.316c0-.039-.068-.143-.123-.143a2.834,2.834,0,0,0-.26.168,5.773,5.773,0,0,1-1.739.691H263.3l-.028-.089c0-.056.041-.081.251-.185a4.9,4.9,0,0,0,1.806-1.324.407.407,0,0,1-.158.013c-.486,0-.729.007-.8.014a1.027,1.027,0,0,1-.155.022.129.129,0,0,1-.1-.056l-.149-.18a.137.137,0,0,1-.044-.085V545.3l.089-.021c.051,0,.275.022.326.028l.276.008c.2.007.4.013.587.013h1.661c.285,0,.288,0,.322-.032.011-.011.038-.044.07-.084.168-.205.239-.278.305-.278a1.562,1.562,0,0,1,.39.257.1.1,0,0,1-.014-.049.268.268,0,0,1,.063-.138l.038-.059a.661.661,0,0,0,.124-.3c0-.018,0-.031-.094-.031h-4.013c-.068,0-.091,0-.117.11-.048.2-.187.785-.587.785a.356.356,0,0,1-.37-.356c0-.187.109-.272.3-.424a1.493,1.493,0,0,0,.46-.684.3.3,0,0,1,.042-.091l.06-.089.054.092a.343.343,0,0,1,.027.163l0,.092c0,.07.016.078.136.078h1.669c.118,0,.129,0,.129-.157a1.414,1.414,0,0,0-.025-.4c0-.013-.012-.034-.021-.06a.534.534,0,0,1-.045-.149.14.14,0,0,1,.159-.138c.008,0,.757.059.757.272,0,.047-.038.09-.125.178-.016.017-.03.03-.037.038a.615.615,0,0,0-.036.234c0,.178.015.178.136.178h1.387c.169,0,.255-.006.362-.143s.153-.174.215-.174c.083,0,.133.037.487.325.1.09.172.148.172.285,0,.259-.211.279-.435.3a1.288,1.288,0,0,0-.566.248c-.124.091-.168.119-.207.119a.112.112,0,0,1-.031,0c.1.092.183.184.183.239,0,.166-.135.166-.322.166h-1.309a.186.186,0,0,0-.059.006,3.81,3.81,0,0,0,.78,1.451c.153,0,.69-.823.728-.939a.493.493,0,0,0,.014-.063c.023-.121.041-.217.121-.217.048,0,.7.432.7.574,0,.121-.141.143-.245.158s-.13.028-.4.24c-.052.039-.188.127-.327.218s-.3.2-.35.234c-.021.013-.044.03-.044.052a4.1,4.1,0,0,0,1.654,1.156.954.954,0,0,1,.243.116l.1.08-.119.037a1.384,1.384,0,0,0-.28.121,1.413,1.413,0,0,0-.225.251.138.138,0,0,1-.121.081,4.369,4.369,0,0,1-1.318-1.066,5.167,5.167,0,0,1-1.169-2.352c-.016-.071-.028-.092-.035-.1s-.067.044-.248.21c-.037.033-.066.056-.1.083a1.5,1.5,0,0,0-.244.209h0a.789.789,0,0,1,.133.087,2.712,2.712,0,0,1,1.058,2.173C266.819,549.283,266.433,549.818,265.836,549.818Z" transform="translate(-262.988 -543.389)" fill="#fff"/>
        </g>
        <g id="Group_441" data-name="Group 441" transform="translate(37.409 0.049)">
          <path id="Path_584" data-name="Path 584" d="M285.735,549.923l-.028-.089v-.024l.03-.05a6.237,6.237,0,0,0,.943-.885,2.831,2.831,0,0,0,.639-1.273c0-.04-.005-.044-.052-.044h-.005c-.212,0-.613,0-.835.014-.017,0-.194.021-.2.021a.139.139,0,0,1-.122-.082l-.128-.154c-.033-.033-.051-.05-.051-.085V547.2l.1-.014c.017,0,.232.014.253.014.284.021.739.035,1,.035.115,0,.128-.016.137-.094a4.955,4.955,0,0,0,.035-.633c0-.158-.018-.158-.136-.158h-.155c-.112,0-.128.008-.407.322-.4.445-.455.445-.495.445h-.067l-.015-.081c0-.022,0-.027.078-.175.037-.072.078-.151.089-.179a4.515,4.515,0,0,0,.545-1.5l-.008-.141c0-.033.014-.11.138-.11.173.068.439.173.537.208a.229.229,0,0,1,.095.149c0,.049-.039.091-.156.194a1.985,1.985,0,0,0-.273.512c0,.031,0,.035.087.035h.909c.218,0,.237-.016.256-.031l.021-.033c.158-.243.229-.317.3-.317s.589.4.589.533c0,.166-.177.166-.363.166h-.788c-.145,0-.164.005-.172.094s-.049.663-.049.719c0,.039,0,.073.122.073h.747c.009,0,.02,0,.053-.039l.027-.036c.209-.286.245-.311.292-.311.084,0,.617.369.617.525,0,.181-.12.181-.568.181H288.28c-.108,0-.108.025-.108.038a3.061,3.061,0,0,0,1.463,1.559l.1.046c.314.149.314.149.314.2,0,.089-.081.089-.152.089a1.209,1.209,0,0,0-.611.228c-.062.068-.1.1-.135.1a2.123,2.123,0,0,1-.676-.72,3.93,3.93,0,0,1-.565-1.409l0-.01a3.443,3.443,0,0,1-2.1,2.252Zm-1.01-.141c-.077,0-.112-.093-.157-.235a.581.581,0,0,0-.277-.259c-.112-.054-.112-.086-.112-.109v-.068l.1-.021.284.029c.3,0,.405-.167.511-.5a13.525,13.525,0,0,0,.236-2.126c0-.1-.028-.116-.157-.116h-.183c-.117,0-.128,0-.158.257a5.2,5.2,0,0,1-1.117,2.764s-.182.175-.259.175h-.068l-.035-.1c0-.023,0-.023.076-.136.062-.093.152-.225.17-.264a8.675,8.675,0,0,0,.747-3.831c0-.207-.03-.207-.108-.207-.037,0-.159.01-.275.019s-.212.017-.239.017a.139.139,0,0,1-.113-.072l-.136-.164a.131.131,0,0,1-.051-.092v-.068l.1-.014c.073,0,.273.013.468.026s.357.023.418.023c.134,0,.137,0,.137-.819a.843.843,0,0,0-.018-.26c-.065-.092-.081-.125-.081-.155a.106.106,0,0,1,.117-.11c.008,0,.736.087.736.293a.331.331,0,0,1-.088.174l-.044.061c-.029.035-.051.06-.051.293,0,.524,0,.524.143.524s.141,0,.184-.044a.912.912,0,0,0,.081-.1c.12-.153.18-.22.242-.22.1,0,.567.333.567.5,0,.188-.167.188-.23.188h-1.046a.171.171,0,0,1,.072.13c0,.048-.042.1-.115.177a.716.716,0,0,0-.053.062,4.672,4.672,0,0,0-.057.542c0,.065,0,.108.129.108h.112c.08,0,.116,0,.159-.052a.6.6,0,0,0,.05-.063c.1-.132.152-.194.214-.194s.518.325.518.462c0,.058-.053.111-.166.209-.026.025-.045.044-.045.228a9.392,9.392,0,0,1-.408,2.55C285.151,549.766,284.767,549.782,284.725,549.782Zm1.517-4.2-.021-.082a.252.252,0,0,1,.055-.118l.026-.078a10.33,10.33,0,0,0,.573-1.648c0-.007-.012-.037-.019-.055a.277.277,0,0,1-.023-.086.106.106,0,0,1,.1-.117c.008,0,.8.168.8.4,0,.063-.069.122-.234.237a1.253,1.253,0,0,0-.3.446c.008.01.043.01.059.01h1.3c.277,0,.3-.014.332-.044.014-.014.039-.049.071-.092.156-.211.223-.286.294-.286.12,0,.61.431.61.574,0,.166-.1.166-.427.166h-2.274c-.155,0-.162.005-.368.291-.108.149-.417.483-.491.483Z" transform="translate(-283.327 -543.374)" fill="#fff"/>
        </g>
        <g id="Group_442" data-name="Group 442" transform="translate(48.012 0.443)">
          <path id="Path_585" data-name="Path 585" d="M308.214,549.92c-.9,0-1.433-.37-1.433-.99,0-.491.3-.733.954-1.263a.235.235,0,0,0,.081-.194c0-.24-.035-.644-.27-.644a1.152,1.152,0,0,0-.8.706c-.075.172-.169.385-.442.385-.292,0-.335-.188-.335-.3,0-.233.2-.459.667-1.007a3.369,3.369,0,0,0,.607-1.035,1.214,1.214,0,0,1-.219.047c-.091.015-.18.028-.213.028a.807.807,0,0,1-.694-.687.1.1,0,0,1,.11-.117.68.68,0,0,1,.243.111l.055.03a1.03,1.03,0,0,0,.435.12c.51,0,.51-.14.51-.263a.508.508,0,0,0-.049-.215c-.006-.008-.027-.029-.05-.052-.088-.09-.127-.135-.127-.184,0-.137.281-.181.378-.181.244,0,.411.11.426.28.025.048.18.06.255.065h0c.072,0,.379.045.379.251,0,.274-.5.47-.863.612-.1.038-.1.039-.247.386a5.57,5.57,0,0,1-.384.767l-.008.015c.039-.015.085-.032.119-.047a.721.721,0,0,1,.3-.062.7.7,0,0,1,.66.47c.008.019.015.035.02.048.072-.091.192-.259.22-.3.235-.327.715-1,1.36-1a.731.731,0,0,1,.729.694c0,.366-.53.6-1,.8-.089.039-.2.084-.331.139-.283.117-.711.293-.794.344s-.087.092-.087.238c0,.032.014.391.014.423,0,.481-.178.582-.328.582-.178,0-.286-.16-.286-.427,0-.054.012-.262.018-.364l0-.054c-.05.01-.6.412-.6.756,0,.278.282.418.841.418a2.16,2.16,0,0,0,.437-.041c.04-.006.127-.025.225-.047a3.257,3.257,0,0,1,.429-.081c.2,0,.412.105.412.307C309.542,549.894,308.436,549.92,308.214,549.92Zm1.444-3.815c-.474,0-1,.831-1.1,1.081.282-.116,1.281-.6,1.281-.938C309.836,546.129,309.739,546.1,309.658,546.1Zm-1.718-1.352c-.018,0-.044.069-.055.123a.764.764,0,0,0,.232-.1h0A1.2,1.2,0,0,0,307.94,544.752Z" transform="translate(-305.964 -544.216)" fill="#fff"/>
        </g>
        <g id="Group_443" data-name="Group 443" transform="translate(56.257 4.97)">
          <path id="Path_586" data-name="Path 586" d="M324.881,555.375c-.189,0-.231-.077-.468-.507a1.92,1.92,0,0,0-.716-.728c-.093-.061-.13-.095-.13-.142s.05-.117.145-.117c.255,0,1.511.365,1.511,1.088A.4.4,0,0,1,324.881,555.375Z" transform="translate(-323.567 -553.881)" fill="#fff"/>
        </g>
        <g id="Group_444" data-name="Group 444" transform="translate(61.904 0.07)">
          <path id="Path_587" data-name="Path 587" d="M339.274,549.933c-.11,0-.148-.072-.193-.155a1.457,1.457,0,0,0-.58-.449s-.1-.033-.1-.1a.1.1,0,0,1,.11-.1l.148.007c.7,0,.752-.006.782-.083a7.738,7.738,0,0,0,.038-1.214c0-.6-.006-.847-.012-.879s-.01-.053-.146-.053h-2.365c-.515,0-.8,0-.879.014a.663.663,0,0,0-.08.011.637.637,0,0,1-.076.011.142.142,0,0,1-.115-.073l-.14-.162c-.031-.039-.045-.057-.045-.086v-.068l.1-.021c.026,0,.094.007.163.015s.124.014.147.014c.347.014.635.021.965.021h2.33c.11,0,.158-.014.158-.144a7.753,7.753,0,0,0-.021-.8c0-.024-.013-.081-.024-.144-.018-.1-.039-.222-.039-.257a.156.156,0,0,1,.173-.159,2.374,2.374,0,0,1,.345.089c.265.066.377.094.377.219,0,.053-.048.1-.126.174a.467.467,0,0,0-.045.044c-.038.06-.039.09-.039.465,0,.517,0,.517.129.517h.253c.251,0,.28-.008.3-.033s.036-.049.064-.09c.155-.226.232-.32.311-.32.055,0,.778.44.778.6,0,.174-.185.174-.44.174H340.2c-.1,0-.115.041-.115.171,0,.164.005.615.011,1.054.005.414.01.816.01.953a.72.72,0,0,1-.251.651A1.153,1.153,0,0,1,339.274,549.933Zm-1.873-1.028a.215.215,0,0,1-.234-.185,3.187,3.187,0,0,0-.476-.956l-.033-.053c-.065-.1-.085-.141-.085-.176v-.068l.089-.028a.28.28,0,0,1,.126.053c.571.267,1,.5,1,.908C337.786,548.566,337.692,548.905,337.4,548.905Zm-1.373-3.3a.34.34,0,0,1-.37-.328c0-.126.036-.168.267-.437l.031-.036a.978.978,0,0,0,.227-.538l.012-.058c.005-.041.022-.16.108-.16.141,0,.231.33.242.367.048.168.048.168.174.168h1.612c.133,0,.136,0,.136-.411a1.556,1.556,0,0,0-.065-.44.485.485,0,0,1-.04-.187.125.125,0,0,1,.131-.124c.038,0,.44.066.495.079.185.045.305.074.305.235,0,.07-.046.124-.149.219a1.615,1.615,0,0,0-.035.485c0,.143.036.143.158.143h1.583c.089,0,.116-.006.135-.034.068-.1.13-.17.2-.17a3.549,3.549,0,0,1,.519.3c.164.1.267.179.267.314a.241.241,0,0,1-.244.258c-.014,0-.064-.007-.115-.013s-.1-.015-.118-.015a1.721,1.721,0,0,0-.741.3.349.349,0,0,1-.083.038l-.015.008-.05.013a.09.09,0,0,1-.089-.089c0-.026.006-.036.08-.157a2.4,2.4,0,0,0,.216-.407c0-.015-.033-.023-.1-.023H336.69c-.082,0-.1.016-.132.147C336.424,545.541,336.2,545.6,336.029,545.6Z" transform="translate(-335.623 -543.42)" fill="#fff"/>
        </g>
        <g id="Group_445" data-name="Group 445" transform="translate(72.204 0.626)">
          <path id="Path_588" data-name="Path 588" d="M359.858,550.078c-.756,0-1.265-.41-1.265-.793a.746.746,0,0,1,.765-.638,1.1,1.1,0,0,1,.856.476c.1.133.129.164.186.164a.989.989,0,0,0,.664-.946,1.044,1.044,0,0,0-1.122-1,2.115,2.115,0,0,0-1.6,1.149c-.151.256-.239.407-.46.407a.26.26,0,0,1-.272-.265c0-.2.08-.383.573-.959a23.038,23.038,0,0,0,1.587-2.114,2.318,2.318,0,0,0,.318-.517c0-.009-.019-.031-.066-.031-.225,0-.609.317-.735.421-.3.245-.41.283-.56.283-.375,0-.616-.482-.616-.554,0-.089.064-.089.236-.089a3.377,3.377,0,0,0,1.065-.248c.441-.192.5-.217.667-.217.289,0,.807.185.807.554,0,.242-.188.37-.529.605a4.634,4.634,0,0,0-1.084,1.351l.116-.042a1.775,1.775,0,0,1,.641-.116,1.6,1.6,0,0,1,1.652,1.532A1.731,1.731,0,0,1,359.858,550.078Zm-.535-1.035a.222.222,0,0,0-.228.179c0,.133.267.263.538.263.043,0,.052-.032.052-.059A.414.414,0,0,0,359.323,549.043Z" transform="translate(-357.615 -544.606)" fill="#fff"/>
        </g>
        <g id="Group_446" data-name="Group 446" transform="translate(80.147 0.056)">
          <path id="Path_589" data-name="Path 589" d="M377.42,549.818c-.156,0-.177-.067-.227-.231-.041-.134-.29-.228-.578-.337l-.063-.025c-.072-.029-.115-.045-.115-.109,0-.033.023-.089.11-.089.048,0,.243.024.341.037.177.02.4.027.489.027.126,0,.195,0,.3-.2a1.222,1.222,0,0,0,.1-.546c0-.295-.051-.388-.068-.4.007.007-.081.083-.122.12l-.067.058a5.22,5.22,0,0,1-2.426,1.2h-.068l-.028-.081c0-.034,0-.058.241-.18a7.263,7.263,0,0,0,2.2-1.681.4.4,0,0,0,.118-.209c0-.036-.052-.137-.088-.137-.015.006-.107.083-.182.146a5.449,5.449,0,0,1-2.2,1.128h-.068l-.028-.081c0-.047,0-.047.348-.251.1-.062.2-.12.238-.143a4.76,4.76,0,0,0,1.505-1.316c0-.039-.068-.143-.123-.143a2.834,2.834,0,0,0-.26.168,5.774,5.774,0,0,1-1.739.691h-.068l-.028-.089c0-.056.041-.081.251-.185a4.9,4.9,0,0,0,1.806-1.324.407.407,0,0,1-.158.013c-.486,0-.729.007-.8.014a1.026,1.026,0,0,1-.155.022.129.129,0,0,1-.1-.056l-.149-.18a.137.137,0,0,1-.044-.085V545.3l.089-.021c.051,0,.275.022.326.028l.276.008c.2.007.4.013.587.013h1.661c.285,0,.288,0,.322-.032.011-.011.038-.044.07-.084.168-.205.239-.278.305-.278a1.562,1.562,0,0,1,.39.257.1.1,0,0,1-.014-.049.268.268,0,0,1,.063-.138l.038-.059a.66.66,0,0,0,.124-.3c0-.018,0-.031-.094-.031h-4.013c-.068,0-.091,0-.117.11-.048.2-.187.785-.587.785a.356.356,0,0,1-.37-.356c0-.187.109-.272.3-.424a1.492,1.492,0,0,0,.46-.684.3.3,0,0,1,.042-.091l.06-.089.054.092a.343.343,0,0,1,.027.163l0,.092c0,.07.016.078.136.078h1.669c.118,0,.129,0,.129-.157a1.414,1.414,0,0,0-.025-.4c0-.013-.012-.034-.021-.06a.534.534,0,0,1-.045-.149.14.14,0,0,1,.159-.138c.008,0,.757.059.757.272,0,.047-.038.09-.125.178-.016.017-.03.03-.037.038a.614.614,0,0,0-.036.234c0,.178.015.178.136.178h1.387c.169,0,.255-.006.362-.143s.153-.174.215-.174c.083,0,.133.037.487.325.1.09.172.148.172.285,0,.259-.211.279-.435.3a1.288,1.288,0,0,0-.566.248c-.124.091-.168.119-.207.119a.112.112,0,0,1-.031,0c.1.092.183.184.183.239,0,.166-.135.166-.322.166h-1.309a.186.186,0,0,0-.059.006,3.81,3.81,0,0,0,.78,1.451c.153,0,.69-.823.728-.939a.5.5,0,0,0,.014-.063c.023-.121.041-.217.121-.217.048,0,.7.432.7.574,0,.121-.141.143-.245.158s-.13.028-.4.24c-.052.039-.188.127-.327.218s-.3.2-.35.234c-.021.013-.044.03-.044.052a4.1,4.1,0,0,0,1.654,1.156.954.954,0,0,1,.243.116l.1.08-.119.037a1.386,1.386,0,0,0-.28.121,1.414,1.414,0,0,0-.225.251.138.138,0,0,1-.121.081,4.369,4.369,0,0,1-1.318-1.066,5.166,5.166,0,0,1-1.169-2.352c-.016-.071-.028-.092-.035-.1s-.067.044-.248.21c-.037.033-.066.056-.1.083a1.514,1.514,0,0,0-.243.209h0a.791.791,0,0,1,.133.087,2.712,2.712,0,0,1,1.058,2.173C378.4,549.283,378.017,549.818,377.42,549.818Z" transform="translate(-374.572 -543.389)" fill="#fff"/>
        </g>
        <g id="Group_447" data-name="Group 447" transform="translate(89.547 4.765)">
          <path id="Path_590" data-name="Path 590" d="M395.482,555.142a.851.851,0,0,1-.842-.856.84.84,0,0,1,.849-.842.849.849,0,1,1-.008,1.7Zm0-1.366a.5.5,0,0,0-.509.51.524.524,0,0,0,.524.523.514.514,0,0,0,.516-.509A.523.523,0,0,0,395.482,553.777Z" transform="translate(-394.64 -553.444)" fill="#fff"/>
        </g>
      </g>
    </g>
    <g id="Group_453" data-name="Group 453" transform="translate(169.127 557.516)">
      <g id="Group_450" data-name="Group 450" transform="translate(48.692 2.797)">
        <path id="Path_591" data-name="Path 591" d="M287.992,597.74a15.4,15.4,0,0,1-3.493,4.242l-1.688-2.438-.211.423a15.443,15.443,0,0,1-1.384-1.617v4.429h-3.164v-4.97a23.087,23.087,0,0,1-3.165,4.385l-1.8-3.4a18.743,18.743,0,0,0,3.775-4.055h-3.306v-3.1h4.5v-2.156h3.164v2.156h3.048v3.1h-2.813a13.783,13.783,0,0,0,2.554,2.064l-.937,2.156a14.019,14.019,0,0,0,3.844-4.219h-1.828v-3.1h2.907v-2.156h3.235v2.156h4.618v3.1h-3.516a13.575,13.575,0,0,0,3.962,3.868L294.3,602.17a16.232,16.232,0,0,1-3.071-4.36v4.97h-3.235Zm-14.207-10.526a22.79,22.79,0,0,0,6.354-2.157h-5.58v-3.118h8.487v-1.43h3.375v1.43h8.463v3.118h-5.439c.868.539,2.04,1.2,6.189,2.18l-1.688,3.211a18.786,18.786,0,0,1-7.526-4.29v4.2h-3.375V586.37a25.954,25.954,0,0,1-7.619,4.031Z" transform="translate(-273.082 -580.11)" fill="#fff"/>
        <path id="Path_592" data-name="Path 592" d="M326.767,592.2c-.562.634-.773.844-1.126,1.2l-.915-4.969a17,17,0,0,0,3.471-8.417l3.445.282a25.164,25.164,0,0,1-1.43,5.931v16.1h-3.445Zm11.815-8.181a30.07,30.07,0,0,0-3.61-2.346l3.47-2.016a36.723,36.723,0,0,1,4.431,3.025l-2.251,1.337h6.305v3.351h-5.79v3.587h4.97v3.329h-4.97v4.08h6.211v3.3H331.221v-3.3h6.26v-4.08h-4.947v-3.329h4.947V587.37h-5.719v-3.351Z" transform="translate(-300.537 -579.657)" fill="#fff"/>
        <path id="Path_593" data-name="Path 593" d="M389.18,598.909V597.2h-5.415v-2.485h5.415v-.937h-4.641v-2.227h4.641v-.938h-4.313v-2.18h4.313v-.843h-5.415V584.82h5.415v-.844h-4.313v-2.251h4.313v-1.266h3.237v1.266h5.461v3.189H399v2.673h-1.125v3.023h-5.461v.938h5.626v2.227h-5.626v.937H399V597.2h-6.587v1.712h6.938l-.7,3.306h-10.2a13.441,13.441,0,0,1-7.363-2.182,9.959,9.959,0,0,1-2.531,2.766l-2.087-3.188a11.822,11.822,0,0,0,2.2-2.25,17.724,17.724,0,0,1-1.97-4.22l2.532-1.172a10.606,10.606,0,0,0,.915,2.416,14.954,14.954,0,0,0,.539-3.025H376.8v-3.118a27.547,27.547,0,0,0,2.883-3.75H376.8v-3.164h6.8v3.164a27.179,27.179,0,0,1-2.86,3.891h2.931a29.469,29.469,0,0,1-1.2,8.815,11.378,11.378,0,0,0,5.907,1.712Zm5.7-14.933h-2.461v.844h2.461Zm0,3.611h-2.461v.843h2.461Z" transform="translate(-328.046 -580.083)" fill="#fff"/>
      </g>
      <g id="Group_452" data-name="Group 452" transform="translate(0 0)">
        <g id="Group_451" data-name="Group 451" transform="translate(0.016 24.158)">
          <path id="Path_594" data-name="Path 594" d="M182.413,625.265c.481,0,.964,0,1.446,0a.475.475,0,0,1,.509.5q.006.9,0,1.808a.48.48,0,0,1-.52.515c-.957,0-1.914.007-2.872,0-.371,0-.54-.184-.54-.555q0-.853,0-1.7c0-.4.163-.559.552-.56h1.426Zm.8.622H181.61v1.583h1.605Z" transform="translate(-175.153 -625.262)" fill="#fff" fill-rule="evenodd"/>
          <path id="Path_595" data-name="Path 595" d="M239.112,625.271v.6h-2.746v.5h2.469v.612h-2.474v.5h2.754v.593c-.085,0-.168.014-.251.014h-3.045c-.459,0-.633-.177-.631-.631,0-.54,0-1.078,0-1.618a.5.5,0,0,1,.572-.571h3.349Z" transform="translate(-204.261 -625.266)" fill="#fff" fill-rule="evenodd"/>
          <path id="Path_596" data-name="Path 596" d="M200.547,628.092h-1.116v-2.749h1.116Z" transform="translate(-185.252 -625.305)" fill="#fff" fill-rule="evenodd"/>
          <path id="Path_597" data-name="Path 597" d="M173.909,625.693a.443.443,0,0,0-.5-.419q-1.851,0-3.7,0c-.382,0-.547.164-.548.544q0,.967,0,1.935h0v.318h1.163V625.89h.778v2.184h.882v-2.179h.795v2.187h1.136C173.914,627.28,173.924,626.485,173.909,625.693Z" transform="translate(-169.16 -625.267)" fill="#fff" fill-rule="evenodd"/>
          <path id="Path_598" data-name="Path 598" d="M231.319,628.093s-1.363-.974-1.986-1.417c.608-.433,1.976-1.4,1.976-1.4l-.218,0s-.756,0-1.133.006a.4.4,0,0,0-.187.083c-.372.26-.736.529-1.11.785a.605.605,0,0,0-.014,1.042c.381.27.758.545,1.142.811a.456.456,0,0,0,.232.084C230.367,628.1,231.319,628.093,231.319,628.093Z" transform="translate(-200.629 -625.267)" fill="#fff"/>
          <path id="Path_599" data-name="Path 599" d="M226.9,625.265h-.29c-.288,0-.577,0-.866,0v2.808H226.9c0-.831,0-1.645,0-2.46h0Z" transform="translate(-199.242 -625.261)" fill="#fff"/>
          <path id="Path_600" data-name="Path 600" d="M220.051,625.318H218.9v.223c0,.567-.008,1.137,0,1.7,0,.207-.029.305-.271.291-.389-.022-.781-.012-1.17,0-.153,0-.2-.05-.193-.2.006-.6,0-1.193,0-1.788v-.221h-1.147c0,.761,0,1.5,0,2.237a.475.475,0,0,0,.526.547c.958.011,1.916.008,2.874,0a.479.479,0,0,0,.518-.539c0-.662,0-1.983,0-1.983Z" transform="translate(-194.13 -625.291)" fill="#fff"/>
          <path id="Path_601" data-name="Path 601" d="M192.573,627.482c.368-.467.69-.9,1.038-1.306a.585.585,0,0,0,.121-.628c-.092-.243-.3-.285-.54-.282-.9.006-1.8.005-2.7,0-.375,0-.55.165-.552.535q0,.868,0,1.736h0v.534h1.147v-.245c0-.582.007-1.164,0-1.746,0-.172.052-.221.218-.214.277.011.554,0,.83,0h.54c-.333.411-.634.777-.93,1.146a.7.7,0,0,0-.1.739.56.56,0,0,0,.588.331c.177,0,.355,0,.532,0h1.082v-.607Z" transform="translate(-180.204 -625.264)" fill="#fff"/>
          <path id="Path_602" data-name="Path 602" d="M248.416,625.285h-.867v1.868s-.773-.979-1.116-1.436a.959.959,0,0,0-.815-.446v0l-.5.011c-.358.025-.5.187-.5.584,0,.218,0,.651,0,.651v1.578h1.162l0-1.911s.83,1.07,1.162,1.5a.937.937,0,0,0,.778.407c.149,0,.3,0,.447,0a.489.489,0,0,0,.531-.55c0-.594,0-1.188,0-1.782h0v-.471Z" transform="translate(-209.275 -625.265)" fill="#fff" fill-rule="evenodd"/>
          <path id="Path_603" data-name="Path 603" d="M210.826,625.7h0v-.4h-1.178V627.5h-2.5v.612h3.05a.563.563,0,0,0,.631-.64C210.827,626.881,210.827,626.288,210.826,625.7Z" transform="translate(-189.355 -625.277)" fill="#fff"/>
        </g>
        <path id="Path_604" data-name="Path 604" d="M169.127,596.925V577.317a1.4,1.4,0,0,0,.043-.185,3.951,3.951,0,0,1,2.99-3.318c.241-.05.485-.086.727-.129h.042c.083.008,31.7.008,31.784,0h.042a1.964,1.964,0,0,0,.23.041,3.254,3.254,0,0,1,1.348.357,3.815,3.815,0,0,1,2.239,3.543c.014,6.357.006,12.716.01,19.073,0,.176-.043.225-.223.225q-4.433-.011-8.863,0c-.077,0-.153-.008-.246-.012v-.138q0-8.274.008-16.552a1.493,1.493,0,0,0-.666-1.255,3.334,3.334,0,0,0-1.957-.568c-1.329-.059-2.661-.017-3.993-.015h-.257V596.9h-7.022V578.379h-.252c-1.06,0-2.121-.011-3.182,0-.6.007-1.192.03-1.786.087a1.747,1.747,0,0,0-1.22.66,2.1,2.1,0,0,0-.471,1.4q.016,8,.007,16v.4h-6.085C171.29,596.919,170.209,596.924,169.127,596.925Z" transform="translate(-169.127 -573.685)" fill="#fff" fill-rule="evenodd"/>
      </g>
    </g>
  </g>
</svg>
