<?xml version="1.0" encoding="UTF-8"?><svg id="_イヤー_2" xmlns="http://www.w3.org/2000/svg" viewBox="0 0 224.34 45.01"><defs><style>.cls-1{fill:#463a2c;}.cls-2{fill:#ac645c;stroke:#ac645c;stroke-width:.18px;}.cls-2,.cls-3{stroke-miterlimit:10;}.cls-3{fill:none;stroke:#463a2c;stroke-width:.24px;}</style></defs><g id="_イヤー_1-2"><g><g><path class="cls-1" d="M84.52,31.69c-1.47,2.67-4.52,3.03-5.33,3.12-.55,.07-1.13,.12-1.71,.12-3.36,0-5.26-1.13-6.39-2.04-.46-.38-.67-.62-1.34-1.42l3.22-2.02c.07,.07,.41,.46,.74,.72,1.1,.91,2.74,1.42,4.16,1.42,.19,0,.77,0,1.32-.17,.12-.02,1.8-.5,1.8-1.8,0-1.56-2.26-1.61-3.77-1.83-.79-.1-1.61-.24-2.4-.43-1.22-.31-2.35-.77-3.19-1.78-.17-.19-.5-.62-.72-1.25-.07-.24-.22-.79-.22-1.49,0-.14,.02-.7,.1-1.18,.19-1.08,.65-1.95,1.47-2.71,.84-.79,2.5-1.78,5.28-1.78,1.03,0,3.29,.12,5.6,1.68,.58,.38,.91,.67,1.87,1.51l-3.12,2.23c-.94-.91-1.59-1.44-2.86-1.85-.22-.05-.86-.24-1.59-.24-1.73,0-2.52,1.01-2.52,1.8,0,.46,.24,.77,.36,.89,.58,.62,1.51,.6,3.1,.84,.96,.14,1.9,.34,2.83,.55,.6,.12,2.79,.55,3.65,2.62,.12,.31,.34,.96,.34,1.83,0,.48-.05,1.49-.67,2.64Z"/><path class="cls-1" d="M95.59,20.93v13.62h-4.28v-13.62h-4.42v-3.34h13.09v3.34h-4.4Z"/><path class="cls-1" d="M111.97,26.53v8.02h-4.18v-7.9l-6.36-9.06h4.85l3.65,5.74,3.63-5.74h4.83l-6.41,8.94Z"/><path class="cls-1" d="M120.49,34.55V17.59h4.23v13.38h6.63v3.58h-10.86Z"/><path class="cls-1" d="M133.67,34.55V17.59h12.54v3.27h-8.31v3.1h7.76v3.22h-7.76v4.04h9.08v3.34h-13.31Z"/><path class="cls-1" d="M167.63,34.55v-7.23h-6.2v7.23h-4.28V17.59h4.3v6.12h6.17v-6.12h4.25v16.96h-4.25Z"/><path class="cls-1" d="M186.43,34.55l-.84-2.71h-6.25l-.84,2.71h-4.52l6.29-16.96h4.42l6.24,16.96h-4.52Zm-4.01-12.92l-2.09,7.16h4.3l-2.21-7.16Z"/><path class="cls-1" d="M206.29,30.7c-1.42,3.96-5.89,4.23-6.85,4.23-.74,0-3.58-.12-5.5-2.04-1.63-1.63-1.68-3.72-1.68-5.84v-9.46h4.28v10.57c0,1.51,.12,2.09,.79,2.62,.84,.65,1.97,.65,2.26,.65,.79,0,1.49-.1,2.09-.62,.79-.7,.82-1.71,.82-2.67v-10.54h4.25v9.46c0,1.25-.05,2.47-.46,3.65Z"/><path class="cls-1" d="M223.67,31.69c-1.47,2.67-4.52,3.03-5.33,3.12-.55,.07-1.13,.12-1.71,.12-3.36,0-5.26-1.13-6.39-2.04-.46-.38-.67-.62-1.35-1.42l3.22-2.02c.07,.07,.41,.46,.74,.72,1.11,.91,2.74,1.42,4.16,1.42,.19,0,.77,0,1.32-.17,.12-.02,1.8-.5,1.8-1.8,0-1.56-2.26-1.61-3.77-1.83-.79-.1-1.61-.24-2.4-.43-1.22-.31-2.35-.77-3.19-1.78-.17-.19-.5-.62-.72-1.25-.07-.24-.22-.79-.22-1.49,0-.14,.02-.7,.1-1.18,.19-1.08,.65-1.95,1.47-2.71,.84-.79,2.5-1.78,5.28-1.78,1.03,0,3.29,.12,5.6,1.68,.58,.38,.91,.67,1.87,1.51l-3.12,2.23c-.94-.91-1.59-1.44-2.86-1.85-.22-.05-.87-.24-1.59-.24-1.73,0-2.52,1.01-2.52,1.8,0,.46,.24,.77,.36,.89,.58,.62,1.51,.6,3.1,.84,.96,.14,1.9,.34,2.83,.55,.6,.12,2.79,.55,3.65,2.62,.12,.31,.34,.96,.34,1.83,0,.48-.05,1.49-.67,2.64Z"/></g><g><circle class="cls-2" cx="46.26" cy="24.57" r=".97"/><circle class="cls-2" cx="46.45" cy="20.98" r=".92"/><circle class="cls-2" cx="46.13" cy="17.11" r=".78"/><circle class="cls-2" cx="47.06" cy="13.87" r=".82"/><circle class="cls-2" cx="48.18" cy="11.04" r="1.11"/><circle class="cls-2" cx="48.09" cy="6.11" r="1.02"/><circle class="cls-2" cx="47.46" cy="3.5" r=".95"/><circle class="cls-2" cx="51.41" cy="1.18" r="1.09"/><circle class="cls-2" cx="53.14" cy="7.05" r=".84"/><circle class="cls-2" cx="54.12" cy="10.03" r=".81"/><circle class="cls-2" cx="51.74" cy="19.1" r=".94"/><circle class="cls-2" cx="54.07" cy="20.47" r=".81"/><circle class="cls-2" cx="58.02" cy="18.65" r=".76"/><circle class="cls-2" cx="56.34" cy="24.6" r="1.15"/><circle class="cls-2" cx="58.99" cy="21.98" r=".96"/><g><path class="cls-1" d="M56.23,20.45l-.69,.51-.58,.7-.67,.61-.52,.74-.48,.76-.52,.74-.51,.75-.38,.82-.32,.85-.34,.83-.33,.84-.29,.85-.35,.83-.34,.84-.13,.9-.22,.64-.02,.63-.13-.91-.22-.93-.06-.95-.06-.89-.04-.89-.14-.89,.05-.9-.04-.89-.04-.9,.15-.89-.09-.91,.19-.88,.1-.89,.08-.82,.16-.81,.12-.81,.11-.82,.17-.81v-.83l.26-.79,.17-.81v-.84l.2-.8,.03-.83,.11-.75,.2-.75,.06-.76,.02-.76-.08-.76,.13-.76-.05-.76-.09-.76-.09-.76,.02-.77-.17-.75-.17-.73-.21,.08,.05,.7,.04,.75,.09,.74-.04,.75,.04,.75,.04,.75-.14,.89-.02,.9v.9l-.1,.89-.15,.89-.1,.82-.21,.8-.06,.83-.28,.79v.84l-.15,.81-.13,.81-.28,.79-.02,.83-.08,.82-.3,.79v.77l-.06,.76-.09,.76-.05,.76,.02,.76-.04,.76,.04,.76-.03,.76-.02,.76,.02,.76,.16,.75-.08,.78,.15,.81,.12,.81,.2,.8,.08,.82v.83l.07,.82,.15,.81,.13,.81,.02,.82,.11,.82-.1,.82h-.04l.1,.88v.89l-.05,.89v.89l.04,.92-.87-.03-.84-.05-.85,.03-.85-.06-.85,.17-.85-.1-.84,.07h-.85l-.84-.09-.84,.02-.84,.1-.85-.12-.85,.09-.85,.03-.85-.07-.85-.05-.85,.13-.85-.15-.85,.08-.85-.08h-1.65l.04-.74-.03-.81-.08-.81-.06-.81v-.81l.17-.81-.13-.81,.02-.81-.06-.81,.14-.81,.02-.81-.04-.81v-.81l.04-.81-.03-.81-.14-.81,.15-.81-.16-.82,.17-.82-.14-.76-.77-.05-.83,.08-.83-.07-.83,.03-.83-.12-.83,.14-.83,.03-.83-.12-.83,.08-.83,.03-.84-.1-.9-.05,.12,.88-.12,.81-.02,.81,.13,.81v.81l-.05,.81-.04,.81,.13,.81-.17,.81,.06,.81,.04,.81,.07,.81-.18,.81,.09,.81,.05,.81-.06,.81,.11,.81-.11,.82-.03,.82,.08,.85-.88,.04-.84-.1h-.85l-.84,.06-.84,.04-.84-.11-.85,.07-.85,.07-.85-.1h-.83v-1.63l.05-.82-.08-.82-.05-.82,.14-.82v-1.64l-.07-.82,.08-.82-.03-.82v-.82l.03-.82-.08-.82,.02-.82-.11-.82,.13-.82,.03-.82-.03-.82v-.82l-.08-.82,.08-.82v-.82l-.1-.82,.05-.82v-.82l.02-.82,.06-.83-.16-.83v-.87l.69-.52,.67-.49,.64-.53,.74-.4,.58-.61,.72-.43,.68-.48,.62-.55,.7-.44,.62-.55,.64-.52,.7-.45,.64-.53,.66-.51,.66-.51,.68-.48,.68-.47,.62-.57,.73-.42,.55-.65,.7-.46,.69-.48,.69-.47,.67-.49,.68-.49,.65-.53,.64-.54,.67-.46,.65,.47,.72,.43,.68,.49,.62,.56,.68,.5,.64,.55,.72,.44,.67,.51,.67,.51,.6,.61,.65,.54,.7,.47,.65,.55,.68,.5,.65,.53,.69,.49,.77,.39,.66,.53,.62,.59,.69,.43,.43-.56-.59-.52-.71-.43-.56-.63-.75-.38-.65-.51-.6-.59-.75-.39-.62-.56-.65-.52-.61-.57-.74-.4-.6-.59-.69-.46-.72-.43-.62-.56-.66-.51-.69-.47-.68-.48-.66-.52-.59-.61-.7-.51-.64,.56-.64,.51-.66,.49-.73,.4-.65,.5-.56,.63-.73,.4-.64,.51-.63,.52-.7,.43-.6,.56-.6,.56-.75,.37-.65,.51-.57,.61-.71,.42-.65,.49-.69,.45-.57,.6-.65,.5-.69,.46-.64,.52-.63,.53-.67,.48-.74,.38-.65,.51-.57,.61-.7,.44-.59,.59-.74,.39-.65,.5-.67,.49-.63,.54-.65,.52-.7,.46-.58,.55,.44,.54,.59-.42,.7-.37,.55-.58,.67-.42,.65-.45,.56-.5v.78l.05,.83-.08,.82v1.65l-.03,.82,.13,.83-.11,.83,.02,.83,.12,.83-.02,.83-.07,.83,.1,.83-.09,.83,.03,.82,.03,.83-.09,.82,.14,.82-.05,.82-.14,.83,.16,.83-.11,.83-.02,.83,.07,.83,.04,.83-.09,.83,.07,.83-.03,.83v.83l.06,.78,.8,.14h.85l.85-.09,.85-.04h.85l.85,.09,.85,.03h1.7l.85-.06h3.41l.86,.04,.86-.05,.86,.07h1.66l.83-.11,.83-.06,.83,.14,.83,.03,.83-.12,.83,.1h.83l.83-.12,.84,.14,.84-.1h.83l.83,.02h.83l.83-.02,.83,.09,.83-.17,.83,.11h.83l.83,.08,.83-.18h.83l.83,.1,.83-.04,.84,.02,.84-.08,.84,.15,.85-.05-.1-.88,.14-.87-.11-.87v-.87l.14-.88v-.88h-.04l-.13-.77,.13-.76-.07-.76v-.76h0l.12-.87v-.87l.14-.86,.07-.87,.23-.84,.17-.86,.34-.81,.14-.87,.42-.78,.2-.86,.32-.82,.34-.81,.46-.75,.38-.79,.54-.7,.37-.8,.58-.67,.48-.73,.52-.71,.55-.62-.1-.12Zm4.97,23.61l-.77-.06-.82,.08-.83-.11-.83,.03-.83,.03-.83-.05-.82-.08-.82,.04-.82,.08-.82,.03h-.82l-.82,.04-.82-.07-.82-.09-.83,.1-.83-.08h-1.65l-.82,.11-.82-.06-.82-.04-.82-.04-.82,.08-.82-.08-.82,.04-.82,.06-.82-.1-.82,.16-.82-.1h-.82l-.82,.03-.82-.04h-.83l-.83,.03-.83-.03-.83,.13-.83-.12-.82-.04-.82,.14-.82-.09-.82,.09-.82-.02-.83-.12h-1.66l-.83,.11-.83-.13-.83,.03-.83,.05-.83,.04-.83-.1-.83,.05-.83,.03-.83,.04-.83-.07-.83-.03-.83,.05-.83-.07-.83,.03-.83,.05-.83-.11-.83,.03-.83,.08h-.83l-.83-.04-.83,.04-.83-.07-.83,.09-.83-.14-.83,.15H1.79l-.84-.13-.81,.1,.03,.69,.76,.16,.82-.1,.83-.02,.83,.02h.83l.83-.06,.82,.02,.82-.04,.82,.04,.82,.05,.82,.03,.82-.1,.82,.16,.82-.05,.83-.02,.83-.1,.83,.02,.83,.1,.82,.03,.82-.07,.82-.06,.82,.03,.82-.07,.82,.11,.82,.04,.82-.1h.82l.82,.05h.82l.82-.05,.82,.05,.82,.05,.83-.03,.83,.06,.83-.17,.83,.1,.83-.07h.82l.82,.09,.82-.02,.82-.1,.82,.12,.83-.09,.83-.03,.83,.07,.83,.05,.83-.13,.83,.15,.83-.08,.83,.08h1.66l.83,.03,.83-.03,.83-.08,.83-.06h.83l.83,.17,.83-.13,.83,.02,.83-.06,.83,.14,.83,.02,.83-.04h.83l.83,.04,.83-.03,.83-.14,.83,.15,.83-.16,.83,.17,.83-.16,.84,.08,.77-.06v-.67Zm-39.85,0l.06-.87-.08-.81,.11-.81-.03-.81-.03-.81,.05-.81,.08-.81-.04-.81-.08-.81-.03-.81v-.81l-.04-.81,.07-.81,.09-.81-.1-.81,.08-.82v-1.64l-.09-.86,.87,.05,.84,.04,.84,.04,.84-.08,.84,.08,.84-.04,.84-.06,.84,.1,.84-.16,.82,.09v.79l.02,.81-.04,.81v.81l.03,.81-.03,.81,.13,.81-.12,.81-.04,.81,.14,.81-.09,.81,.09,.81-.02,.81-.12,.81v1.63l.11,.82-.13,.82,.04,.79-.8,.04-.84,.04-.84-.1-.84,.05-.84,.03-.84,.04-.84-.07-.84-.03-.84,.05-.9,.04Z"/><path class="cls-3" d="M56.23,20.45l-.69,.51-.58,.7-.67,.61-.52,.74-.48,.76-.52,.74-.51,.75-.38,.82-.32,.85-.34,.83-.33,.84-.29,.85-.35,.83-.34,.84-.13,.9-.22,.64-.02,.63-.13-.91-.22-.93-.06-.95-.06-.89-.04-.89-.14-.89,.05-.9-.04-.89-.04-.9,.15-.89-.09-.91,.19-.88,.1-.89,.08-.82,.16-.81,.12-.81,.11-.82,.17-.81v-.83l.26-.79,.17-.81v-.84l.2-.8,.03-.83,.11-.75,.2-.75,.06-.76,.02-.76-.08-.76,.13-.76-.05-.76-.09-.76-.09-.76,.02-.77-.17-.75-.17-.73-.21,.08,.05,.7,.04,.75,.09,.74-.04,.75,.04,.75,.04,.75-.14,.89-.02,.9v.9l-.1,.89-.15,.89-.1,.82-.21,.8-.06,.83-.28,.79v.84l-.15,.81-.13,.81-.28,.79-.02,.83-.08,.82-.3,.79v.77l-.06,.76-.09,.76-.05,.76,.02,.76-.04,.76,.04,.76-.03,.76-.02,.76,.02,.76,.16,.75-.08,.78,.15,.81,.12,.81,.2,.8,.08,.82v.83l.07,.82,.15,.81,.13,.81,.02,.82,.11,.82-.1,.82h-.04l.1,.88v.89l-.05,.89v.89l.04,.92-.87-.03-.84-.05-.85,.03-.85-.06-.85,.17-.85-.1-.84,.07h-.85l-.84-.09-.84,.02-.84,.1-.85-.12-.85,.09-.85,.03-.85-.07-.85-.05-.85,.13-.85-.15-.85,.08-.85-.08h-1.65l.04-.74-.03-.81-.08-.81-.06-.81v-.81l.17-.81-.13-.81,.02-.81-.06-.81,.14-.81,.02-.81-.04-.81v-.81l.04-.81-.03-.81-.14-.81,.15-.81-.16-.82,.17-.82-.14-.76-.77-.05-.83,.08-.83-.07-.83,.03-.83-.12-.83,.14-.83,.03-.83-.12-.83,.08-.83,.03-.84-.1-.9-.05,.12,.88-.12,.81-.02,.81,.13,.81v.81l-.05,.81-.04,.81,.13,.81-.17,.81,.06,.81,.04,.81,.07,.81-.18,.81,.09,.81,.05,.81-.06,.81,.11,.81-.11,.82-.03,.82,.08,.85-.88,.04-.84-.1h-.85l-.84,.06-.84,.04-.84-.11-.85,.07-.85,.07-.85-.1h-.83v-1.63l.05-.82-.08-.82-.05-.82,.14-.82v-1.64l-.07-.82,.08-.82-.03-.82v-.82l.03-.82-.08-.82,.02-.82-.11-.82,.13-.82,.03-.82-.03-.82v-.82l-.08-.82,.08-.82v-.82l-.1-.82,.05-.82v-.82l.02-.82,.06-.83-.16-.83v-.87l.69-.52,.67-.49,.64-.53,.74-.4,.58-.61,.72-.43,.68-.48,.62-.55,.7-.44,.62-.55,.64-.52,.7-.45,.64-.53,.66-.51,.66-.51,.68-.48,.68-.47,.62-.57,.73-.42,.55-.65,.7-.46,.69-.48,.69-.47,.67-.49,.68-.49,.65-.53,.64-.54,.67-.46,.65,.47,.72,.43,.68,.49,.62,.56,.68,.5,.64,.55,.72,.44,.67,.51,.67,.51,.6,.61,.65,.54,.7,.47,.65,.55,.68,.5,.65,.53,.69,.49,.77,.39,.66,.53,.62,.59,.69,.43,.43-.56-.59-.52-.71-.43-.56-.63-.75-.38-.65-.51-.6-.59-.75-.39-.62-.56-.65-.52-.61-.57-.74-.4-.6-.59-.69-.46-.72-.43-.62-.56-.66-.51-.69-.47-.68-.48-.66-.52-.59-.61-.7-.51-.64,.56-.64,.51-.66,.49-.73,.4-.65,.5-.56,.63-.73,.4-.64,.51-.63,.52-.7,.43-.6,.56-.6,.56-.75,.37-.65,.51-.57,.61-.71,.42-.65,.49-.69,.45-.57,.6-.65,.5-.69,.46-.64,.52-.63,.53-.67,.48-.74,.38-.65,.51-.57,.61-.7,.44-.59,.59-.74,.39-.65,.5-.67,.49-.63,.54-.65,.52-.7,.46-.58,.55,.44,.54,.59-.42,.7-.37,.55-.58,.67-.42,.65-.45,.56-.5v.78l.05,.83-.08,.82v1.65l-.03,.82,.13,.83-.11,.83,.02,.83,.12,.83-.02,.83-.07,.83,.1,.83-.09,.83,.03,.82,.03,.83-.09,.82,.14,.82-.05,.82-.14,.83,.16,.83-.11,.83-.02,.83,.07,.83,.04,.83-.09,.83,.07,.83-.03,.83v.83l.06,.78,.8,.14h.85l.85-.09,.85-.04h.85l.85,.09,.85,.03h1.7l.85-.06h3.41l.86,.04,.86-.05,.86,.07h1.66l.83-.11,.83-.06,.83,.14,.83,.03,.83-.12,.83,.1h.83l.83-.12,.84,.14,.84-.1h.83l.83,.02h.83l.83-.02,.83,.09,.83-.17,.83,.11h.83l.83,.08,.83-.18h.83l.83,.1,.83-.04,.84,.02,.84-.08,.84,.15,.85-.05-.1-.88,.14-.87-.11-.87v-.87l.14-.88v-.88h-.04l-.13-.77,.13-.76-.07-.76v-.76h0l.12-.87v-.87l.14-.86,.07-.87,.23-.84,.17-.86,.34-.81,.14-.87,.42-.78,.2-.86,.32-.82,.34-.81,.46-.75,.38-.79,.54-.7,.37-.8,.58-.67,.48-.73,.52-.71,.55-.62-.1-.12Zm4.97,23.61l-.77-.06-.82,.08-.83-.11-.83,.03-.83,.03-.83-.05-.82-.08-.82,.04-.82,.08-.82,.03h-.82l-.82,.04-.82-.07-.82-.09-.83,.1-.83-.08h-1.65l-.82,.11-.82-.06-.82-.04-.82-.04-.82,.08-.82-.08-.82,.04-.82,.06-.82-.1-.82,.16-.82-.1h-.82l-.82,.03-.82-.04h-.83l-.83,.03-.83-.03-.83,.13-.83-.12-.82-.04-.82,.14-.82-.09-.82,.09-.82-.02-.83-.12h-1.66l-.83,.11-.83-.13-.83,.03-.83,.05-.83,.04-.83-.1-.83,.05-.83,.03-.83,.04-.83-.07-.83-.03-.83,.05-.83-.07-.83,.03-.83,.05-.83-.11-.83,.03-.83,.08h-.83l-.83-.04-.83,.04-.83-.07-.83,.09-.83-.14-.83,.15H1.79l-.84-.13-.81,.1,.03,.69,.76,.16,.82-.1,.83-.02,.83,.02h.83l.83-.06,.82,.02,.82-.04,.82,.04,.82,.05,.82,.03,.82-.1,.82,.16,.82-.05,.83-.02,.83-.1,.83,.02,.83,.1,.82,.03,.82-.07,.82-.06,.82,.03,.82-.07,.82,.11,.82,.04,.82-.1h.82l.82,.05h.82l.82-.05,.82,.05,.82,.05,.83-.03,.83,.06,.83-.17,.83,.1,.83-.07h.82l.82,.09,.82-.02,.82-.1,.82,.12,.83-.09,.83-.03,.83,.07,.83,.05,.83-.13,.83,.15,.83-.08,.83,.08h1.66l.83,.03,.83-.03,.83-.08,.83-.06h.83l.83,.17,.83-.13,.83,.02,.83-.06,.83,.14,.83,.02,.83-.04h.83l.83,.04,.83-.03,.83-.14,.83,.15,.83-.16,.83,.17,.83-.16,.84,.08,.77-.06v-.67Zm-39.85,0l.06-.87-.08-.81,.11-.81-.03-.81-.03-.81,.05-.81,.08-.81-.04-.81-.08-.81-.03-.81v-.81l-.04-.81,.07-.81,.09-.81-.1-.81,.08-.82v-1.64l-.09-.86,.87,.05,.84,.04,.84,.04,.84-.08,.84,.08,.84-.04,.84-.06,.84,.1,.84-.16,.82,.09v.79l.02,.81-.04,.81v.81l.03,.81-.03,.81,.13,.81-.12,.81-.04,.81,.14,.81-.09,.81,.09,.81-.02,.81-.12,.81v1.63l.11,.82-.13,.82,.04,.79-.8,.04-.84,.04-.84-.1-.84,.05-.84,.03-.84,.04-.84-.07-.84-.03-.84,.05-.9,.04Z"/></g><g><polygon class="cls-1" points="27.79 37.44 27.02 37.46 27.05 36.68 27.01 35.89 27 35.09 27.83 35.08 27.85 35.89 27.78 36.67 27.79 37.44"/><polygon class="cls-3" points="27.79 37.44 27.02 37.46 27.05 36.68 27.01 35.89 27 35.09 27.83 35.08 27.85 35.89 27.78 36.67 27.79 37.44"/></g></g></g></g></svg>