<?xml version="1.0" encoding="UTF-8"?><svg xmlns="http://www.w3.org/2000/svg" viewBox="0 0 220.02 43.7"><defs><style>.h{fill:#fff;}.i{fill:#eb5e00;}</style></defs><g id="a"/><g id="b"><g id="c"><g id="d"><g id="e"><g id="f"><g id="g"><path class="i" d="M24.19,36.22c-.41-.19-1.92-1.14-2.47-1.45-1.02-.58-1.98-1.25-2.88-2,.77-.6,1.44-1.3,2-2.1,.62-.92,1.13-1.83,.63-2.85s-2.18-.92-3,.35c-.68-.68-1.44-1.24-2.33-.95s-1.23,1.07-.87,2.18c.61,1.34,1.55,2.51,2.72,3.4,0,0-1,.84-1.67,1.27s-2.25,1.41-2.83,1.77-3,1.37-3.26,1.47c.19,.16,.37,.33,.54,.51,.12,.19,.39,.58,.39,.58,0,0,1.72-.83,2.09-1.1,.34,.98,.62,1.99,.84,3,.26,1.12,.45,2.25,.56,3.39h.75v-.26h6.17v.26h.74s.08-.76,.13-1.2,.42-2.16,.54-2.75,.76-2.44,.76-2.44c0,0,2,1.08,2.05,1.11,.26-.42,.6-.79,1-1.08-.64-.18-2.19-.92-2.6-1.11Zm-6.2-3.89c-.53-.53-1.01-1.11-1.43-1.74-.38-.63-.51-1.38-.36-2.1,.26-.49,.86-.67,1.35-.42,.04,.02,.07,.04,.11,.07,.35,.23,.6,.59,.68,1,0,.36-.08,.58-.19,.56-.17-.12-.27-.33-.25-.54,0-.2,.08-.39,.09-.45s-.06-.12-.15,0-.29,.66-.09,.94c.16,.26,.48,.36,.77,.26,.24-.09,.37-.47,.37-.77,0-.2-.06-.4-.16-.58,.18-.2,.39-.38,.62-.53,.4-.18,.86-.09,1.16,.23,.31,.57,.31,1.26,0,1.83-.33,.69-.76,1.33-1.27,1.91-.35,.31-.55,.6-.79,.63s-.28-.13-.46-.3Zm4.43,7.21c-.22,.78-.72,3.47-.72,3.47h-6.4s-.5-2.68-.78-3.59-.85-2.42-.85-2.42c0,0,1.54-1.09,1.89-1.37s1.54-1.18,1.86-1.52,1.06-1,1.06-1c0,0,1.62,1.49,2.17,1.89s2.66,2,2.66,2c0,0-.7,1.77-.92,2.54h.03Z"/><path class="i" d="M17.24,38.41c0,.62-.33,1.12-.74,1.12s-.73-.5-.73-1.12,.33-1.13,.73-1.13,.74,.51,.74,1.13Z"/><path class="i" d="M21.38,38.34c-.09,.62-.53,1.17-.93,1.11s-.62-.68-.52-1.29,.48-1.08,.88-1,.66,.56,.57,1.18Z"/><path class="i" d="M20.57,41c-.25,.31-.57,.56-.93,.71-.41,.13-.84,.13-1.25,0-.12-.04-.25,.02-.29,.14-.04,.11,.02,.23,.13,.27h0c.52,.15,1.08,.13,1.59-.06,.45-.18,.85-.47,1.16-.85,.06-.1,.04-.23-.06-.29h-.01c-.12-.08-.27-.05-.34,.07h0Z"/><path class="i" d="M40.27,3.87c.16-1.73-.42-3-2.09-3.56-1.2-.35-2.46,.31-2.86,1.49-.87,2.73,1.84,7.19,2.92,8.5,1.62-.45,6.41-2.54,7.27-5.27,.35-1.21-.32-2.48-1.52-2.87-1.64-.53-2.85,.2-3.72,1.71Z"/><path class="i" d="M47.79,20c.53-1.65,.26-3-1.26-3.92-1.09-.61-2.47-.24-3.12,.83-1.44,2.48,.23,7.42,1,8.93,1.68-.09,6.81-1.09,8.25-3.57,.6-1.09,.23-2.47-.83-3.12-1.52-.88-2.84-.43-4.04,.85Z"/><path class="i" d="M5.15,20c-.53-1.65-.25-3,1.26-3.92,1.1-.61,2.48-.24,3.13,.83,1.44,2.48-.24,7.42-1,8.93-1.69-.09-6.81-1.09-8.26-3.57-.59-1.1-.23-2.46,.83-3.12,1.52-.88,2.88-.43,4.04,.85Z"/><path class="i" d="M49.8,10c.51-.97,.15-2.17-.81-2.69-.75-.4-1.68-.15-2.12,.57-1,1.69,.17,5,.7,6.06,1.14-.06,4.61-.75,5.59-2.43,.41-.75,.16-1.68-.57-2.12-.92-.61-2.16-.35-2.77,.58l-.02,.03Z"/><path class="i" d="M34.88,36.17c.72-.7,.77-1.85,.11-2.61-.51-.58-1.38-.67-2-.21-1.41,1.14-1.53,4.44-1.42,5.5,1,.33,4.26,.89,5.67-.25,.58-.51,.68-1.38,.22-2-.61-.81-1.74-1-2.58-.43Z"/><path class="i" d="M42.99,31.69c.88-.84,.95-2.22,.16-3.15-.62-.73-1.7-.84-2.45-.25-1.71,1.38-1.88,5.37-1.71,6.65,1.23,.4,5.16,1.08,6.86-.3,.73-.62,.84-1.7,.26-2.45-.74-.97-2.11-1.19-3.12-.5Z"/><path class="i" d="M10.54,29.24c-.72-.7-.78-1.84-.14-2.61,.51-.58,1.38-.67,2-.21,1.41,1.14,1.54,4.44,1.43,5.5-1,.33-4.27,.89-5.68-.25-.58-.51-.67-1.38-.21-2,.6-.83,1.76-1.02,2.6-.43Z"/><path class="i" d="M19.54,10.74c.08-1.01,.94-1.78,1.95-1.74,.79,.03,1.42,.67,1.43,1.46,0,1.81-2.52,4-3.42,4.53-.89-.59-3.35-2.78-3.34-4.59,.04-.78,.68-1.4,1.46-1.4,1-.02,1.84,.74,1.92,1.74Z"/><path class="i" d="M35.93,14.4c.12-1.35,1.27-2.37,2.62-2.33,1.07,.04,1.92,.93,1.92,2,0,2.44-3.38,5.32-4.59,6.09-1.2-.79-4.51-3.74-4.49-6.17,.04-1.07,.93-1.92,2-1.92,1.32,0,2.43,1.01,2.54,2.33Z"/><path class="i" d="M12.11,3.66c-.12-1.74,.42-3.03,2.09-3.56,1.2-.36,2.46,.3,2.86,1.49,.87,2.73-1.84,7.19-2.91,8.5-1.63-.45-6.42-2.54-7.28-5.28-.32-1.18,.33-2.41,1.49-2.81,1.63-.58,2.88,.15,3.75,1.66Z"/><path class="i" d="M4.32,10.38c-.48-.97-.1-2.15,.86-2.66,.74-.41,1.68-.16,2.12,.57,1,1.68-.17,5-.69,6.05-1.15-.06-4.62-.74-5.62-2.42-.4-.75-.14-1.69,.59-2.12,.92-.59,2.14-.33,2.74,.58Z"/><path class="i" d="M14.06,16.59c-.25-.91,.25-1.85,1.14-2.15,.7-.24,1.47,.12,1.73,.81,.58,1.59-.9,4.29-1.51,5.09-1-.22-3.85-1.34-4.43-2.93-.24-.7,.12-1.46,.81-1.73,.88-.34,1.86,.06,2.26,.91Z"/><path class="i" d="M27.43,7.21c-.1-1.27-1.17-2.24-2.44-2.21-1,.02-1.81,.83-1.83,1.83,0,2.29,3.14,5,4.28,5.78,1.13-.74,4.28-3.49,4.28-5.78-.03-1-.84-1.81-1.84-1.83-1.27-.03-2.35,.94-2.45,2.21Z"/><path class="i" d="M40.04,23.49c-.02-.08-.1-.14-.18-.14h-.22s-.11,.03-.14,.07c-.02,.05-.02,.1,0,.15,0,.19,.81,4.71-4.29,5.7h-.18l.06-.1v-.06c2-3.4,1.18-7.69,1.14-7.87,0-.09-.09-.16-.18-.15h-.29s-.1,.02-.13,.06c-.03,.04-.05,.09-.05,.14,.12,1.43-.02,2.88-.41,4.26-.64,2.72-2.86,4.77-5.62,5.19-.11,.01-.22,.01-.33,0-.29,0-.5-.09-.56-1.35,0-.81-.64-15.36-.65-15.52,0-.1-.08-.18-.18-.18h-.71c-.1,0-.18,.08-.19,.18,0,.08-.36,8.88-.42,10.22s-.14,1.41-.48,1.41h-.29c-2.8-.35-5.1-2.4-5.75-5.15-.36-1.39-.46-2.83-.3-4.25,.02-.05,.02-.1,0-.15-.04-.04-.09-.06-.14-.06h-.29c-.09,0-.16,.06-.18,.14,0,.18-1,4.43,1.1,7.81,.15,.28,.32,.55,.51,.81-1.31,.08-2.58-.43-3.46-1.4-.57-.63-1-1.38-1.24-2.19-.02-.05-.05-.09-.1-.12-.05-.02-.11-.02-.16,0l-.2,.1c-.07,.04-.11,.12-.1,.2,.4,1.7,1.45,3.18,2.93,4.11,1.09,.57,2.34,.77,3.55,.57,1.14,.85,2.45,1.45,3.84,1.76,.44,.1,.6,.32,.55,1.36s-.79,14.33-.8,14.47c-.02,.04-.02,.09,0,.13,.04,.04,.09,.06,.14,.06h3.64s.1-.02,.14-.06c.03-.04,.05-.09,.05-.14,0-.07-.66-8.71-.68-9.4v-.1c0-.74,0-1,.29-1,1.67-.15,3.24-.86,4.46-2,.06-.06,.15-.1,.24-.1,2.46-.18,4.23-1,5.29-2.42,.97-1.47,1.32-3.26,.97-4.99Z"/><path class="h" d="M66.11,13.47c.23,.02,.4,.21,.39,.44,0,.2-.12,.38-.31,.44-.76,.25-1.57,.37-2.37,.36-1.82,0-2.54-.64-2.55-1.93,0-.55,.9-.61,.91,0,0,.77,.46,1.08,1.62,1.08,.75,0,1.48-.13,2.19-.37,.04-.01,.08-.02,.12-.02Zm-2.24-4.35c.54,0,1.08-.04,1.62-.12h.07c.23,0,.41,.18,.41,.41v.02c0,.23-.16,.44-.39,.48-.57,.08-1.14,.12-1.72,.12-.56,.03-1.12,.02-1.68-.03-.23-.02-.4-.22-.39-.45-.07-.23,.06-.47,.29-.53,.04-.01,.09-.02,.14-.02h.06c.4,.08,.97,.12,1.59,.12Z"/><path class="h" d="M70.75,13.29c-.23,.61-.83,1.01-1.48,1-.82,0-1.52-.73-1.52-2.08,.05-1.82,1.56-3.26,3.38-3.22h.14c1.56-.09,2.9,1.09,3,2.65v.1c.05,1.39-.87,2.64-2.22,3h-.16c-.25,0-.46-.22-.45-.47h0c0-.19,.13-.36,.31-.42,1-.23,1.68-1.16,1.6-2.19,0-1.03-.81-1.88-1.84-1.92,0,1.22-.25,2.43-.76,3.54h0Zm-2.12-1.1c0,.88,.31,1.25,.65,1.25,.3-.01,.57-.21,.66-.5,.45-.97,.68-2.03,.68-3.1-1.15,.19-2,1.18-1.99,2.35Z"/><path class="h" d="M76.53,11.59c-.53,0-.82-.24-.82-.78v-1.64c0-.21,.16-.31,.41-.31s.42,.1,.42,.31v1.4c0,.2,.07,.26,.26,.26h1.29v-2.22c0-.2,.18-.32,.42-.32s.43,.12,.43,.32v2.22h1.38c.18,0,.25-.06,.25-.26v-1.39c0-.21,.16-.32,.41-.32s.42,.11,.42,.32v1.63c0,.54-.29,.78-.82,.78h-1.59v2.52h1.63c.19,0,.26-.08,.26-.27v-1.38c0-.23,.17-.35,.42-.35s.42,.12,.42,.35v1.62c.06,.39-.21,.76-.6,.82-.07,.01-.14,.01-.22,0h-4.66c-.4,.05-.77-.23-.82-.63v-1.8c0-.24,.15-.36,.42-.36s.41,.12,.41,.36v1.37c0,.19,.08,.27,.27,.27h1.57v-2.52h-1.56Z"/><path class="h" d="M84.45,13.54c.22,.39,.54,.58,1.39,.66h1.25c.79,0,1.55,0,2.21-.08h0c.23,0,.36,.11,.37,.38h0c.01,.22-.15,.4-.37,.41h-2.22c-.45,0-.91-.02-1.36-.07-.65,.01-1.28-.27-1.7-.77-.22,.28-.48,.54-.76,.76-.06,.04-.14,.06-.21,.06-.13,0-.25-.06-.32-.17-.06-.08-.1-.17-.1-.27,0-.11,.06-.22,.15-.28,.32-.22,.61-.49,.86-.79v-1.31c0-.17,0-.2-.19-.2h-.46c-.18,0-.3-.14-.3-.37s.12-.36,.3-.36h.79c.46,0,.64,.21,.64,.7l.03,1.7Zm0-4c.13,.17,.1,.4-.07,.53l-.02,.02c-.09,.07-.2,.11-.31,.12-.11,0-.21-.05-.26-.14-.26-.38-.55-.74-.87-1.07-.06-.05-.09-.13-.09-.21,0-.12,.07-.22,.16-.29,.09-.08,.2-.12,.31-.12,.09,0,.17,.03,.24,.09,.34,.33,.64,.7,.91,1.09v-.02Zm4.08-.93c.29,0,.45,.17,.45,.37,0,.16-.08,.3-.2,.4-.28,.24-.58,.45-.9,.64,.49,.15,.98,.24,1.49,.29,.17,0,.3,.13,.3,.3v.11c0,.16-.13,.29-.29,.29h-.11c-.76-.09-1.5-.28-2.2-.58-.71,.31-1.46,.53-2.23,.66h-.06c-.16,0-.28-.11-.32-.31v-.07c0-.16,.12-.29,.28-.3,.54-.08,1.08-.21,1.6-.39-.22-.14-.43-.3-.62-.48-.16,.11-.33,.2-.5,.29-.06,.01-.11,.01-.17,0-.19-.02-.35-.18-.35-.37,0-.11,.07-.22,.18-.26,.49-.24,.93-.58,1.28-1,.08-.09,.19-.14,.31-.13h.2c.16,0,.28,.11,.28,.21,0,.06-.03,.11-.08,.15l-.06,.07,1.72,.11Zm-3.2,4c-.15,0-.23-.14-.23-.29s.08-.28,.23-.28h1.35v-.34h-1.46c-.15,0-.23-.14-.23-.3s.08-.3,.23-.3h1.46v-.24c0-.15,.16-.24,.38-.24s.37,.09,.37,.24v.24h1.56c.15,0,.23,.13,.23,.3s-.08,.3-.23,.3h-1.56v.34h1.42c.15,0,.22,.12,.22,.28s-.07,.29-.22,.29h-1.42v.39h1.89c.14,0,.23,.13,.23,.3s-.09,.32-.23,.32h-1.89v.23c0,.17-.16,.27-.38,.27s-.37-.1-.37-.27v-.23h-1.69c-.15,0-.23-.14-.23-.32s.08-.3,.23-.3h1.67v-.35l-1.33-.04Zm.91-3.44c.26,.2,.55,.37,.85,.51,.24-.12,.47-.25,.7-.39,0,0,.06-.06,.06-.08s0,0-.09,0l-1.52-.04Z"/><path class="h" d="M91.32,9c.24-.02,.45,.17,.47,.41v.02c-.08,1.25,.07,2.5,.44,3.7,.15,.32,.27,.4,.43,.4s.36-.13,.54-1.07c.03-.19,.21-.33,.4-.32,.24-.01,.45,.18,.46,.42h0v.1c-.27,1.47-.79,1.86-1.38,1.86-.55,0-1.04-.34-1.22-.85-.48-1.36-.69-2.8-.6-4.24,0-.24,.19-.43,.43-.43h.03Zm3.5,.88c.02-.24,.23-.42,.47-.4,.14,0,.27,.05,.35,.16,.74,.85,1.23,1.89,1.41,3v.11c0,.28-.23,.51-.51,.51h-.01c-.22,0-.4-.16-.42-.37-.17-.96-.55-1.87-1.12-2.66-.09-.08-.15-.19-.17-.31v-.04Z"/><path class="h" d="M99.85,8.81c.04-.21,.22-.35,.43-.34,.24-.01,.45,.18,.47,.42v.09c-.06,.4-.15,.82-.24,1.24h.37c.67-.1,1.3,.37,1.39,1.04,.02,.12,.02,.24,0,.36,0,.78-.09,1.57-.27,2.33-.07,.59-.59,1.03-1.19,1-.25,0-.51-.02-.75-.08-.2-.04-.35-.22-.34-.43-.02-.24,.16-.45,.4-.48h.11c.16,.04,.32,.06,.49,.06,.21,0,.33-.08,.41-.37,.16-.65,.24-1.33,.23-2,0-.45-.15-.64-.51-.64h-.55c-.31,1.2-.75,2.36-1.31,3.46-.08,.14-.23,.23-.39,.23-.24,.01-.45-.18-.47-.42,0-.09,.02-.17,.06-.25,.5-.92,.89-1.89,1.17-2.9-.32,0-.64,.1-.93,.16h-.09c-.22,0-.39-.18-.38-.4v-.03c0-.2,.13-.38,.33-.41,.39-.08,.84-.14,1.3-.19,.1-.48,.19-.97,.26-1.45h0Zm2.5,1.18c.01-.24,.21-.42,.45-.41h0c.12,0,.25,.05,.34,.13,.6,.6,1.08,1.31,1.4,2.1,.01,.07,.01,.13,0,.2,0,.28-.23,.51-.51,.52-.19,0-.36-.14-.41-.32-.27-.7-.67-1.35-1.17-1.91-.07-.08-.1-.19-.1-.3h0Zm.64-1.42c.02-.15,.15-.27,.31-.25h0c.1,0,.19,.05,.25,.12,.2,.29,.37,.6,.5,.92v.11c-.01,.18-.16,.32-.34,.31-.11,0-.21-.06-.25-.17-.11-.31-.25-.62-.43-.9-.02-.04-.04-.09-.04-.14Zm.91-.37c.02-.15,.15-.25,.3-.24,.09,0,.18,.04,.24,.11,.21,.28,.4,.59,.55,.91v.11c-.02,.17-.17,.31-.34,.3-.1,0-.19-.05-.22-.15-.13-.33-.29-.64-.48-.94-.02-.03-.04-.06-.05-.1Z"/><path class="h" d="M112.11,14.14c.18,0,.27,.15,.27,.37s-.09,.39-.27,.39h-6.12c-.18,0-.28-.17-.28-.39s.1-.37,.28-.37h2.74v-1.59h-1.84c-.18,0-.28-.15-.28-.38s.1-.36,.28-.36h1.84v-1.37h-1.57c-.21,.43-.45,.85-.74,1.23-.07,.1-.18,.16-.3,.17-.1,0-.2-.05-.28-.12-.1-.06-.17-.18-.17-.3,0-.09,.03-.19,.09-.26,.55-.72,.96-1.54,1.19-2.41,.03-.15,.17-.25,.32-.25h.19c.16,.03,.28,.17,.29,.34v.11c-.07,.24-.15,.47-.24,.71h1.24v-1.13c0-.19,.18-.3,.42-.3s.43,.11,.43,.3v1.16h2.31c.18,0,.27,.14,.27,.37s-.09,.38-.27,.38h-2.31v1.37h1.94c.18,0,.28,.14,.28,.36s-.1,.38-.28,.38h-1.94v1.59h2.51Z"/><path class="h" d="M114.78,12.72v.12c-.18,.69-.42,1.36-.73,2-.05,.13-.19,.22-.33,.22-.07,0-.14-.02-.2-.05-.13-.05-.22-.17-.23-.31-.01-.06-.01-.13,0-.19,.31-.6,.55-1.23,.72-1.88,.03-.16,.16-.27,.32-.26h.13c.18,0,.32,.14,.32,.32v.03Zm0-1.81c.07,.07,.11,.17,.11,.27,0,.09-.03,.17-.09,.24-.07,.1-.19,.16-.31,.16-.09,0-.17-.03-.23-.09-.27-.23-.56-.45-.86-.65-.07-.06-.12-.15-.12-.25,.01-.21,.19-.39,.4-.4,.07,0,.14,.02,.2,.06,.33,.18,.63,.41,.91,.66h-.01Zm.21-1.86c.07,.07,.11,.18,.11,.28s-.03,.19-.1,.26c-.07,.09-.18,.14-.29,.15-.09,0-.18-.04-.25-.11-.25-.24-.51-.46-.79-.66-.08-.06-.12-.15-.12-.24,0-.1,.04-.19,.1-.26,.09-.09,.21-.14,.33-.15,.07,0,.14,.03,.2,.06,.29,.2,.56,.43,.81,.67Zm4.81-.55c.2,0,.29,.15,.29,.35s-.09,.38-.29,.38h-3.43c-.22,0-.29,.07-.29,.29v1.71c0,1.22-.23,2.44-.69,3.57-.06,.15-.21,.25-.37,.25-.07,0-.13-.02-.19-.05-.15-.04-.25-.18-.25-.33-.01-.08-.01-.15,0-.23,.46-1.05,.69-2.18,.67-3.33v-1.84c0-.53,.28-.77,.83-.77h3.72Zm-3.4,5c-.16,0-.25-.15-.25-.36s.1-.34,.27-.34h1.19v-.4c0-.2,.13-.27,.37-.27s.38,.07,.38,.27v.4h1.18c.17,0,.26,.13,.26,.34s-.09,.36-.26,.36h-1.15v.7h1.51c.17,0,.28,.12,.28,.34s-.11,.37-.28,.37h-3.82c-.17,0-.28-.14-.28-.36s.11-.35,.28-.35h1.56v-.7h-1.24Zm1.21-2.85h-1c-.17,0-.25-.13-.25-.33s.08-.36,.25-.36h1v-.28c0-.2,.13-.27,.37-.27s.38,.07,.38,.27v.32h1.19c.16,0,.25,.15,.25,.35s-.09,.34-.25,.34h-1.16v.61h1.36c.16,0,.29,.13,.29,.29v.04c0,.23-.11,.37-.29,.37h-3.26c-.17,0-.27-.14-.27-.36s.1-.34,.27-.34h1.15l-.03-.65Z"/><path class="h" d="M124.16,13.29c-.24,.61-.83,1.01-1.49,1-.81,0-1.51-.73-1.51-2.08,.04-1.82,1.55-3.26,3.36-3.22h.15c1.56-.09,2.9,1.09,3,2.65v.1c.05,1.39-.87,2.63-2.21,3h-.16c-.25,0-.46-.22-.45-.47h0c0-.19,.13-.36,.31-.42,1-.23,1.68-1.16,1.6-2.19,0-1.03-.82-1.88-1.85-1.92,.01,1.22-.24,2.43-.75,3.54h0Zm-2.12-1.1c0,.88,.3,1.25,.65,1.25s.47-.12,.66-.5c.45-.97,.68-2.03,.68-3.1-1.15,.19-2,1.18-1.99,2.35Z"/><path class="h" d="M131.44,11.51c.41-.11,.83-.17,1.26-.16,1.27,0,2.07,.64,2.07,1.55,.09,.86-.53,1.64-1.4,1.73-.1,.01-.2,.01-.3,0-.21,0-.42-.02-.62-.06-.24-.05-.4-.29-.35-.53,.04-.17,.17-.31,.35-.35h.08c.16,.03,.32,.05,.48,.06,.41,.05,.77-.25,.82-.65v-.16c0-.41-.36-.8-1.18-.8-.43,0-.85,.06-1.26,.2v1.53c0,.73-.33,1-.95,1-.79,0-1.64-.63-1.64-1.32,0-.31,.13-.6,.35-.82,.39-.43,.86-.78,1.4-1v-1.11c-.39,0-.76,.05-1.08,.05h-.19c-.22,0-.4-.19-.39-.41h0c0-.23,.16-.42,.38-.43h1.28v-1.1c0-.23,.19-.42,.42-.42s.42,.19,.42,.42v1c.24-.02,.48-.06,.72-.11h.09c.22,.01,.39,.2,.38,.42h0c0,.18-.12,.34-.3,.38-.26,.06-.57,.11-.89,.15l.05,.94h0Zm-.84,1.11c-.27,.13-.5,.31-.7,.53-.1,.09-.16,.23-.16,.37,0,.23,.38,.45,.63,.45s.23-.07,.23-.28v-1.07Zm4.39-2.62c.09,.08,.14,.2,.14,.32,0,.24-.2,.45-.44,.47-.1,0-.19-.04-.26-.11-.34-.33-.71-.61-1.12-.85-.12-.05-.19-.17-.19-.3,0-.24,.18-.43,.42-.44,.07,0,.14,.02,.2,.05,.46,.22,.88,.51,1.25,.86Z"/><path class="h" d="M139.87,9.47c1.47,0,2.35,.79,2.35,2,.02,.91-.45,1.76-1.23,2.22-.66,.39-1.4,.61-2.17,.64h0c-.26-.04-.44-.28-.41-.54,.03-.21,.2-.38,.41-.41,.62-.02,1.22-.2,1.76-.5,.46-.29,.74-.81,.71-1.36,0-.69-.39-1.17-1.38-1.17-1.11,.05-2.2,.29-3.23,.69h-.16c-.26-.02-.46-.25-.44-.51,0-.2,.12-.38,.31-.44,1.12-.38,2.3-.59,3.48-.62Z"/><path class="h" d="M147.49,12.44c-.25-.26-.48-.54-.67-.85-.77,.12-1.56,.19-2.34,.21-.22,0-.39-.18-.38-.4v-.03c-.02-.19,.11-.36,.3-.38h.03c.67,0,1.34-.06,2-.16-.1-.2-.19-.41-.28-.63-.66,.09-1.33,.14-2,.14-.21,0-.38-.17-.38-.38v-.04c-.02-.2,.13-.37,.33-.39h.03c.58,0,1.16-.04,1.73-.11-.06-.21-.12-.42-.17-.62v-.1c.02-.23,.22-.39,.45-.37h0c.18,0,.35,.11,.39,.29,.05,.23,.11,.46,.19,.69,.52-.08,1.04-.18,1.55-.31h.12c.22,0,.39,.18,.38,.4h0c0,.18-.1,.34-.27,.38-.51,.15-1.03,.26-1.56,.35,.09,.21,.18,.42,.29,.63,.51-.1,1-.21,1.45-.34h.13c.21,0,.38,.18,.37,.39h0c0,.19-.11,.35-.28,.4-.39,.12-.81,.22-1.25,.31,.27,.41,.58,.8,.92,1.15,.1,.09,.16,.22,.16,.36,0,.25-.21,.45-.46,.46h-.15c-.63-.27-1.31-.4-2-.39-1,0-1.27,.24-1.27,.56s.34,.58,1.35,.58c.41,0,.82-.03,1.22-.11h.08c.23,.02,.41,.22,.39,.45h0c0,.2-.13,.38-.33,.42-.45,.08-.9,.11-1.35,.1-1.49,0-2.24-.57-2.24-1.43s.6-1.31,2.1-1.31c.49,0,.97,.07,1.43,.22v-.14h0Z"/><path class="h" d="M154.2,10.71v-.23c.03-.18,.2-.3,.38-.29,.21-.02,.4,.14,.42,.35v.08c0,.06,0,.14-.05,.21,.94,.15,1.64,.94,1.68,1.89-.04,1.15-.87,2.13-2,2.35h-.14c-.24,0-.44-.2-.44-.44h0c0-.2,.13-.37,.31-.42,.94-.28,1.35-.83,1.35-1.51,0-.58-.43-1.07-1-1.17-.17,.52-.41,1.02-.72,1.47-.21,.29-.46,.56-.73,.8,.06,.18,.12,.34,.18,.5v.13c-.03,.24-.23,.41-.47,.4-.14,0-.28-.08-.33-.21,0-.09-.06-.19-.1-.29-.28,.23-.64,.35-1,.35-.6,.04-1.12-.41-1.17-1.01v-.21c.1-1.03,.78-1.91,1.74-2.28,0-.36,0-.7,.05-1.05h-1c-.19,0-.34-.17-.33-.37v-.02c-.02-.19,.12-.37,.31-.39h1.02l.09-.72c.05-.19,.23-.32,.43-.3,.2,0,.4,.11,.4,.32v.06l-.09,.63c.78,0,1.55-.09,2.2-.17h.06c.19,0,.35,.16,.35,.35v.03c0,.2-.14,.38-.34,.41-.72,.09-1.53,.15-2.35,.18v.77c.33-.08,.66-.12,1-.13l.28-.07h.01Zm-2,1.26c-.52,.29-.86,.8-.94,1.39,0,.31,.14,.44,.34,.44,.29,0,.57-.12,.78-.32-.1-.49-.16-.98-.18-1.48v-.03Zm.9,.93c.39-.41,.68-.9,.86-1.43-.34,0-.67,.05-1,.14,0,.43,.06,.86,.14,1.29Z"/><path class="h" d="M158.5,9c.24-.02,.46,.16,.48,.4v.03c-.08,1.25,.07,2.5,.43,3.7,.15,.32,.28,.4,.43,.4s.36-.13,.55-1.07c.03-.19,.21-.33,.4-.32,.24-.01,.45,.18,.46,.42h0v.1c-.27,1.47-.8,1.86-1.38,1.86-.55,0-1.04-.33-1.22-.85-.48-1.36-.69-2.8-.6-4.24,0-.24,.19-.43,.43-.43h.02Zm3.51,.88c.02-.24,.22-.41,.46-.4,.14,0,.27,.05,.36,.16,.73,.85,1.22,1.89,1.41,3v.11c0,.29-.24,.52-.53,.51h0c-.22,0-.4-.16-.42-.37-.19-.97-.59-1.88-1.17-2.67-.07-.08-.12-.19-.13-.3l.02-.04h0Z"/><path class="h" d="M169.71,10h.14c.25,.02,.44,.24,.43,.49,0,.17-.1,.33-.27,.38-.83,.24-1.63,.58-2.39,1-.79,.48-1,.91-1,1.34s.39,.73,1.46,.73c.67,0,1.35-.08,2-.25h.12c.25,.02,.44,.23,.42,.48h0c0,.23-.15,.43-.37,.47-.73,.16-1.47,.24-2.22,.22-1.62,0-2.41-.54-2.41-1.62,0-.61,.39-1.33,1.46-2-.25-.73-.44-1.49-.56-2.26v-.07c0-.24,.22-.43,.46-.42h0c.21-.02,.39,.13,.43,.33,.1,.68,.26,1.35,.46,2,.59-.31,1.2-.59,1.83-.82Z"/><path class="h" d="M173.79,8.59c.03-.19,.2-.32,.39-.3,.23-.02,.43,.15,.46,.38v.07c0,.27-.11,.55-.18,.82l.68-.08h.05c.23,.05,.38,.28,.32,.51-.03,.14-.13,.25-.26,.31-.32,.05-.67,.09-1,.12-.3,1.01-.74,1.98-1.3,2.88-.08,.14-.22,.22-.38,.22-.23,0-.43-.18-.44-.41,0-.1,.04-.21,.1-.29,.48-.72,.85-1.51,1.12-2.33h-.91c-.2-.02-.36-.19-.34-.4h0c0-.22,.11-.42,.33-.42h1.17c.05-.38,.13-.73,.19-1.08h0Zm4.37,4.89c.12,.07,.2,.21,.2,.35,0,.23-.18,.42-.41,.45-.09,0-.17-.03-.24-.09-.31-.26-.64-.48-1-.66v.26c0,.84-.59,1.21-1.44,1.21s-1.53-.43-1.53-1.22,.6-1.27,1.65-1.27h.37c-.07-.49-.1-.98-.11-1.47,0-.22,.19-.38,.41-.37h.02c.21-.02,.4,.13,.42,.34v.02c0,.55,.04,1.1,.12,1.64,.56,.17,1.08,.45,1.54,.81h0Zm-2.75-.22c-.61,0-.86,.25-.86,.51s.24,.45,.72,.45c.31,.03,.58-.2,.61-.51v-.39c-.15-.04-.31-.06-.47-.06Zm2.85-3.08c.1,.08,.16,.19,.16,.32,0,.25-.18,.47-.43,.5-.08,0-.15-.03-.21-.08-.4-.32-.83-.58-1.3-.78-.13-.05-.21-.17-.2-.31-.02-.23,.14-.44,.38-.46,.07,0,.14,0,.2,.03,.5,.2,.97,.46,1.4,.78Z"/><path class="h" d="M180.99,10.46c.39-1.13,1-1.6,1.71-1.6,1,0,1.77,.83,1.77,2.64,.08,1.54-.84,2.95-2.28,3.5-.24,.1-.52-.02-.62-.26-.1-.24,.02-.52,.26-.62h0c1.07-.41,1.75-1.46,1.71-2.6,0-1.27-.37-1.8-.91-1.8s-.94,.45-1.26,1.37c-.16,.47-.27,.96-.34,1.45-.03,.23-.23,.39-.46,.38-.21,.02-.41-.13-.43-.35h0v-1c.02-.95,.13-1.91,.33-2.84,.03-.18,.2-.3,.38-.29,.22-.02,.42,.14,.44,.36v.11c-.14,.52-.24,1.05-.29,1.59l-.02-.04h0Z"/><path class="h" d="M188.86,8.64c0-.2,.18-.36,.39-.35h.02c.21-.02,.4,.13,.42,.34v.77c.57,0,1.12-.08,1.6-.15h.07c.21,0,.38,.16,.39,.37v.04c0,.2-.15,.38-.35,.41-.57,.08-1.14,.14-1.71,.16v.74c.66,0,1.25-.09,1.81-.16h.06c.2,0,.37,.15,.38,.36v.04c0,.22-.16,.4-.37,.42-.58,.07-1.17,.12-1.84,.15,0,.32,0,.64,.08,1,.72,.19,1.39,.5,2,.92,.22,.13,.28,.42,.15,.63-.08,.13-.22,.21-.37,.22-.1,0-.19-.04-.26-.1-.45-.36-.95-.65-1.49-.86v.17c0,.93-.68,1.31-1.71,1.31s-1.61-.47-1.61-1.22,.58-1.25,1.78-1.25h.61c0-.25-.05-.52-.07-.77h-.23c-.72,0-1.31,0-1.8-.06-.21-.02-.37-.21-.36-.42,0-.21,.15-.39,.36-.4h.18c.48,0,1,.07,1.7,.07h.21v-.75h-.18c-.51,0-1.02-.03-1.53-.08-.22-.02-.38-.2-.37-.42,0-.22,.16-.39,.38-.4h.07c.44,0,.87,.09,1.43,.09h.2l-.04-.82h0Zm-.51,4.66c-.6,0-.89,.22-.89,.49s.26,.43,.76,.43,.82-.21,.82-.6v-.24c-.23-.05-.46-.08-.69-.08Z"/><path class="h" d="M196.52,8.6c0-.22,.22-.34,.43-.34,.2-.02,.39,.12,.41,.33h0v.77h2.22c.21,.02,.38,.2,.36,.42h0c.02,.2-.13,.37-.33,.39h-2.24c0,.39,0,.79,.05,1.18,.25,.36,.37,.79,.36,1.23,0,1.25-.92,2.32-2.16,2.5h-.12c-.25,0-.46-.22-.45-.47h0c0-.21,.14-.39,.34-.42,.72-.06,1.34-.52,1.6-1.19h0c-.22,.27-.56,.41-.91,.39-.68,0-1.25-.54-1.25-1.23v-.09c-.03-.69,.47-1.29,1.16-1.38,.18,0,.36,.02,.53,.06v-.55c-1,0-2,.09-3,.15h0c-.23,0-.34-.21-.34-.42-.02-.2,.12-.39,.33-.41h0l3-.13v-.79Zm-.41,4.05c.34,0,.62-.28,.62-.62s-.28-.62-.62-.62c-.32,.02-.57,.29-.55,.61h0c-.04,.31,.18,.59,.49,.63h.06Z"/><path class="h" d="M203.31,9.68v.4c.56-.02,1.13-.08,1.68-.19h.08c.23,.02,.39,.22,.37,.45h0c.02,.2-.1,.37-.28,.4-.61,.13-1.22,.19-1.84,.19,0,.51,.09,1,.15,1.54,.8,.18,1.57,.52,2.24,1,.13,.08,.21,.22,.21,.37,0,.26-.2,.46-.46,.48-.09,0-.18-.03-.25-.09-.51-.38-1.06-.69-1.64-.93v.23c0,1-.67,1.38-1.79,1.38s-1.64-.54-1.64-1.27,.73-1.38,1.83-1.38c.19-.01,.38-.01,.57,0-.12-.88-.18-1.76-.18-2.64v-.83c.05-.25,.3-.41,.55-.35,.18,.04,.32,.18,.35,.35l.05,.89h0Zm-1.32,3.4c-.62,0-.92,.26-.92,.58s.29,.45,.7,.45c.6,0,.94-.18,.94-.65v-.29c-.23-.07-.48-.1-.72-.09Z"/><path class="h" d="M210.12,10.26c1.42,0,2,.76,2,1.71-.05,1.41-1.01,2.63-2.37,3-.05,.01-.11,.01-.16,0-.26,0-.47-.22-.46-.48h0c0-.2,.12-.37,.31-.43,.96-.24,1.66-1.07,1.73-2.06,0-.57-.28-.88-1.05-.88-.73,.02-1.46,.16-2.15,.41-.06,.01-.12,.01-.18,0-.23-.02-.41-.23-.39-.46,0-.21,.13-.4,.33-.47,.77-.23,1.58-.35,2.39-.34Zm-1.46-1c-.19-.05-.32-.22-.31-.42,0-.25,.18-.47,.43-.49h.09c.76,.19,1.54,.31,2.32,.34,.23,.02,.41,.22,.39,.45h0c.02,.24-.16,.46-.4,.48h-.02c-.84-.02-1.68-.13-2.5-.34v-.02Z"/><path class="h" d="M214.99,8.7c.24-.02,.46,.16,.48,.4v.1c-.23,1.07-.36,2.16-.39,3.25,0,.6,.08,1.21,.2,1.8v.1c0,.25-.22,.45-.48,.44h-.02c-.2,.01-.37-.13-.41-.32-.13-.66-.2-1.33-.21-2,0-1.17,.13-2.33,.37-3.47,.05-.21,.25-.34,.46-.3h0Zm4.64,4.59c.23,0,.4,.2,.39,.43v.02c0,.21-.14,.39-.34,.44-.49,.11-.99,.16-1.49,.15-1.16,0-1.83-.43-2-1.34v-.08c.02-.24,.22-.43,.47-.41h0c.18-.01,.35,.1,.4,.28,.1,.47,.44,.68,1.12,.68,.45,0,.9-.05,1.33-.16h.11Zm-1.17-4.02c.33,0,.67,.02,1,.07,.21,.04,.35,.22,.33,.43,.02,.21-.14,.4-.36,.42h0c-.3-.04-.6-.05-.9-.05-.5,0-1,.07-1.49,.18h-.11c-.21,0-.38-.17-.38-.38v-.04c0-.2,.12-.37,.31-.43,.51-.12,1.04-.19,1.57-.19h.03Z"/><path class="h" d="M72.99,24.8v-3.52c0-.48,.05-1.71,2-1.71,1.66,0,2,.77,2,1.71v3.52h2.6c.53,0,.9,.28,.9,.78,0,.44-.34,.81-.78,.82h-2.72c0,5.09,0,8-3.32,10.25-1.62,1.03-3.45,1.71-5.35,2-.31,0-.92,.15-1.21,.15-.45,0-.82-.34-.83-.79v-.02c0-.72,.62-.83,1-.9,5.71-1.03,5.71-5.08,5.71-8.2v-2.49h-4.23v4.35c0,.55,0,1.75-2,1.75s-2-1.05-2-1.77v-4.33h-2.6c-.44,.05-.84-.27-.89-.7v-.11c0-.43,.34-.78,.77-.79h2.7v-3.48c0-.61,0-1.75,2-1.75s2,1.05,2,1.77v3.46h4.25Z"/><path class="h" d="M83.71,34.26c3.28-.61,7.14-1.33,11.58-5.4,1.12-1,2.1-2.15,2.89-3.43,.13-.25,.39-.41,.67-.41,.43-.02,.8,.31,.83,.74-.9,2.48-2.38,4.7-4.32,6.49-2.48,2.41-5.46,4.24-8.74,5.35-.96,.47-2,.75-3.06,.83-1.47,0-1.88-1.5-1.88-2.18,0-1.38,.72-1.75,2.03-1.99Zm3.17-9.77c-1.05-1.19-2.27-2.22-3.61-3.06-.72-.44-.92-.57-.92-1,.02-.41,.36-.74,.77-.74,1.53,.26,3.03,.7,4.46,1.31,2.64,1.13,3.06,1.77,3.06,2.55-.04,1.06-.83,1.93-1.88,2.06-.77,.04-.96-.07-1.88-1.12Z"/><path class="h" d="M117.73,21.3c.69-.06,1.29,.45,1.36,1.13v.09c0,.81-2,3.76-5,6.28-.3,.24-.94,.78-1.18,.94-.14,.1-.31,.16-.48,.15-.5-.03-.9-.42-.94-.92,0-.26,0-.35,.48-.94,.99-1.44,1.71-3.04,2.12-4.74,0-.22-.19-.4-.41-.4h-12.34c-.44,.05-.83-.27-.88-.71-.05-.44,.27-.83,.71-.88h16.56Zm-6.74,6.32c0,4.83-1.42,7.19-5,9-1.41,.72-2.92,1.24-4.48,1.53-.44-.03-.77-.39-.76-.83,0-.5,.24-.68,1-.9,1.65-.49,3.07-1.55,4-3,.85-1.45,1.25-3.12,1.14-4.79v-2.11c0-.85,.37-1.79,2.07-1.79s2.12,.7,2.12,1.79l-.09,1.1Z"/><path class="h" d="M131.8,37.52c0,.56,0,1.74-2,1.74s-2-1-2-1.74v-9.25c-2.61,1.16-5.34,2.02-8.15,2.54-.41-.03-.72-.36-.72-.77s.19-.57,.65-.72c1-.33,7.06-2.45,11-7.1,.48-.55,1.24-1.58,1.59-2.06,.38-.51,.97-.81,1.6-.81,1.23-.02,2.27,.9,2.4,2.12,0,.7-.28,1.08-1.66,2.32-.85,.8-1.76,1.54-2.71,2.21v11.52h0Z"/><path class="h" d="M154.35,23c.96,0,1.74,.79,1.73,1.75v.04c0,.22-.81,7.5-6.43,11.24-2.3,1.42-4.88,2.32-7.56,2.64-.15,0-1.68,.24-2,.24-.44,.02-.81-.33-.83-.77v-.04c0-.65,.48-.74,1.24-.89,3.24-.59,6.93-1.82,9.4-6.08,1.05-1.8,1.69-3.82,1.86-5.9,0-.33-.15-.63-.52-.63h-4.9c-1.09,1.72-2.53,3.19-4.24,4.3-.87,.6-1.82,1.08-2.82,1.4-.46,.01-.84-.35-.85-.81v-.02c0-.44,.15-.55,.87-1.09,2.08-1.62,3.53-3.92,4.09-6.49,.39-1.82,.55-2.52,2.14-2.52,.9,0,2.38,.4,2.38,1.69-.08,.69-.31,1.35-.67,1.94h7.11Zm2.45-1.09c-.04,.52-.48,.92-1,.92-.46,0-.57-.2-1-.94-.3-.52-.64-1.02-1-1.49-.11-.11-.17-.26-.16-.41,0-.39,.34-.7,.73-.69,.06,0,.11,.01,.17,.03,.45,.11,2.26,1.93,2.26,2.56v.02h0Zm2-1.31c-.05,.49-.45,.86-.94,.89-.42,0-.48-.13-.94-.78-.13-.2-.77-.94-.94-1.16-.12-.12-.2-.29-.2-.46,.02-.4,.37-.71,.77-.69h.08c.28,.05,2.14,1.45,2.14,2.17l.03,.02h0Z"/><path class="h" d="M164.99,28.45c0,4.08-1.38,6.36-3.19,8-1.14,1.03-2.48,1.81-3.94,2.3-.48-.02-.87-.42-.87-.9,0-.24,.09-.44,.76-1,2.69-2.21,3.33-4.66,3.33-8.07v-7c0-.42,0-1.77,1.92-1.77s2,1.26,2,1.77v6.67h0Zm5.73,3.73c0,.2,.05,.53,.4,.53,.87,0,3.23-2.12,4.37-4,.39-.66,.59-.76,.87-.76,.42,0,.77,.34,.81,.76-.71,2.23-1.9,4.27-3.47,6-1.64,1.77-4,3.32-5.27,3.32-.86,.04-1.59-.63-1.63-1.49v-14.8c0-.42,0-1.77,1.93-1.77s2,1.26,2,1.77l-.02,10.44h.01Z"/><path class="h" d="M199.19,28.12c.58,.03,1.03,.52,1,1.1h0c.07,.56-.32,1.06-.87,1.13h-17.99c-.62-.06-1.07-.6-1.01-1.22,.05-.53,.47-.96,1.01-1.01h17.86Z"/><path class="h" d="M200.76,23.18c-.44,.07-.86-.23-.93-.67-.07-.44,.23-.86,.67-.93,.08-.01,.17-.01,.25,0h13.66c.43,0,.85,.14,1.2,.38-.22-.36-.34-.78-.33-1.21,0-1.3,1.05-2.35,2.35-2.35s2.35,1.05,2.35,2.35-1.04,2.35-2.34,2.36c-.5,0-1-.16-1.4-.46,.19,.35,.28,.74,.26,1.14-.65,4.18-2.81,7.99-6.07,10.69-2.77,1.93-5.92,3.23-9.24,3.82-.44,0-.8-.37-.79-.81v-.02c0-.46,.3-.72,.94-.92,3.82-.99,7.06-3.49,9-6.92,.96-1.78,1.59-3.71,1.86-5.71,0-.43-.2-.74-.66-.74h-10.78Zm15.84-2.43c0,.55,.45,1,1,1s1-.45,1-1-.45-1-1-1-1,.45-1,1Z"/></g></g></g></g></g></g></svg>