<svg id="グループ_5" data-name="グループ 5" xmlns="http://www.w3.org/2000/svg" width="670.497" height="77.91" viewBox="0 0 670.497 77.91">
  <g id="グループ_4" data-name="グループ 4" transform="translate(0)">
    <g id="グループ_3" data-name="グループ 3">
      <path id="パス_27" data-name="パス 27" d="M243.364,292.462c0,10.782-7.971,18.608-23.577,18.608-15.7,0-23.3-7.594-23.3-18.481V245.616H181.937v46.973c0,22.811,17.928,30.936,37.85,30.936,24.343,0,37.991-12.718,37.991-30.936V245.616H243.364Z" transform="translate(197.732 -245.616)" fill="#fff"/>
      <path id="パス_28" data-name="パス 28" d="M247.023,245.616c-27.413,0-44.814,15.52-44.814,37.737,0,22.906,19.075,40.172,46.678,40.172,16.758,0,25.078-4.693,26.17-5.228l.458-.227V304.581l-1.532,1.029c-6.411,4.289-14.205,6.652-25.1,6.652-19.963,0-30.578-15.071-30.578-29.036,0-15.017,11.43-26.343,28.882-26.343,15.407,0,24.284,6.112,28.138,8.746l1.542,1.043V252.934l-.426-.231C267.69,248,258.944,245.616,247.023,245.616Z" transform="translate(269.374 -245.616)" fill="#fff"/>
      <path id="パス_29" data-name="パス 29" d="M98.2,258.776h34.9v64.749h15.712V258.776h34.577v-13.16H98.2Z" transform="translate(-98.2 -245.615)" fill="#fff"/>
      <path id="パス_30" data-name="パス 30" d="M220.056,245.616H197.87l-38.961,34.524V245.616h-15.9v77.909h15.9V298.6l15.8-15.475L203.2,323.525h18.394L185.826,275.05Z" transform="translate(60.149 -245.615)" fill="#fff"/>
      <path id="パス_31" data-name="パス 31" d="M163.831,323.525h66.216v-9.959H179.734V289.718h45.127V278.463H179.734V255.575h50.313v-9.959H163.831Z" transform="translate(133.742 -245.615)" fill="#fff"/>
      <path id="パス_32" data-name="パス 32" d="M280.611,275.522H238.023V245.616h-15.9v77.909h15.9v-36.7h42.588v36.7h15.709V245.616H280.611Z" transform="translate(339.739 -245.615)" fill="#fff"/>
      <rect id="長方形_3" data-name="長方形 3" width="15.518" height="77.909" transform="translate(654.98 0.001)" fill="#fff"/>
      <path id="パス_33" data-name="パス 33" d="M204.92,263.63c3.124-5.609,5.654-9.961,8.2-14.1l1.505-2.457H198.192l-10.034,20.716c-.277-5.736-1.279-9.508-3.251-12.555-4.108-6.2-11.993-9.617-22.208-9.617-24.729,0-44.1,20.426-44.1,46.5,0,19.079,11.725,31.407,29.866,31.407a35.5,35.5,0,0,0,21.242-6.679,31.582,31.582,0,0,0,7.427-7.554,17.187,17.187,0,0,0,2.589,7.953C182.39,321.112,186.5,323,192.284,323c6.461,0,10.981-1.954,16.123-6.969l.934-.911-6.611-10.261-1.469,1.909c-2.367,3.079-4.824,4.511-7.722,4.511-2.779,0-4.461-.87-4.461-12.94,0-.889,0-2.516.127-6.452Zm-28.687,11.412c0,5.491-.154,11.426-.4,15.37-.5.97-2.811,4.774-4.094,6.806a47.733,47.733,0,0,1-5.518,7.155c-4.715,4.847-10.17,7.3-16.218,7.3-10.587,0-17.161-7.291-17.161-19.025,0-19.546,13.208-35.443,29.44-35.443,5.042,0,8.769,1.514,11.095,4.534C175.322,264.165,176.233,268.4,176.233,275.042Z" transform="translate(-26.101 -245.616)" fill="#c3936a"/>
    </g>
  </g>
</svg>
