<svg xmlns="http://www.w3.org/2000/svg" width="74.68mm" height="16.81mm" viewBox="0 0 211.69 47.64"><defs><style>.cls-1{fill:#231815;}</style></defs><g id="レイヤー_2" data-name="レイヤー 2"><g id="レイヤー_4" data-name="レイヤー 4"><path class="cls-1" d="M72.16,25.51c-3,0-5.23-.63-7.15-2.58l2.47-2.48a6.41,6.41,0,0,0,4.73,1.65c2.26,0,3.47-.85,3.47-2.42A2.17,2.17,0,0,0,75.07,18a2.89,2.89,0,0,0-1.73-.68L71,17a6.61,6.61,0,0,1-3.79-1.62,5.18,5.18,0,0,1-1.4-3.85c0-3.49,2.58-5.94,6.82-5.94a8.32,8.32,0,0,1,6.31,2.28l-2.41,2.4a5.42,5.42,0,0,0-4-1.35c-2,0-3,1.13-3,2.47A1.92,1.92,0,0,0,70,12.81a3.42,3.42,0,0,0,1.81.77l2.31.33a6.47,6.47,0,0,1,3.74,1.51,5.5,5.5,0,0,1,1.51,4.15C79.41,23.37,76.25,25.51,72.16,25.51Z"/><path class="cls-1" d="M92,25.34v-8.2H85.37v8.2H81.55V5.77h3.82v8H92v-8h3.83V25.34Z"/><path class="cls-1" d="M98.91,25.34V5.77h3.83V25.34Z"/><path class="cls-1" d="M117.42,25.34l-7.77-12v12h-3.82V5.77h3.41l7.76,12v-12h3.83V25.34Z"/><path class="cls-1" d="M135.26,23.37A7.08,7.08,0,0,1,130,25.51a7.17,7.17,0,0,1-5.31-2.14c-2-2-1.92-4.43-1.92-7.81s-.06-5.84,1.92-7.82A7.17,7.17,0,0,1,130,5.6a7.08,7.08,0,0,1,5.27,2.14c2,2,2,4.43,2,7.82S137.24,21.39,135.26,23.37Zm-2.83-13.32A3.17,3.17,0,0,0,130,9a3.25,3.25,0,0,0-2.48,1c-.74.83-.93,1.74-.93,5.51s.19,4.67.93,5.5a3.25,3.25,0,0,0,2.48,1,3.17,3.17,0,0,0,2.44-1c.74-.83,1-1.74,1-5.5S133.17,10.88,132.43,10.05Z"/><path class="cls-1" d="M151.05,25.34l-5-8.9-2.53,3v5.88h-3.82V5.77h3.82v8.52l6.91-8.52H155l-6.49,7.78,6.95,11.79Z"/><path class="cls-1" d="M170.07,25.34l-1.16-3.46H162l-1.19,3.46h-4l7.13-19.57h3l7.15,19.57Zm-4.57-13.8L163,18.66h4.87Z"/><path class="cls-1" d="M190.23,25.34H187l-3.61-11.87-3.6,11.87h-3.19L171.41,5.77h4l3,12.34L182,5.77h2.86l3.58,12.34,3.05-12.34h4Z"/><path class="cls-1" d="M206.12,25.34,205,21.88h-7l-1.18,3.46h-4L200,5.77h3l7.15,19.57Zm-4.57-13.8-2.47,7.12H204Z"/><path class="cls-1" d="M68.73,43.38a3.46,3.46,0,0,1-2.55-1,2.68,2.68,0,0,1-.76-1.42,12.46,12.46,0,0,1-.16-2.34,12.58,12.58,0,0,1,.16-2.35,2.62,2.62,0,0,1,.76-1.41,3.47,3.47,0,0,1,2.55-1,3.33,3.33,0,0,1,3.47,3H70.33a1.55,1.55,0,0,0-1.59-1.33,1.47,1.47,0,0,0-1.18.49c-.38.41-.46.83-.46,2.66s.08,2.25.46,2.66a1.47,1.47,0,0,0,1.18.49,1.55,1.55,0,0,0,1.59-1.34H72.2A3.33,3.33,0,0,1,68.73,43.38Z"/><path class="cls-1" d="M79.49,42.35a3.66,3.66,0,0,1-5.09,0c-1-1-.93-2.13-.93-3.76s0-2.81.93-3.76a3.63,3.63,0,0,1,5.09,0c1,1,.94,2.13.94,3.76S80.44,41.4,79.49,42.35Zm-1.36-6.41a1.65,1.65,0,0,0-2.37,0c-.36.4-.45.83-.45,2.65s.09,2.25.45,2.65a1.65,1.65,0,0,0,2.37,0c.35-.4.46-.84.46-2.65S78.48,36.34,78.13,35.94Z"/><path class="cls-1" d="M87.9,43.3l-3.74-5.78V43.3H82.32V33.88H84l3.74,5.77V33.88h1.84V43.3Z"/><path class="cls-1" d="M94.33,43.38a4.41,4.41,0,0,1-3.44-1.24L92.08,41a3.1,3.1,0,0,0,2.28.79c1.08,0,1.67-.41,1.67-1.16a1.06,1.06,0,0,0-.3-.8,1.4,1.4,0,0,0-.83-.33l-1.14-.16a3.23,3.23,0,0,1-1.83-.78,2.49,2.49,0,0,1-.67-1.85c0-1.69,1.24-2.87,3.28-2.87a4,4,0,0,1,3,1.1l-1.16,1.16a2.61,2.61,0,0,0-1.93-.65c-1,0-1.46.54-1.46,1.19a.92.92,0,0,0,.28.68,1.63,1.63,0,0,0,.87.36l1.12.16a3.07,3.07,0,0,1,1.79.73,2.63,2.63,0,0,1,.73,2C97.82,42.35,96.3,43.38,94.33,43.38Z"/><path class="cls-1" d="M103.16,35.52V43.3h-1.84V35.52H98.86V33.88h6.77v1.64Z"/><path class="cls-1" d="M112.12,43.3l-1.83-3.76H109V43.3h-1.84V33.88h3.69a2.85,2.85,0,0,1,3.06,2.88,2.53,2.53,0,0,1-1.72,2.47l2.1,4.07Zm-1.43-7.78H109V38h1.73a1.24,1.24,0,1,0,0-2.48Z"/><path class="cls-1" d="M119.1,43.38a3.28,3.28,0,0,1-3.47-3.31V33.88h1.84V40a1.64,1.64,0,1,0,3.28,0V33.88h1.83v6.19A3.28,3.28,0,0,1,119.1,43.38Z"/><path class="cls-1" d="M127.78,43.38a3.44,3.44,0,0,1-2.54-1,2.7,2.7,0,0,1-.77-1.42,12.46,12.46,0,0,1-.16-2.34,12.58,12.58,0,0,1,.16-2.35,2.63,2.63,0,0,1,.77-1.41,3.45,3.45,0,0,1,2.54-1,3.33,3.33,0,0,1,3.47,3h-1.87a1.55,1.55,0,0,0-1.59-1.33,1.47,1.47,0,0,0-1.18.49c-.38.41-.46.83-.46,2.66s.08,2.25.46,2.66a1.47,1.47,0,0,0,1.18.49,1.55,1.55,0,0,0,1.59-1.34h1.87A3.33,3.33,0,0,1,127.78,43.38Z"/><path class="cls-1" d="M136.44,35.52V43.3H134.6V35.52h-2.46V33.88h6.77v1.64Z"/><path class="cls-1" d="M140.4,43.3V33.88h1.84V43.3Z"/><path class="cls-1" d="M150.14,42.35a3.66,3.66,0,0,1-5.09,0c-1-1-.93-2.13-.93-3.76s0-2.81.93-3.76a3.63,3.63,0,0,1,5.09,0c1,1,.94,2.13.94,3.76S151.1,41.4,150.14,42.35Zm-1.36-6.41a1.53,1.53,0,0,0-1.18-.5,1.55,1.55,0,0,0-1.19.5c-.36.4-.45.83-.45,2.65s.09,2.25.45,2.65a1.58,1.58,0,0,0,1.19.5,1.56,1.56,0,0,0,1.18-.5c.36-.4.46-.84.46-2.65S149.14,36.34,148.78,35.94Z"/><path class="cls-1" d="M158.55,43.3l-3.74-5.78V43.3H153V33.88h1.64l3.74,5.77V33.88h1.84V43.3Z"/><path class="cls-1" d="M168.61,43.38a3.46,3.46,0,0,1-2.55-1,2.83,2.83,0,0,1-.76-1.42,12.46,12.46,0,0,1-.16-2.34,12.58,12.58,0,0,1,.16-2.35,2.76,2.76,0,0,1,.76-1.41,3.47,3.47,0,0,1,2.55-1,3.33,3.33,0,0,1,3.47,3h-1.87a1.55,1.55,0,0,0-1.59-1.33,1.47,1.47,0,0,0-1.18.49c-.38.41-.46.83-.46,2.66s.08,2.25.46,2.66a1.47,1.47,0,0,0,1.18.49,1.55,1.55,0,0,0,1.59-1.34h1.87A3.33,3.33,0,0,1,168.61,43.38Z"/><path class="cls-1" d="M179.37,42.35a3.66,3.66,0,0,1-5.09,0c-1-1-.93-2.13-.93-3.76s0-2.81.93-3.76a3.63,3.63,0,0,1,5.09,0c.95,1,.94,2.13.94,3.76S180.32,41.4,179.37,42.35ZM178,35.94a1.53,1.53,0,0,0-1.18-.5,1.55,1.55,0,0,0-1.19.5c-.36.4-.45.83-.45,2.65s.09,2.25.45,2.65a1.58,1.58,0,0,0,1.19.5,1.56,1.56,0,0,0,1.18-.5c.35-.4.46-.84.46-2.65S178.36,36.34,178,35.94Z"/><path class="cls-1" d="M182,43.3v-2h2v2Z"/><path class="cls-1" d="M185.77,45.49V41.42h1.89V44Z"/><path class="cls-1" d="M189.67,43.3V33.88h1.84v7.78h4.27V43.3Z"/><path class="cls-1" d="M200.88,35.52V43.3h-1.83V35.52h-2.47V33.88h6.77v1.64Z"/><path class="cls-1" d="M210.73,42.4a3.43,3.43,0,0,1-2.48.9h-3.41V33.88h3.41a3.43,3.43,0,0,1,2.48.9c1.06,1.06,1,2.35,1,3.77S211.79,41.34,210.73,42.4Zm-1.28-6.3a1.66,1.66,0,0,0-1.38-.58h-1.39v6.14h1.39a1.66,1.66,0,0,0,1.38-.58c.34-.43.4-1.1.4-2.53S209.79,36.52,209.45,36.1Z"/><path class="cls-1" d="M47.76,24.69,27.22,47.48A23.88,23.88,0,0,0,47.76,24.69m-47.71-2L20.27.22A23.87,23.87,0,0,0,.05,22.65M36.84,3.75A24.92,24.92,0,0,0,33.58,2L13.69,24h-5L29.74.67A24,24,0,0,0,25.49,0L3.81,24H0A23.8,23.8,0,0,0,7.83,41.5L23.57,24h-5Zm3,2.27L23.57,24h5L10.78,43.8A23.25,23.25,0,0,0,14,45.58L33.45,24h5L17.83,46.93a23.54,23.54,0,0,0,4.22.71L43.32,24h4.47c0-.06,0-.14,0-.21A23.85,23.85,0,0,0,39.81,6"/></g></g></svg>