<svg id="logo" data-name="logo" xmlns="http://www.w3.org/2000/svg" viewBox="0 0 242 50"><defs><style>.cls-1{fill:#003459;}.cls-2{fill:#d7053c;}.cls-3{fill:#c7c4c0;}.cls-4{fill:none;stroke:#003668;stroke-width:0.0461px;}.cls-5{fill:#fff;}</style></defs><title>globalhouse</title><rect class="cls-1" width="242" height="50"/><rect class="cls-2" y="32.58" width="242" height="1.99"/><rect class="cls-3" x="192" width="50" height="50"/><line class="cls-4" x1="197.42" y1="34.14" x2="236.48" y2="34.14"/><path class="cls-1" d="M205.44,35.24l.02-.01a.36115.36115,0,0,0,.27.18.16239.16239,0,0,0,.18-.15.127.127,0,0,0-.1-.13c-.01-.02-.09-.04-.12-.05l-.08-.03c-.08-.03-.08-.05-.11-.05a.119.119,0,0,1-.04-.11.18171.18171,0,0,1,.19-.18h.07l.08.02h.02c.03,0,.05,0,.06-.01l.04.17-.02.01a.27255.27255,0,0,0-.24-.18.15443.15443,0,0,0-.16.13.11932.11932,0,0,0,.05.09,1.13262,1.13262,0,0,0,.14.06.78406.78406,0,0,0,.14.05c.11.06.12.12.12.17a.21318.21318,0,0,1-.21.22c-.03,0-.07,0-.08-.01-.02,0-.1-.04-.12-.04s-.04.02-.06.04Z"/><path class="cls-1" d="M206.57,35.44V35.4h.03a.07748.07748,0,0,0,.06-.07V34.8c0-.05-.03-.07-.06-.07l-.03-.01V34.7h.27v.03h-.04c-.02,0-.06.01-.06.07v.53a.053.053,0,0,0,.06.06l.04.01v.03h-.27Z"/><path class="cls-1" d="M207.26,35.44V35.4a.14457.14457,0,0,0,.07-.02.055.055,0,0,0,.03-.05V34.8c0-.03-.01-.07-.05-.07h-.05V34.7h.17l.25.61.21-.62h.18v.04h-.04c-.06,0-.06.04-.06.07v.52c0,.03,0,.07.06.07h.04v.04h-.27V35.4h.04c.06,0,.06-.05.06-.07v-.57l-.22.69h-.03l-.25-.65v.53c0,.07.04.08.09.08v.04h-.23Z"/><path class="cls-1" d="M208.35,35.44V35.4l.04-.01c.03,0,.05-.01.05-.06V34.8c0-.05,0-.08-.05-.08h-.04V34.7h.26a.88983.88983,0,0,1,.19.03.20748.20748,0,0,1,.13.18.139.139,0,0,1-.08.13.52082.52082,0,0,1-.24.06h-.09v.24c0,.05.01.06.06.06h.04v.04Zm.17-.38h.09c.05,0,.25,0,.25-.16,0-.09-.08-.13-.08-.15a.38162.38162,0,0,0-.17-.03c-.07,0-.08.01-.08.08v.26Z"/><path class="cls-1" d="M209.31,35.44V35.4h.04c.05,0,.05-.05.05-.08v-.51c0-.03,0-.08-.05-.08h-.04V34.7h.26v.03h-.04c-.05,0-.06.06-.06.08v.51a.17306.17306,0,0,0,.01.07.61491.61491,0,0,0,.14.01.28724.28724,0,0,0,.27-.15l.02.01-.06.17h-.54Z"/><path class="cls-1" d="M210.85,35.44h-.56V35.4h.04a.10823.10823,0,0,0,.05-.04c.01,0,.01-.01.01-.06v-.5c0-.04,0-.07-.06-.07h-.04V34.7h.54l.06.16-.02.02a.50093.50093,0,0,0-.07-.08.19745.19745,0,0,0-.14-.06h-.13c-.06,0-.06.02-.06.07v.22h.15c.1,0,.1-.05.1-.11h.02v.25h-.02c-.01-.04-.01-.1-.1-.1h-.15v.27c0,.02,0,.07.06.07h.12c.08,0,.16-.01.25-.16l.03.01Z"/><path class="cls-1" d="M212.23,35.44V35.4h.05c.05,0,.05-.05.05-.08v-.51c0-.03,0-.08-.06-.08h-.04V34.7h.28v.03h-.04c-.06,0-.06.06-.06.08v.51c0,.06,0,.06.02.07a.48886.48886,0,0,0,.13.01.31139.31139,0,0,0,.28-.15l.01.01-.05.17h-.57Z"/><path class="cls-1" d="M213.4,35.44V35.4h.03a.07864.07864,0,0,0,.07-.07V34.8c0-.05-.02-.07-.07-.07l-.03-.01V34.7h.27v.03h-.05c-.01,0-.05.01-.05.07v.53c0,.04.02.06.05.06l.04.01v.03h-.26Z"/><path class="cls-1" d="M214.22,35.44V35.4h.03c.03,0,.06-.01.06-.07v-.52c0-.04,0-.08-.06-.08h-.03V34.7h.52l.08.16-.03.02a.9665.9665,0,0,0-.07-.09.27155.27155,0,0,0-.17-.06h-.09c-.08,0-.08.05-.08.08v.23h.13c.1,0,.11-.05.11-.1h.03v.25h-.03c0-.05-.01-.12-.11-.12h-.13v.27c0,.06.03.06.07.06h.04v.04Z"/><path class="cls-1" d="M215.73,35.44h-.56V35.4h.04c.03-.01.03-.03.05-.04,0,0,.01-.01.01-.06v-.5c0-.04-.01-.07-.06-.07h-.04V34.7h.54l.06.16-.02.02c-.02-.03-.04-.05-.06-.08a.2452.2452,0,0,0-.16-.06h-.12c-.06,0-.07.02-.07.07v.22h.15c.1,0,.1-.05.1-.11h.03v.25h-.03a.08821.08821,0,0,0-.1-.1h-.15v.27c0,.02,0,.07.07.07h.12a.28285.28285,0,0,0,.26-.16l.02.01Z"/><path class="cls-1" d="M217.15,35.44V35.4l.04-.01c.03,0,.05-.01.05-.06V34.8c0-.05,0-.08-.06-.08h-.03V34.7h.26a.92165.92165,0,0,1,.18.03.18941.18941,0,0,1,.14.18.12522.12522,0,0,1-.08.13.47134.47134,0,0,1-.24.06h-.08v.24c0,.05.01.06.05.06h.04v.04Zm.17-.38h.09c.06,0,.24,0,.24-.16a.194.194,0,0,0-.09-.15.32329.32329,0,0,0-.17-.03c-.07,0-.07.01-.07.08Z"/><path class="cls-1" d="M218.08,35.44V35.4h.05c.06,0,.06-.05.06-.07v-.52c0-.04-.02-.08-.06-.08h-.05V34.7h.3a.43338.43338,0,0,1,.19.04.161.161,0,0,1,.03.27.22028.22028,0,0,1-.16.05l.18.28a.16425.16425,0,0,0,.14.05v.04h-.19l-.22-.36h-.1v.27c0,.02,0,.06.06.06h.04v.04Zm.17-.4h.09c.1,0,.26-.02.26-.16,0-.15-.19-.15-.24-.15-.07,0-.11.01-.11.08v.23Z"/><path class="cls-1" d="M219.64,35.44h-.57V35.4h.05c.02-.01.04-.03.04-.04.01,0,.01-.01.01-.06v-.5c0-.04-.01-.07-.06-.07h-.04V34.7h.53l.06.16-.02.02a.20955.20955,0,0,0-.06-.08.2452.2452,0,0,0-.16-.06h-.13c-.05,0-.05.02-.05.07v.22h.14c.1,0,.1-.05.1-.11h.03v.25h-.03c0-.04,0-.1-.1-.1h-.14v.27c0,.02,0,.07.05.07h.11a.27167.27167,0,0,0,.27-.16l.02.01Z"/><path class="cls-1" d="M220.09,35.24l.02-.01a.34638.34638,0,0,0,.28.18.16865.16865,0,0,0,.18-.15.127.127,0,0,0-.1-.13c-.01-.02-.1-.04-.12-.05l-.08-.03a.60633.60633,0,0,1-.11-.05.119.119,0,0,1-.04-.11.19068.19068,0,0,1,.2-.18h.06l.06.02h.03c.02,0,.05,0,.05-.01l.06.17-.02.01a.29294.29294,0,0,0-.25-.18.15143.15143,0,0,0-.15.13.09572.09572,0,0,0,.05.09.88857.88857,0,0,0,.15.06.69434.69434,0,0,0,.13.05c.11.06.12.12.12.17a.218.218,0,0,1-.23.22.19533.19533,0,0,1-.07-.01c-.02,0-.09-.04-.12-.04a.04576.04576,0,0,0-.05.04Z"/><path class="cls-1" d="M221.59,35.44h-.56V35.4h.04a.10832.10832,0,0,0,.05-.04s.01-.01.01-.06v-.5c0-.04-.01-.07-.06-.07h-.03V34.7h.54l.06.16-.02.02c-.01-.03-.04-.05-.05-.08a.266.266,0,0,0-.16-.06h-.12c-.06,0-.08.02-.08.07v.22h.16c.09,0,.1-.05.1-.11h.03v.25h-.03c-.01-.04-.01-.1-.1-.1h-.16v.27c0,.02,0,.07.08.07h.1a.279.279,0,0,0,.27-.16l.02.01Z"/><path class="cls-1" d="M221.95,35.43V35.4c.04,0,.1,0,.1-.1v-.48c0-.07-.06-.08-.11-.08V34.7h.18l.45.6v-.45c0-.11-.05-.12-.1-.12V34.7h.22v.03c-.03,0-.1,0-.1.13v.59h-.01l-.51-.67v.51c0,.11.06.11.1.11v.03Z"/><path class="cls-1" d="M222.95,34.87l.06-.16h.58l.06.17-.03.01a.27077.27077,0,0,0-.23-.15.05356.05356,0,0,0-.04.03c-.01.02-.01.02-.01.06v.5c0,.04,0,.07.05.07l.06.01v.04h-.29V35.4h.05c.05-.01.05-.05.05-.08v-.49c0-.05,0-.06-.02-.08a.03991.03991,0,0,0-.04-.02.31172.31172,0,0,0-.2.12l-.03.03Z"/><path class="cls-1" d="M223.9,35.44V35.4c.07-.01.1-.09.11-.12l.22-.57.07-.03.25.62a.10859.10859,0,0,0,.12.09v.04h-.28V35.4c.04,0,.09-.01.09-.05v-.01l-.05-.17h-.33l-.04.09c0,.02-.01.05-.01.08,0,.06.04.06.08.06v.03h-.23Zm.19-.29h.3l-.13-.39Z"/><path class="cls-1" d="M224.9,34.87l.06-.16h.58l.08.17-.03.01a.27077.27077,0,0,0-.23-.15.06828.06828,0,0,0-.05.03c-.01.02-.02.02-.02.06v.5c0,.04,0,.07.06.07l.05.01v.04h-.28V35.4h.04c.06-.01.06-.05.06-.08v-.49c0-.05,0-.06-.03-.08a.03992.03992,0,0,0-.04-.02c-.1,0-.17.1-.2.12l-.03.03Z"/><path class="cls-1" d="M226.1,35.44V35.4h.04a.07749.07749,0,0,0,.06-.07V34.8c0-.05-.03-.07-.06-.07l-.04-.01V34.7h.27v.03h-.04a.06656.06656,0,0,0-.07.07v.53c0,.04.03.06.07.06l.04.01v.03h-.27Z"/><path class="cls-1" d="M226.94,35.32a.35723.35723,0,0,1-.09-.25.41.41,0,0,1,.08-.23.32437.32437,0,0,1,.28-.14.34844.34844,0,0,1,.35.36.36118.36118,0,0,1-.35.38A.29777.29777,0,0,1,226.94,35.32Zm.27-.59h0a.30018.30018,0,0,0-.28.33c0,.24.15.35.28.35a.31319.31319,0,0,0,.28-.35A.29439.29439,0,0,0,227.21,34.73Z"/><path class="cls-1" d="M227.82,35.43V35.4c.04,0,.09,0,.09-.1v-.48c0-.07-.05-.08-.1-.08V34.7h.17l.44.6v-.45c0-.11-.04-.12-.1-.12V34.7h.23v.03c-.03,0-.1,0-.1.13v.59h-.01l-.49-.67v.51c0,.11.06.11.09.11v.03Z"/><path class="cls-2" d="M226.63,25.73a3.34154,3.34154,0,1,0-3.24-3.34A3.28538,3.28538,0,0,0,226.63,25.73Z"/><path class="cls-1" d="M228.87,15.24l-5.3-2.65L204.54,22.6h6.24v3.09h11.27s4.32-1.65,3.68-5.44c-.65-3.79,3.34-4.92,3.34-4.92"/><path class="cls-1" d="M201.8,33.07a1.64116,1.64116,0,0,0-.23-.02,4.6611,4.6611,0,0,0-1.09.25,2.29662,2.29662,0,0,1-.8.13,2.80513,2.80513,0,0,1-2.64-2.92,3.14577,3.14577,0,0,1,1.15-2.43,2.32522,2.32522,0,0,1,1.49-.55,2.83268,2.83268,0,0,1,.63.07l.36.07a.64482.64482,0,0,0,.2.03.7916.7916,0,0,0,.54-.24l.52,1.47-.2.1a2.24582,2.24582,0,0,0-1.98-1.29c-1.03,0-2.11.89-2.11,2.7,0,1.83,1.02,2.75,2.12,2.75a2.42069,2.42069,0,0,0,.95-.21.86793.86793,0,0,0,.56-.74v-.58c0-.29-.06-.56-.56-.56h-.34v-.2h2.22v.2h-.3a.57231.57231,0,0,0-.41.17.65224.65224,0,0,0-.08.41Z"/><path class="cls-1" d="M219.13,33.36v-.22h.33c.41,0,.41-.46.41-.58V28.75c0-.07,0-.59-.41-.59h-.33v-.22h1.98v.24h-.27c-.42,0-.42.46-.42.57v1.98h3.17V28.74c0-.18-.03-.54-.44-.55h-.25v-.24h1.95v.24h-.28c-.45,0-.45.41-.45.55v3.82c0,.31.02.35.06.42a.54319.54319,0,0,0,.38.15l.28.01v.22h-1.95v-.22h.25c.17,0,.44-.03.44-.59V30.96h-3.17v1.61c0,.41.12.56.45.56h.23v.24h-1.96Z"/><path class="cls-1" d="M203.17,33.38v-.11h.18a.22651.22651,0,0,0,.24-.24V31.24c0-.07,0-.25-.25-.25h-.17V30.9h1.09v.09h-.13a.22562.22562,0,0,0-.25.24v1.78c0,.18.03.2.05.22a2.19975,2.19975,0,0,0,.54.04,1.13077,1.13077,0,0,0,1.09-.5l.1.04-.24.57Z"/><path class="cls-1" d="M206.29,33a1.17207,1.17207,0,0,1-.04-1.65,1.518,1.518,0,0,1,1.1-.49,1.3465,1.3465,0,0,1,1.41,1.27,1.32114,1.32114,0,0,1-1.38,1.29A1.50308,1.50308,0,0,1,206.29,33Zm1.05-2.03h0a1.17694,1.17694,0,0,0,.02,2.35,1.09483,1.09483,0,0,0,1.09-1.19A1.06858,1.06858,0,0,0,207.34,30.97Z"/><path class="cls-1" d="M209.19,33.38v-.11h.16c.25,0,.25-.18.25-.25V31.23c0-.15-.05-.24-.23-.24h-.17v-.1h1.19a2.11847,2.11847,0,0,1,.8.14.48857.48857,0,0,1,.3.43.47683.47683,0,0,1-.22.39,1.56972,1.56972,0,0,1-.49.2,1.40362,1.40362,0,0,1,.62.23.57521.57521,0,0,1,.24.43c0,.26-.23.66-1.23.66h-1.22Zm.68-1.26v.91c0,.22.16.25.38.25a3.21491,3.21491,0,0,0,.5-.03c.28-.04.61-.22.61-.52,0-.35-.39-.61-.89-.61Zm0-.11h.59c.27,0,.73-.12.73-.5,0-.51-.73-.51-.92-.51a1.02055,1.02055,0,0,0-.3.03.2508.2508,0,0,0-.11.22v.76Z"/><path class="cls-1" d="M211.96,33.38v-.1a.57706.57706,0,0,0,.48-.41l.89-1.91.25-.13.99,2.14a.46834.46834,0,0,0,.49.3v.11h-1.12v-.1c.15,0,.34,0,.34-.17a.14442.14442,0,0,0-.02-.07l-.21-.52h-1.29l-.16.32a.50735.50735,0,0,0-.06.25c0,.2.19.2.33.2v.1h-.91Zm.83-.97h1.2l-.58-1.36Z"/><path class="cls-1" d="M215.46,33.38v-.11h.18a.21786.21786,0,0,0,.23-.24V31.24c0-.07,0-.25-.25-.25h-.17V30.9h1.09v.09h-.13a.23571.23571,0,0,0-.26.24v1.78c0,.18.02.2.06.22a2.19733,2.19733,0,0,0,.53.04,1.14775,1.14775,0,0,0,1.09-.5l.08.04-.23.57Z"/><path class="cls-1" d="M225.53,33a1.11974,1.11974,0,0,1-.36-.85,1.1411,1.1411,0,0,1,.31-.8,1.52306,1.52306,0,0,1,1.11-.49,1.35525,1.35525,0,0,1,1.42,1.27,1.3339,1.3339,0,0,1-1.38,1.29A1.52285,1.52285,0,0,1,225.53,33Zm1.05-2.03h0a1.17731,1.17731,0,1,0,1.12,1.16A1.08119,1.08119,0,0,0,226.58,30.97Z"/><path class="cls-1" d="M228.4,31.03v-.11h1.09v.1h-.19c-.23.01-.23.16-.23.24v1.23c0,.28.01.38.08.48a.94944.94944,0,0,0,.8.37,1.07934,1.07934,0,0,0,.72-.24.722.722,0,0,0,.24-.62V31.36a.3425.3425,0,0,0-.4-.34v-.1h.9v.09c-.18.01-.39.02-.39.35v1.15a.78922.78922,0,0,1-.31.68,1.27554,1.27554,0,0,1-.82.24,1.1963,1.1963,0,0,1-.71-.18.8062.8062,0,0,1-.41-.79V31.24c0-.2-.11-.23-.22-.23h-.15Z"/><path class="cls-1" d="M231.79,32.72l.11-.04a1.33113,1.33113,0,0,0,1.1.63c.39,0,.7-.22.7-.55a.47405.47405,0,0,0-.37-.45c-.07-.03-.41-.13-.49-.16l-.32-.11c-.32-.11-.37-.14-.42-.19a.50025.50025,0,0,1-.19-.37.74862.74862,0,0,1,.81-.63,2.17472,2.17472,0,0,1,.26.01l.25.07a.59012.59012,0,0,0,.14.02.65578.65578,0,0,0,.23-.05l.21.61-.1.03a1.07415,1.07415,0,0,0-.95-.59c-.33,0-.65.2-.65.44a.38769.38769,0,0,0,.23.3,2.22979,2.22979,0,0,0,.58.22c.07.02.45.12.53.16.44.18.49.44.49.6a.821.821,0,0,1-.89.75,1.055,1.055,0,0,1-.31-.04c-.06-.01-.37-.1-.45-.1a.4466.4466,0,0,0-.24.1Z"/><path class="cls-1" d="M236.67,33.38h-2.24v-.1h.16a.19969.19969,0,0,0,.18-.1c.03-.03.05-.07.05-.2V31.25c0-.11-.02-.24-.23-.24h-.17V30.9h2.14l.26.53-.11.04a.92877.92877,0,0,0-.21-.24,1.04382,1.04382,0,0,0-.62-.22h-.52c-.25,0-.26.07-.26.25v.75h.59c.39,0,.42-.19.42-.38h.11l-.01.86h-.1c-.01-.16-.03-.38-.42-.38h-.59v.93c0,.07,0,.24.27.24h.44a1.07331,1.07331,0,0,0,1.04-.53l.1.05Z"/><path class="cls-5" d="M24.44,16.85l-.69.47a21.77025,21.77025,0,0,1-5.85.58l.47-1.1s1.73-.34.35-1.22a13.14409,13.14409,0,0,0-2.73-.98l-.42.4.58.35s.87.57.76,1.11a16.016,16.016,0,0,1-6.51,8.16l.3.18a19.81246,19.81246,0,0,0,6.32-5.57,62.86563,62.86563,0,0,0,6.55-.4S21.42,28.5,11.1,30.36l.06.35s10.2.12,14.78-11.65a.65713.65713,0,0,0,.75-.87Z"/><path class="cls-5" d="M27.25,16.1a7.966,7.966,0,0,0-2.85-1.01l-.16.22a10.29175,10.29175,0,0,1,2.02,1.45l.75.75a.7559.7559,0,0,0,.45.18.5704.5704,0,0,0,.58-.59C28.03,16.67,27.59,16.32,27.25,16.1Z"/><path class="cls-5" d="M25.59,13.59l-.12.26a18.81154,18.81154,0,0,1,2.29,1.41l.72.62a.67523.67523,0,0,0,.43.17c.3,0,.66-.19.66-.52C29.58,15.19,29.19,14.18,25.59,13.59Z"/><path class="cls-5" d="M81.3,16.04l-.42.47a10.13608,10.13608,0,0,1,1.11,1.05c.25.58-1.28,6.95-5.8,11.64l.29.18A17.75267,17.75267,0,0,0,84.2,18.42s-.06-.29.63-.75C84.83,17.67,84.96,17.46,81.3,16.04Z"/><path class="cls-5" d="M87.85,16.1l-.29.29s6.48,8.75,6.31,11.94c0,0,.75,1.33,1.68.81,0,0,.81-.29.58-1.68C96.14,27.46,94.68,22.02,87.85,16.1Z"/><path class="cls-5" d="M93.25,17.88a7.585,7.585,0,0,0,.99,1.03.31258.31258,0,0,0,.18.04.55562.55562,0,0,0,.57-.59c0-1.14-2.31-1.95-3.42-2.23l-.13.29A6.33423,6.33423,0,0,1,93.25,17.88Z"/><path class="cls-5" d="M93.13,14.6l-.15.26a6.777,6.777,0,0,1,1.95,1.3c.96,1.03,1.1,1.03,1.31,1.03a.56147.56147,0,0,0,.58-.56C96.82,15.57,94.57,14.79,93.13,14.6Z"/><path class="cls-5" d="M103.21,15.69l-.18.41s1.22.35,1.39.93c0,0,1.34,10.43-5.23,12.8l.19.24s7.64-1.22,7.01-12.29c0,0,.81-.06.23-1.16A10.11548,10.11548,0,0,0,103.21,15.69Z"/><path class="cls-5" d="M119.94,20.86l-.12-.18s-7.11,6.31-8.1,6.38V16.74s1.74-.53.53-1.16a7.70463,7.70463,0,0,0-3.37-1.1l-.3.47s1.41.46,1.41.74V27.98l-1,.58,1.85,1.5s.87.69.76-.58C111.61,29.49,119,23.57,119.94,20.86Z"/><path class="cls-5" d="M145.75,17.38a4.43865,4.43865,0,0,1,1.1.75c.29.35.06,5.44.06,5.44s.99,1.57,1.75.93V19.28l11.82-.63s-1.57,9.62-10.89,11.59l.05.29a15.53937,15.53937,0,0,0,12.98-11.19s1.74-.58.7-1.28l-2.27-1.33-.57.58-5.1.12V15.91s1.33-.69.29-1.27a9.99065,9.99065,0,0,0-3.59-.58l-.29.51s1.8.64,1.45.81l.17,2.21-4.57.17a17.45739,17.45739,0,0,0-2.9-.81Z"/><path class="cls-5" d="M169.87,15.86a4.60085,4.60085,0,0,0,2.14,2.62s0,.34.7-.3c0,0,6.49-1.15,7.3-1.1,0,0-2.32,6.67-12.46,12.69l.11.17s3.71-.99,10.09-5.91c0,0,4.46,2.79,6.08,5.68,0,0,1.68,1.1,1.79-.93,0,0,.36-2.26-7.13-5.57,0,0,3.41-4.58,3.72-5.62,0,0,1.62,0,.92-.99,0,0-1.44-1.05-2.08-1.39l-.58.58s-7.48.93-7.88.64a1.99928,1.99928,0,0,1-2.2-.99Z"/><path class="cls-5" d="M126.76,16.13l-.4.46a11.23977,11.23977,0,0,1,1.1,1.05c.25.57-1.27,6.95-5.79,11.65l.29.17a17.76154,17.76154,0,0,0,7.7-10.95s-.06-.29.64-.76C130.29,17.75,130.4,17.55,126.76,16.13Z"/><path class="cls-5" d="M141.55,27.55s-1.44-5.44-8.27-11.36l-.29.29s6.48,8.76,6.31,11.93c0,0,.75,1.34,1.68.82C140.98,29.23,141.77,28.94,141.55,27.55Z"/><path class="cls-5" d="M54.99,20.38l.4-.06a2.3132,2.3132,0,0,0,1.15,1.03,3.19971,3.19971,0,0,0,1.18.16q.525,0,6.05-.19c3.68-.12,5.61-.18,5.78-.18a2.91851,2.91851,0,0,0,.92-.16c.29-.09.46-.15.5-.15a2.19007,2.19007,0,0,1,1.2.57c.5.36.76.67.76.93,0,.24-.31.37-.91.37.03,0-.32-.02-1.02-.08-.71-.06-1.6-.09-2.7-.09q-3.06,0-6.22.17c-2.11.1-3.11.16-3,.16a3.53871,3.53871,0,0,0-1.33.23,4.45766,4.45766,0,0,1-.68.22c-.36,0-.79-.39-1.3-1.19A4.59089,4.59089,0,0,1,54.99,20.38Z"/><path class="cls-5" d="M49.71,17.44l-2.08-1.16-.63.57-10.1.53a19.59958,19.59958,0,0,0-2.78-1.1l-.58.57s1.22.7,1.15,1.57l.24,8.46s-.24.87-.24.93a.5605.5605,0,0,0,.24.53,2.8826,2.8826,0,0,0,1.39.86s.12.35.35-.57l.07-.47,10.08-.41a13.1606,13.1606,0,0,0,1.63.06c.18-.06.93.4,1.09-.47,0,0,.23-.69-.81-.92l.58-7.7C49.3,18.72,50.63,18.54,49.71,17.44ZM46.83,26.3c-.35.18-10.08.53-10.08.53l-.18-7.88,10.62-.47Z"/></svg>