<svg xmlns="http://www.w3.org/2000/svg" viewBox="0 0 187.39 33.47"><path d="M1.55 9.78a6.4 6.4 0 0 1 2.11-2A9.1 9.1 0 0 1 6.55 6.7a16.61 16.61 0 0 1 3.23-.32 21.33 21.33 0 0 1 3 .21 8.88 8.88 0 0 1 2.75.81 5.37 5.37 0 0 1 2 1.68 4.7 4.7 0 0 1 .79 2.85v10.14a21.34 21.34 0 0 0 .15 2.53 4.57 4.57 0 0 0 .53 1.81h-5.41a7.36 7.36 0 0 1-.25-.92 7.9 7.9 0 0 1-.13-1 7.06 7.06 0 0 1-3 1.85 12.15 12.15 0 0 1-3.54.53 9.87 9.87 0 0 1-2.6-.34 6 6 0 0 1-2.12-1.06A5 5 0 0 1 .51 23.7 6.3 6.3 0 0 1 0 21.09a5.75 5.75 0 0 1 .59-2.73 4.87 4.87 0 0 1 1.51-1.71 6.86 6.86 0 0 1 2.11-1 21.75 21.75 0 0 1 2.4-.5c.81-.13 1.6-.23 2.38-.3a16 16 0 0 0 2.07-.34 3.85 3.85 0 0 0 1.44-.66 1.49 1.49 0 0 0 .5-1.24 2.86 2.86 0 0 0-.29-1.38 2.06 2.06 0 0 0-.75-.8 3.06 3.06 0 0 0-1.09-.37A8.73 8.73 0 0 0 9.52 10a4 4 0 0 0-2.52.64 3 3 0 0 0-1 2.27H.6a6.2 6.2 0 0 1 .95-3.13Zm10.59 7.56a8.44 8.44 0 0 1-1.1.28c-.39.08-.8.14-1.22.19s-.82.12-1.29.19a12.18 12.18 0 0 0-1.19.3 3.43 3.43 0 0 0-1 .51 2.26 2.26 0 0 0-.7.81 2.71 2.71 0 0 0-.27 1.25 2.49 2.49 0 0 0 .27 1.2 2 2 0 0 0 .71.78 3.1 3.1 0 0 0 1.06.4 6.5 6.5 0 0 0 1.24.11 4.69 4.69 0 0 0 2.46-.53 3.44 3.44 0 0 0 1.28-1.26 4 4 0 0 0 .51-1.49 9.71 9.71 0 0 0 .1-1.21v-2a2.4 2.4 0 0 1-.86.47ZM21.06 6.91h6.11L30.61 12 34 6.91h5.92L33.51 16l7.2 10.37H34.6l-4.07-6.14-4.08 6.14h-6l7-10.26ZM47.26 21.57a3.1 3.1 0 0 0 .93 1 3.83 3.83 0 0 0 1.3.59 6 6 0 0 0 1.52.19 5.94 5.94 0 0 0 1.19-.13 4 4 0 0 0 1.13-.42 2.45 2.45 0 0 0 .85-.75 2 2 0 0 0 .34-1.19c0-.81-.53-1.41-1.6-1.81a31.39 31.39 0 0 0-4.47-1.21c-.78-.18-1.54-.39-2.28-.62a7.69 7.69 0 0 1-2-.95 4.57 4.57 0 0 1-1.4-1.47 4.19 4.19 0 0 1-.53-2.16A5.9 5.9 0 0 1 43 9.55a5.35 5.35 0 0 1 1.94-1.9 8.45 8.45 0 0 1 2.72-1 16.84 16.84 0 0 1 3.09-.29 16 16 0 0 1 3.08.3 8.2 8.2 0 0 1 2.66 1 6.17 6.17 0 0 1 1.94 1.9 6.51 6.51 0 0 1 .93 3h-5.1a2.33 2.33 0 0 0-1.17-2.09A5.36 5.36 0 0 0 50.6 10a7.93 7.93 0 0 0-1 .06 3.15 3.15 0 0 0-1 .24 1.92 1.92 0 0 0-.74.55 1.43 1.43 0 0 0-.3 1 1.47 1.47 0 0 0 .53 1.17 4.18 4.18 0 0 0 1.38.74c.63.2 1.28.37 1.94.51s1.47.31 2.23.49a20.32 20.32 0 0 1 2.28.64 7.53 7.53 0 0 1 2 1 4.81 4.81 0 0 1 1.4 1.54 4.56 4.56 0 0 1 .52 2.29 5.91 5.91 0 0 1-2.79 5.32 8.34 8.34 0 0 1-2.85 1.11 16.23 16.23 0 0 1-3.2.24 16.06 16.06 0 0 1-3.32-.34 8.67 8.67 0 0 1-2.89-1.13 6.22 6.22 0 0 1-3-5.36h5.11a3 3 0 0 0 .36 1.5ZM86.7 25.89v-2.54h-.07a4.57 4.57 0 0 1-2.39 2.25 9.21 9.21 0 0 1-3.59.69 8.53 8.53 0 0 1-3.79-.8 7.9 7.9 0 0 1-2.69-2.14 9.46 9.46 0 0 1-1.61-3.12 12.64 12.64 0 0 1-.56-3.77 13.3 13.3 0 0 1 .52-3.77 9.06 9.06 0 0 1 1.6-3.1 7.77 7.77 0 0 1 2.69-2.1 8.48 8.48 0 0 1 3.75-.78 9.14 9.14 0 0 1 1.56.14 8.57 8.57 0 0 1 1.66.49 7.06 7.06 0 0 1 1.58.91 4.92 4.92 0 0 1 1.25 1.4h.08V0h3.08v25.89Zm-11.08-6.65a7.13 7.13 0 0 0 1 2.23A5.23 5.23 0 0 0 78.49 23a5.29 5.29 0 0 0 2.59.58 5.08 5.08 0 0 0 4.42-2.22 6.79 6.79 0 0 0 1-2.27 10.93 10.93 0 0 0 0-5.24 6.4 6.4 0 0 0-1-2.27A5.22 5.22 0 0 0 83.62 10a5.7 5.7 0 0 0-2.72-.6 5.32 5.32 0 0 0-2.65.61 4.94 4.94 0 0 0-1.74 1.63 7.09 7.09 0 0 0-.94 2.36 12.88 12.88 0 0 0-.29 2.69 9.68 9.68 0 0 0 .34 2.55ZM110 24.69a8.5 8.5 0 0 1-5.29 1.6 9.62 9.62 0 0 1-3.9-.72 7.78 7.78 0 0 1-2.78-2 8.67 8.67 0 0 1-1.68-3.12 14.69 14.69 0 0 1-.64-4 11.36 11.36 0 0 1 .65-3.92 9.53 9.53 0 0 1 1.83-3.08 8.16 8.16 0 0 1 2.8-2 8.56 8.56 0 0 1 3.53-.73 7.75 7.75 0 0 1 4.15 1 8.19 8.19 0 0 1 2.65 2.62 10.66 10.66 0 0 1 1.38 3.49 15.43 15.43 0 0 1 .31 3.59H99a7 7 0 0 0 .29 2.33 5.12 5.12 0 0 0 2.9 3.32 6.28 6.28 0 0 0 2.64.51 5.3 5.3 0 0 0 3.17-.88 4.35 4.35 0 0 0 1.65-2.7h3a7.52 7.52 0 0 1-2.65 4.69Zm-.74-12a5.45 5.45 0 0 0-7.07-2.8 4.74 4.74 0 0 0-1.67 1.11 5.28 5.28 0 0 0-1.09 1.68 6.37 6.37 0 0 0-.43 2.04h10.76a6.44 6.44 0 0 0-.52-2.07ZM120.71 21.7a3.3 3.3 0 0 0 1.14 1.12 5.19 5.19 0 0 0 1.6.61 9.46 9.46 0 0 0 1.83.18 13.12 13.12 0 0 0 1.53-.11 5.83 5.83 0 0 0 1.47-.4 2.87 2.87 0 0 0 1.1-.85 2.31 2.31 0 0 0 .44-1.43 2.07 2.07 0 0 0-.91-1.82 7.82 7.82 0 0 0-2.27-1c-.9-.25-1.89-.48-3-.69a15.44 15.44 0 0 1-3-.87 6 6 0 0 1-2.26-1.57 4.1 4.1 0 0 1-.91-2.83 4.49 4.49 0 0 1 .64-2.43A5.14 5.14 0 0 1 119.83 8a7.56 7.56 0 0 1 2.25-1 9.86 9.86 0 0 1 2.48-.31 14.56 14.56 0 0 1 2.94.31 6.77 6.77 0 0 1 2.37.94 4.89 4.89 0 0 1 1.65 1.82 7 7 0 0 1 .73 2.84h-3.08a3.12 3.12 0 0 0-.48-1.5 3.19 3.19 0 0 0-1-1 4.78 4.78 0 0 0-1.36-.52 6.9 6.9 0 0 0-1.5-.17 9.33 9.33 0 0 0-1.4.11 5.18 5.18 0 0 0-1.29.38 2.6 2.6 0 0 0-.94.73 1.85 1.85 0 0 0-.36 1.18 1.7 1.7 0 0 0 .56 1.32 4.47 4.47 0 0 0 1.43.87 12.24 12.24 0 0 0 2 .58l2.17.49a21.71 21.71 0 0 1 2.27.62 7.14 7.14 0 0 1 2 1 4.72 4.72 0 0 1 1.38 1.5 4.39 4.39 0 0 1 .52 2.25 5.24 5.24 0 0 1-.7 2.82 5.55 5.55 0 0 1-1.85 1.82A8 8 0 0 1 128 26a15.09 15.09 0 0 1-2.84.27 13.54 13.54 0 0 1-3-.33 7.2 7.2 0 0 1-2.5-1.07 5.38 5.38 0 0 1-1.74-2 6.69 6.69 0 0 1-.72-2.95h3.08a3.46 3.46 0 0 0 .43 1.78ZM141.92 7.14v18.75h-3.08V7.14ZM163 31.18q-2.1 2.3-6.6 2.29a13.31 13.31 0 0 1-2.67-.29 8 8 0 0 1-2.46-1 5.64 5.64 0 0 1-1.84-1.7 4.9 4.9 0 0 1-.8-2.57h3.09a2.29 2.29 0 0 0 .52 1.41 3.91 3.91 0 0 0 1.2.94 5.74 5.74 0 0 0 1.54.53 8.59 8.59 0 0 0 1.6.16 5.69 5.69 0 0 0 2.57-.52 4.81 4.81 0 0 0 1.7-1.43 5.7 5.7 0 0 0 1-2.23 12.47 12.47 0 0 0 .31-2.86V22.7h-.07a5.2 5.2 0 0 1-2.41 2.55 7.6 7.6 0 0 1-3.43.82 8.24 8.24 0 0 1-3.66-.76 7.8 7.8 0 0 1-2.61-2 8.61 8.61 0 0 1-1.58-3 12.48 12.48 0 0 1-.53-3.64 14.66 14.66 0 0 1 .44-3.43 9.33 9.33 0 0 1 1.45-3.24 7.86 7.86 0 0 1 2.68-2.35 8.31 8.31 0 0 1 4.1-.93 7 7 0 0 1 3.26.78 5.51 5.51 0 0 1 2.32 2.34v-2.7h2.9v17.15q.04 4.61-2.02 6.89Zm-4-8.43a5 5 0 0 0 1.72-1.67 7.41 7.41 0 0 0 1-2.33 11 11 0 0 0 .31-2.62 9.89 9.89 0 0 0-.29-2.42 6.78 6.78 0 0 0-.92-2.16 4.77 4.77 0 0 0-1.67-1.55 4.84 4.84 0 0 0-2.47-.58 5.22 5.22 0 0 0-2.54.56 5 5 0 0 0-1.72 1.5 6.45 6.45 0 0 0-1 2.17 10.7 10.7 0 0 0-.3 2.58 12.79 12.79 0 0 0 .25 2.54 7.29 7.29 0 0 0 .87 2.3 4.8 4.8 0 0 0 1.63 1.66 4.72 4.72 0 0 0 2.54.64 5 5 0 0 0 2.59-.63ZM174.77 7.14v3h.07a6.48 6.48 0 0 1 6.1-3.41 8.11 8.11 0 0 1 3.08.51 5 5 0 0 1 2 1.41 5.17 5.17 0 0 1 1.07 2.16 11.77 11.77 0 0 1 .31 2.77v12.31h-3.08V13.2a3.76 3.76 0 0 0-1-2.76 3.78 3.78 0 0 0-2.79-1 6.4 6.4 0 0 0-2.45.43 4.58 4.58 0 0 0-1.72 1.23 5.28 5.28 0 0 0-1 1.87 7.46 7.46 0 0 0-.36 2.33v10.59h-3.08V7.14ZM142.11 2a1.77 1.77 0 1 1-1.77-1.8 1.77 1.77 0 0 1 1.77 1.8Z" fill="#f6251d"/></svg>