<?xml version="1.0" encoding="utf-8"?>
<!-- Generator: Adobe Illustrator 13.0.0, SVG Export Plug-In . SVG Version: 6.00 Build 14948)  -->
<!DOCTYPE svg PUBLIC "-//W3C//DTD SVG 1.1//EN" "http://www.w3.org/Graphics/SVG/1.1/DTD/svg11.dtd">
<svg version="1.1" id="レイヤー_1" xmlns="http://www.w3.org/2000/svg" xmlns:xlink="http://www.w3.org/1999/xlink" x="0px"
	 y="0px" width="262.688px" height="75px" viewBox="0 0 262.688 75" enable-background="new 0 0 262.688 75" xml:space="preserve">
<g>
	<g>
		<path fill="#606060" d="M107.612,23.688c-0.391-0.342-0.952-0.854-1.416-1.514v9.329h-2.491v-8.499
			c-0.562,1.246-1.123,2.272-2.222,3.688l-2.003-1.465c1.66-1.88,3.175-5.201,3.907-8.426h-3.005v-2.295h3.322v-4.078l2.223,0.171
			c0.195,0.024,0.708,0.049,0.708,0.293c0,0.122-0.099,0.22-0.196,0.293c-0.098,0.073-0.243,0.195-0.243,0.268v3.053h2.687v2.295
			h-2.687v1.344c0.514,1.172,1.44,2.417,2.931,3.663L107.612,23.688z M120.654,29.99c-2.345-2.028-3.249-3.103-4.128-4.421v5.934
			h-2.467v-6.276c-1,1.441-2.906,3.712-5.03,5.47l-2.003-1.758c2.174-1.661,4.908-4.469,6.081-7.327h-3.517v-2.368h4.469v-2.517
			h-2.173c-0.538,1.124-0.831,1.515-1.002,1.783l-2.101-1.074c1.466-2.027,2.052-4.03,2.345-5.764l2.076,0.488
			c0.514,0.123,0.514,0.245,0.514,0.318c0,0.146-0.05,0.195-0.245,0.268c-0.048,0.025-0.269,0.123-0.269,0.171
			c-0.195,0.708-0.293,1.075-0.438,1.515h1.293v-3.957l2.442,0.171c0.195,0.024,0.66,0.049,0.66,0.317
			c0,0.123-0.098,0.22-0.195,0.27c-0.391,0.316-0.44,0.341-0.44,0.463v2.736h4.592v2.295h-4.592v2.517h4.909v2.368h-4.469
			c0.61,1.71,2.247,4.275,5.494,6.447L120.654,29.99z"/>
		<path fill="#606060" d="M137.366,29.281c-2.125,0.415-7.082,1.343-7.107,1.343c-0.243,0.048-1.44,0.22-1.71,0.269
			c-0.562,0.098-0.902,0.171-1.172,0.463c-0.317,0.367-0.342,0.416-0.513,0.416c-0.098,0-0.293-0.048-0.317-0.269l-0.464-3.004
			c1.343-0.171,2.197-0.293,4.273-0.562v-5.031h-3.81V20.27h9.916v2.637h-3.126v4.616c1.586-0.195,2.1-0.269,4.151-0.563
			L137.366,29.281z M144.644,31.356c-2.637,0-4.958-3.956-5.86-6.032c-1.515-3.419-1.833-5.934-2.076-7.888h-10.6v-2.638h10.355
			c-0.147-1.954-0.221-2.808-0.221-4.2l2.198,0.268c0.684,0.073,1.1,0.147,1.1,0.488c0,0.123-0.073,0.195-0.269,0.293
			c-0.269,0.147-0.293,0.245-0.293,0.342c0.073,1.465,0.073,1.832,0.098,2.808h7.741v2.638h-7.57
			c0.269,1.588,0.829,5.007,2.783,8.255c0.929,1.563,1.734,2.222,2.296,2.222c0.538,0,1.025-1.71,1.172-2.271l1.979,1.855
			C147.281,28.231,146.353,31.356,144.644,31.356z M144.009,14.75c-1.221-1.148-2.564-2.003-3.297-2.467l1.367-1.832
			c1.222,0.586,2.32,1.269,3.517,2.197L144.009,14.75z"/>
		<path fill="#606060" d="M170.465,19.44c-1.246-0.416-2.076-0.881-2.81-1.295v2.076h-11.771v-2.003
			c-1.246,0.757-1.979,1.124-3.053,1.588l-1.855-2.149c4.151-1.637,6.691-3.907,8.914-7.449l3.492,0.611
			c0.195,0.025,0.365,0.146,0.365,0.317c0,0.147-0.098,0.269-0.219,0.317c1.196,1.368,2.588,2.541,4.126,3.494
			c0.854,0.512,2.81,1.586,4.739,2.149L170.465,19.44z M168.853,31.65c-0.244-0.367-0.538-0.903-1.611-2.174
			c-3.346,0.415-8.842,1.025-9.55,1.1c-0.513,0.048-3.102,0.269-3.688,0.366c-0.122,0.024-0.195,0.073-0.243,0.17
			c-0.147,0.293-0.221,0.366-0.294,0.366s-0.195-0.098-0.22-0.219l-0.781-3.2c1.538,0,2.222-0.023,3.443-0.073
			c0.61-0.977,1.123-1.832,2.223-3.932h-5.544v-2.369h17.951v2.369h-5.154c2.1,1.661,4.249,3.907,5.69,5.764L168.853,31.65z
			 M161.6,13.016c-1.759,2.149-3.054,3.346-5.056,4.786h10.502C164.97,16.435,163.529,15.312,161.6,13.016z M163.357,25.838
			l1.759-1.783h-3.663c-1.148,2.028-1.855,3.101-2.296,3.761c2.052-0.098,4.078-0.22,6.105-0.465
			C164.921,27.035,164.334,26.497,163.357,25.838z"/>
		<path fill="#606060" d="M184.663,25.447c-0.732-0.537-1.636-1.222-2.661-2.345v8.304h-2.565v-6.838
			c-0.83,0.733-1.343,1.147-2.149,1.661l-1.831-1.881c2.687-1.661,4.933-3.98,6.473-6.765h-5.472v-2.636h2.931v-4.348l2.834,0.317
			c0.146,0.024,0.269,0.098,0.269,0.219c0,0.099-0.098,0.195-0.171,0.245c-0.343,0.341-0.391,0.391-0.391,0.488v3.078h2.637
			l1.099,1.098c-0.366,0.928-0.903,2.198-2.686,4.616c1.147,1.319,1.979,1.979,3.15,2.735L184.663,25.447z M183.467,30.967v-2.639
			h5.763v-8.156h-3.687v-2.638h3.687v-6.985l3.005,0.294c0.122,0,0.269,0.097,0.269,0.219c0,0.073-0.049,0.172-0.122,0.245
			c-0.195,0.195-0.342,0.318-0.342,0.415v5.813h4.469v2.638h-4.469v8.156h5.079v2.639H183.467z"/>
		<path fill="#606060" d="M127.661,60.953c-0.457-0.229-1.076-0.587-1.565-0.979c-1.009,1.238-1.692,1.824-2.378,2.347l-1.889-1.759
			c0.814-0.718,1.367-1.238,2.149-2.313c-0.88-0.88-1.042-1.075-1.596-1.727h-5.506c-0.358,0.521-0.651,0.879-1.237,1.499
			c0.684,0.618,1.4,1.4,1.955,2.149l-2.411,1.824c-0.424-0.651-1.271-1.466-1.89-1.987c-0.325,0.229-0.456,0.294-0.88,0.555
			l-1.466-1.792v7.297c0,2.313-1.304,2.542-4.007,2.574l-1.206-3.29c0.619,0.13,1.108,0.13,1.271,0.13
			c0.651,0,0.781-0.587,0.781-0.913V60.66h-2.313c-0.325,2.931-0.911,5.44-1.856,7.754l-3.063-1.043
			c0.978-1.922,2.216-4.334,2.216-12.868c0-2.313-0.098-4.626-0.261-6.972h8.438v10.425c0.912-0.392,1.466-0.848,2.085-1.434H111.6
			v-2.736h3.779c0.325-0.393,0.488-0.686,0.651-1.076h-3.942v-2.769h1.987c-0.65-1.01-1.336-1.693-1.727-2.085l2.15-1.434
			c0.685,0.554,1.531,1.467,2.085,2.573l-1.563,0.945h2.053c0.358-0.912,0.488-1.727,0.488-2.639l3.127,0.489
			c0.293,0.032,0.522,0.261,0.522,0.456c0,0.098-0.033,0.162-0.132,0.195c-0.488,0.228-0.521,0.26-0.618,0.521
			c-0.065,0.163-0.131,0.456-0.293,0.978h1.596c0.814-1.271,1.335-2.313,1.824-3.485l2.443,0.749
			c0.195,0.064,0.489,0.162,0.489,0.424c0,0.098-0.033,0.195-0.065,0.228c-0.098,0.065-0.586,0.326-0.685,0.424
			c-0.031,0.065-0.749,1.401-0.912,1.661h2.378v2.769h-3.68c0.097,0.195,0.227,0.521,0.552,1.076h4.563v2.736h-2.411
			c1.336,1.173,2.215,1.662,3.584,2.215L127.661,60.953z M121.178,45.707v0.944h-3.616v-0.944h-5.474v1.172h-3.551v-1.074h-7.623
			v-2.9h7.623v-2.118l3.453,0.065c0.228,0,0.749,0.098,0.749,0.457c0,0.13-0.162,0.293-0.26,0.391
			c-0.098,0.065-0.392,0.325-0.392,0.554v0.554h5.474v-2.053l3.584,0.163c0.261,0,0.684,0.064,0.684,0.392
			c0,0.13-0.065,0.293-0.358,0.521c-0.162,0.098-0.293,0.229-0.293,0.358v0.619h7.884v2.9H121.178z M107.788,50.625h-2.216
			c0.033,0.521,0.065,0.814,0.098,1.923h2.118V50.625z M107.788,55.479h-2.053c0,0.685,0,1.401-0.032,2.085h2.085V55.479z
			 M117.04,64.568c-0.685,0.457-0.978,0.62-3.192,1.891c-0.358,0.195-0.618,0.326-0.847,0.847c-0.163,0.261-0.262,0.326-0.359,0.326
			s-0.357-0.065-0.521-0.554l-0.879-2.444c1.597-0.555,3.388-1.303,5.799-2.77V64.568z M125.935,68.446
			c-1.401-1.401-3.259-2.704-4.626-3.454v1.988c0,1.89-1.662,2.052-4.595,2.085l-0.879-3.291c0.586,0.098,1.238,0.13,1.368,0.13
			c0.75,0,0.814-0.618,0.814-0.847v-8.079l3.128,0.195c0.456,0.032,0.911,0.065,0.911,0.456c0,0.098-0.032,0.195-0.325,0.392
			c-0.261,0.163-0.423,0.358-0.423,0.618v5.537l1.335-1.888c1.694,0.846,3.452,1.888,5.343,3.681L125.935,68.446z M120.103,52.71
			h-0.977c-0.164,0.391-0.327,0.684-0.522,1.076h1.955C120.33,53.264,120.298,53.231,120.103,52.71z"/>
		<path fill="#606060" d="M160.073,65.091c-1.663-1.174-2.997-2.216-5.019-4.431v3.159H150.3v5.246h-3.812v-5.246h-4.496v-3.257
			h4.496v-7.396c-1.956,4.235-5.896,9.383-9.252,12.413l-3.097-2.184c4.335-3.289,8.471-9.218,10.132-13.616h-9.838v-3.519h12.055
			v-5.441l3.192,0.162c0.423,0.033,1.205,0.163,1.205,0.522c0,0.13-0.097,0.228-0.292,0.358c-0.195,0.162-0.294,0.26-0.294,0.391
			v4.008h11.923v3.519h-10.229c2.117,5.245,6.124,9.414,10.751,12.705L160.073,65.091z M150.3,53.524v7.038h4.69
			C152.124,57.304,151.049,55.057,150.3,53.524z"/>
		<path fill="#606060" d="M167.992,66.524v-3.747h11.891V46.814h-9.805v-3.649h23.651v3.649h-9.839v15.963h11.826v3.747H167.992z"/>
		<path fill="#606060" d="M228.539,56.034c-2.801-0.326-4.822-1.141-6.776-2.543c-0.847,0.653-1.434,1.012-2.378,1.5l3.975,0.586
			c0.161,0.033,0.325,0.131,0.325,0.261c0,0.131-0.098,0.229-0.195,0.294c-0.424,0.358-0.555,0.424-0.586,0.619
			c0,0.064-0.033,0.846-0.033,0.977h6.189c-0.098,4.984-0.911,8.536-1.204,9.155c-0.718,1.531-2.508,1.824-5.441,1.856l-1.336-3.16
			c0.391,0.032,2.183,0.065,2.606,0.065c0.685,0,0.978-0.131,1.173-0.587c0.163-0.391,0.555-1.923,0.588-4.17h-3.227
			c-0.293,0.813-1.011,2.769-2.736,4.821c-1.727,2.053-3.519,2.998-4.332,3.421l-2.835-2.28c2.509-1.075,4.952-2.737,6.189-5.962
			h-4.235v-3.16h4.92c0.065-0.554,0.13-1.661,0.031-2.671c-0.813,0.456-1.465,0.781-2.703,1.238l-2.378-2.477
			c-0.651,1.727-1.076,2.542-1.694,3.583l-2.411-1.237c0.717-1.14,1.043-1.856,1.499-3.03h-1.76v11.957
			c0,3.551-0.814,3.975-5.505,4.007l-1.271-3.355c0.294,0,2.085,0.064,2.248,0.064c0.652,0,1.074-0.13,1.074-0.978v-6.124
			c-1.074,2.053-1.922,3.257-2.801,4.463l-3.258-1.434c2.247-2.41,3.876-5.407,5.18-8.601h-4.171v-3.257h5.832
			c-1.4-0.815-2.735-1.499-4.432-2.28l1.402-2.444c0.716,0.262,1.336,0.489,3.095,1.304c0.521-0.424,1.074-0.944,1.824-1.922h-7.103
			v-2.9h11.695l1.141,1.107c-2.053,2.248-3.029,3.227-4.952,5.051c0.587,0.293,0.815,0.423,1.076,0.651l-0.75,1.434h3.29
			l1.565,1.692c-0.195,0.783-0.359,1.206-0.686,2.021c2.151-0.261,3.389-0.814,5.147-2.085c-1.075-1.271-1.563-2.216-2.345-3.974
			c-0.294,0.358-1.141,1.335-1.792,1.921l-2.704-1.726c2.736-2.28,3.941-3.975,5.147-7.005l3.453,0.814
			c0.097,0.033,0.325,0.098,0.325,0.261c0,0.195-0.13,0.293-0.163,0.325c-0.065,0.033-0.488,0.229-0.553,0.326
			c-0.065,0.065-0.359,0.586-0.425,0.717h9.058v3.03h-2.117c-0.88,1.955-1.824,3.486-3.129,4.983
			c1.956,1.336,4.301,1.857,6.679,2.117L228.539,56.034z M220.068,46.195c0.391,1.303,0.749,2.085,1.629,3.127
			c0.424-0.488,1.173-1.27,1.89-3.127H220.068z"/>
		<path fill="#606060" d="M249.102,47.661l1.987,0.392c0.358,0.064,0.912,0.195,0.912,0.488c0,0.26-0.261,0.357-0.717,0.586v1.596
			h10.979v3.357h-10.979v3.289h8.927v11.663h-3.779v-0.848h-11.272v0.848h-3.584V57.369h5.963v-9.708h-6.939v5.114
			c0,3.649-0.325,5.8-1.043,9.416c-0.553,2.671-1.465,4.724-2.28,6.482l-3.551-1.336c1.14-2.182,3.128-5.994,3.128-13.847v-9.218
			h9.773v-3.422l4.268,0.261c0.325,0.032,0.717,0.131,0.717,0.489c0,0.195-0.294,0.391-0.456,0.488
			c-0.163,0.098-0.391,0.228-0.391,0.358v1.825h11.924v3.388H249.102z M256.432,60.855h-11.272v4.039h11.272V60.855z"/>
	</g>
	<g>
		<g>
			<g>
				<polygon fill="#4897D3" points="28.19,32.294 19.845,27.816 19.845,10.211 28.19,10.211 				"/>
				<polygon fill="#4897D3" points="22.999,18.484 19.845,10.206 38.303,0 41.457,8.28 				"/>
			</g>
			<g>
				<polygon fill="#4897D3" points="48.362,32.294 56.709,27.816 56.709,10.211 48.362,10.211 				"/>
				<polygon fill="#4897D3" points="52.27,17.2 56.709,10.206 38.25,0 33.811,6.994 				"/>
			</g>
		</g>
		<g>
			<g>
				<rect y="37.997" fill="#F5AE57" width="8.347" height="22.843"/>
				<polygon fill="#F5AE57" points="3.154,46.271 0,37.989 18.458,27.784 21.613,36.064 				"/>
			</g>
			<g>
				<rect x="28.518" y="37.997" fill="#F5AE57" width="8.347" height="22.843"/>
				<polygon fill="#F5AE57" points="32.425,44.984 36.864,37.989 18.405,27.784 13.966,34.779 				"/>
			</g>
		</g>
		<g>
			<g>
				<rect x="39.689" y="38.076" fill="#9ABF69" width="8.347" height="22.844"/>
				<polygon fill="#9ABF69" points="42.844,46.35 39.689,38.07 58.148,27.864 61.303,36.145 				"/>
			</g>
			<g>
				<rect x="68.208" y="38.076" fill="#9ABF69" width="8.346" height="22.844"/>
				<polygon fill="#9ABF69" points="72.113,45.064 76.554,38.07 58.096,27.864 53.655,34.859 				"/>
			</g>
		</g>
		<g>
			<path fill="#606060" d="M2.854,66.406v2.537h4.659v1.53H2.854v4.203H1.04v-9.803h6.956v1.532H2.854z"/>
			<path fill="#606060" d="M14.23,75c-2.633,0-4.084-1.531-4.084-4.189v-5.937h1.813v6.15c0,1.692,0.953,2.337,2.216,2.337
				c1.478,0,2.256-0.819,2.256-2.337v-6.15h1.813v5.937C18.245,73.911,16.338,75,14.23,75z"/>
			<path fill="#606060" d="M26.158,74.127C25.406,74.852,24.425,75,23.673,75c-2.068,0-3.102-1.196-3.102-2.968v-1.048h1.813v1.048
				c0,1.208,0.913,1.343,1.396,1.343c0.872,0,1.37-0.363,1.37-1.666v-6.835h1.813v6.957C26.963,72.609,26.788,73.509,26.158,74.127z
				"/>
			<path fill="#606060" d="M29.853,74.677v-9.803h1.813v9.803H29.853z"/>
			<path fill="#606060" d="M42.907,74.677v-8.607l-2.163,8.607h-1.96l-2.162-8.607v8.607h-1.666v-9.803h2.848l1.732,6.769
				l0.228,1.558l0.229-1.558l1.745-6.769h2.833v9.803H42.907z"/>
			<path fill="#606060" d="M52.162,75c-2.899,0-4.9-2.068-4.9-5.224c0-3.169,2.014-5.225,4.9-5.225c2.888,0,4.915,2.056,4.915,5.225
				C57.077,72.932,55.063,75,52.162,75z M52.162,66.19c-1.679,0-2.994,1.263-2.994,3.586c0,2.309,1.302,3.599,2.994,3.599
				c1.773,0,3.009-1.37,3.009-3.599C55.171,67.547,53.922,66.19,52.162,66.19z"/>
			<path fill="#606060" d="M63.432,66.406v8.271h-1.813v-8.271h-3.492v-1.532h8.797v1.532H63.432z"/>
			<path fill="#606060" d="M72.606,75c-2.899,0-4.901-2.068-4.901-5.224c0-3.169,2.015-5.225,4.901-5.225
				c2.888,0,4.915,2.056,4.915,5.225C77.521,72.932,75.508,75,72.606,75z M72.606,66.19c-1.679,0-2.994,1.263-2.994,3.586
				c0,2.309,1.302,3.599,2.994,3.599c1.773,0,3.009-1.37,3.009-3.599C75.615,67.547,74.366,66.19,72.606,66.19z"/>
		</g>
	</g>
</g>
</svg>
