<svg width="259" height="18" viewBox="0 0 259 18" fill="none" xmlns="http://www.w3.org/2000/svg">
<g clip-path="url(#clip0_1133_31259)">
<path d="M256.909 8.38441C255.97 7.8204 254.654 7.39396 252.715 6.92625C252.365 6.84371 251.392 6.5961 250.727 6.34161C250.069 6.094 249.528 5.66756 249.486 4.89033C249.541 3.66603 250.837 3.04012 252.461 3.05388C253.695 3.06076 254.942 3.5491 255.854 4.38823L258.273 2.33855C256.731 0.729078 254.942 0.0206335 252.489 -7.80651e-07C249.404 -0.0206351 246.066 1.48567 246.046 4.85594C246.032 6.94001 247.06 8.23997 249.281 9.17539C249.576 9.2992 250.569 9.62247 251.57 9.9251C251.81 9.99389 252.619 10.2209 253.263 10.4203C253.928 10.6198 254.421 10.7917 254.524 10.8399C255.347 11.2044 255.641 11.8441 255.573 12.4631C255.449 13.6393 253.962 14.2033 252.228 14.2102C251.104 14.2033 249.767 13.7906 248.863 13.1028C248.623 12.9171 248.39 12.7382 248.184 12.5181L245.73 14.8429C247.136 16.3768 249.87 17.4773 251.974 17.5117H252.098C255.525 17.5117 258.801 16.026 258.986 12.642C259.103 10.5854 258.445 9.31983 256.909 8.39129" fill="#231815"/>
<path d="M241.591 3.44593V0.529613H229.281V16.9752H241.591V14.0382H232.496V10.159H239.891V7.24264H232.496V3.44593H241.591Z" fill="#231815"/>
<path d="M199.267 0C197.115 0 195.47 0.749713 194.141 2.07719C192.386 3.83798 192.283 5.8739 192.283 8.74895C192.29 11.624 192.413 13.6599 194.168 15.4207C195.498 16.7551 197.115 17.4979 199.267 17.4979C201.42 17.4979 203.065 16.7551 204.394 15.4207C206.156 13.6599 206.252 11.624 206.252 8.74895C206.245 5.8739 206.121 3.83798 204.367 2.07719C203.037 0.742835 201.42 0 199.267 0ZM202.79 8.85212C202.763 12.0711 202.537 12.5319 201.831 13.3229C201.262 13.9832 200.35 14.4096 199.267 14.4096C198.185 14.4096 197.3 13.9832 196.731 13.3229C196.025 12.5319 195.772 12.0711 195.738 8.85212C195.765 5.64005 195.991 4.97975 196.704 4.18877C197.273 3.52847 198.185 3.10203 199.267 3.10203C200.35 3.10203 201.235 3.52847 201.803 4.18877C202.509 4.97975 202.763 5.64005 202.797 8.85212H202.79Z" fill="#231815"/>
<path d="M185.368 7.24952H178.678V0.529613H175.484V16.9752H178.678V10.2828H185.368V16.9752H188.562V0.529613H185.368V7.24952Z" fill="#231815"/>
<path d="M213.002 8.65265L216.017 16.9752H218.245L221.268 8.64578V16.9752H224.496V0.529613H221.254L217.135 11.8785L213.022 0.529613H209.773V16.9752H213.002V8.65265Z" fill="#231815"/>
<path d="M33.9951 16.0466C31.4248 16.0466 31.6578 13.2266 31.6578 13.2266C35.4001 13.7631 37.0245 12.47 37.8744 10.4341C39.1767 7.21513 37.2302 5.56439 34.9409 5.56439C31.6578 5.56439 29.6907 8.57012 28.9299 11.3214C27.4906 14.0588 25.736 15.6202 24.9272 15.6202C24.5845 15.6202 24.2007 15.3313 25.1328 12.7658L26.1198 10.1108C26.5447 8.94842 26.7298 8.19182 26.7298 7.58655C26.7298 6.40352 26.0581 5.64692 24.7832 5.64692C22.9806 5.64692 21.4659 7.11884 21.4659 7.11884L23.6249 1.14177H20.3967L14.4062 17.5254H17.6276L20.3624 10.0902C21.2123 9.0172 22.1444 8.50822 22.6311 8.50822C22.9601 8.50822 23.2 8.68705 23.2 8.99656C23.2 9.33359 22.8778 10.1383 22.4871 11.2526L22.1856 12.078C20.7668 15.9847 21.5756 17.8212 23.6797 17.8212C25.4755 17.8212 27.1753 16.5075 28.6009 14.5678C28.8682 16.5487 30.2116 17.7524 32.7202 17.7524C37.3398 17.7524 39.5126 14.444 40.5818 12.1605L39.6839 11.7478C38.2446 14.5609 36.0581 16.0604 33.9882 16.0604M34.7696 8.40505C35.455 8.40505 35.3384 9.01032 35.0711 9.67749C34.6668 10.7298 34.0636 11.6653 32.1993 11.3076C32.1993 11.3076 33.2754 8.40505 34.7696 8.40505Z" fill="#231815"/>
<path d="M18.5891 2.73061C18.5891 2.73061 18.9044 0.976691 16.9578 0.935423C15.8406 0.90791 14.8468 1.57509 14.2162 2.36607C11.7282 2.18724 10.3642 1.19679 7.71859 1.19679C4.65484 1.19679 3.20864 3.15705 3.20864 5.12419C3.20864 7.44211 5.08665 8.65953 6.75903 8.65953C8.34231 8.65953 9.30873 7.57967 9.30873 7.57967L8.17096 5.67444C8.17096 5.67444 7.63635 6.26595 6.94409 6.26595C6.39577 6.26595 5.78576 5.89454 5.78576 5.12419C5.78576 4.40199 6.32037 3.83111 7.5678 3.83111C8.81524 3.83111 9.40468 4.10623 11.4883 4.61521C11.4883 4.61521 12.0778 4.78028 13.0922 4.90409L11.5431 9.11349C11.0497 10.441 10.1449 12.6282 8.97288 13.8112C8.23265 14.5609 7.47185 15.4138 5.49103 15.4138C4.12708 15.4138 2.78369 14.726 2.78369 13.6049C2.78369 12.8964 2.97561 11.7616 4.64799 11.8991V9.30608C1.87211 9.07222 0.0078125 11.2113 0.0078125 13.5843C0.0078125 16.3424 2.52324 18 5.46362 18C6.30666 18 8.36287 17.7249 10.0764 16.3836C11.646 15.1525 12.9962 12.9446 13.805 10.6955L15.9229 4.97287C18.3492 4.63584 18.6028 2.73061 18.6028 2.73061" fill="#231815"/>
<path d="M90.8151 7.24952H84.1256V0.529613H80.9316V16.9752H84.1256V10.2828H90.8151V16.9752H94.0091V0.529613H90.8151V7.24952Z" fill="#231815"/>
<path d="M108.917 11.0325L101.795 0.529613H99.1016V16.9752H102.275V6.47917L109.403 16.9752H112.152V0.529613H108.917V11.0325Z" fill="#231815"/>
<path d="M69.5624 0C67.4102 0 65.7652 0.749713 64.4356 2.07719C62.6809 3.83798 62.5781 5.8739 62.5781 8.74895C62.585 11.624 62.7084 13.6599 64.463 15.4207C65.7927 16.7551 67.4171 17.4979 69.5624 17.4979C71.7077 17.4979 73.3595 16.7551 74.6892 15.4207C76.4438 13.6599 76.5466 11.624 76.5466 8.74895C76.5398 5.8739 76.4164 3.83798 74.6618 2.07719C73.3321 0.749713 71.7145 0 69.5624 0ZM73.0853 8.85212C73.0579 12.0711 72.8318 12.5319 72.1258 13.3229C71.5569 13.9832 70.6453 14.4096 69.5624 14.4096C68.4794 14.4096 67.5953 13.9832 67.0264 13.3229C66.3204 12.5319 66.0668 12.0711 66.0326 8.85212C66.06 5.64005 66.2862 4.97975 66.999 4.18877C67.5679 3.52847 68.4794 3.10203 69.5624 3.10203C70.6453 3.10203 71.5295 3.52847 72.0984 4.18877C72.8112 4.97975 73.0579 5.64005 73.0922 8.85212H73.0853Z" fill="#231815"/>
<path d="M140.027 0C137.875 0 136.23 0.749713 134.9 2.07719C133.146 3.83798 133.043 5.8739 133.043 8.74895C133.05 11.624 133.173 13.6599 134.928 15.4207C136.258 16.7551 137.882 17.4979 140.027 17.4979C142.173 17.4979 143.824 16.7551 145.154 15.4207C146.909 13.6599 147.011 11.624 147.011 8.74895C147.005 5.8739 146.881 3.83798 145.127 2.07719C143.804 0.749713 142.179 0 140.027 0ZM143.557 8.85212C143.53 12.0711 143.303 12.5319 142.597 13.3229C142.029 13.9832 141.117 14.4096 140.034 14.4096C138.951 14.4096 138.067 13.9832 137.498 13.3229C136.785 12.5319 136.539 12.0711 136.504 8.85212C136.532 5.64005 136.758 4.97975 137.471 4.18877C138.04 3.52847 138.951 3.10203 140.034 3.10203C141.117 3.10203 142.001 3.52847 142.57 4.18877C143.283 4.97975 143.53 5.64005 143.564 8.85212H143.557Z" fill="#231815"/>
<path d="M127.279 8.38441C126.34 7.8204 125.024 7.39396 123.077 6.92625C122.727 6.84371 121.754 6.5961 121.089 6.34161C120.431 6.094 119.89 5.66756 119.849 4.89033C119.904 3.66603 121.199 3.04012 122.823 3.05388C124.057 3.06076 125.305 3.5491 126.216 4.38823L128.636 2.33855C127.1 0.729078 125.311 0.0206335 122.858 -7.80651e-07C119.773 -0.0206351 116.435 1.48567 116.415 4.85594C116.401 6.94001 117.429 8.23997 119.65 9.17539C119.945 9.2992 120.939 9.62247 121.939 9.9251C122.179 9.99389 122.995 10.2209 123.632 10.4203C124.297 10.6198 124.791 10.7917 124.893 10.8399C125.716 11.2044 126.011 11.8441 125.942 12.4631C125.819 13.6393 124.331 14.2033 122.597 14.2102C121.473 14.2033 120.137 13.7906 119.232 13.1028C118.992 12.9171 118.759 12.7382 118.553 12.5181L116.1 14.8429C117.505 16.3768 120.239 17.4773 122.344 17.5117H122.467C125.901 17.5117 129.17 16.026 129.355 12.642C129.472 10.5854 128.814 9.31983 127.279 8.39129" fill="#231815"/>
<path d="M161.221 11.0325L154.093 0.529613H151.406V16.9752H154.58V6.47917L161.708 16.9752H164.449V0.529613H161.221V11.0325Z" fill="#231815"/>
<path d="M53.023 0.529613V3.15017H55.2369V12.0504C55.2369 13.2266 54.106 14.2583 52.8106 14.2583C51.289 14.2583 50.3842 13.5911 50.1375 12.2912H46.8887C46.8955 12.4494 46.9092 12.5732 46.9092 12.5732C47.012 13.6118 47.2656 14.4028 47.6974 15.0768C48.6776 16.5969 50.5282 17.5048 52.6392 17.5048C55.4699 17.5048 58.4788 15.5927 58.4788 12.0504V0.529613H53.0093H53.023Z" fill="#231815"/>
</g>
<defs>
<clipPath id="clip0_1133_31259">
<rect width="259" height="18" fill="white"/>
</clipPath>
</defs>
</svg>
