<svg xmlns="http://www.w3.org/2000/svg" width="219.999" height="26.634" viewBox="0 0 219.999 26.634"><g transform="translate(16335 18209)"><path d="M29.55,20.737l2.358.02V18.4L29.55,18.3Z" transform="translate(-16345.823 -18215.836)" fill="#fff"/><path d="M34.369,18.492v2.34l2.358.02V18.585Z" transform="translate(-16347.589 -18215.908)" fill="#fff"/><path d="M29.55,25.925l2.358-.079V23.483l-2.358.006Z" transform="translate(-16345.823 -18217.773)" fill="#fff"/><path d="M34.369,25.818l2.358-.079V23.471l-2.358.006Z" transform="translate(-16347.589 -18217.768)" fill="#fff"/><path d="M6.238,25.471V19.445L8.7,16.006l4,8.986L6.424,25.5ZM12.97,10.033l6.271-8.767,11.794,16.76,0,5.488L20,24.4ZM11.987,0,6.137,9.43V.075H0l.119,25.7,5.989.859v-.039l.276.042L32.17,24.553l.005-6.882L19.753.007l0-.007Z" transform="translate(-16335 -18209)" fill="#fff"/><g transform="translate(-16298.057 -18208.604)"><path d="M61.969,22.328a19.864,19.864,0,0,0,5.806-4.937,15.67,15.67,0,0,0,2.9-7.463H62.9v-3.9h8.128l.116-5.4,4.413.229-.116,5.167h9.173q-.348,6.545-.812,12.4a12.1,12.1,0,0,1-1.046,4.363,3.889,3.889,0,0,1-3.716,2.3H75.323l-.813-3.9h2.207a2.953,2.953,0,0,0,2.089-.574q.349-.228.7-2.3a37.593,37.593,0,0,0,.465-4.249L80.2,9.928H75.09a22,22,0,0,1-2.9,8.727,19.166,19.166,0,0,1-7.316,6.889Z" transform="translate(-61.969 -0.627)" fill="#fff"/><path d="M104.311,2.369h19.043l.349-.459,3.484,1.836q-.931,8.15-3.368,12.624-2.787,5.051-9.406,9.411l-3.368-3.558q9.986-5.049,10.915-15.837H108.84v6.771h-4.529Z" transform="translate(-77.478 -1.097)" fill="#fff"/><path d="M141.6,19.6l2.9-.115a138.4,138.4,0,0,0,6.851-18.124L156,2.621q-3.022,8.259-6.619,16.4a81.362,81.362,0,0,0,9.754-1.147Q157.622,15.355,156,13.06l3.484-2.409q2.9,4.016,7.083,11.242L162.732,24.3l-1.394-2.409q-7.781,1.148-18.811,1.95Z" transform="translate(-91.135 -0.895)" fill="#fff"/><path d="M183.828,12.193v-3.9h19.043l.349-.345,2.9,2.066a27.931,27.931,0,0,1-5.108,9.3,21.1,21.1,0,0,1-9.29,6.771l-2.786-3.443q8.823-3.671,11.5-10.444Zm2.786-10.1h15.792V5.88H186.615Z" transform="translate(-106.603 -1.164)" fill="#fff"/><path d="M224.7,18.536a24.677,24.677,0,0,0,5.574-6.659l3.716,2.3a29.1,29.1,0,0,1-6.038,7.577Zm1.044-12.284H235.5V.627h4.413V6.252h9.29v3.9h-9.29V21.291q0,3.9-4.3,3.9h-2.206l-1.161-4.247h1.741a1.327,1.327,0,0,0,1.51-1.492v-9.3h-9.754Zm15.561,7.921,3.252-2.411a46.159,46.159,0,0,1,5.574,7.347l-3.716,2.411a56.119,56.119,0,0,0-5.11-7.347" transform="translate(-121.575 -0.627)" fill="#fff"/><rect width="22.527" height="3.947" transform="translate(132.284 10.426)" fill="#fff"/><path d="M311.431,19.6l2.9-.115a138.58,138.58,0,0,0,6.851-18.124l4.645,1.262q-3.021,8.259-6.619,16.4a81.363,81.363,0,0,0,9.754-1.147q-1.51-2.522-3.135-4.818l3.484-2.409q2.9,4.016,7.083,11.242L332.564,24.3l-1.394-2.409q-7.781,1.148-18.811,1.95Z" transform="translate(-153.341 -0.895)" fill="#fff"/></g></g></svg>