<?xml version="1.0" encoding="UTF-8"?> <svg xmlns="http://www.w3.org/2000/svg" id="グループ_249" data-name="グループ 249" width="150.606" height="82.359" viewBox="0 0 150.606 82.359"><path id="パス_34" data-name="パス 34" d="M360.273,408.555c0,4.016-12.829,7.268-28.664,7.268s-28.657-3.252-28.657-7.268,12.831-7.265,28.657-7.265S360.273,404.541,360.273,408.555Z" transform="translate(-258.543 -333.463)" fill="#00407d"></path><path id="パス_35" data-name="パス 35" d="M130.212,327.873v-2.541h2.141V313.018h-2.141v-2.5h9.575a12.626,12.626,0,0,1,6.073,1.64q3.028,1.648,3.025,7.015a9.229,9.229,0,0,1-1.16,4.777,7.28,7.28,0,0,1-3.313,2.944,12.132,12.132,0,0,1-5.055.979Zm5.912-14.855v12.314h3a5.531,5.531,0,0,0,4.31-1.644,6.413,6.413,0,0,0,1.494-4.478,6.647,6.647,0,0,0-1.447-4.552,5.513,5.513,0,0,0-4.357-1.641Z" transform="translate(-130.212 -266.027)" fill="#3d9737"></path><path id="パス_36" data-name="パス 36" d="M210.052,327.873v-2.541h1.527l6.246-14.815H222.4l6.239,14.815h1.476v2.541h-7.62v-2.541h2.291l-1.2-2.786h-7.344l-1.14,2.786h2.246v2.541Zm7.146-7.865h5.387l-2.665-6.631Z" transform="translate(-189.526 -266.027)" fill="#3d9737"></path><path id="パス_37" data-name="パス 37" d="M298.262,327.873v-2.541h2.2V313.018h-2.2v-2.5h8.156v2.5h-2.2v12.314h2.2v2.541Z" transform="translate(-255.058 -266.027)" fill="#3d9737"></path><path id="パス_38" data-name="パス 38" d="M340.6,327.873v-2.541h2.138V313.018H340.6v-2.5h8.094v2.5h-2.186v5.475l5.573-5.475h-1.617v-2.5h7.669v2.5h-1.616l-5.726,5.6,6.154,6.711h1.664v2.541h-8.342v-2.541h2.046l-5.805-6.275v6.275h2.186v2.541Z" transform="translate(-286.509 -266.027)" fill="#00407d"></path><path id="パス_39" data-name="パス 39" d="M506.462,310.517h16.151v6h-3.145v-3.5H516.42v12.314h2.526v2.541h-8.911v-2.541h2.617V313.018h-3.1v3.5h-3.094Z" transform="translate(-409.733 -266.027)" fill="#00407d"></path><path id="パス_40" data-name="パス 40" d="M580.481,326.723v-5.836h3.233a3.293,3.293,0,0,0,3.816,3.85,3.491,3.491,0,0,0,1.982-.631,1.89,1.89,0,0,0,.928-1.63,2.38,2.38,0,0,0-1.139-2.337,16.7,16.7,0,0,0-3.677-1.165,9.872,9.872,0,0,1-3.817-1.552,4.006,4.006,0,0,1-1.278-3.372,4.552,4.552,0,0,1,1.632-3.755,6.357,6.357,0,0,1,4.139-1.325,4.987,4.987,0,0,1,4.23,1.785h.05v-1.387h3.153v5.438H590.49a3.928,3.928,0,0,0-.916-2.6,3.513,3.513,0,0,0-2.569-.81q-2.807,0-2.811,2.223a1.668,1.668,0,0,0,.954,1.722,31.464,31.464,0,0,0,3.677,1.132,10.417,10.417,0,0,1,4.053,1.851,4.4,4.4,0,0,1,1.337,3.554,4.915,4.915,0,0,1-2.861,4.583,6.716,6.716,0,0,1-2.913.625,9.787,9.787,0,0,1-2.852-.355,3.948,3.948,0,0,1-1.964-1.429h-.052v1.426Z" transform="translate(-464.722 -264.877)" fill="#00407d"></path><path id="パス_41" data-name="パス 41" d="M661.941,310.517v2.5h-1.895v8.861a5.793,5.793,0,0,1-.934,3.2,6.558,6.558,0,0,1-2.611,2.305,8.172,8.172,0,0,1-3.753.848q-4.336,0-5.955-2.012a6.792,6.792,0,0,1-1.618-4.339v-8.861h-1.953v-2.5h8.1v2.5h-2.431v7.629a12.02,12.02,0,0,0,.221,2.464,3.321,3.321,0,0,0,1.069,1.813,3.741,3.741,0,0,0,2.569.765q2.482,0,3.22-1.383a7.781,7.781,0,0,0,.739-3.66v-7.629h-2.482v-2.5Z" transform="translate(-511.335 -266.027)" fill="#00407d"></path><path id="パス_42" data-name="パス 42" d="M310.954,155.406c16.214-7.019,45.911-5.426,45.911-5.426-12.521-9.182-38.191-8.344-38.191-8.344l16.909-4.173a136.882,136.882,0,0,0-41.635,6.572l4.381,3.131c15.337-3.861,33.6-1.566,33.6-1.566-16.8,1.044-42.782,11.792-42.782,11.792l3.446,5.53c19.2-4.591,40.729-4.349,40.729-4.349-20.732,1.463-38.4,12.312-38.4,12.312l5.564,3.549c13.5-4.1,30.264-3.408,30.264-3.408a34.245,34.245,0,0,0-11.271,4.034L321.5,176.1v25.67h7.512v-1.648h-5.46v-4.184h1.8l3.662-8.679v-4.83l-4.8-4.277,19.2-4.8-1.461-3.131c-6.885-2.815-23.061-3.235-23.061-3.235,12.73-7.443,37.253-6.154,37.253-6.154l-.628-4.072C340.589,153.846,310.954,155.406,310.954,155.406Z" transform="translate(-248.287 -137.463)" fill="#3d9737"></path><path id="パス_43" data-name="パス 43" d="M426.148,327.873v-2.541h1.524l6.247-14.815h4.575l6.234,14.815h1.481v2.541h-7.62v-2.541h2.294l-1.2-2.786h-7.34l-1.143,2.786h2.247v2.541Zm7.146-7.865h5.385l-2.665-6.631Z" transform="translate(-350.066 -266.027)" fill="#00407d"></path></svg> 