<svg xmlns="http://www.w3.org/2000/svg" width="258.731" height="19.737" viewBox="0 0 258.731 19.737">
  <g id="Group_34555" data-name="Group 34555" transform="translate(-316.251 -294.803)">
    <g id="Group_34554" data-name="Group 34554" transform="translate(316.251 294.803)">
      <path id="Path_112148" data-name="Path 112148" d="M499,314.518h11.686v-1.939h-9.558v-3.106h8.076v-1.94h-8.076v-2.667h9.558v-1.939H499Zm33.415,0h11.686v-1.939h-9.558v-3.106h8.076v-1.939h-8.076v-2.668h9.558v-1.939H532.42Zm67.654-11.591v9.137l-8.506-9.137h-2.512v11.591h2.127v-9.1l8.476,9.1H602.2V302.926ZM577.5,310.183h5.213c-.757,1.778-2.336,2.678-4.7,2.678-3.23,0-5.181-1.716-5.181-4.163s2.166-4.164,5.181-4.164a5.83,5.83,0,0,1,4.511,1.921l1.979-.989a7.935,7.935,0,0,0-6.333-2.9c-3.118,0-7.541,1.669-7.541,6.133,0,3.889,3.53,6.132,7.385,6.132,3.539,0,7.353-1.648,7.353-6.586H577.5Zm-55.121-7.256h-7.3v11.591h7.66c4.209,0,6.188-3.033,6.188-5.67S527.362,302.926,522.378,302.926Zm.517,9.65h-5.689v-7.71h5.329a3.822,3.822,0,0,1,4.106,3.933A3.617,3.617,0,0,1,522.895,312.577Zm-68.831-5.034h-8.873v-4.617h-2.127v11.592h2.127v-5.029h8.873v5.029h2.127V302.925h-2.127Zm-29.987-4.617h-2.128v11.591h10.887v-1.939h-8.759Zm62.233,6.8-5.39-6.8h-2.534v11.592h2.128v-9.1l5.78,7.315,5.828-7.316v9.1h2.128V302.925h-2.526Zm-87.433,4.8H401V302.926h-2.127Zm6.868,0h11.685v-1.939h-9.558v-3.106h8.076v-1.939h-8.076v-2.668h9.558v-1.939H405.744Zm158.871,0h2.127V302.926h-2.127Zm-3.832-3.581c-.117,2.934-3.525,3.985-6.633,3.91a11.362,11.362,0,0,1-6.631-2.019l1.442-1.6a10.375,10.375,0,0,0,5.19,1.577c2.063.028,4.3-.378,4.3-1.8,0-1-1.02-1.207-1.217-1.258-.81-.25-5.3-.405-6.43-.7-2.541-.569-2.847-2.212-2.847-2.881a3.072,3.072,0,0,1,1.555-2.533,7.553,7.553,0,0,1,4.4-1.025,11.855,11.855,0,0,1,6.377,1.709l-1.447,1.6a10.948,10.948,0,0,0-4.323-1.277c-2.79-.191-4.108.386-4.229,1.336-.049.39.2,1.143,2.471,1.322C554.924,307.461,560.928,307.263,560.783,310.937Zm-93.5-8.372c-4.1,0-7.4,2.518-7.4,6.133,0,3.433,2.933,6.132,7.4,6.132s7.4-2.7,7.4-6.132C474.686,305.083,471.389,302.565,467.285,302.565Zm0,10.3c-3.521,0-5.2-1.966-5.2-4.163,0-2.246,1.925-4.164,5.2-4.164s5.2,1.919,5.2,4.164C472.486,310.9,470.807,312.861,467.285,312.861Zm-82.548-7.147a5.779,5.779,0,0,1,3.753-1.178,6.187,6.187,0,0,1,4.792,1.853l1.944-.7a7.893,7.893,0,0,0-6.736-3.128,8.141,8.141,0,0,0-5.042,1.545,5.687,5.687,0,0,0-.031,9.191,8.209,8.209,0,0,0,5.073,1.529c4.122,0,5.7-1.774,6.648-2.854l-1.831-1.013a6.917,6.917,0,0,1-8.586.74,3.856,3.856,0,0,1,.016-5.99Z" transform="translate(-343.471 -298.061)"/>
      <path id="Path_112149" data-name="Path 112149" d="M331.534,303.343l-15.283-8.54.2.472a.472.472,0,0,0,.195.219l14.885,8.339,14.885-8.339a.475.475,0,0,0,.195-.219l.2-.472Zm-7.453,9.663.2.457a1.787,1.787,0,0,0,1.606,1.076h11.3a1.787,1.787,0,0,0,1.606-1.076l.2-.457Zm-1.348-3.136.284.661a1.583,1.583,0,0,0,1.176.926l7.342,1.29,7.342-1.29a1.585,1.585,0,0,0,1.176-.926l.284-.661-8.8,1.51Zm-1.33-3.093.327.761a1.368,1.368,0,0,0,.863.763l8.941,2.667,8.941-2.667a1.365,1.365,0,0,0,.863-.763l.328-.761-10.132,2.978Zm-1.311-3.05.334.778a1.148,1.148,0,0,0,.633.609l10.476,4.077,10.476-4.077a1.149,1.149,0,0,0,.634-.609l.334-.778-11.443,4.41Zm-1.295-3.01.313.728a.925.925,0,0,0,.455.467l11.97,5.5,11.97-5.5a.922.922,0,0,0,.454-.467l.313-.728-12.738,5.812Zm-1.279-2.974.268.621a.7.7,0,0,0,.315.341l13.435,6.918,13.435-6.918a.706.706,0,0,0,.315-.341l.267-.621-14.017,7.187Z" transform="translate(-316.251 -294.803)" fill="#00267f"/>
    </g>
  </g>
</svg>
