<?xml version="1.0" encoding="utf-8"?>
<!-- Generator: Adobe Illustrator 27.9.0, SVG Export Plug-In . SVG Version: 6.00 Build 0)  -->
<svg version="1.1" id="a" xmlns="http://www.w3.org/2000/svg" xmlns:xlink="http://www.w3.org/1999/xlink" x="0px" y="0px"
	 viewBox="0 0 1077.2 206" style="enable-background:new 0 0 1077.2 206;" xml:space="preserve">
<style type="text/css">
	.st0{fill:#231815;}
	.st1{fill:#003894;}
	.st2{fill:url(#SVGID_1_);}
</style>
<g>
	<path d="M276.5,82.4h38.3v-9.7h-38.6l0-17h-14.8v17h-38.6v9.7h38.3c-2.3,22.1-19.5,48.6-38.9,57v11.5c24.7-7,40.1-28.2,47.5-46.8
		c7.8,22.9,28.1,42.8,45.8,46.8v-11.4C295.4,128.7,278.8,100.8,276.5,82.4L276.5,82.4z"/>
	<path d="M421.7,73h-18.9v7.6h-12.5V73h-32v7.6h-12.5V73h-19v-8.8h19v-9h12.5v9h32v-9h12.5v9h18.9V73z M421.7,121.8h-30.5
		c7.4,8.6,18.6,14.8,30.5,18.7v10.3c-16.2-2.9-36.9-14.2-45.6-28.6c-9.3,17.8-30.6,26.4-49.3,28.6v-10.3c5.3-1,24.8-4.9,34.8-18.7
		h-34.8V113h8.5V94.5c0-5.6,0.3-8.9,7.8-8.9h24.6v-8.9h13.1v8.9h24.7c7.5,0,7.8,3.3,7.8,8.9V113h8.5L421.7,121.8L421.7,121.8z
		 M380.8,93.9v8.1c0,3.9-0.5,7.5-1.3,10.9h21.9V94L380.8,93.9L380.8,93.9z M366.1,113c1-3.2,1.6-6.7,1.6-10.7V94h-20.6v19H366.1z"/>
	<path d="M508.6,83.4l3.7-11h14v-8.9h-36.4v-8.3H477v8.3h-36.5v8.9h14l3.7,11H450c-10.4,0-10,7.5-10,9.8c0.1,8.1-0.3,39.2-7,47v10.6
		c16.4-7.1,19.2-33.2,19.2-52.7v-5.7h78.3v-9H508.6L508.6,83.4z M467.9,72.4h31.1l-2.2,11H470L467.9,72.4L467.9,72.4z M497.7,139.9
		h32.8v8.8h-78.6v-8.8h34V130h-21.6v-8.1h21.6v-9.1h-17.4c-2.8,6.1-7.5,10.5-13.5,12.9v-9.5c3.3-4.2,5.2-8.3,5.2-19.6h11.6
		c0,2.8-0.2,5.5-0.7,8.1h14.8v-8.3h11.8v8.3h29.8v8.2h-29.8v9.1h26.6v8.1h-26.6L497.7,139.9L497.7,139.9z"/>
	<path d="M612.2,126.2h27.3v-8.7h-41.5v-7.8h35.6v-8h-35.6v-7.1h37.8v-8.3h-23.4l3.8-8h23.3v-8.9h-14.7l5.3-10.7h-13.3l-4,10.7h-5.4
		v-14h-11.7v14h-7.2v-14h-11.7v14h-5.4l-4-10.7H554l5.3,10.7h-14.7v8.9h23.3l3.8,8h-23.4v8.3h37.8v7.1h-35.6v8h35.6v7.8h-41.5v8.7
		h27.3c-8.4,6.9-19.4,10.5-27.3,13v10.1c14.7-2.9,31.5-10.1,41.5-20.9v22.5h12v-22.5c10,10.9,26.8,18.1,41.5,20.9v-10.1
		C631.6,136.7,620.6,133.1,612.2,126.2L612.2,126.2z M583.5,86.3l-3.1-8h23.3l-3.1,8H583.5z"/>
	<path d="M686.2,116.2V106c-5.1-8.4-7.8-17.9-8.8-26.7h9.3v-8.9H677V55.2h-11.8v15.2h-11.7v8.9h10.9c-0.5,10.7-4.5,26.9-12.6,36.1
		v10.4c6.2-3.7,10.5-8.7,13.4-13.2v38.2H677v-43.9C679.4,110.7,682.6,114.4,686.2,116.2L686.2,116.2z M753.6,136.5v11.3
		c-13.5-6.7-23.9-23.6-28.1-35.4v38.4h-11.8v-38.5c-4.5,12.4-15.8,30.5-30.3,36.4v-10.5c9.1-7.1,18-22.4,20.8-34.4h-17.7v-8.9h26.9
		V79.3h-12.7c-3,6.4-7.8,10.7-14,12.7v-9.3c4.9-5.1,6.5-12.6,6.5-22.7h11.3c0,3.8-0.3,7.2-0.9,10.4h9.9V55.2h12.4v15.2h24v8.9h-24
		v15.6h27.4v8.9h-18.3C737.5,114.9,745.2,128.8,753.6,136.5z"/>
	<path d="M924.9,54.7h-14.8C900.2,68.1,885,77.9,868,83.1v10.2c6.6-1.7,13.3-4.2,19.7-7.2V92h59.7v-5.9c6.4,3,13.1,5.6,19.7,7.2
		V83.1C950,77.9,934.8,68.1,924.9,54.7z M893.5,83.2c10-5.4,18.7-11.8,24-17.8c5.3,6,14,12.4,24,17.8H893.5L893.5,83.2z
		 M947.6,121.3c3.6,6,6.3,10.5,9.3,16c3.8,6.8,3.3,11.8-5.4,11.8h-64.6c-8.7,0-8.9-4.2-5.4-11.8c2.8-6,7.7-17.2,9.8-22.1h-18.9v-9
		h90.2v9h-57.4l-12.7,24.5h52.7c-3.3-7-5.7-11.8-9.5-18.5H947.6z"/>
	<path d="M1077.2,139.6v9.1h-60.9v-9.1h24.2V89.7h-16.2v-9.2h16.2V55.2h12.8v25.4h20.6v9.2h-20.6v49.9H1077.2L1077.2,139.6z
		 M1024.7,124.5l0-10.4c-4.8-3.3-10.9-10-14.6-15.5c5.8-8.4,9.1-15.9,10.1-18.4c1.6-4,3.5-9.9-6.3-9.9h-7.8V55.2h-12.3v15.2h-14v9.3
		h26.5c-2.7,10.4-14,28-28.6,36.1v10.4c6-2.4,11.3-5.7,16-9.5v34.2h12.3v-39.6C1010.1,115.8,1015.9,120.6,1024.7,124.5L1024.7,124.5
		z"/>
	<path d="M860.8,139.5v11.3c-28.8-10.7-37-38.9-39.3-68h-57.3v-9.3H821c-0.2-6.2-0.3-12.3-0.3-18.3h13.9c0,6,0,12.2,0.3,18.3h23.9
		v9.3h-23.4C837.2,105.9,842.9,127.8,860.8,139.5L860.8,139.5z M800.5,107.4h18.2v-8.8h-50.9v8.8H788v30.1
		c-6.5,0.4-13.8,0.8-21.9,1.2v10c23.6-1.6,44.9-3.9,57-6v-8.7c-6.5,1-13,1.9-22.6,2.6L800.5,107.4L800.5,107.4z M857.7,58.1H841v7.5
		h16.6V58.1z"/>
</g>
<g>
	<g>
		<path class="st0" d="M39.7,206h7.2c1.2-2.6,3-6.1,4.8-9.8H71l4.4,9.8h9.8l-17.4-37.4h-3.9c-4.5,0-5.9,0.9-7.6,4.3L39.7,206
			L39.7,206z M54,191.7c3.1-6.4,6.1-12.4,6.9-14.1c0.4-0.7,0.7-1.3,0.9-1.8l7.1,15.9C69,191.7,54,191.7,54,191.7z"/>
		<rect x="91" y="168.6" class="st0" width="9.3" height="37.4"/>
		<rect x="158.3" y="168.6" class="st0" width="9.3" height="37.4"/>
		<path class="st0" d="M0,206h14.4c14.4,0,22.5-7.9,22.5-18.7s-8-18.7-22.5-18.7H0V206L0,206z M9.3,173.1h2.9
			c10.3,0,15.4,5.6,15.4,14.2s-5,14.2-15.4,14.2H9.3C9.3,201.5,9.3,173.1,9.3,173.1z"/>
		<path class="st0" d="M113.1,168.6v26.3c0,8.8,3.1,11.1,12.5,11.1h22.4v-4.5h-18.8c-5.2,0-6.8-1-6.8-5.8v-7.3h23.5V184h-23.5v-10.8
			h25.6v-4.5L113.1,168.6L113.1,168.6z"/>
	</g>
	<g>
		<path class="st1" d="M12.1,134V48.2L68,14.2l53.7,32.9V32.9L68,0L0,41.3v104.8L12.1,134z"/>
		
			<linearGradient id="SVGID_1_" gradientUnits="userSpaceOnUse" x1="0" y1="112.0369" x2="170.9755" y2="112.0369" gradientTransform="matrix(1 0 0 -1 0 208)">
			<stop  offset="5.000000e-02" style="stop-color:#003894"/>
			<stop  offset="0.11" style="stop-color:#073B8F"/>
			<stop  offset="0.17" style="stop-color:#38438C"/>
			<stop  offset="0.23" style="stop-color:#534A86"/>
			<stop  offset="0.29" style="stop-color:#6C537D"/>
			<stop  offset="0.35" style="stop-color:#865E73"/>
			<stop  offset="0.41" style="stop-color:#A16A64"/>
			<stop  offset="0.47" style="stop-color:#BC7850"/>
			<stop  offset="0.53" style="stop-color:#D78634"/>
			<stop  offset="0.59" style="stop-color:#F09606"/>
			<stop  offset="0.65" style="stop-color:#F39800"/>
		</linearGradient>
		<path class="st2" d="M161,116.1c13.9-20.4,13.2-46.8-1.8-60c-7.6-6.7-16.7-10.3-26.3-10.3c-3.8,0-7.5,0.6-11.2,1.6v12.8
			c3.7-1.5,7.4-2.3,11.2-2.3c6.6,0,12.9,2.5,18.3,7.3c10.3,9.1,10.2,28.9-0.2,44.1c-8.4,12.3-22,19.5-32.6,22.8
			c3.9-9,6.5-19.5,7.2-29.9c1.2-17.5-3-32.2-11.8-41.3c-9.3-9.7-20.9-15-32.7-15c-9.6,0-18.7,3.6-26.3,10.3
			c-15,13.3-15.8,39.6-1.8,60c5.1,7.4,11.7,13.4,18.6,18H12.1L0,146.2h86.3v-17.9c-8.4-4-17.2-10.2-23.2-19.1
			c-10.4-15.2-10.5-35-0.2-44.1c5.4-4.8,11.7-7.3,18.3-7.3c5.8,0,11.6,1.9,16.9,5.4c-18.4,24.1-8.1,65.6,5.8,82.9
			C123.7,147,148.7,134.1,161,116.1L161,116.1z M107,127.7c-8-17.8-9.5-43.2,0-56.3C116.5,84.5,115,109.9,107,127.7"/>
	</g>
</g>
</svg>
