<?xml version="1.0" encoding="utf-8"?>
<!-- Generator: Adobe Illustrator 27.0.1, SVG Export Plug-In . SVG Version: 6.00 Build 0)  -->
<svg version="1.1" id="レイヤー_1" xmlns="http://www.w3.org/2000/svg" xmlns:xlink="http://www.w3.org/1999/xlink" x="0px"
	 y="0px" viewBox="0 0 164.8 20.6" style="enable-background:new 0 0 164.8 20.6;" xml:space="preserve">
<style type="text/css">
	.st0{fill:#FFFFFF;}
</style>
<g>
	<g>
		<g>
			<g>
				<g>
					<path class="st0" d="M61.1,18.4h-2.5c-0.3,0-0.5-0.2-0.5-0.5V2.1h2.9V18.4z"/>
				</g>
			</g>
			<g>
				<g>
					<path class="st0" d="M68.6,5.1v5h6.1c0.3,0,0.5,0.2,0.5,0.5v2.5h-6.6v5.3h-2.9V2.2h2.9v0h8.9v2.9H68.6z"/>
				</g>
			</g>
			<g>
				<g>
					<path class="st0" d="M54.2,15.8v2.5h-9.9V2.1h2.9v13.3h6.5C54,15.4,54.2,15.6,54.2,15.8z"/>
				</g>
			</g>
			<g>
				<g>
					<path class="st0" d="M84.4,5.1v4.2h7.1v2.9h-7.1v3.2h8.4c0.3,0,0.5,0.2,0.5,0.5v2.5H81.4V2.2h11.8v2.9H84.4z"/>
				</g>
			</g>
		</g>
		<g>
			<g>
				<g>
					<path class="st0" d="M100.8,5.1v5h6.1c0.3,0,0.5,0.2,0.5,0.5v2.5h-6.6v5.3h-2.9V2.2h1.5v0h10.3v2.9H100.8z"/>
				</g>
			</g>
			<g>
				<g>
					<polygon class="st0" points="134.9,2.1 134.9,2.1 134.9,2.1 					"/>
				</g>
			</g>
			<g>
				<g>
					<path class="st0" d="M146,2.1c0.3,0,0.5,0.2,0.5,0.5v15.8l0,0h-2.9l0,0l-9-11.5v11.5h-2.9l0,0V2.1l0,0h2.9l0,0l9,11.5V2.1l0,0
						H146z"/>
				</g>
			</g>
			<g>
				<g>
					<path class="st0" d="M157,18.3H151c-0.3,0-0.5-0.2-0.5-0.5V2.2h6.2c5.5,0,9.7,5.6,7.4,11.4C162.9,16.5,160.1,18.3,157,18.3z
						 M153.5,15.3h3.5c1.8,0,3.5-1,4.3-2.6c1.9-3.8-0.9-7.6-4.5-7.6h-3.3V15.3z"/>
				</g>
			</g>
			<g>
				<g>
					<polygon class="st0" points="134.9,2.1 134.9,2.1 134.9,2.1 					"/>
				</g>
			</g>
			<g>
				<g>
					<path class="st0" d="M117.6,17.8c-2.5-1-4.2-3.4-4.2-6.1l0-9.4h2.9l0,9.5c0,1.3,0.7,2.5,1.8,3.1c2.9,1.5,5.9-0.6,5.9-3.3l0-8.8
						c0-0.3,0.2-0.5,0.5-0.5h2.4v9.3C127,16.1,122.4,19.6,117.6,17.8z"/>
				</g>
			</g>
		</g>
	</g>
	<g>
		<g>
			<path class="st0" d="M32.1,0.5v20.1H11.5V10.3h-1.2v10.3H0.5c-0.3,0-0.5-0.2-0.5-0.5V0h20.6v10.3h1.2V0h9.8
				C31.9,0,32.1,0.2,32.1,0.5z"/>
		</g>
	</g>
</g>
</svg>
