<?xml version="1.0" encoding="UTF-8"?>
<svg id="_レイヤー_1" data-name=" レイヤー 1" xmlns="http://www.w3.org/2000/svg" version="1.1" viewBox="0 0 534 100">
  <defs>
    <style>
      .cls-1 {
        fill: #231815;
        stroke-width: 0px;
      }
    </style>
  </defs>
  <path class="cls-1" d="M73.1,53.9C72,30.2,56.4,2.9,38,2.9S4.1,32.6,2.9,53.9c-1.4,29.1,16,44.4,35.1,44.2,18.8,0,36.5-15,35.1-44.2ZM50,80.4c-3.6,2.1-7.7,3.3-12.1,3.3-13.3,0-24.3-10.9-24.3-24.3s1.1-8.6,3.3-12.1h6v12.1c0,8.3,6.7,15,15,15h19.1c-2,2.4-4.3,4.6-7,6ZM62.3,68.8h-12.1c-4.4,0-8.6-1.1-12.1-3.3-2.7-1.6-5-3.6-7-6h22c0-8.3-6.7-15-15-15h-19.1c2-2.4,4.3-4.6,7-6,3.6-2.1,7.7-3.3,12.1-3.3,13.4,0,24.3,10.9,24.3,24.3v9.3h.1-.1Z"/>
  <g>
    <path class="cls-1" d="M110.7,50.8c-2.1-2.3-5-3.4-8.4-3.4-7,0-11.7,4.9-11.7,12s4.9,11.6,11.7,11.6,8.7-2.3,11-6.1v-.3c.1,0-3.9-2.1-3.9-2.1v.3c-2,3-4,4.3-7,4.3s-7-2.6-7.1-6.3h18.1v-1.3c0-3.3-1.1-6.1-3.1-8.3h.3v-.3ZM102.4,51.6c3,0,5.6,2.1,6.3,4.9h-12.8c.7-2.7,3.6-4.9,6.4-4.9Z"/>
    <path class="cls-1" d="M153.1,37.3v13.3c-2-2-4.7-3.1-7.7-3.1-7.7,0-11.6,6-11.6,11.9s4,11.7,11.6,11.7,5.7-1.1,7.7-3.1v2.4h4.7v-33h-4.7v-.2ZM145.9,66.7c-4.9,0-7.1-4-7.1-7.8s2.4-7.3,7.1-7.3,7.4,3.1,7.4,7.3-2.3,7.8-7.3,7.8h-.1Z"/>
    <path class="cls-1" d="M185.1,50.8c-2.1-2.3-5-3.4-8.4-3.4-7,0-11.7,4.9-11.7,12s4.9,11.6,11.7,11.6,8.7-2.3,11-6.1v-.3c.1,0-3.9-2.1-3.9-2.1v.3c-2,3-4,4.3-7,4.3s-6.8-2.6-7.1-6.3h18.1v-1.3c0-3.3-1.1-6.1-3.1-8.3h.3v-.3ZM176.8,51.6c3,0,5.6,2.1,6.3,4.9h-12.8c.7-2.7,3.6-4.9,6.4-4.9Z"/>
    <path class="cls-1" d="M206.3,57l-1-.3c-2.3-.8-4.3-1.6-4.3-3.1s1.3-2,2.4-2,2.3,1,2.7,2v.3c.1,0,4.3-2,4.3-2v-.3c-1.3-2.4-4-4.3-6.7-4.3-4.3,0-7.3,2.7-7.3,6.4s3.3,5.2,6.1,6.3c2.3,1,4.3,1.6,4.3,3.6s-1.3,3-3.4,3-3.4-1.1-4.4-3.3v-.3c-.1,0-4.4,1.6-4.4,1.6v.3c1.4,3.6,4.7,5.7,8.7,5.7s8.3-3.3,8.3-7.4-3-5.6-5.7-6.4h.2Z"/>
    <rect class="cls-1" x="119.1" y="56.4" width="10.3" height="3.9"/>
    <path class="cls-1" d="M251.3,48v2.6c-2-2.1-4.6-3.3-7.7-3.3-6.7,0-11.7,5-11.7,11.9s4.9,11.7,11.6,11.7,5.9-1.1,7.8-3.1v1.6c0,6-2.1,8.6-7,8.6s-7-2.4-7-6.1v-.3h-4.7v.4c0,6.1,4.9,10.3,11.9,10.3s7.1-1.4,9.3-3.9c2.4-3,2.4-6,2.4-9.6v-20.8h-4.9ZM244.2,66.7c-4.9,0-7.1-4-7.1-7.8s2.4-7.3,7.1-7.3,7.4,3.1,7.4,7.3-2.3,7.8-7.3,7.8h-.1Z"/>
    <path class="cls-1" d="M276.7,47.4c-2.6,0-4.7,1-6.3,2.7v-2.1h-4.7v22.3h4.7v-10.6c0-4,.4-8.1,5.4-8.1s4.6,2.6,4.6,6.1v12.5h4.7v-13.1c0-6.4-2.7-9.7-8.3-9.7Z"/>
    <path class="cls-1" d="M219.2,70.3h4.7v-22.3h-4.7v22.3ZM221.5,43.3c1.6,0,3-1.3,3-3s-1.3-3-3-3-3,1.3-3,3,1.3,3,3,3Z"/>
  </g>
</svg>