<svg xmlns="http://www.w3.org/2000/svg" width="167.584" height="20.357"><g data-name="Group 4" fill="#c01"><path data-name="Path 10" d="M7.691 19.543v-9.96a1.614 1.614 0 00-.382-1.163 1.479 1.479 0 00-1.116-.4 2.414 2.414 0 00-1.629.594 1.784 1.784 0 00-.69 1.387v9.537H-.001V5.752h3.757v1.506a5.405 5.405 0 011.776-1.427 4.736 4.736 0 012.128-.5 3.607 3.607 0 013.9 3.91v10.3z"/><path data-name="Path 11" d="M26.126 19.543V18.01a4.708 4.708 0 01-1.629 1.387 4.473 4.473 0 01-2.069.489 3.909 3.909 0 01-2.935-1.083 4.128 4.128 0 01-1.057-3.012 3.945 3.945 0 011.541-3.289 8.052 8.052 0 014.418-1.414l1.585-.106v-.819a3.2 3.2 0 00-.411-1.823 1.506 1.506 0 00-1.321-.581 1.688 1.688 0 00-1.262.449 2.694 2.694 0 00-.616 1.427l-3.464-.264a4.541 4.541 0 011.7-3.052 6.3 6.3 0 013.787-.991 5.488 5.488 0 013.978 1.255 5.3 5.3 0 011.277 3.923v9.036zm-.147-6.367l-1.174.106a3.653 3.653 0 00-2.04.687 1.9 1.9 0 00-.719 1.559 1.943 1.943 0 00.411 1.334 1.525 1.525 0 001.2.463 2.091 2.091 0 001.688-.753 3.088 3.088 0 00.631-2.048z"/><path data-name="Path 12" d="M45.413 19.331a10.264 10.264 0 01-2.935.476q-4.022 0-4.022-4.069V8.393h-1.937V5.751h1.937V2.079h3.875v3.672h2.789v2.642h-2.789v7.265a1.472 1.472 0 00.337 1.031 1.224 1.224 0 00.954.37 4.611 4.611 0 001.321-.211z"/><path data-name="Path 13" d="M60.706 19.331a10.262 10.262 0 01-2.935.476q-4.022 0-4.022-4.069V8.393h-1.937V5.751h1.937V2.079h3.875v3.672h2.788v2.642h-2.788v7.265a1.47 1.47 0 00.337 1.031 1.223 1.223 0 00.954.37 4.609 4.609 0 001.321-.211z"/><path data-name="Path 14" d="M73.006 19.966a5.6 5.6 0 01-4.565-1.783q-1.483-1.783-1.482-5.482a8.413 8.413 0 011.556-5.508 6.646 6.646 0 019.144-.079q1.482 1.783 1.482 5.482a8.415 8.415 0 01-1.556 5.509 5.627 5.627 0 01-4.579 1.861zm.029-2.642a1.684 1.684 0 001.277-.475 2.993 2.993 0 00.66-1.493 14.429 14.429 0 00.206-2.734 9.7 9.7 0 00-.47-3.606 1.665 1.665 0 00-1.644-1.044 1.682 1.682 0 00-1.277.475 2.992 2.992 0 00-.66 1.493 14.416 14.416 0 00-.206 2.735 9.678 9.678 0 00.47 3.606 1.663 1.663 0 001.644 1.043z"/><path data-name="Path 15" d="M93.906 19.543l-3.229-6.341-1.291 1.295v5.046H85.63V.679h3.758v9.987l4.256-4.914h3.963l-4.4 4.914 4.785 8.877z"/><path data-name="Path 16" d="M111.665 19.543v-1.506a4.962 4.962 0 01-1.673 1.427 4.351 4.351 0 01-2.025.5 3.517 3.517 0 01-2.789-1.136 4.6 4.6 0 01-1-3.144V5.75h3.875v9.722q0 1.77 1.5 1.77a1.9 1.9 0 001.424-.594 2.032 2.032 0 00.572-1.466V5.75h3.875v13.791z"/><path data-name="Path 17" d="M129.513.982a.176.176 0 00-.1-.093l-2.356-.771a.176.176 0 00-.219.1 22.7 22.7 0 01-5.118 7.944.176.176 0 00-.022.23 16.137 16.137 0 011.307 2.554.177.177 0 00.128.108.175.175 0 00.16-.048 21.421 21.421 0 001.477-1.632v10.8a.176.176 0 00.176.176h2.42a.176.176 0 00.176-.176V5.236a34.931 34.931 0 001.979-4.114.176.176 0 00-.008-.14z"/><path data-name="Path 18" d="M142.289 16.985h-5.35v-3.91h4.45a.176.176 0 00.176-.176v-2.4a.176.176 0 00-.176-.176h-4.45V6.948h5.028a.176.176 0 00.176-.176v-2.4a.176.176 0 00-.176-.176h-4.513l.685-.779a.176.176 0 00-.016-.248A30.084 30.084 0 00133.249.04a.175.175 0 00-.211.036l-1.692 1.82a.175.175 0 00.042.272 33.146 33.146 0 013.138 2.027h-5.557a.176.176 0 00-.176.176v2.4a.176.176 0 00.176.176h5.028v3.375h-4.343a.176.176 0 00-.176.176v2.4a.176.176 0 00.176.176h4.343v3.91h-5.521a.176.176 0 00-.176.176v2.4a.176.176 0 00.176.176h13.813a.176.176 0 00.176-.176v-2.4a.176.176 0 00-.176-.175z"/><path data-name="Path 19" d="M167.447 15.512a7.446 7.446 0 01-2.458-1.017.176.176 0 00-.283.127c-.175 2.568-.38 2.792-1.345 2.792h-3.641c-1.233 0-1.28-.1-1.28-.917v-2.733l8.773-.926a.176.176 0 00.156-.2l-.3-2.355a.176.176 0 00-.192-.153l-8.437.837V8.906a30.774 30.774 0 005.068-1.453.176.176 0 00.063-.285l-1.992-2.1a.176.176 0 00-.2-.041 42.5 42.5 0 01-10.1 2.29.168.168 0 00.008-.042V4.697h12.652v2.458a.176.176 0 00.176.176h2.72a.176.176 0 00.176-.176V2.122a.176.176 0 00-.176-.176h-7.705V.171a.176.176 0 00-.176-.176h-2.7a.176.176 0 00-.176.176v1.775h-7.555a.176.176 0 00-.176.176v5.153a.176.176 0 00.176.176h1.671a.175.175 0 00-.135.255 8.093 8.093 0 01.732 2.17.176.176 0 00.192.152 88.502 88.502 0 004.3-.548v1.8l-7.23.713a.176.176 0 00-.157.2l.3 2.463a.178.178 0 00.193.154l6.895-.729v2.46c0 2.859.972 3.731 4.159 3.731h4.133c2.757 0 3.656-1.025 4.008-4.57a.175.175 0 00-.137-.19z"/></g></svg>