<svg xmlns="http://www.w3.org/2000/svg" width="208.355" height="98.851" viewBox="0 0 208.355 98.851">
  <g id="グループ_3600" data-name="グループ 3600" transform="translate(-83.056 -5398.292)">
    <path id="パス_7372" data-name="パス 7372" d="M-95.655.265A2.792,2.792,0,0,1-96.7.1q-.393-.161-.393-.476a.67.67,0,0,1,.414-.6A4.07,4.07,0,0,1-95.5-1.33,4.946,4.946,0,0,0-92.686-2.7a3.9,3.9,0,0,0,.913-2.73v-7.226a6,6,0,0,0-.511-2.429,17.012,17.012,0,0,0-.856-1.75l-6.052-9.73q-.38-.629-1.057-1.573a14.3,14.3,0,0,0-1.494-1.764,3.938,3.938,0,0,0-1.711-1.07,5.364,5.364,0,0,1-1.095-.457.709.709,0,0,1-.4-.629.487.487,0,0,1,.371-.469,2.674,2.674,0,0,1,.934-.14q1.5,0,3.143.1t3.5.1q1.324,0,2.509-.086t2.289-.086a3.045,3.045,0,0,1,1,.147q.422.147.422.462a.706.706,0,0,1-.422.618,4.422,4.422,0,0,1-1.155.411,5.972,5.972,0,0,0-1.44.537,1,1,0,0,0-.508.93,3.885,3.885,0,0,0,.621,1.785l4.788,8.631q.812,1.537,1.227,1.537a.807.807,0,0,0,.57-.353,10.959,10.959,0,0,0,.819-1.185q1.164-1.866,2.122-3.619T-82-26.758a6.677,6.677,0,0,0,.6-1.316,3.586,3.586,0,0,0,.186-1.046,1.424,1.424,0,0,0-.74-1.365,4.144,4.144,0,0,0-1.542-.486,3.7,3.7,0,0,1-1.053-.368q-.553-.282-.553-.661,0-.315.421-.454a3.3,3.3,0,0,1,1.029-.139q1.251,0,2.146.054t2.082.054q1.463,0,2.791-.111t2.366-.111a3.359,3.359,0,0,1,1.043.139.515.515,0,0,1,.422.5q0,.394-.691.657t-1.567.52a4.765,4.765,0,0,0-2.3,1.375,20.079,20.079,0,0,0-2.073,2.77q-.927,1.463-1.639,2.578t-1.344,2.117q-.633,1-1.284,2.056t-1.472,2.426a11.541,11.541,0,0,0-.835,1.613,5.8,5.8,0,0,0-.365,1.341,12.324,12.324,0,0,0-.094,1.676v7.5a3.768,3.768,0,0,0,.941,2.732,5.427,5.427,0,0,0,2.82,1.381,5.056,5.056,0,0,1,1.178.35.637.637,0,0,1,.414.594q0,.314-.393.475A2.7,2.7,0,0,1-82.521.25q-1.263,0-2.3-.082T-86.848.021q-.981-.064-2.088-.064-1.178,0-2.219.064t-2.132.154Q-94.378.265-95.655.265ZM-67.938.7a10.28,10.28,0,0,1-5.18-1.314A9.852,9.852,0,0,1-76.787-4.24,10.158,10.158,0,0,1-78.148-9.5a10.957,10.957,0,0,1,.854-4.252,12.372,12.372,0,0,1,2.39-3.7,11.65,11.65,0,0,1,3.587-2.618,10.2,10.2,0,0,1,4.409-.968,10.293,10.293,0,0,1,5.356,1.414,10.866,10.866,0,0,1,3.794,3.726,9.52,9.52,0,0,1,1.411,5.055,12.59,12.59,0,0,1-1.3,5.645A10.455,10.455,0,0,1-61.521-.925,11.776,11.776,0,0,1-67.938.7Zm1.021-1.746a5.8,5.8,0,0,0,2.615-.57,4.121,4.121,0,0,0,1.81-1.8,7.954,7.954,0,0,0,.814-2.786,27.079,27.079,0,0,0,.214-3.433,13.907,13.907,0,0,0-.78-4.705,9.112,9.112,0,0,0-2.182-3.548,4.589,4.589,0,0,0-3.305-1.36,5.555,5.555,0,0,0-2.07.367,4.155,4.155,0,0,0-1.677,1.3,6.135,6.135,0,0,0-1.264,2.97,23.744,23.744,0,0,0-.307,3.941,13.529,13.529,0,0,0,.8,4.632,9.7,9.7,0,0,0,2.182,3.6A4.327,4.327,0,0,0-66.916-1.046ZM-37.138.979q-.38,0-.38-.429a13.066,13.066,0,0,1,.125-1.518,13.341,13.341,0,0,0,.125-1.6q0-.143-.007-.24a.738.738,0,0,0-.022-.147A12.478,12.478,0,0,1-41.054-.219a10.291,10.291,0,0,1-4.362.934,5.523,5.523,0,0,1-2.871-.762,5.353,5.353,0,0,1-2.028-2.181,7.21,7.21,0,0,1-.743-3.384v-9.874a3.054,3.054,0,0,0-.471-1.787,3.071,3.071,0,0,0-1.621-1.049,1.488,1.488,0,0,1-.479-.257.71.71,0,0,1-.214-.586.737.737,0,0,1,.218-.6A1.089,1.089,0,0,1-53.093-20a24.052,24.052,0,0,0,3.046-.325q1.2-.225,2.731-.605a1.734,1.734,0,0,1,.327-.086,2.083,2.083,0,0,1,.305-.022q.594,0,.544.7-.165,1.15-.247,1.925a18.792,18.792,0,0,0-.082,1.925v9.692a4.536,4.536,0,0,0,.527,2.182,4.388,4.388,0,0,0,1.408,1.581,3.339,3.339,0,0,0,1.858.613,10.921,10.921,0,0,0,2.029-.171,4.06,4.06,0,0,0,1.765-.857,7.055,7.055,0,0,0,1.132-1.213,3.674,3.674,0,0,0,.669-2.32v-8.758a2.136,2.136,0,0,0-.523-1.539,3.1,3.1,0,0,0-1.258-.8,4.505,4.505,0,0,0-1.336-.265,1.552,1.552,0,0,1-.8-.212.8.8,0,0,1-.307-.726.676.676,0,0,1,.339-.658,1.623,1.623,0,0,1,.768-.179q1.9-.094,3.089-.183a18.544,18.544,0,0,0,2.068-.257q.876-.168,1.791-.4a1.336,1.336,0,0,1,.279-.082,1.5,1.5,0,0,1,.279-.032q.679,0,.679.564a1.164,1.164,0,0,1-.032.241,2.712,2.712,0,0,1-.1.326,6.6,6.6,0,0,0-.125.857q-.075.693-.15,1.443t-.075,1.164V-4.909a4.094,4.094,0,0,0,.275,1.787q.275.51.625.51t1.016-.046q.673-.046.966-.046a1.085,1.085,0,0,1,.572.151.629.629,0,0,1,.25.587.791.791,0,0,1-.193.6,1.022,1.022,0,0,1-.565.226,17.456,17.456,0,0,0-3.7.779Q-34.836.185-36.036.665l-.523.2A1.664,1.664,0,0,1-37.138.979ZM-11.6.7A3.647,3.647,0,0,1-13.664.022a5.723,5.723,0,0,1-1.652-1.7,3.786,3.786,0,0,1-.647-2.038,3.68,3.68,0,0,1,.93-2.631,8.32,8.32,0,0,1,2.867-1.795L-7.3-10.184a2.738,2.738,0,0,0,1.2-.736,3.066,3.066,0,0,0,.232-1.308l.086-3.069a3.344,3.344,0,0,0-.645-2.243,2.41,2.41,0,0,0-2.03-.9,4.231,4.231,0,0,0-1.427.257,3.58,3.58,0,0,0-1.163.643.965.965,0,0,0-.342.556,3.2,3.2,0,0,0-.086.748,5.424,5.424,0,0,0,.032.544,5.424,5.424,0,0,1,.032.544q0,.28-.69.719a8.974,8.974,0,0,1-1.56.779,4.173,4.173,0,0,1-1.456.339.654.654,0,0,1-.48-.183.631.631,0,0,1-.186-.47,3.232,3.232,0,0,1,.532-1.674,7.212,7.212,0,0,1,1.584-1.747,15.986,15.986,0,0,1,2.63-1.879,16.3,16.3,0,0,1,2.795-1.286,7.545,7.545,0,0,1,2.4-.471,4.462,4.462,0,0,1,3.431,1.434,4.963,4.963,0,0,1,1.262,3.668L-1.4-4.584A2.775,2.775,0,0,0-.95-2.8,1.485,1.485,0,0,0,.3-2.1,2.529,2.529,0,0,0,2.08-2.682.6.6,0,0,1,2.451-2.9a.55.55,0,0,1,.407.157.552.552,0,0,1,.157.407,1.887,1.887,0,0,1-.68,1.245A6.76,6.76,0,0,1,.516.225,4.31,4.31,0,0,1-1.376.7a4.528,4.528,0,0,1-4-2.687H-5.51A13.06,13.06,0,0,1-8.6.061,7.32,7.32,0,0,1-11.6.7ZM-9.032-2a3.336,3.336,0,0,0,1.425-.274,3.428,3.428,0,0,0,1.046-.766,1.849,1.849,0,0,0,.367-.624,4.032,4.032,0,0,0,.181-1.165L-5.9-7.69a1.469,1.469,0,0,0-.079-.735.4.4,0,0,0-.386-.214,1.8,1.8,0,0,0-.314.043,3.022,3.022,0,0,0-.541.179,9.106,9.106,0,0,0-3.139,1.786A2.848,2.848,0,0,0-11.265-4.6a2.475,2.475,0,0,0,.717,1.967A2.28,2.28,0,0,0-9.032-2ZM5.3.15A1.536,1.536,0,0,1,4.57,0,.489.489,0,0,1,4.3-.458a.58.58,0,0,1,.307-.561,4.455,4.455,0,0,1,.843-.311,3.23,3.23,0,0,0,1.446-.725A1.6,1.6,0,0,0,7.333-3.23V-14.241a5.7,5.7,0,0,0-.356-2.132,1.913,1.913,0,0,0-1.491-1.134.845.845,0,0,1-.386-.257.694.694,0,0,1-.172-.48.621.621,0,0,1,.508-.687,21.36,21.36,0,0,0,3-1.132q1.6-.732,2.6-1.289a4.342,4.342,0,0,1,.526-.3.976.976,0,0,1,.369-.111q.323,0,.323.423,0,.179-.025.837t-.057,1.465q-.032.807-.068,1.521,0,.216.129.216a12.181,12.181,0,0,1,1.775-1.852,9.818,9.818,0,0,1,2.073-1.359,4.857,4.857,0,0,1,2.12-.523,3.247,3.247,0,0,1,1.979.523,1.6,1.6,0,0,1,.7,1.338,3.137,3.137,0,0,1-.326,1.3,4.21,4.21,0,0,1-.848,1.231,1.56,1.56,0,0,1-1.109.523,2.034,2.034,0,0,1-.759-.161q-.4-.161-.845-.376-.429-.179-.858-.351a2.223,2.223,0,0,0-.829-.172,3.5,3.5,0,0,0-2.289.886q-1.06.886-1.06,3.5v9.4a1.4,1.4,0,0,0,.671,1.227,7.813,7.813,0,0,0,1.964.847,3.6,3.6,0,0,1,.843.321.577.577,0,0,1,.293.536q0,.608-.942.608A22.639,22.639,0,0,1,12.213.025,20.6,20.6,0,0,0,9.841-.1q-.85,0-1.5.05T7,.075A16.253,16.253,0,0,1,5.3.15ZM31.5.735A8.509,8.509,0,0,1,26.688-.644,9.3,9.3,0,0,1,23.43-4.5a13.062,13.062,0,0,1-1.179-5.681,10.9,10.9,0,0,1,1.376-5.434A10.982,10.982,0,0,1,27.3-19.54a9.148,9.148,0,0,1,5.046-1.479A7.742,7.742,0,0,1,36-20.175a6.5,6.5,0,0,1,2.534,2.312,6.17,6.17,0,0,1,.926,3.362q0,1.666-1.514,1.666H27.586a1.165,1.165,0,0,0-.989.382,2.529,2.529,0,0,0-.289,1.438,8.474,8.474,0,0,0,.977,4.057A7.8,7.8,0,0,0,29.91-4.048a6.563,6.563,0,0,0,3.676,1.08,6.369,6.369,0,0,0,2.71-.568,7.718,7.718,0,0,0,2.263-1.624,1.956,1.956,0,0,1,.314-.3.48.48,0,0,1,.279-.089q.444,0,.444.544a3.531,3.531,0,0,1-.726,1.882,7.807,7.807,0,0,1-1.757,1.948A8.611,8.611,0,0,1,34.589.223,9.088,9.088,0,0,1,31.5.735ZM27.657-14.574h4q1.272,0,2.013-.05a9.7,9.7,0,0,0,1.426-.2.5.5,0,0,0,.346-.39,2.965,2.965,0,0,0,.1-.826,2.994,2.994,0,0,0-1.145-2.373,4.14,4.14,0,0,0-2.764-.967,4.168,4.168,0,0,0-2.177.646,5.835,5.835,0,0,0-1.762,1.617,3.287,3.287,0,0,0-.678,1.971Q27.013-14.574,27.657-14.574ZM69.61.979q-.38,0-.38-.429a13.065,13.065,0,0,1,.125-1.518,13.34,13.34,0,0,0,.125-1.6q0-.143-.007-.24a.738.738,0,0,0-.022-.147A12.478,12.478,0,0,1,65.694-.219a10.291,10.291,0,0,1-4.362.934,5.523,5.523,0,0,1-2.871-.762,5.353,5.353,0,0,1-2.028-2.181,7.21,7.21,0,0,1-.743-3.384v-9.874a3.054,3.054,0,0,0-.471-1.787A3.071,3.071,0,0,0,53.6-18.323a1.488,1.488,0,0,1-.479-.257.71.71,0,0,1-.214-.586.737.737,0,0,1,.218-.6A1.089,1.089,0,0,1,53.655-20a24.052,24.052,0,0,0,3.046-.325q1.2-.225,2.731-.605a1.734,1.734,0,0,1,.327-.086,2.083,2.083,0,0,1,.305-.022q.594,0,.544.7-.165,1.15-.247,1.925a18.792,18.792,0,0,0-.082,1.925v9.692a4.536,4.536,0,0,0,.527,2.182,4.388,4.388,0,0,0,1.408,1.581,3.339,3.339,0,0,0,1.858.613A10.921,10.921,0,0,0,66.1-2.587a4.06,4.06,0,0,0,1.765-.857A7.055,7.055,0,0,0,69-4.657a3.674,3.674,0,0,0,.669-2.32v-8.758a2.136,2.136,0,0,0-.523-1.539,3.1,3.1,0,0,0-1.258-.8,4.505,4.505,0,0,0-1.336-.265,1.552,1.552,0,0,1-.8-.212.8.8,0,0,1-.307-.726.676.676,0,0,1,.339-.658,1.623,1.623,0,0,1,.768-.179q1.9-.094,3.089-.183a18.544,18.544,0,0,0,2.068-.257q.876-.168,1.791-.4a1.336,1.336,0,0,1,.279-.082,1.5,1.5,0,0,1,.279-.032q.679,0,.679.564a1.164,1.164,0,0,1-.032.241,2.71,2.71,0,0,1-.1.326,6.6,6.6,0,0,0-.125.857q-.075.693-.15,1.443t-.075,1.164V-4.909a4.094,4.094,0,0,0,.275,1.787q.275.51.625.51t1.016-.046q.673-.046.966-.046a1.085,1.085,0,0,1,.572.151.629.629,0,0,1,.25.587.791.791,0,0,1-.193.6,1.022,1.022,0,0,1-.565.226,17.456,17.456,0,0,0-3.7.779Q71.913.185,70.712.665l-.523.2A1.664,1.664,0,0,1,69.61.979ZM80.356,13.844a2.384,2.384,0,0,1-.657-.111q-.378-.111-.378-.426a.639.639,0,0,1,.361-.6,5.285,5.285,0,0,1,.789-.347,7.888,7.888,0,0,0,1.464-.618,1.343,1.343,0,0,0,.6-1.282V-14.394A4.2,4.2,0,0,0,82.3-15.6a4.622,4.622,0,0,0-.718-1.384,1.953,1.953,0,0,0-1.278-.784.59.59,0,0,1-.351-.257.88.88,0,0,1-.122-.479.785.785,0,0,1,.122-.473.556.556,0,0,1,.3-.214,31.61,31.61,0,0,0,3.424-1q1.582-.569,2.869-1.141a.472.472,0,0,0,.188-.1.261.261,0,0,1,.173-.069.29.29,0,0,1,.265.164.69.69,0,0,1,.093.343,12.013,12.013,0,0,1-.125,1.389,12.582,12.582,0,0,0-.125,1.582.989.989,0,0,0,.065.494,10.408,10.408,0,0,1,1.811-1.3,18.162,18.162,0,0,1,3-1.436,9.111,9.111,0,0,1,3.236-.639,7.2,7.2,0,0,1,4.476,1.4,9.052,9.052,0,0,1,2.829,3.594,11.094,11.094,0,0,1,.982,4.576,11.8,11.8,0,0,1-.864,4.433,12.911,12.911,0,0,1-2.429,3.883A12.238,12.238,0,0,1,96.489-.26,9.8,9.8,0,0,1,92.045.773,7.451,7.451,0,0,1,90.5.577a14.176,14.176,0,0,1-1.777-.51,5.737,5.737,0,0,1-1.418-.706q-.05,0-.1.423t-.075.9q-.025.48-.025.645V10.3a1.341,1.341,0,0,0,.452,1.061,3.109,3.109,0,0,0,1.1.608q.646.211,1.262.405a4.941,4.941,0,0,1,.79.339.627.627,0,0,1,.346.589.432.432,0,0,1-.349.418,2.069,2.069,0,0,1-.664.118,26.079,26.079,0,0,1-2.671-.125,24.341,24.341,0,0,0-2.507-.125q-.85,0-1.5.05t-1.329.125A15.738,15.738,0,0,1,80.356,13.844Zm12.12-14.9a4.205,4.205,0,0,0,1.652-.436A6.48,6.48,0,0,0,96.067-2.91a7.805,7.805,0,0,0,1.619-2.649,11.294,11.294,0,0,0,.653-4.106,12.573,12.573,0,0,0-.678-4.548,6.617,6.617,0,0,0-1.669-2.578,5.184,5.184,0,0,0-2.025-1.157,6.8,6.8,0,0,0-1.761-.286,6.054,6.054,0,0,0-2.258.464,8.229,8.229,0,0,0-1.939,1.06q-.78.6-.78.975,0,.869-.018,2t-.043,2.305q-.025,1.173-.043,2.114t-.018,1.376a7.368,7.368,0,0,0,.78,3.294A7.626,7.626,0,0,0,89.9-2.056,4.029,4.029,0,0,0,92.476-1.053Zm-112.662,67.2a6.543,6.543,0,0,1-2.458-.984A11.731,11.731,0,0,1-26.153,61.9q-.712-.8-2.176-2.506t-3.446-4q-1.981-2.287-4.217-4.873l-4.461-5.164q-2.226-2.577-4.231-4.864t-3.516-4.02q-1.511-1.733-2.269-2.575a3.648,3.648,0,0,0-.647-.69.925.925,0,0,0-.529-.237q-.306,0-.427.478a3.512,3.512,0,0,0-.121.85q-.046,3.11-.063,7.232t-.036,8.438q-.018,4.316-.018,8.1a5.364,5.364,0,0,0,1.028,3.278,5.54,5.54,0,0,0,3.49,1.9A5.8,5.8,0,0,1-46.3,63.7a.845.845,0,0,1,.539.781q0,.409-.52.6a3.718,3.718,0,0,1-1.272.19q-1.755,0-2.717-.088t-1.739-.144q-.776-.056-2.049-.056t-2.131.065q-.867.065-1.721.153a20.929,20.929,0,0,1-2.1.088,3.662,3.662,0,0,1-1.243-.191q-.529-.191-.529-.6a.834.834,0,0,1,.51-.762,7.463,7.463,0,0,1,1.465-.53A4.391,4.391,0,0,0-57.2,61.278a7.813,7.813,0,0,0,1.011-3.384q.26-2.452.53-6.486t.483-9.044q.214-5.01.214-10.34,0-3.426-1.759-4.921a13.393,13.393,0,0,0-4.487-2.4,12.133,12.133,0,0,1-1.147-.534q-.793-.4-.793-.989a.738.738,0,0,1,.557-.766,3.257,3.257,0,0,1,1-.181q1.639.046,2.913.088t2.439.1q1.165.055,2.5.1t3.086.042a1.291,1.291,0,0,1,.882.278,3.755,3.755,0,0,1,.6.7q.674.824,2.212,2.649t3.584,4.287q2.046,2.462,4.392,5.247t4.682,5.579q2.336,2.794,4.4,5.256T-26.3,50.81q1.538,1.8,2.212,2.579.242.26.663.7a1.145,1.145,0,0,0,.755.445q.567,0,.612-1.233,0-1.306.023-3.911t.046-6.033q.023-3.428.014-7.237t-.047-7.578a3.165,3.165,0,0,0-1.355-2.453,7.025,7.025,0,0,0-2.791-1.31,8.957,8.957,0,0,1-1.732-.492q-.778-.315-.778-.827,0-.409.778-.6a6.345,6.345,0,0,1,1.51-.19q.971,0,1.73.009l1.461.019q.7.01,1.439.01,1.484,0,2.394-.032t1.982-.1q1.072-.065,2.929-.065a3.658,3.658,0,0,1,1.3.191.641.641,0,0,1,.492.6q0,.948-1.995,1.319a7.131,7.131,0,0,0-3.2,1.208,3.4,3.4,0,0,0-.947,2.472q0,1.041-.042,3.411t-.08,5.543q-.038,3.173-.1,6.668t-.08,6.9q-.019,3.406-.019,6.122,0,1.541.126,3t.229,2.541q.1,1.085.1,1.578a2.3,2.3,0,0,1-.441,1.662A1.512,1.512,0,0,1-20.186,66.143Zm21.415-.187A11.061,11.061,0,0,1-5.03,64.163a12.086,12.086,0,0,1-4.235-5.01A16.98,16.98,0,0,1-10.8,51.767,14.168,14.168,0,0,1-9.009,44.7a14.277,14.277,0,0,1,4.781-5.1,11.893,11.893,0,0,1,6.56-1.923,10.065,10.065,0,0,1,4.747,1.1,8.447,8.447,0,0,1,3.294,3.005,8.021,8.021,0,0,1,1.2,4.371q0,2.166-1.968,2.166H-3.863a1.515,1.515,0,0,0-1.286.5,3.288,3.288,0,0,0-.376,1.87,11.016,11.016,0,0,0,1.271,5.274A10.143,10.143,0,0,0-.841,59.738a8.532,8.532,0,0,0,4.779,1.4A8.279,8.279,0,0,0,7.461,60.4,10.033,10.033,0,0,0,10.4,58.294a2.543,2.543,0,0,1,.408-.385.623.623,0,0,1,.363-.116q.577,0,.577.707a4.59,4.59,0,0,1-.944,2.447,10.149,10.149,0,0,1-2.284,2.532,11.194,11.194,0,0,1-3.282,1.812A11.814,11.814,0,0,1,1.229,65.956Zm-5-19.9h5.2q1.653,0,2.617-.065a12.612,12.612,0,0,0,1.854-.26.655.655,0,0,0,.45-.507,3.854,3.854,0,0,0,.125-1.074,3.892,3.892,0,0,0-1.488-3.085,5.382,5.382,0,0,0-3.593-1.257,5.419,5.419,0,0,0-2.83.84,7.585,7.585,0,0,0-2.291,2.1,4.273,4.273,0,0,0-.881,2.562Q-4.608,46.054-3.771,46.054ZM14.369,65.26a4.271,4.271,0,0,1-.9-.107q-.493-.107-.493-.535a.9.9,0,0,1,.421-.808,3.879,3.879,0,0,1,.979-.437,6.476,6.476,0,0,0,1.8-1.016,12.8,12.8,0,0,0,2.249-2.538l5.364-7.389a1.331,1.331,0,0,0,.413-.822,1.655,1.655,0,0,0-.3-.73l-5.18-7.8A12.259,12.259,0,0,0,17.3,41.114a3.605,3.605,0,0,0-1.639-.958,3.879,3.879,0,0,1-.979-.437.9.9,0,0,1-.421-.808q0-.52.608-.581t.925-.061a18.94,18.94,0,0,1,2.013.075q.62.075,1.345.149t2.248.074a17.983,17.983,0,0,0,2.208-.1,18.522,18.522,0,0,1,2.257-.1,7.5,7.5,0,0,1,.915.08q.6.08.6.6a.663.663,0,0,1-.4.641,8.919,8.919,0,0,1-.878.364,6.513,6.513,0,0,0-1.014.433.887.887,0,0,0-.5.842,2.352,2.352,0,0,0,.237.887,9.834,9.834,0,0,0,.608,1.155l2.99,4.447q.279.493.585,0l2.844-4.459a3.886,3.886,0,0,0,.475-.969,2.732,2.732,0,0,0,.158-.97,1.2,1.2,0,0,0-.959-1.19q-.52-.214-.979-.455a.782.782,0,0,1-.459-.734q0-.52.6-.6a7.548,7.548,0,0,1,.916-.079q.915.018,1.853.087t1.737.069a13.524,13.524,0,0,0,2.243-.134,11.645,11.645,0,0,1,1.871-.152,4.29,4.29,0,0,1,.9.107q.493.107.493.534a.855.855,0,0,1-.421.762,5.428,5.428,0,0,1-.979.484,9,9,0,0,0-2.048.969,7.717,7.717,0,0,0-2.19,2.123l-4.3,6.193a.9.9,0,0,0,.027,1.166l6,9.667a9.08,9.08,0,0,0,1.665,2,5.8,5.8,0,0,0,1.9,1.089,3.916,3.916,0,0,1,.979.438.9.9,0,0,1,.421.808q0,.428-.493.534a4.29,4.29,0,0,1-.9.107q-1.375,0-2.158-.074t-1.616-.149q-.833-.075-2.4-.075-1.434,0-2.8.1t-2.849.1q-1.513,0-1.513-.725a.9.9,0,0,1,.413-.835,4.465,4.465,0,0,1,1.155-.445,3.858,3.858,0,0,0,1.3-.628,1.475,1.475,0,0,0,.543-1.253,2.607,2.607,0,0,0-.107-.751,3.38,3.38,0,0,0-.415-.834L26.244,53.89a.244.244,0,0,0-.39,0L22,59.947q-.121.224-.327.714a2.541,2.541,0,0,0-.206.992,1.961,1.961,0,0,0,.246.972,1.367,1.367,0,0,0,.758.627q.52.214,1,.432a.768.768,0,0,1,.478.757q0,.473-.6.576a5.844,5.844,0,0,1-.915.1q-.934-.019-1.884-.075T18.8,64.992a18.934,18.934,0,0,0-2.378.115Q15.561,65.222,14.369,65.26Zm40.7.65a7.185,7.185,0,0,1-5.491-2.025,8.315,8.315,0,0,1-1.91-5.917V42.925a.827.827,0,0,0-.409-.776,3.9,3.9,0,0,0-1.653-.256h-.56q-.363,0-.619-.535a2.417,2.417,0,0,1-.256-1.047.782.782,0,0,1,.157-.371.909.909,0,0,1,.279-.306,23.847,23.847,0,0,0,2.721-1.82q1.327-1.023,2.478-2.07t1.886-1.819l.647-.581a.937.937,0,0,1,.647-.237,1.358,1.358,0,0,1,.7.168q.283.168.2.755l-.363,3.245a1.023,1.023,0,0,0,.344,1.023,2.271,2.271,0,0,0,1.234.269h7.523q.222,0,.417.432a2.261,2.261,0,0,1,.195.941,4.319,4.319,0,0,1-.214,1.364q-.214.647-.492.647h-6.3a4.778,4.778,0,0,0-2.085.3q-.515.3-.515,1.466V56.331a6.919,6.919,0,0,0,1.114,4.217,3.694,3.694,0,0,0,3.137,1.485,9.69,9.69,0,0,0,2.85-.321,8.508,8.508,0,0,0,1.79-.811.53.53,0,0,1,.317-.13.428.428,0,0,1,.4.33,2.044,2.044,0,0,1,.125.731q0,.343-1.176,1.347a13.167,13.167,0,0,1-3.059,1.867A9.634,9.634,0,0,1,55.067,65.91Z" transform="translate(188 5431)" fill="#fff"/>
  </g>
</svg>
