<svg xmlns="http://www.w3.org/2000/svg" width="636.28" height="93.487" viewBox="0 0 636.28 93.487">
  <g id="グループ_3544" data-name="グループ 3544" transform="translate(-642 -6683.2)">
    <path id="パス_7339" data-name="パス 7339" d="M18.577.53A5.583,5.583,0,0,1,16.491.207q-.785-.323-.785-.952a1.34,1.34,0,0,1,.829-1.2,8.141,8.141,0,0,1,2.355-.714A9.892,9.892,0,0,0,24.516-5.4a7.807,7.807,0,0,0,1.826-5.461V-25.309a12,12,0,0,0-1.021-4.858,34.026,34.026,0,0,0-1.712-3.5L11.5-53.128q-.759-1.258-2.114-3.147A28.6,28.6,0,0,0,6.4-59.8a7.876,7.876,0,0,0-3.421-2.139,10.729,10.729,0,0,1-2.189-.913A1.419,1.419,0,0,1,0-64.113a.974.974,0,0,1,.742-.937,5.347,5.347,0,0,1,1.867-.28q3,0,6.287.194t7.009.194q2.648,0,5.017-.173t4.578-.173a6.091,6.091,0,0,1,2,.294q.844.294.844.923a1.411,1.411,0,0,1-.844,1.237,8.844,8.844,0,0,1-2.311.821,11.945,11.945,0,0,0-2.88,1.073,1.993,1.993,0,0,0-1.016,1.861,7.771,7.771,0,0,0,1.242,3.57l9.577,17.263q1.623,3.075,2.453,3.075a1.615,1.615,0,0,0,1.14-.705,21.918,21.918,0,0,0,1.638-2.37q2.328-3.733,4.245-7.237t4.3-8.033a13.353,13.353,0,0,0,1.2-2.631,7.172,7.172,0,0,0,.371-2.092,2.847,2.847,0,0,0-1.48-2.73,8.289,8.289,0,0,0-3.084-.973,7.4,7.4,0,0,1-2.106-.735Q39.677-63.242,39.677-64q0-.63.843-.909a6.6,6.6,0,0,1,2.057-.279q2.5,0,4.292.109t4.164.109q2.927,0,5.581-.223t4.731-.223a6.719,6.719,0,0,1,2.086.279,1.03,1.03,0,0,1,.844.995q0,.787-1.383,1.315t-3.134,1.04a9.531,9.531,0,0,0-4.6,2.749,40.156,40.156,0,0,0-4.146,5.54q-1.855,2.925-3.277,5.155T45.05-44.109q-1.266,2-2.567,4.112t-2.944,4.852a23.082,23.082,0,0,0-1.67,3.227,11.6,11.6,0,0,0-.73,2.682,24.649,24.649,0,0,0-.187,3.352v15a7.536,7.536,0,0,0,1.883,5.464,10.854,10.854,0,0,0,5.641,2.763,10.112,10.112,0,0,1,2.355.7,1.273,1.273,0,0,1,.829,1.188q0,.628-.786.951A5.4,5.4,0,0,1,44.845.5Q42.32.5,40.237.335T36.191.041q-1.962-.129-4.175-.129-2.356,0-4.438.129T23.313.35Q21.131.53,18.577.53Zm55.436.87A20.561,20.561,0,0,1,63.651-1.229,19.7,19.7,0,0,1,56.313-8.48a20.317,20.317,0,0,1-2.723-10.51,21.913,21.913,0,0,1,1.708-8.5,24.744,24.744,0,0,1,4.78-7.4,23.3,23.3,0,0,1,7.174-5.236,20.4,20.4,0,0,1,8.817-1.936,20.586,20.586,0,0,1,10.712,2.829,21.733,21.733,0,0,1,7.588,7.452,19.04,19.04,0,0,1,2.822,10.11,25.181,25.181,0,0,1-2.608,11.29A20.91,20.91,0,0,1,86.846-1.85Q81.716,1.4,74.012,1.4Zm2.042-3.492a11.6,11.6,0,0,0,5.23-1.141A8.241,8.241,0,0,0,84.9-6.839a15.908,15.908,0,0,0,1.629-5.571,54.158,54.158,0,0,0,.429-6.866,27.814,27.814,0,0,0-1.561-9.41,18.224,18.224,0,0,0-4.363-7.1,9.178,9.178,0,0,0-6.61-2.72,11.11,11.11,0,0,0-4.139.734,8.311,8.311,0,0,0-3.355,2.6,12.27,12.27,0,0,0-2.528,5.941,47.488,47.488,0,0,0-.614,7.881,27.058,27.058,0,0,0,1.6,9.263,19.4,19.4,0,0,0,4.363,7.207A8.653,8.653,0,0,0,76.055-2.092Zm59.557,4.05q-.759,0-.759-.858a26.13,26.13,0,0,1,.25-3.037,26.68,26.68,0,0,0,.25-3.193q0-.286-.014-.48a1.476,1.476,0,0,0-.044-.294,24.956,24.956,0,0,1-7.516,5.465,20.582,20.582,0,0,1-8.723,1.868,11.045,11.045,0,0,1-5.741-1.524,10.706,10.706,0,0,1-4.056-4.362,14.421,14.421,0,0,1-1.485-6.768V-30.973a6.108,6.108,0,0,0-.942-3.573,6.141,6.141,0,0,0-3.242-2.1,2.976,2.976,0,0,1-.959-.514,1.42,1.42,0,0,1-.429-1.172,1.473,1.473,0,0,1,.436-1.2,2.178,2.178,0,0,1,1.064-.459,48.1,48.1,0,0,0,6.091-.651q2.4-.451,5.462-1.21a3.467,3.467,0,0,1,.653-.172,4.165,4.165,0,0,1,.611-.044q1.187,0,1.088,1.4-.33,2.3-.494,3.85a37.584,37.584,0,0,0-.164,3.85v19.384A9.071,9.071,0,0,0,118-9.22a8.776,8.776,0,0,0,2.816,3.162,6.678,6.678,0,0,0,3.716,1.227,21.842,21.842,0,0,0,4.057-.343,8.12,8.12,0,0,0,3.53-1.715,14.11,14.11,0,0,0,2.264-2.426,7.348,7.348,0,0,0,1.337-4.64V-31.47a4.273,4.273,0,0,0-1.047-3.078,6.2,6.2,0,0,0-2.516-1.6,9.01,9.01,0,0,0-2.673-.53,3.1,3.1,0,0,1-1.6-.423,1.592,1.592,0,0,1-.614-1.452,1.351,1.351,0,0,1,.679-1.316,3.245,3.245,0,0,1,1.537-.358q3.8-.187,6.179-.366A37.088,37.088,0,0,0,139.8-41.1q1.752-.335,3.581-.807a2.672,2.672,0,0,1,.557-.164,3,3,0,0,1,.559-.064q1.358,0,1.358,1.128a2.328,2.328,0,0,1-.065.481,5.421,5.421,0,0,1-.193.652,13.21,13.21,0,0,0-.25,1.714q-.15,1.386-.3,2.886t-.15,2.328v23.13a8.189,8.189,0,0,0,.55,3.574q.55,1.02,1.25,1.02.684,0,2.031-.092t1.931-.092a2.171,2.171,0,0,1,1.144.3,1.258,1.258,0,0,1,.5,1.173,1.583,1.583,0,0,1-.385,1.209,2.045,2.045,0,0,1-1.13.452,34.912,34.912,0,0,0-7.4,1.557Q140.216.37,137.815,1.33l-1.046.393A3.327,3.327,0,0,1,135.612,1.958ZM186.687,1.4A7.294,7.294,0,0,1,182.559.044a11.446,11.446,0,0,1-3.3-3.4,7.573,7.573,0,0,1-1.294-4.075,7.36,7.36,0,0,1,1.86-5.262,16.639,16.639,0,0,1,5.734-3.59l9.736-4.084a5.476,5.476,0,0,0,2.394-1.472,6.131,6.131,0,0,0,.464-2.616l.172-6.138a6.688,6.688,0,0,0-1.291-4.486,4.819,4.819,0,0,0-4.059-1.8,8.461,8.461,0,0,0-2.855.514,7.16,7.16,0,0,0-2.327,1.286,1.931,1.931,0,0,0-.684,1.112,6.391,6.391,0,0,0-.171,1.5A10.848,10.848,0,0,0,187-31.379a10.848,10.848,0,0,1,.065,1.088q0,.559-1.38,1.438a17.948,17.948,0,0,1-3.12,1.558,8.345,8.345,0,0,1-2.912.679,1.309,1.309,0,0,1-.959-.366,1.262,1.262,0,0,1-.372-.94,6.463,6.463,0,0,1,1.064-3.348,14.423,14.423,0,0,1,3.167-3.494,31.971,31.971,0,0,1,5.261-3.758,32.589,32.589,0,0,1,5.59-2.573,15.091,15.091,0,0,1,4.8-.943,8.924,8.924,0,0,1,6.862,2.869,9.926,9.926,0,0,1,2.525,7.336l-.5,22.666a5.55,5.55,0,0,0,.892,3.559,2.97,2.97,0,0,0,2.506,1.4,5.057,5.057,0,0,0,3.555-1.158,1.207,1.207,0,0,1,.742-.442,1.1,1.1,0,0,1,.814.315,1.1,1.1,0,0,1,.314.815,3.774,3.774,0,0,1-1.361,2.489A13.519,13.519,0,0,1,210.919.45a8.619,8.619,0,0,1-3.784.95q-4.948,0-8-5.373h-.272A26.12,26.12,0,0,1,192.685.121,14.639,14.639,0,0,1,186.687,1.4Zm5.136-5.409a6.672,6.672,0,0,0,2.849-.548,6.855,6.855,0,0,0,2.093-1.533,3.7,3.7,0,0,0,.734-1.248,8.063,8.063,0,0,0,.363-2.33l.23-5.711a2.939,2.939,0,0,0-.159-1.47.8.8,0,0,0-.771-.427,3.6,3.6,0,0,0-.627.085,6.044,6.044,0,0,0-1.082.357,18.211,18.211,0,0,0-6.277,3.572,5.7,5.7,0,0,0-1.818,4.07,4.95,4.95,0,0,0,1.434,3.934A4.56,4.56,0,0,0,191.823-4.009ZM220.484.3a3.072,3.072,0,0,1-1.456-.294.977.977,0,0,1-.544-.922,1.16,1.16,0,0,1,.615-1.123,8.91,8.91,0,0,1,1.685-.623,6.461,6.461,0,0,0,2.893-1.45,3.207,3.207,0,0,0,.877-2.35V-28.483a11.409,11.409,0,0,0-.713-4.265,3.827,3.827,0,0,0-2.981-2.268,1.69,1.69,0,0,1-.772-.515,1.389,1.389,0,0,1-.344-.96,1.242,1.242,0,0,1,1.016-1.373,42.72,42.72,0,0,0,6-2.263q3.2-1.463,5.2-2.579a8.684,8.684,0,0,1,1.052-.593,1.952,1.952,0,0,1,.738-.223q.645,0,.645.845,0,.358-.05,1.673t-.115,2.93q-.065,1.615-.135,3.041,0,.431.258.431a24.362,24.362,0,0,1,3.549-3.7,19.636,19.636,0,0,1,4.145-2.719,9.715,9.715,0,0,1,4.24-1.045,6.494,6.494,0,0,1,3.958,1.045,3.209,3.209,0,0,1,1.394,2.677,6.274,6.274,0,0,1-.652,2.592,8.42,8.42,0,0,1-1.7,2.462,3.12,3.12,0,0,1-2.219,1.045,4.068,4.068,0,0,1-1.517-.323q-.8-.323-1.689-.752-.858-.358-1.716-.7a4.447,4.447,0,0,0-1.658-.344,7,7,0,0,0-4.577,1.773q-2.12,1.773-2.12,7.005V-6.78a2.8,2.8,0,0,0,1.342,2.455,15.626,15.626,0,0,0,3.928,1.694,7.2,7.2,0,0,1,1.686.643,1.155,1.155,0,0,1,.586,1.073Q241.343.3,239.459.3a45.279,45.279,0,0,1-5.145-.25A41.194,41.194,0,0,0,229.57-.2q-1.7,0-3,.1T223.88.15A32.506,32.506,0,0,1,220.484.3Zm52.41,1.17a17.017,17.017,0,0,1-9.63-2.758A18.593,18.593,0,0,1,256.748-9a26.123,26.123,0,0,1-2.358-11.363,21.8,21.8,0,0,1,2.752-10.869A21.965,21.965,0,0,1,264.5-39.08a18.3,18.3,0,0,1,10.092-2.958,15.485,15.485,0,0,1,7.3,1.687,13,13,0,0,1,5.067,4.623A12.339,12.339,0,0,1,288.811-29q0,3.333-3.028,3.333H265.059a2.33,2.33,0,0,0-1.979.764,5.059,5.059,0,0,0-.579,2.877,16.948,16.948,0,0,0,1.955,8.113A15.6,15.6,0,0,0,269.708-8.1a13.126,13.126,0,0,0,7.352,2.161,12.737,12.737,0,0,0,5.42-1.135,15.435,15.435,0,0,0,4.525-3.248,3.912,3.912,0,0,1,.628-.593.959.959,0,0,1,.558-.179q.888,0,.888,1.088a7.061,7.061,0,0,1-1.452,3.764,15.614,15.614,0,0,1-3.513,3.9A17.222,17.222,0,0,1,279.065.445,18.176,18.176,0,0,1,272.894,1.47ZM265.2-29.148h8q2.544,0,4.027-.1a19.4,19.4,0,0,0,2.852-.4,1.008,1.008,0,0,0,.693-.78,5.93,5.93,0,0,0,.193-1.652,5.987,5.987,0,0,0-2.289-4.747,8.28,8.28,0,0,0-5.528-1.934,8.336,8.336,0,0,0-4.353,1.292,11.669,11.669,0,0,0-3.524,3.234,6.573,6.573,0,0,0-1.355,3.942Q263.914-29.148,265.2-29.148ZM349.108,1.958q-.759,0-.759-.858a26.133,26.133,0,0,1,.25-3.037,26.683,26.683,0,0,0,.25-3.193q0-.286-.014-.48a1.474,1.474,0,0,0-.044-.294,24.955,24.955,0,0,1-7.516,5.465,20.581,20.581,0,0,1-8.723,1.868A11.045,11.045,0,0,1,326.81-.095a10.706,10.706,0,0,1-4.056-4.362,14.42,14.42,0,0,1-1.485-6.768V-30.973a6.109,6.109,0,0,0-.942-3.573,6.141,6.141,0,0,0-3.242-2.1,2.976,2.976,0,0,1-.959-.514,1.42,1.42,0,0,1-.429-1.172,1.473,1.473,0,0,1,.436-1.2,2.178,2.178,0,0,1,1.064-.459,48.1,48.1,0,0,0,6.091-.651q2.4-.451,5.462-1.21a3.468,3.468,0,0,1,.653-.172,4.165,4.165,0,0,1,.611-.044q1.187,0,1.087,1.4-.33,2.3-.494,3.85a37.584,37.584,0,0,0-.164,3.85v19.384A9.071,9.071,0,0,0,331.5-9.22a8.776,8.776,0,0,0,2.816,3.162,6.678,6.678,0,0,0,3.716,1.227,21.842,21.842,0,0,0,4.057-.343,8.12,8.12,0,0,0,3.53-1.715,14.11,14.11,0,0,0,2.264-2.426,7.348,7.348,0,0,0,1.337-4.64V-31.47a4.273,4.273,0,0,0-1.047-3.078,6.2,6.2,0,0,0-2.516-1.6,9.01,9.01,0,0,0-2.673-.53,3.1,3.1,0,0,1-1.6-.423,1.592,1.592,0,0,1-.614-1.452,1.351,1.351,0,0,1,.679-1.316,3.245,3.245,0,0,1,1.537-.358q3.8-.187,6.179-.366A37.087,37.087,0,0,0,353.3-41.1q1.752-.335,3.581-.807a2.671,2.671,0,0,1,.557-.164,3,3,0,0,1,.559-.064q1.358,0,1.358,1.128a2.328,2.328,0,0,1-.065.481,5.418,5.418,0,0,1-.193.652,13.207,13.207,0,0,0-.25,1.714q-.15,1.386-.3,2.886t-.15,2.328v23.13a8.189,8.189,0,0,0,.55,3.574q.55,1.02,1.25,1.02.684,0,2.031-.092t1.931-.092a2.171,2.171,0,0,1,1.144.3,1.258,1.258,0,0,1,.5,1.173,1.583,1.583,0,0,1-.385,1.209,2.045,2.045,0,0,1-1.13.452,34.912,34.912,0,0,0-7.4,1.557Q353.713.37,351.311,1.33l-1.046.393A3.327,3.327,0,0,1,349.108,1.958ZM370.6,27.687a4.768,4.768,0,0,1-1.314-.222q-.756-.222-.756-.852a1.279,1.279,0,0,1,.721-1.194,10.572,10.572,0,0,1,1.579-.694,15.777,15.777,0,0,0,2.928-1.237,2.686,2.686,0,0,0,1.2-2.563V-28.788a8.39,8.39,0,0,0-.464-2.413,9.244,9.244,0,0,0-1.435-2.767,3.906,3.906,0,0,0-2.555-1.568,1.18,1.18,0,0,1-.7-.515,1.76,1.76,0,0,1-.244-.959,1.57,1.57,0,0,1,.244-.946,1.111,1.111,0,0,1,.6-.429,63.22,63.22,0,0,0,6.848-2.008q3.164-1.138,5.738-2.281a.943.943,0,0,0,.376-.2.522.522,0,0,1,.346-.137.58.58,0,0,1,.53.329,1.381,1.381,0,0,1,.185.687,24.029,24.029,0,0,1-.25,2.778,25.167,25.167,0,0,0-.25,3.164,1.978,1.978,0,0,0,.13.987,20.816,20.816,0,0,1,3.621-2.594,36.324,36.324,0,0,1,5.992-2.873,18.221,18.221,0,0,1,6.471-1.279,14.41,14.41,0,0,1,8.952,2.794,18.1,18.1,0,0,1,5.658,7.188,22.187,22.187,0,0,1,1.964,9.152,23.6,23.6,0,0,1-1.729,8.866,25.821,25.821,0,0,1-4.858,7.766A24.477,24.477,0,0,1,402.865-.52a19.593,19.593,0,0,1-8.887,2.065,14.9,14.9,0,0,1-3.089-.392,28.352,28.352,0,0,1-3.554-1.02A11.475,11.475,0,0,1,384.5-1.278q-.1,0-.2.845t-.15,1.805q-.05.96-.05,1.29V20.608a2.681,2.681,0,0,0,.9,2.123,6.218,6.218,0,0,0,2.2,1.216q1.292.423,2.523.81a9.881,9.881,0,0,1,1.58.679A1.255,1.255,0,0,1,392,26.614a.865.865,0,0,1-.7.837,4.139,4.139,0,0,1-1.328.237,52.158,52.158,0,0,1-5.342-.25,48.683,48.683,0,0,0-5.014-.25q-1.7,0-3,.1t-2.658.25A31.476,31.476,0,0,1,370.6,27.687ZM394.839-2.106a8.411,8.411,0,0,0,3.3-.871,12.959,12.959,0,0,0,3.879-2.842,15.611,15.611,0,0,0,3.237-5.3,22.588,22.588,0,0,0,1.305-8.212,25.146,25.146,0,0,0-1.355-9.1,13.234,13.234,0,0,0-3.337-5.155,10.369,10.369,0,0,0-4.05-2.313,13.605,13.605,0,0,0-3.523-.571,12.108,12.108,0,0,0-4.516.928,16.459,16.459,0,0,0-3.879,2.12q-1.561,1.191-1.561,1.949,0,1.737-.036,4t-.086,4.611q-.05,2.347-.085,4.229t-.035,2.752a14.736,14.736,0,0,0,1.56,6.588,15.252,15.252,0,0,0,4.02,5.174A8.059,8.059,0,0,0,394.839-2.106ZM507.734,1.758A10.067,10.067,0,0,1,503.953.244a18.048,18.048,0,0,1-5.4-5.017q-1.1-1.225-3.348-3.855t-5.3-6.148q-3.048-3.518-6.488-7.5l-6.863-7.945q-3.424-3.965-6.509-7.484t-5.409-6.184q-2.324-2.666-3.491-3.961a5.613,5.613,0,0,0-1-1.062,1.423,1.423,0,0,0-.813-.365q-.47,0-.656.735a5.4,5.4,0,0,0-.186,1.307q-.07,4.784-.1,11.126t-.055,12.982q-.028,6.641-.028,12.464a8.253,8.253,0,0,0,1.582,5.044q1.582,2.141,5.37,2.927a8.93,8.93,0,0,1,2.3.686,1.3,1.3,0,0,1,.83,1.2q0,.63-.8.923a5.721,5.721,0,0,1-1.956.293q-2.7,0-4.18-.135T458.779.056q-1.195-.086-3.152-.086t-3.279.1q-1.334.1-2.648.236a32.2,32.2,0,0,1-3.23.136,5.634,5.634,0,0,1-1.913-.294q-.814-.294-.814-.922a1.283,1.283,0,0,1,.785-1.173,11.483,11.483,0,0,1,2.254-.815,6.755,6.755,0,0,0,4.012-2.965,12.02,12.02,0,0,0,1.555-5.205q.4-3.772.815-9.978t.744-13.913q.329-7.707.329-15.907,0-5.27-2.706-7.57a20.605,20.605,0,0,0-6.9-3.7,18.663,18.663,0,0,1-1.765-.821q-1.22-.621-1.22-1.521a1.136,1.136,0,0,1,.856-1.179,5.01,5.01,0,0,1,1.531-.279q2.522.07,4.481.135t3.752.15q1.792.085,3.84.15t4.748.065a1.985,1.985,0,0,1,1.356.427,5.775,5.775,0,0,1,.928,1.07q1.038,1.267,3.4,4.075t5.513,6.6q3.148,3.788,6.756,8.072t7.2,8.584q3.594,4.3,6.777,8.087t5.548,6.56q2.366,2.773,3.4,3.968.372.4,1.02,1.084a1.762,1.762,0,0,0,1.161.684q.872,0,.942-1.9,0-2.009.035-6.017t.071-9.281q.036-5.273.021-11.134t-.073-11.659a4.869,4.869,0,0,0-2.085-3.774,10.808,10.808,0,0,0-4.295-2.015,13.78,13.78,0,0,1-2.665-.757q-1.2-.485-1.2-1.273,0-.63,1.2-.923a9.762,9.762,0,0,1,2.323-.293q1.494,0,2.661.014l2.248.029q1.08.015,2.213.015,2.283,0,3.683-.05t3.05-.15q1.65-.1,4.506-.1a5.627,5.627,0,0,1,2,.294.986.986,0,0,1,.757.922q0,1.458-3.069,2.03a10.971,10.971,0,0,0-4.929,1.858,5.225,5.225,0,0,0-1.457,3.8q0,1.6-.065,5.248t-.123,8.527q-.058,4.881-.152,10.258T509.393-21.8q-.029,5.24-.029,9.418,0,2.37.194,4.61t.352,3.909q.158,1.67.158,2.427a3.543,3.543,0,0,1-.679,2.557A2.326,2.326,0,0,1,507.734,1.758Zm32.947-.288a17.017,17.017,0,0,1-9.63-2.758A18.594,18.594,0,0,1,524.536-9a26.124,26.124,0,0,1-2.358-11.363,21.8,21.8,0,0,1,2.752-10.869,21.965,21.965,0,0,1,7.355-7.853,18.3,18.3,0,0,1,10.092-2.958,15.485,15.485,0,0,1,7.3,1.687,13,13,0,0,1,5.067,4.623A12.339,12.339,0,0,1,556.6-29q0,3.333-3.028,3.333H532.847a2.33,2.33,0,0,0-1.979.764,5.059,5.059,0,0,0-.579,2.877,16.948,16.948,0,0,0,1.955,8.113A15.6,15.6,0,0,0,537.5-8.1a13.126,13.126,0,0,0,7.352,2.161,12.737,12.737,0,0,0,5.42-1.135,15.436,15.436,0,0,0,4.525-3.248,3.913,3.913,0,0,1,.628-.593.959.959,0,0,1,.558-.179q.887,0,.887,1.088a7.061,7.061,0,0,1-1.452,3.764,15.613,15.613,0,0,1-3.513,3.9A17.222,17.222,0,0,1,546.853.445,18.176,18.176,0,0,1,540.681,1.47Zm-7.692-30.619h8q2.544,0,4.027-.1a19.4,19.4,0,0,0,2.852-.4,1.008,1.008,0,0,0,.693-.78,5.929,5.929,0,0,0,.193-1.652,5.987,5.987,0,0,0-2.289-4.747,8.28,8.28,0,0,0-5.528-1.934,8.336,8.336,0,0,0-4.353,1.292,11.67,11.67,0,0,0-3.524,3.234,6.573,6.573,0,0,0-1.355,3.942Q531.7-29.148,532.989-29.148ZM560.9.4a6.571,6.571,0,0,1-1.388-.165q-.758-.165-.758-.823A1.378,1.378,0,0,1,559.4-1.83a5.968,5.968,0,0,1,1.506-.673,9.963,9.963,0,0,0,2.776-1.563,19.685,19.685,0,0,0,3.46-3.9l8.252-11.367a2.047,2.047,0,0,0,.636-1.265,2.547,2.547,0,0,0-.464-1.123L567.6-33.731a18.855,18.855,0,0,0-2.194-3.016,5.546,5.546,0,0,0-2.522-1.474,5.969,5.969,0,0,1-1.506-.673,1.378,1.378,0,0,1-.648-1.243q0-.8.935-.894t1.423-.094a29.137,29.137,0,0,1,3.1.115q.953.115,2.07.229t3.459.114a27.665,27.665,0,0,0,3.4-.158,28.5,28.5,0,0,1,3.472-.158,11.537,11.537,0,0,1,1.407.123q.921.123.921.923a1.02,1.02,0,0,1-.623.986,13.72,13.72,0,0,1-1.351.559,10.018,10.018,0,0,0-1.56.666,1.365,1.365,0,0,0-.773,1.3,3.618,3.618,0,0,0,.365,1.364,15.132,15.132,0,0,0,.935,1.777l4.6,6.842q.43.758.9,0l4.375-6.859a5.976,5.976,0,0,0,.731-1.491,4.2,4.2,0,0,0,.244-1.492,1.847,1.847,0,0,0-1.475-1.831q-.8-.33-1.506-.7a1.2,1.2,0,0,1-.706-1.13q0-.8.921-.922A11.612,11.612,0,0,1,587.391-41q1.408.028,2.85.134t2.672.106a20.8,20.8,0,0,0,3.45-.206,17.916,17.916,0,0,1,2.878-.234,6.6,6.6,0,0,1,1.387.164q.758.164.758.822a1.316,1.316,0,0,1-.648,1.173,8.353,8.353,0,0,1-1.506.745,13.85,13.85,0,0,0-3.151,1.491,11.872,11.872,0,0,0-3.37,3.266l-6.619,9.528a1.646,1.646,0,0,0-.309.869,1.64,1.64,0,0,0,.352.925l9.236,14.872a13.969,13.969,0,0,0,2.561,3.075,8.917,8.917,0,0,0,2.919,1.675,6.025,6.025,0,0,1,1.506.673,1.377,1.377,0,0,1,.648,1.244q0,.658-.758.822a6.6,6.6,0,0,1-1.388.164q-2.116,0-3.32-.114T595.055-.03q-1.282-.115-3.7-.115-2.206,0-4.309.158T582.666.17q-2.328,0-2.328-1.116a1.384,1.384,0,0,1,.635-1.285,6.87,6.87,0,0,1,1.777-.685,5.935,5.935,0,0,0,1.994-.966,2.269,2.269,0,0,0,.836-1.927,4.01,4.01,0,0,0-.165-1.155,5.2,5.2,0,0,0-.638-1.283l-5.611-8.845a.375.375,0,0,0-.6,0l-5.933,9.319q-.186.345-.5,1.1a3.909,3.909,0,0,0-.316,1.527,3.017,3.017,0,0,0,.379,1.5,2.1,2.1,0,0,0,1.166.965q.8.33,1.535.665a1.182,1.182,0,0,1,.735,1.165q0,.728-.921.887A8.991,8.991,0,0,1,573.3.188q-1.437-.03-2.9-.115t-2.691-.085a29.13,29.13,0,0,0-3.659.177Q562.73.342,560.9.4Zm62.612,1Q618,1.4,615.06-1.716t-2.938-9.1V-33.961a1.272,1.272,0,0,0-.629-1.194,6,6,0,0,0-2.543-.394h-.861q-.558,0-.952-.823a3.718,3.718,0,0,1-.394-1.611,1.2,1.2,0,0,1,.242-.571,1.4,1.4,0,0,1,.43-.471,36.688,36.688,0,0,0,4.187-2.8q2.041-1.573,3.812-3.184t2.9-2.8q.587-.53,1-.894a1.441,1.441,0,0,1,1-.364,2.089,2.089,0,0,1,1.081.258q.435.258.307,1.161l-.558,4.992a1.574,1.574,0,0,0,.529,1.573,3.494,3.494,0,0,0,1.9.414h11.573q.342,0,.642.665a3.478,3.478,0,0,1,.3,1.448,6.645,6.645,0,0,1-.329,2.1q-.329,1-.757,1h-9.7A7.351,7.351,0,0,0,622.09-35q-.793.458-.793,2.255v19.411a10.645,10.645,0,0,0,1.714,6.488,5.682,5.682,0,0,0,4.827,2.285,14.908,14.908,0,0,0,4.385-.494,13.089,13.089,0,0,0,2.754-1.248.816.816,0,0,1,.487-.2.659.659,0,0,1,.623.508,3.145,3.145,0,0,1,.193,1.125q0,.528-1.809,2.072A20.256,20.256,0,0,1,629.765.071,14.822,14.822,0,0,1,623.508,1.4Z" transform="translate(642 6749)" fill="#fff"/>
  </g>
</svg>
