<svg xmlns="http://www.w3.org/2000/svg" width="36.313" height="36.312" viewBox="0 0 36.313 36.312"><g transform="translate(-174.299)"><path d="M36.313,18.156A18.156,18.156,0,1,0,15.319,36.092V23.4h-4.61V18.156h4.61v-4c0-4.55,2.711-7.064,6.858-7.064a27.92,27.92,0,0,1,4.064.355v4.468H23.952a2.624,2.624,0,0,0-2.959,2.835v3.406h5.036l-.8,5.248H20.993V36.092A18.161,18.161,0,0,0,36.313,18.156Z" transform="translate(174.299)" fill="#1877f2"/><path d="M316.514,216.312l.805-5.248h-5.036v-3.406a2.624,2.624,0,0,1,2.959-2.835h2.29v-4.468a27.92,27.92,0,0,0-4.064-.355c-4.147,0-6.858,2.513-6.858,7.064v4H302v5.248h4.61V229a18.346,18.346,0,0,0,5.674,0V216.312Z" transform="translate(-116.992 -192.908)" fill="#fff"/></g></svg>