<svg xmlns="http://www.w3.org/2000/svg" width="37" height="36" viewBox="0 0 37 36"><g transform="translate(-116)"><ellipse cx="18.5" cy="18" rx="18.5" ry="18" transform="translate(116)" fill="#4cc764"/><g transform="translate(122.029 7.02)"><g transform="translate(0)"><path d="M877.522,513.918c0-5.469-5.483-9.918-12.222-9.918s-12.222,4.449-12.222,9.918c0,4.9,4.348,9.009,10.222,9.785.4.086.94.262,1.077.6a2.51,2.51,0,0,1,.04,1.105s-.143.862-.175,1.046c-.053.309-.246,1.208,1.059.659s7.039-4.145,9.6-7.1h0A8.825,8.825,0,0,0,877.522,513.918Z" transform="translate(-853.078 -504)" fill="#fff"/><g transform="translate(4.009 7.276)"><path d="M1002.789,573.386a.233.233,0,0,0,.233-.233v-.867a.234.234,0,0,0-.233-.233h-2.333v-.9h2.333a.233.233,0,0,0,.233-.233v-.867a.234.234,0,0,0-.233-.233h-2.333v-.9h2.333a.233.233,0,0,0,.233-.233v-.867a.234.234,0,0,0-.233-.233h-3.434a.233.233,0,0,0-.233.233v.005h0v5.325h0v0a.233.233,0,0,0,.233.233h3.434Z" transform="translate(-986.42 -567.585)" fill="#4cc764"/><path d="M891.785,573.386a.233.233,0,0,0,.233-.233v-.867a.234.234,0,0,0-.233-.233h-2.334v-4.234a.234.234,0,0,0-.233-.233h-.867a.233.233,0,0,0-.233.233v5.33h0v0a.233.233,0,0,0,.233.233h3.434Z" transform="translate(-888.118 -567.585)" fill="#4cc764"/><rect width="1.333" height="5.801" rx="0.667" transform="translate(4.634)" fill="#4cc764"/><path d="M952.389,567.585h-.867a.233.233,0,0,0-.234.233v3.168l-2.44-3.3a.23.23,0,0,0-.019-.024v0l-.014-.015,0,0-.013-.011-.006,0-.012-.009-.007,0-.013-.007-.008,0-.014-.006-.007,0-.014,0-.008,0-.014,0h-.905a.233.233,0,0,0-.233.233v5.334a.233.233,0,0,0,.233.233h.867a.233.233,0,0,0,.233-.233v-3.167l2.444,3.3a.232.232,0,0,0,.06.059l0,0,.015.009.007,0,.011.005.011.005.008,0,.016.005h0a.24.24,0,0,0,.061.008h.862a.233.233,0,0,0,.233-.233v-5.334A.233.233,0,0,0,952.389,567.585Z" transform="translate(-940.754 -567.585)" fill="#4cc764"/></g></g></g></g></svg>