<svg xmlns="http://www.w3.org/2000/svg" width="36" height="36" viewBox="0 0 36 36"><g transform="translate(0 0)"><circle cx="18" cy="18" r="18" transform="translate(0 0)" fill="#1d9bf0"/><g transform="translate(8.184 10.205)"><path d="M96.259,131.972A12.459,12.459,0,0,0,108.8,119.428c0-.191,0-.381-.013-.57a8.971,8.971,0,0,0,2.2-2.283,8.8,8.8,0,0,1-2.532.694,4.425,4.425,0,0,0,1.939-2.439,8.836,8.836,0,0,1-2.8,1.07,4.413,4.413,0,0,0-7.514,4.021A12.518,12.518,0,0,1,91,115.314a4.413,4.413,0,0,0,1.365,5.886,4.377,4.377,0,0,1-2-.552c0,.018,0,.037,0,.056a4.411,4.411,0,0,0,3.537,4.323,4.4,4.4,0,0,1-1.991.076,4.414,4.414,0,0,0,4.119,3.062,8.847,8.847,0,0,1-5.476,1.887,8.982,8.982,0,0,1-1.052-.061,12.482,12.482,0,0,0,6.759,1.98" transform="translate(-89.5 -114.507)" fill="#fff"/></g></g></svg>