<svg xmlns="http://www.w3.org/2000/svg" width="36" height="36" viewBox="0 0 36 36"><g transform="translate(-58)"><rect width="36" height="36" rx="6" transform="translate(58)" fill="#00a4de"/><g transform="translate(65.25 8.968)"><path d="M126.711,146.094a4.284,4.284,0,0,0-3.011-1.354,4.867,4.867,0,0,0,2.5-1.378,3.606,3.606,0,0,0,.781-2.445,4.381,4.381,0,0,0-.526-2.159,3.887,3.887,0,0,0-1.529-1.482,6.561,6.561,0,0,0-2.087-.685,30.728,30.728,0,0,0-4.277-.191H113.6v18.1h5.114a33.26,33.26,0,0,0,4.445-.207,7.241,7.241,0,0,0,2.278-.709,4.182,4.182,0,0,0,1.744-1.7,5.189,5.189,0,0,0,.613-2.557A4.636,4.636,0,0,0,126.711,146.094Zm-8.523-5.687h1.059a4.972,4.972,0,0,1,2.469.414,1.586,1.586,0,0,1,.629,1.434,1.47,1.47,0,0,1-.677,1.386,5.327,5.327,0,0,1-2.5.4h-.98Zm4.206,10.379a5.077,5.077,0,0,1-2.477.438h-1.728v-3.943h1.8a4.684,4.684,0,0,1,2.461.454,1.8,1.8,0,0,1,.669,1.593,1.486,1.486,0,0,1-.733,1.466Z" transform="translate(-113.6 -136.4)" fill="#fff"/><path d="M331.094,306.1a2.294,2.294,0,1,0,2.294,2.294,2.294,2.294,0,0,0-2.294-2.294Z" transform="translate(-311.659 -292.583)" fill="#fff"/><rect width="3.983" height="12.069" transform="translate(17.444)" fill="#fff"/></g></g></svg>