<svg xmlns="http://www.w3.org/2000/svg" width="26.475" height="26.473" viewBox="0 0 26.475 26.473">
  <g id="グループ_3305" data-name="グループ 3305" transform="translate(0 0)">
    <path id="パス_958" data-name="パス 958" d="M790.853,743.783c-1.274,0-2.549.014-3.823,0a16.725,16.725,0,0,1-3.7-.316,6.831,6.831,0,0,1-5.421-5.513,13.886,13.886,0,0,1-.275-3.015q-.025-4.389,0-8.778a12.672,12.672,0,0,1,.417-3.583,6.817,6.817,0,0,1,5.38-4.967,13.837,13.837,0,0,1,3.015-.278q4.4-.025,8.8,0a12.92,12.92,0,0,1,3.466.386,6.813,6.813,0,0,1,5.092,5.45,16.852,16.852,0,0,1,.281,3.582q.023,3.793,0,7.586a16.391,16.391,0,0,1-.31,3.72,6.83,6.83,0,0,1-5.558,5.447,17.186,17.186,0,0,1-3.5.279c-1.288.018-2.576,0-3.864,0m.008-24.153v.04c-1.065,0-2.131-.016-3.2,0a20.532,20.532,0,0,0-3.647.236,4.471,4.471,0,0,0-3.7,3.381,9.856,9.856,0,0,0-.293,2.584c-.023,2.724-.043,5.448-.032,8.172a17.066,17.066,0,0,0,.229,3.344,4.483,4.483,0,0,0,3.406,3.706,9.475,9.475,0,0,0,2.484.285q4.743.02,9.486,0a11.8,11.8,0,0,0,2.069-.194,4.448,4.448,0,0,0,3.743-3.41,9.9,9.9,0,0,0,.287-2.586q.021-4.642,0-9.284a10.811,10.811,0,0,0-.233-2.37,4.482,4.482,0,0,0-2.22-3.083,6.118,6.118,0,0,0-2.839-.7c-1.846-.056-3.693-.084-5.54-.123" transform="translate(-777.622 -717.315)" fill="#fff"/>
    <path id="パス_959" data-name="パス 959" d="M895.008,827.888a6.8,6.8,0,1,1-6.8,6.722,6.8,6.8,0,0,1,6.8-6.722m.007,2.368a4.431,4.431,0,1,0,4.423,4.429,4.441,4.441,0,0,0-4.423-4.429" transform="translate(-881.776 -821.456)" fill="#fff"/>
    <path id="パス_960" data-name="パス 960" d="M1100.87,799.213a1.587,1.587,0,1,1,1.563-1.622,1.592,1.592,0,0,1-1.563,1.622" transform="translate(-1080.544 -791.461)" fill="#fff"/>
  </g>
</svg>
