<svg xmlns="http://www.w3.org/2000/svg" width="27.122" height="25.88" viewBox="0 0 27.122 25.88">
  <g id="グループ_3303" data-name="グループ 3303" transform="translate(0 0)">
    <path id="パス_961" data-name="パス 961" d="M785.623,0A15.784,15.784,0,0,1,794,2.4a11.282,11.282,0,0,1,4.36,4.876,8.986,8.986,0,0,1,.815,4.171A9.1,9.1,0,0,1,797.48,16.3a19.391,19.391,0,0,1-3.587,3.808,50.137,50.137,0,0,1-7.423,5.146,13.359,13.359,0,0,1-1.259.572.972.972,0,0,1-.267.056.441.441,0,0,1-.548-.474c.026-.405.113-.806.154-1.21.045-.44.081-.882.093-1.324a.733.733,0,0,0-.426-.674,3.925,3.925,0,0,0-1.309-.365,13.879,13.879,0,0,1-8.417-4.481,9.535,9.535,0,0,1-2.3-4.792,9.058,9.058,0,0,1,1.255-6.342,12.067,12.067,0,0,1,4.9-4.45A14.729,14.729,0,0,1,783.352.2c.754-.094,1.514-.135,2.272-.2m-.1,10.812.041-.011c.043.055.087.11.129.166q1.245,1.681,2.488,3.364a.421.421,0,0,0,.379.2c.249-.009.5,0,.749,0s.347-.089.347-.354q0-2.851,0-5.7c0-.263-.083-.347-.351-.35q-.375,0-.749,0c-.269,0-.346.083-.346.351q0,1.59,0,3.18c0,.063-.006.127-.012.247-.078-.1-.123-.155-.164-.211q-1.251-1.688-2.5-3.378a.388.388,0,0,0-.33-.191c-.274,0-.548,0-.822,0-.227.006-.305.09-.305.316q0,2.888,0,5.776c0,.222.087.31.307.314.25,0,.5,0,.749,0,.309,0,.39-.081.39-.388q0-1.572,0-3.144Zm6.538-.209c0-.294.01-.557,0-.818-.008-.168.045-.219.214-.218.768.008,1.536,0,2.3,0,.251,0,.316-.066.318-.312s0-.512,0-.768c0-.293-.071-.365-.367-.365q-1.773,0-3.547,0c-.295,0-.366.072-.366.367q0,1.627,0,3.254,0,1.234,0,2.468c0,.221.082.317.285.317q1.856,0,3.711,0a.25.25,0,0,0,.282-.282c0-.262,0-.524,0-.786,0-.332-.047-.377-.383-.377-.756,0-1.511,0-2.267,0-.061,0-.172-.056-.174-.089-.014-.307-.008-.616-.008-.943h.243q1.143,0,2.285,0c.219,0,.3-.077.3-.293,0-.268,0-.536,0-.8s-.074-.347-.344-.348h-2.49Zm-15.521.73q0,1.444,0,2.888c0,.215.085.31.291.31q1.846,0,3.693,0a.256.256,0,0,0,.3-.289c.006-.274,0-.548,0-.823s-.065-.333-.335-.334h-2.248c-.25,0-.251,0-.251-.244q0-2.175,0-4.351c0-.277-.084-.363-.357-.366-.244,0-.487,0-.731,0-.284,0-.358.076-.358.356q0,1.426,0,2.852m6.573.007q0-1.443,0-2.886c0-.237-.078-.322-.313-.328-.268-.006-.536-.006-.8,0-.244,0-.329.093-.329.334q0,2.867,0,5.735c0,.248.091.336.344.338s.5,0,.749,0c.274,0,.353-.082.353-.362q0-1.415,0-2.831" transform="translate(-772.057 -0.004)" fill="#fff"/>
  </g>
</svg>
