<svg xmlns="http://www.w3.org/2000/svg" xmlns:xlink="http://www.w3.org/1999/xlink" width="286.299" height="50" viewBox="0 0 286.299 50"><defs><clipPath id="a"><path d="M6.428,21.245V17.708a2.233,2.233,0,0,1,1.14-1.946l14.071-7.9a1.277,1.277,0,0,1,1.238,0l3.71,2.051a1.27,1.27,0,0,1,.006,2.221L10.533,21.114,8.318,22.353a1.256,1.256,0,0,1-.618.164,1.272,1.272,0,0,1-1.273-1.271M21.6.169.636,12.278A1.274,1.274,0,0,0,0,13.38V36.931a1.943,1.943,0,0,0,.994,1.695L21.326,50l21.98-12.545V15.678l-19.194,11H37.083v6.664L21.422,42.667,7.433,34.844a1.959,1.959,0,0,1-1.005-1.712V31.41a1.267,1.267,0,0,1,.64-1.1L38.878,12.084A1.27,1.27,0,0,0,38.9,9.895L22.9.184A1.277,1.277,0,0,0,21.6.169" transform="translate(0 0)" fill="none"/></clipPath><linearGradient id="b" y1="1" x2="1" y2="1" gradientUnits="objectBoundingBox"><stop offset="0" stop-color="#0096b4"/><stop offset="0.5" stop-color="#1c3d81"/><stop offset="1" stop-color="#10285a"/></linearGradient><clipPath id="c"><rect width="286.299" height="49.999" fill="none"/></clipPath></defs><g transform="translate(0 0)"><g clip-path="url(#a)"><rect width="43.306" height="49.999" transform="translate(0 0.001)" fill="url(#b)"/></g></g><g transform="translate(0 0.001)"><g clip-path="url(#c)"><path d="M54.968,5.632a3.77,3.77,0,0,0-1.743-.843A12.951,12.951,0,0,0,50.9,4.618l-3.207.015-2.861-.015h0a.307.307,0,0,0-.307.317c.066,1.907.1,4.11.1,6.549l-.022,7.16c-.016,2.306-.063,4.291-.137,5.9a.3.3,0,0,0,.088.229.327.327,0,0,0,.231.091c.46-.019.828-.019,1.33,0h.012a.312.312,0,0,0,.218-.091.309.309,0,0,0,.089-.229l-.067-1.506c-.025-.738-.045-3.242-.06-7.445-.013-4.021,0-7.206.039-9.479l4.224.023a8.76,8.76,0,0,1,2.3.212,2.667,2.667,0,0,1,1.787,1.625,3.742,3.742,0,0,1,.292,1.333,4.556,4.556,0,0,1-.351,1.956,3.983,3.983,0,0,1-1.1,1.528,4.363,4.363,0,0,1-1.777.875,14.159,14.159,0,0,1-5.481-.1.307.307,0,0,0-.346.415,8.719,8.719,0,0,1,.161.912.311.311,0,0,0,.235.21,24.046,24.046,0,0,0,3.374.326,8.82,8.82,0,0,0,3.6-.7,5.6,5.6,0,0,0,2.526-2.167,5.721,5.721,0,0,0,.849-3.315,5.333,5.333,0,0,0-.459-2,4.5,4.5,0,0,0-1.207-1.613" transform="translate(20.502 2.129)" fill="#0096b4"/><path d="M72.878,4.618c-.489.019-.754.019-1.243,0a.368.368,0,0,0-.228.089.315.315,0,0,0-.091.228c.051,1.441.067,3.3.05,5.522l-.08,5.915a21.033,21.033,0,0,1-.251,3.327A4.529,4.529,0,0,1,70.6,20.96a4.382,4.382,0,0,1-.766,1.07,4.227,4.227,0,0,1-1.02.779,5.9,5.9,0,0,1-1.594.589,11.524,11.524,0,0,1-4.962,0,5.947,5.947,0,0,1-2.087-.961,4.1,4.1,0,0,1-1.394-1.7,7.448,7.448,0,0,1-.517-2.709l-.016-1.293L58.5,4.932a.3.3,0,0,0-.092-.225.328.328,0,0,0-.226-.089c-.462.019-.8.019-1.287,0a.434.434,0,0,0-.229.089.308.308,0,0,0-.089.228q.048,1.381.053,2.708l-.061,7.683c-.018,1.144-.012,2.151.018,3a8.8,8.8,0,0,0,.4,2.493A5.141,5.141,0,0,0,57.9,22.52a6.466,6.466,0,0,0,1.695,1.423,7.809,7.809,0,0,0,2.228.9,12.917,12.917,0,0,0,3,.326,14.044,14.044,0,0,0,2.9-.3,8.253,8.253,0,0,0,2.006-.716,6.1,6.1,0,0,0,1.461-1.014,5.052,5.052,0,0,0,.913-1.17,6.143,6.143,0,0,0,.57-1.508,17.867,17.867,0,0,0,.329-3.215l.042-5.767L73.2,4.932a.305.305,0,0,0-.091-.225.308.308,0,0,0-.228-.089" transform="translate(26.08 2.129)" fill="#0096b4"/><path d="M78.293,15.314h.056a7.324,7.324,0,0,0,3.349-.736,5.384,5.384,0,0,0,2.279-2.171,5.8,5.8,0,0,0,.748-3.118,5.224,5.224,0,0,0-.659-2.439A4.351,4.351,0,0,0,82.423,5.2a6.532,6.532,0,0,0-3.15-.58L76,4.633l-2.864-.015h0a.3.3,0,0,0-.219.094.3.3,0,0,0-.088.222l.114,5.314L72.9,21.066,72.8,24.548a.3.3,0,0,0,.091.226.322.322,0,0,0,.228.089c.472-.019.855-.019,1.328,0a.29.29,0,0,0,.228-.089.31.31,0,0,0,.092-.225c-.123-4.806-.159-11.007-.113-18.434.671.018,1.233.022,1.686.022L78.7,6.123a12.028,12.028,0,0,1,1.521.094,4.33,4.33,0,0,1,1.131.273,2.627,2.627,0,0,1,.837.614,2.765,2.765,0,0,1,.62,1,4.381,4.381,0,0,1,.232,1.279,4.5,4.5,0,0,1-.326,1.9,3.655,3.655,0,0,1-1.039,1.43,4.662,4.662,0,0,1-1.689.871,7.388,7.388,0,0,1-2.107.3,12.788,12.788,0,0,1-2.173-.226.327.327,0,0,0-.316.142.307.307,0,0,0,.015.343l5.747,7.744,1.983,2.846a.271.271,0,0,0,.266.132c.443-.016.988-.016,1.463,0h.012a.306.306,0,0,0,.245-.491Z" transform="translate(33.57 2.129)" fill="#0096b4"/><path d="M91.713,6.1l2.17.007c.753.007,1.251.023,1.531.056l1.154.1a.375.375,0,0,0,.238-.085.308.308,0,0,0,.095-.234c-.01-.286,0-.62.02-.992a.307.307,0,0,0-.082-.231.314.314,0,0,0-.224-.1h0l-5.247.015q-2.805,0-6-.015h0a.3.3,0,0,0-.221.094.312.312,0,0,0-.086.224c.079,2.26.117,5.475.111,9.562-.007,4.112-.056,7.494-.146,10.051a.318.318,0,0,0,.086.224.31.31,0,0,0,.221.094h0l6.169-.015q1.6,0,5.047.015h0a.3.3,0,0,0,.221-.094.313.313,0,0,0,.086-.225,7.915,7.915,0,0,1,.035-.983.3.3,0,0,0-.085-.24.387.387,0,0,0-.238-.094q-1.615.09-2.553.11t-3.361.022l-3.821-.015-.012-8.038q2.65-.039,3.545-.038l5.43.044a.274.274,0,0,0,.219-.089.322.322,0,0,0,.091-.221,8.458,8.458,0,0,1,.037-.913.31.31,0,0,0-.079-.24.436.436,0,0,0-.231-.1q-3.16.042-5.317.042-1.685,0-3.679-.038V6.107c1.165,0,2.786-.012,4.87-.012" transform="translate(39.211 2.129)" fill="#0096b4"/><path d="M126.892,15.314h.056a7.324,7.324,0,0,0,3.349-.736,5.384,5.384,0,0,0,2.279-2.171,5.8,5.8,0,0,0,.748-3.118,5.225,5.225,0,0,0-.659-2.439A4.361,4.361,0,0,0,131.022,5.2a6.532,6.532,0,0,0-3.15-.58l-3.276.015-2.864-.015h0a.3.3,0,0,0-.219.094.3.3,0,0,0-.088.222l.114,5.314L121.5,21.066l-.107,3.482a.3.3,0,0,0,.091.226.313.313,0,0,0,.228.089c.472-.019.855-.019,1.328,0a.3.3,0,0,0,.228-.089.31.31,0,0,0,.092-.225c-.123-4.794-.159-11-.113-18.434.671.018,1.233.022,1.686.022l2.361-.015a12.028,12.028,0,0,1,1.521.094,4.33,4.33,0,0,1,1.131.273,2.627,2.627,0,0,1,.837.614,2.764,2.764,0,0,1,.62,1,4.381,4.381,0,0,1,.232,1.279,4.49,4.49,0,0,1-.326,1.9,3.655,3.655,0,0,1-1.039,1.43,4.662,4.662,0,0,1-1.689.871,7.388,7.388,0,0,1-2.107.3,12.788,12.788,0,0,1-2.173-.226.332.332,0,0,0-.316.142.307.307,0,0,0,.015.343l5.747,7.744,1.983,2.846a.294.294,0,0,0,.266.132c.438-.016.982-.022,1.463,0h.012a.306.306,0,0,0,.245-.491Z" transform="translate(55.981 2.129)" fill="#10285a"/><path d="M122.528,13.391c0-.083-5.611,2.823-5.611,2.823h3.862l-.051,6.644c-.475.146-.865.259-1.176.338-.342.092-.783.178-1.35.272s-1.118.161-1.673.213-1.067.076-1.536.076a12.389,12.389,0,0,1-3.786-.555,8.552,8.552,0,0,1-2.931-1.574,6.547,6.547,0,0,1-1.844-2.615,10.288,10.288,0,0,1-.716-3.5,11.3,11.3,0,0,1,.542-3.893A7.972,7.972,0,0,1,108.1,8.47a7.718,7.718,0,0,1,3.063-1.908,11.919,11.919,0,0,1,3.916-.647,16.539,16.539,0,0,1,2.677.24,26.209,26.209,0,0,1,3.5.912.294.294,0,0,0,.3-.063.3.3,0,0,0,.1-.285,12.914,12.914,0,0,1-.156-1.29.306.306,0,0,0-.238-.278,32.774,32.774,0,0,0-3.282-.58,17.522,17.522,0,0,0-7.195.487,9.475,9.475,0,0,0-3.628,2.111,9.626,9.626,0,0,0-2.39,3.662,12.152,12.152,0,0,0,.088,8.656,8.072,8.072,0,0,0,2.294,3.222,10.033,10.033,0,0,0,3.6,1.92,14.782,14.782,0,0,0,4.316.633,24.615,24.615,0,0,0,3.1-.24,39.894,39.894,0,0,0,4.066-.789.3.3,0,0,0,.235-.3l-.035-5.545Z" transform="translate(47.966 2.035)" fill="#10285a"/><path d="M150.745,7.131a8.717,8.717,0,0,0-3.388-2.085,13.227,13.227,0,0,0-8.213.042,8.667,8.667,0,0,0-3.437,2.132,9.057,9.057,0,0,0-2.114,3.638,13.3,13.3,0,0,0-.609,4.486,12.7,12.7,0,0,0,.764,3.941,8.548,8.548,0,0,0,2.106,3.251,9.086,9.086,0,0,0,3.434,2.04,12.934,12.934,0,0,0,4.177.685,12.534,12.534,0,0,0,4.286-.736,8.474,8.474,0,0,0,3.391-2.193,8.756,8.756,0,0,0,1.949-3.578,14.063,14.063,0,0,0,.523-4.381,13,13,0,0,0-.735-3.926,8.8,8.8,0,0,0-2.133-3.315m1.184,7.491a12.265,12.265,0,0,1-.435,3.783,7.3,7.3,0,0,1-1.663,3.017,6.565,6.565,0,0,1-2.786,1.788,11.881,11.881,0,0,1-6.936.053,7.244,7.244,0,0,1-2.811-1.584,7.445,7.445,0,0,1-1.882-2.792,10.664,10.664,0,0,1-.739-3.565,12.135,12.135,0,0,1,.456-3.795,7.8,7.8,0,0,1,1.721-3.114,6.871,6.871,0,0,1,2.858-1.9,11.188,11.188,0,0,1,7.025-.063,7.017,7.017,0,0,1,2.776,1.7,7.387,7.387,0,0,1,1.767,2.865,12.581,12.581,0,0,1,.65,3.608" transform="translate(61.322 2.034)" fill="#10285a"/><path d="M177.228,4.619c-.489.019-.812.019-1.283,0a.381.381,0,0,0-.3.194c-.272.69-6.536,17.955-6.536,17.955l-3.85-10.212-.2-.625-.842-2.088-.909,2.066-5.04,10.767L153.073,4.829c-.041-.127-.156-.181-.3-.21-.463.019-.921.019-1.406,0a.36.36,0,0,0-.264.132.305.305,0,0,0-.029.3c.364.853,6.147,19.62,6.147,19.62a.314.314,0,0,0,.3.2c.454-.019.874-.019,1.341,0a.358.358,0,0,0,.291-.177s4.806-10.418,4.905-10.6l.035-.075,3.926,10.652a.31.31,0,0,0,.289.2h.748c.254,0,.5.006.738.015h.012a.3.3,0,0,0,.283-.191c.71-1.75,6.93-18.606,7.428-19.628a.3.3,0,0,0-.019-.3.29.29,0,0,0-.269-.139" transform="translate(69.655 2.128)" fill="#10285a"/><path d="M185.448,4.608l-6.27.015q-3.682,0-7.145-.015h0a.307.307,0,0,0-.219.094.3.3,0,0,0-.086.224,8.4,8.4,0,0,1-.038.986.3.3,0,0,0,.086.241.332.332,0,0,0,.235.094c1.65-.085,3.619-.127,5.855-.133l-.029,14.858-.091,3.583a.3.3,0,0,0,.091.225.307.307,0,0,0,.218.089h.01c.5-.016.812-.016,1.274,0a.248.248,0,0,0,.228-.089.329.329,0,0,0,.091-.229l-.079-2.244q-.013-.322-.009-.649l.019-15.544h.529c2.361,0,4.134.044,5.275.133a.352.352,0,0,0,.235-.088.3.3,0,0,0,.092-.229,8.6,8.6,0,0,1,.037-.988.31.31,0,0,0-.305-.333" transform="translate(79.173 2.124)" fill="#10285a"/><path d="M201.123,4.932a.305.305,0,0,0-.091-.225.329.329,0,0,0-.228-.089c-.478.019-.75.019-1.243,0a.365.365,0,0,0-.229.089.308.308,0,0,0-.089.228c.031.906.045,1.555.039,1.961l-.016,6.916H186.517l.064-8.884a.312.312,0,0,0-.094-.224.351.351,0,0,0-.225-.086c-.475.019-.747.019-1.243,0a.337.337,0,0,0-.228.089.315.315,0,0,0-.091.228c.063,1.771.1,4.4.114,8.044.012,3.551-.022,7.443-.1,11.574a.3.3,0,0,0,.092.224.31.31,0,0,0,.226.088c.456-.019.738-.019,1.242,0a.291.291,0,0,0,.228-.088.313.313,0,0,0,.092-.226l-.06-2.493-.018-6.758h12.75c.044,2.941.01,6.051-.1,9.249a.313.313,0,0,0,.092.228.3.3,0,0,0,.215.088h.012c.454-.02.767-.02,1.243,0a.288.288,0,0,0,.226-.086.31.31,0,0,0,.092-.225c-.107-7.106-.08-13.707.076-19.62" transform="translate(85.176 2.129)" fill="#10285a"/><path d="M45.394,28.458A15.223,15.223,0,0,0,51.153,26.1l.62.826a2.9,2.9,0,0,0-.523.256,19.3,19.3,0,0,1-5.855,2.078V31.6c0,.754.158,1.033.631,1.191a8.882,8.882,0,0,0,1.968.171,23.954,23.954,0,0,0,2.782-.2,6.405,6.405,0,0,0,1.2-.243l.073.972c-.183.012-.219.012-.4.037l-.156.013-.584.06c-.777.086-2.355.171-3.219.171a4.381,4.381,0,0,1-2.661-.5c-.413-.34-.522-.79-.522-2.114v-5.6a8.494,8.494,0,0,0-.048-1.008h1a6.014,6.014,0,0,0-.06,1.021Zm8.223-3.486a1.251,1.251,0,1,1-1.227-1.251,1.248,1.248,0,0,1,1.227,1.251m-1.992,0a.741.741,0,1,0,.729-.741.736.736,0,0,0-.729.741" transform="translate(20.503 10.938)" fill="#1a1311"/><path d="M59.573,31.74a4.8,4.8,0,0,0,1.094-.073v.887a8.584,8.584,0,0,0-1.106-.06H53.609a6.4,6.4,0,0,0-1.1.06v-.887a5.166,5.166,0,0,0,1.093.073h3.692c.243-1.081.608-3.413.668-4.179H54.715a7.224,7.224,0,0,0-1.07.05v-.875a6.392,6.392,0,0,0,1.081.073h3.255a1.2,1.2,0,0,0,.571-.086l.4.352a2.4,2.4,0,0,0-.194.852c-.279,1.882-.389,2.611-.631,3.814Z" transform="translate(24.212 12.322)" fill="#1a1311"/><path d="M65.434,26.624a1.559,1.559,0,0,0-.035.4l-.013.206v.244c-.06,2.125-.364,3.182-1.2,4.275a6.839,6.839,0,0,1-3.109,2.1,2.245,2.245,0,0,0-.56-.815,5.711,5.711,0,0,0,2.224-1.116c1.287-1.033,1.762-2.285,1.762-4.641a3.288,3.288,0,0,0-.05-.658Zm4.8-1.53a2.2,2.2,0,0,0-.292.485A7.311,7.311,0,0,1,66.4,29.042a2.413,2.413,0,0,0-.6-.693,5.9,5.9,0,0,0,3.28-2.963h-6.9a12.184,12.184,0,0,0-1.432.06v-.935a8.822,8.822,0,0,0,1.445.085h7.034a1.221,1.221,0,0,0,.522-.085Z" transform="translate(27.906 11.303)" fill="#1a1311"/><path d="M73.454,27.8a1,1,0,1,1-.986-1,1,1,0,0,1,.986,1" transform="translate(32.955 12.361)" fill="#1a1311"/><path d="M81.9,24.283a2.05,2.05,0,0,0-.266.5,9.6,9.6,0,0,1-.56,1.07,1.714,1.714,0,0,1,.437-.037l3.063-.048c.425-.013.462-.013.62-.086l.655.633a1.375,1.375,0,0,0-.243.595,11.413,11.413,0,0,1-6.607,7.471,1.944,1.944,0,0,0-.608-.717,10.445,10.445,0,0,0,6.376-7.13l-4.093.061a11.817,11.817,0,0,1-2.9,3.159,1.755,1.755,0,0,0-.679-.62,9.33,9.33,0,0,0,3.049-3.342,5.392,5.392,0,0,0,.766-1.762Zm3.973-.073a9.4,9.4,0,0,1,1.118,1.726l-.608.327A8.227,8.227,0,0,0,85.263,24.5Zm1.106-.522a9.269,9.269,0,0,1,1.116,1.726l-.606.327a7.778,7.778,0,0,0-1.118-1.762Z" transform="translate(35.549 10.923)" fill="#1a1311"/><path d="M87.013,32.36v.864h-.935a6.4,6.4,0,0,0,.05-.912v-6.6a6.383,6.383,0,0,0-.037-.947,8.428,8.428,0,0,0,.947.037H93.5a6.142,6.142,0,0,0,.948-.037,6.214,6.214,0,0,0-.037.947v6.572a7.27,7.27,0,0,0,.048.937h-.935V32.36Zm6.512-6.753H87.015v5.964h6.511Z" transform="translate(39.695 11.421)" fill="#1a1311"/><path d="M93.914,27.113a8.539,8.539,0,0,0,1.506.073h7.059a9.678,9.678,0,0,0,1.47-.06v.983a13.924,13.924,0,0,0-1.483-.048H95.42a13.291,13.291,0,0,0-1.506.048Z" transform="translate(43.309 12.503)" fill="#1a1311"/><path d="M111.508,33.539a23.868,23.868,0,0,0-3.888-3.754,14.561,14.561,0,0,1-4.7,3.632,2.716,2.716,0,0,0-.595-.8,12.145,12.145,0,0,0,4.033-2.759,13,13,0,0,0,2.769-4.118.6.6,0,0,1,.05-.11l.025-.06.023-.061a2.142,2.142,0,0,1-.291.012l-4.058.061a7.61,7.61,0,0,0-1.252.1l-.023-.985a6.188,6.188,0,0,0,1.276.061l4.337-.05a2.025,2.025,0,0,0,.777-.1l.51.522a2.211,2.211,0,0,0-.34.6,14.966,14.966,0,0,1-2,3.4,30.616,30.616,0,0,1,4.044,3.644Z" transform="translate(47.188 11.348)" fill="#1a1311"/><path d="M113.1,26.851a7.207,7.207,0,0,0,1.2,2.247,3.57,3.57,0,0,0-.425.643A6.594,6.594,0,0,1,113,27.775c.023.764.023.814.023.959l.013.511.012.5v3.632a10.147,10.147,0,0,0,.073,1.41h-.9a11.48,11.48,0,0,0,.085-1.41v-3.45c0-.62.012-1.129.073-1.932a10.455,10.455,0,0,1-1.639,3.681,2.6,2.6,0,0,0-.438-.7,10.138,10.138,0,0,0,1.883-4.118h-.694a5.226,5.226,0,0,0-.849.048v-.766a4.917,4.917,0,0,0,.849.05h.8v-1.2a7.117,7.117,0,0,0-.061-1.251h.875a7.865,7.865,0,0,0-.061,1.251v1.2h.4a4.216,4.216,0,0,0,.753-.05v.754a7.113,7.113,0,0,0-.753-.037Zm2.43-.183a8.261,8.261,0,0,1-.789,1.53,2.378,2.378,0,0,0-.608-.449,7.394,7.394,0,0,0,1.312-3.425l.777.193a5.986,5.986,0,0,0-.194.656c-.085.3-.183.62-.243.814h1.445V24.835a6.05,6.05,0,0,0-.073-1.081h.864a5.81,5.81,0,0,0-.073,1.068v1.166h1.772a6.934,6.934,0,0,0,1.179-.072v.812a9.887,9.887,0,0,0-1.179-.06h-1.772v2h2.174A8.062,8.062,0,0,0,121.3,28.6v.814a11.732,11.732,0,0,0-1.189-.061h-1.92a9.507,9.507,0,0,0,3.4,3.511,3.046,3.046,0,0,0-.535.729,9.756,9.756,0,0,1-3.159-3.705c.013.219.013.279.025.377l.012.267.013.8v2.2a8.642,8.642,0,0,0,.073,1.276h-.864a9.191,9.191,0,0,0,.073-1.289V31.371c0-.329,0-.487.037-1.081,0-.073,0-.2.012-.377a8.978,8.978,0,0,1-3.207,3.705,3.369,3.369,0,0,0-.51-.644,8.872,8.872,0,0,0,3.377-3.621h-1.312a8.626,8.626,0,0,0-1.214.073V28.6a8.509,8.509,0,0,0,1.214.073h1.6v-2Z" transform="translate(50.867 10.942)" fill="#1a1311"/><path d="M128.375,26.037a7.406,7.406,0,0,0,1.178-.073v.874a9.085,9.085,0,0,0-1.251-.072h-2.176a17.584,17.584,0,0,0,.256,2.551,11.5,11.5,0,0,0,.608,2.284A4.379,4.379,0,0,0,128,33.325a.8.8,0,0,0,.387.231c.267,0,.487-.656.681-1.992a2.144,2.144,0,0,0,.717.473,6.028,6.028,0,0,1-.595,1.9.925.925,0,0,1-.777.51c-.45,0-.985-.4-1.458-1.106a10.775,10.775,0,0,1-1.373-4,22.531,22.531,0,0,1-.254-2.575h-5.079a9.877,9.877,0,0,0-1.251.072v-.874a8.709,8.709,0,0,0,1.251.073H125.3a3.327,3.327,0,0,0-.012-.365c0-.073,0-.364-.013-.862a5.248,5.248,0,0,0-.073-.947h.937A6.433,6.433,0,0,0,126.067,25c0,.267,0,.51.023,1.033Zm-7.8,3.28a6.957,6.957,0,0,0-1.091.06v-.814a6.546,6.546,0,0,0,1.1.061h3.146a6.5,6.5,0,0,0,1.094-.061v.814a6.805,6.805,0,0,0-1.081-.06h-1.241V32.6c.852-.181,1.483-.327,2.734-.668v.741c-1.445.4-3.571.862-5.443,1.191-.254.048-.424.085-.545.121l-.183-.862a13.946,13.946,0,0,0,2.659-.377V29.317Zm7.605-3.573a8.145,8.145,0,0,0-1.53-1.36l.558-.414a10.146,10.146,0,0,1,1.544,1.312Z" transform="translate(54.876 11.004)" fill="#1a1311"/><path d="M133.137,23.771a11.77,11.77,0,0,0,5.395,4.119,2.558,2.558,0,0,0-.475.777,13.787,13.787,0,0,1-5.322-4.192,13.258,13.258,0,0,1-5.1,4.131,2.312,2.312,0,0,0-.51-.693,11.668,11.668,0,0,0,5.152-4.142Zm-4.106,6.778a10.469,10.469,0,0,0-1.385.073v-.874a10.509,10.509,0,0,0,1.385.072h7.483a10.4,10.4,0,0,0,1.385-.072v.874a10.609,10.609,0,0,0-1.385-.073h-4.362a19.986,19.986,0,0,1-1.518,2.868c1.578-.11,3.437-.281,4.737-.45-.679-.741-1-1.056-1.482-1.506l.631-.389a26.875,26.875,0,0,1,2.94,3.207l-.668.5c-.437-.62-.643-.9-.887-1.191-1.786.243-3.267.4-5.893.631a14.136,14.136,0,0,0-2.051.219l-.146-.923a5.481,5.481,0,0,0,.62.037c.206,0,.206,0,1.287-.073a18.866,18.866,0,0,0,1.543-2.928Zm.777-3.025a6.387,6.387,0,0,0,.959.048h3.925a7.347,7.347,0,0,0,1.02-.048v.814a7.467,7.467,0,0,0-1.02-.048h-3.935a6.966,6.966,0,0,0-.948.048Z" transform="translate(58.623 10.961)" fill="#1a1311"/><path d="M138.387,33.578a8.733,8.733,0,0,0,.072,1.189h-.9a8.087,8.087,0,0,0,.075-1.2V29.786a12.322,12.322,0,0,1-1.666,1.433,2.4,2.4,0,0,0-.46-.679,9.5,9.5,0,0,0,3.691-4.058h-2.271a8.353,8.353,0,0,0-.972.048v-.8a7.78,7.78,0,0,0,.947.05h.731V24.649a5.23,5.23,0,0,0-.075-.937h.912a5.091,5.091,0,0,0-.073.948v1.118h.717a4.251,4.251,0,0,0,.691-.037l.377.425c-.073.121-.169.291-.291.522a10.168,10.168,0,0,1-1.337,2.066,7.416,7.416,0,0,0,1.968,1.651,2.884,2.884,0,0,0-.425.669,8.332,8.332,0,0,1-1.712-1.531Zm4.215-8.723a5.944,5.944,0,0,0-.086-1.106h.96a6.982,6.982,0,0,0-.085,1.106v2.624h1.591a7.669,7.669,0,0,0,1.191-.073v.85c-.377-.037-.754-.061-1.191-.061h-1.591v5.187h1.92a8.555,8.555,0,0,0,1.312-.072v.91a8.212,8.212,0,0,0-1.312-.085h-4.373a7.932,7.932,0,0,0-1.3.085v-.91a8.494,8.494,0,0,0,1.311.072H142.6V28.195h-1.191c-.425,0-.827.025-1.2.061v-.85a7.865,7.865,0,0,0,1.2.073H142.6Z" transform="translate(62.491 10.934)" fill="#1a1311"/></g></g></svg>