<svg xmlns="http://www.w3.org/2000/svg" xmlns:xlink="http://www.w3.org/1999/xlink" width="225.532" height="39.387" viewBox="0 0 225.532 39.387">
  <defs>
    <clipPath id="clip-path">
      <rect id="長方形_207" data-name="長方形 207" width="225.532" height="39.387" fill="none"/>
    </clipPath>
  </defs>
  <g id="グループ_3548" data-name="グループ 3548" transform="translate(0 0)">
    <g id="グループ_3547" data-name="グループ 3547" transform="translate(0 0)" clip-path="url(#clip-path)">
      <path id="パス_7340" data-name="パス 7340" d="M18.994,21.013H29.213v5.25L16.875,33.612,5.855,27.45a1.547,1.547,0,0,1-.792-1.35V24.744a1,1,0,0,1,.5-.869L30.626,9.52a1,1,0,0,0,.022-1.725L18.039.145A1,1,0,0,0,17.018.134L.5,9.673a1,1,0,0,0-.5.867V29.093a1.528,1.528,0,0,0,.783,1.334L16.8,39.387,34.114,29.5V12.351ZM5.063,13.949a1.757,1.757,0,0,1,.9-1.532L17.046,6.193a1,1,0,0,1,.974,0l2.924,1.616a1,1,0,0,1,0,1.75L8.3,16.633l-1.745.976a1,1,0,0,1-1.489-.874Z" transform="translate(0 -0.001)" fill="#fff"/>
      <path id="パス_7341" data-name="パス 7341" d="M52.737,5.417a2.97,2.97,0,0,0-1.373-.664,10.2,10.2,0,0,0-1.835-.135L47,4.63l-2.254-.012h0a.242.242,0,0,0-.242.25c.052,1.5.078,3.238.078,5.159l-.017,5.64c-.013,1.816-.049,3.381-.108,4.648a.238.238,0,0,0,.069.181.258.258,0,0,0,.182.071c.363-.015.653-.015,1.047,0h.009a.246.246,0,0,0,.172-.071.244.244,0,0,0,.07-.181l-.053-1.187c-.02-.581-.036-2.554-.047-5.864-.01-3.168,0-5.677.031-7.467l3.328.018a6.9,6.9,0,0,1,1.813.167,2.1,2.1,0,0,1,1.408,1.28,2.948,2.948,0,0,1,.23,1.05,3.589,3.589,0,0,1-.276,1.541,3.138,3.138,0,0,1-.868,1.2,3.437,3.437,0,0,1-1.4.689,11.154,11.154,0,0,1-4.317-.079.242.242,0,0,0-.273.327,6.869,6.869,0,0,1,.127.718.245.245,0,0,0,.185.166,18.943,18.943,0,0,0,2.658.257,6.948,6.948,0,0,0,2.837-.554,4.408,4.408,0,0,0,1.99-1.707,4.507,4.507,0,0,0,.669-2.612,4.2,4.2,0,0,0-.361-1.575,3.542,3.542,0,0,0-.951-1.271" transform="translate(6.714 0.697)" fill="#fff"/>
      <path id="パス_7342" data-name="パス 7342" d="M69.413,4.618c-.386.015-.594.015-.98,0a.29.29,0,0,0-.18.07.248.248,0,0,0-.071.18c.04,1.135.053,2.6.039,4.35l-.063,4.659a16.568,16.568,0,0,1-.2,2.621,3.568,3.568,0,0,1-.342.993,3.452,3.452,0,0,1-.6.843,3.33,3.33,0,0,1-.8.613,4.648,4.648,0,0,1-1.256.464,9.078,9.078,0,0,1-3.909,0A4.685,4.685,0,0,1,59.4,18.65a3.228,3.228,0,0,1-1.1-1.341,5.867,5.867,0,0,1-.407-2.134l-.013-1.019.2-9.291a.234.234,0,0,0-.073-.177.258.258,0,0,0-.178-.07c-.364.015-.633.015-1.014,0a.342.342,0,0,0-.181.07.243.243,0,0,0-.07.18Q56.607,5.955,56.61,7l-.048,6.052c-.014.9-.009,1.694.014,2.36a6.934,6.934,0,0,0,.318,1.964,4.05,4.05,0,0,0,.721,1.344,5.093,5.093,0,0,0,1.335,1.121,6.151,6.151,0,0,0,1.755.707,10.176,10.176,0,0,0,2.365.257,11.063,11.063,0,0,0,2.286-.233,6.5,6.5,0,0,0,1.58-.564,4.8,4.8,0,0,0,1.151-.8,3.98,3.98,0,0,0,.719-.922,4.839,4.839,0,0,0,.449-1.188,14.074,14.074,0,0,0,.259-2.532l.033-4.543.116-5.159a.241.241,0,0,0-.071-.177.243.243,0,0,0-.18-.07" transform="translate(8.541 0.697)" fill="#fff"/>
      <path id="パス_7343" data-name="パス 7343" d="M77.126,13.044h.044a5.77,5.77,0,0,0,2.638-.58,4.241,4.241,0,0,0,1.8-1.71A4.565,4.565,0,0,0,82.193,8.3a4.116,4.116,0,0,0-.519-1.921,3.428,3.428,0,0,0-1.295-1.3A5.146,5.146,0,0,0,77.9,4.618l-2.581.012-2.256-.012h0a.238.238,0,0,0-.173.074.234.234,0,0,0-.069.175l.09,4.186-.029,8.522L72.8,20.318a.235.235,0,0,0,.071.178.254.254,0,0,0,.18.07c.372-.015.673-.015,1.046,0a.229.229,0,0,0,.18-.07.244.244,0,0,0,.073-.177c-.1-3.786-.125-8.671-.089-14.521.528.014.971.017,1.328.017l1.86-.012a9.475,9.475,0,0,1,1.2.074,3.411,3.411,0,0,1,.891.215,2.069,2.069,0,0,1,.66.483,2.178,2.178,0,0,1,.488.791,3.451,3.451,0,0,1,.183,1.007,3.546,3.546,0,0,1-.257,1.494,2.88,2.88,0,0,1-.818,1.127,3.672,3.672,0,0,1-1.331.686,5.82,5.82,0,0,1-1.66.236,10.074,10.074,0,0,1-1.712-.178.258.258,0,0,0-.249.112.242.242,0,0,0,.012.27l4.527,6.1,1.562,2.242a.214.214,0,0,0,.209.1c.349-.013.778-.013,1.152,0h.009a.241.241,0,0,0,.193-.387Z" transform="translate(10.994 0.697)" fill="#fff"/>
      <path id="パス_7344" data-name="パス 7344" d="M90.294,5.782,92,5.787c.593.006.985.018,1.206.044l.909.077a.3.3,0,0,0,.188-.067.242.242,0,0,0,.075-.184c-.008-.226,0-.488.016-.782a.242.242,0,0,0-.064-.182.248.248,0,0,0-.176-.076h0l-4.133.012q-2.21,0-4.724-.012h0a.24.24,0,0,0-.174.074.246.246,0,0,0-.068.176c.062,1.781.092,4.313.087,7.532-.006,3.239-.044,5.9-.115,7.918a.251.251,0,0,0,.068.176.244.244,0,0,0,.174.074h0l4.86-.012q1.259,0,3.976.012h0a.24.24,0,0,0,.174-.074.247.247,0,0,0,.068-.177,6.234,6.234,0,0,1,.028-.775.239.239,0,0,0-.067-.189.3.3,0,0,0-.188-.074q-1.272.071-2.011.086t-2.647.017l-3.01-.012-.009-6.332q2.087-.031,2.792-.03l4.277.035a.215.215,0,0,0,.173-.07.254.254,0,0,0,.071-.174,6.663,6.663,0,0,1,.029-.719.244.244,0,0,0-.062-.189.344.344,0,0,0-.182-.077q-2.49.033-4.189.033-1.328,0-2.9-.03V5.791c.917,0,2.2-.009,3.836-.009" transform="translate(12.841 0.697)" fill="#fff"/>
      <path id="パス_7345" data-name="パス 7345" d="M125.725,13.044h.044a5.77,5.77,0,0,0,2.638-.58,4.241,4.241,0,0,0,1.8-1.71,4.565,4.565,0,0,0,.589-2.456,4.116,4.116,0,0,0-.519-1.921,3.436,3.436,0,0,0-1.295-1.3,5.146,5.146,0,0,0-2.482-.457l-2.581.012-2.256-.012h0a.238.238,0,0,0-.173.074.234.234,0,0,0-.069.175l.09,4.186-.029,8.522-.084,2.743a.235.235,0,0,0,.071.178.246.246,0,0,0,.18.07c.372-.015.673-.015,1.046,0a.235.235,0,0,0,.18-.07.244.244,0,0,0,.073-.177c-.1-3.777-.125-8.661-.089-14.521.528.014.971.017,1.328.017l1.86-.012a9.475,9.475,0,0,1,1.2.074,3.411,3.411,0,0,1,.891.215,2.069,2.069,0,0,1,.66.483,2.178,2.178,0,0,1,.488.791,3.452,3.452,0,0,1,.183,1.007,3.537,3.537,0,0,1-.257,1.494,2.88,2.88,0,0,1-.818,1.127,3.672,3.672,0,0,1-1.331.686,5.82,5.82,0,0,1-1.66.236,10.074,10.074,0,0,1-1.712-.178.262.262,0,0,0-.249.112.242.242,0,0,0,.012.27l4.527,6.1,1.562,2.242a.232.232,0,0,0,.209.1c.345-.013.773-.017,1.152,0h.009a.241.241,0,0,0,.193-.387Z" transform="translate(18.334 0.697)" fill="#fff"/>
      <path id="パス_7346" data-name="パス 7346" d="M118.6,11.486c0-.066-4.42,2.224-4.42,2.224h3.042l-.04,5.234c-.374.115-.681.2-.927.266-.269.073-.617.14-1.064.214s-.881.127-1.318.168-.84.06-1.21.06a9.759,9.759,0,0,1-2.982-.437,6.737,6.737,0,0,1-2.309-1.24,5.157,5.157,0,0,1-1.453-2.06,8.1,8.1,0,0,1-.564-2.76,8.9,8.9,0,0,1,.427-3.066,6.28,6.28,0,0,1,1.454-2.478,6.08,6.08,0,0,1,2.413-1.5,9.389,9.389,0,0,1,3.085-.51,13.028,13.028,0,0,1,2.109.189A20.646,20.646,0,0,1,117.6,6.5a.231.231,0,0,0,.234-.049.239.239,0,0,0,.078-.224,10.173,10.173,0,0,1-.123-1.016.241.241,0,0,0-.188-.219,25.818,25.818,0,0,0-2.585-.457,13.8,13.8,0,0,0-5.668.383,7.464,7.464,0,0,0-2.858,1.663,7.583,7.583,0,0,0-1.883,2.884,9.573,9.573,0,0,0,.069,6.819,6.359,6.359,0,0,0,1.807,2.538,7.9,7.9,0,0,0,2.838,1.512,11.645,11.645,0,0,0,3.4.5,19.39,19.39,0,0,0,2.444-.189,31.426,31.426,0,0,0,3.2-.622.239.239,0,0,0,.185-.236l-.028-4.368Z" transform="translate(15.709 0.666)" fill="#fff"/>
      <path id="パス_7347" data-name="パス 7347" d="M146.974,6.554A6.866,6.866,0,0,0,144.3,4.911a10.419,10.419,0,0,0-6.47.033,6.827,6.827,0,0,0-2.707,1.679,7.135,7.135,0,0,0-1.666,2.866,10.475,10.475,0,0,0-.48,3.534,10,10,0,0,0,.6,3.1,6.734,6.734,0,0,0,1.659,2.561,7.158,7.158,0,0,0,2.7,1.607,10.189,10.189,0,0,0,3.291.54,9.873,9.873,0,0,0,3.376-.58,6.675,6.675,0,0,0,2.672-1.728,6.9,6.9,0,0,0,1.535-2.819,11.078,11.078,0,0,0,.412-3.451,10.24,10.24,0,0,0-.579-3.093,6.936,6.936,0,0,0-1.681-2.612m.932,5.9a9.662,9.662,0,0,1-.343,2.98,5.751,5.751,0,0,1-1.31,2.377,5.172,5.172,0,0,1-2.195,1.409,9.359,9.359,0,0,1-5.464.041,5.706,5.706,0,0,1-2.215-1.248,5.864,5.864,0,0,1-1.483-2.2,8.4,8.4,0,0,1-.582-2.809,9.56,9.56,0,0,1,.359-2.989,6.14,6.14,0,0,1,1.356-2.453,5.413,5.413,0,0,1,2.251-1.5,8.813,8.813,0,0,1,5.534-.049A5.527,5.527,0,0,1,146,7.356a5.819,5.819,0,0,1,1.392,2.257,9.911,9.911,0,0,1,.512,2.842" transform="translate(20.083 0.666)" fill="#fff"/>
      <path id="パス_7348" data-name="パス 7348" d="M171.67,4.618c-.386.015-.64.015-1.011,0a.3.3,0,0,0-.234.153c-.214.543-5.149,14.144-5.149,14.144l-3.033-8.045-.161-.493-.663-1.645-.716,1.628-3.97,8.482L152.643,4.784c-.032-.1-.123-.143-.239-.166-.365.015-.725.015-1.107,0a.284.284,0,0,0-.208.1.24.24,0,0,0-.023.233c.287.672,4.842,15.456,4.842,15.456a.248.248,0,0,0,.237.157c.358-.015.688-.015,1.057,0a.282.282,0,0,0,.229-.139s3.786-8.207,3.864-8.351l.028-.059,3.093,8.391a.244.244,0,0,0,.228.158h.589c.2,0,.395,0,.581.012h.009a.24.24,0,0,0,.223-.151C166.6,19.049,171.5,5.771,171.9,4.966a.239.239,0,0,0-.015-.238.228.228,0,0,0-.212-.109" transform="translate(22.812 0.697)" fill="#fff"/>
      <path id="パス_7349" data-name="パス 7349" d="M182.527,4.608l-4.939.012q-2.9,0-5.628-.012h0a.241.241,0,0,0-.173.074.236.236,0,0,0-.068.176,6.615,6.615,0,0,1-.03.777.24.24,0,0,0,.068.19.262.262,0,0,0,.185.074c1.3-.067,2.851-.1,4.612-.1l-.023,11.7-.071,2.822a.239.239,0,0,0,.071.177.242.242,0,0,0,.172.07h.008c.394-.013.64-.013,1,0a.2.2,0,0,0,.18-.07.259.259,0,0,0,.071-.181l-.062-1.768q-.01-.254-.007-.511l.015-12.245h.417c1.86,0,3.256.035,4.155.1a.277.277,0,0,0,.185-.069.237.237,0,0,0,.072-.181,6.784,6.784,0,0,1,.029-.778.244.244,0,0,0-.241-.262" transform="translate(25.929 0.695)" fill="#fff"/>
      <path id="パス_7350" data-name="パス 7350" d="M197.637,4.865a.24.24,0,0,0-.071-.177.259.259,0,0,0-.18-.07c-.376.015-.59.015-.98,0a.288.288,0,0,0-.181.07.243.243,0,0,0-.07.18c.024.714.036,1.225.031,1.545l-.013,5.448H186.132l.051-7a.245.245,0,0,0-.074-.176.276.276,0,0,0-.177-.068c-.374.015-.588.015-.98,0a.265.265,0,0,0-.18.07.248.248,0,0,0-.071.18c.049,1.4.078,3.468.09,6.336.009,2.8-.017,5.863-.081,9.117a.235.235,0,0,0,.073.176.244.244,0,0,0,.178.069c.359-.015.581-.015.978,0a.229.229,0,0,0,.18-.069.247.247,0,0,0,.073-.178l-.047-1.964-.014-5.323h10.044c.035,2.317.008,4.766-.078,7.286a.247.247,0,0,0,.073.18.238.238,0,0,0,.169.069h.009c.358-.016.6-.016.98,0a.227.227,0,0,0,.178-.068.244.244,0,0,0,.073-.177c-.084-5.6-.063-10.8.06-15.456" transform="translate(27.894 0.697)" fill="#fff"/>
      <path id="パス_7351" data-name="パス 7351" d="M45.2,27.453A11.992,11.992,0,0,0,49.732,25.6l.488.65a2.281,2.281,0,0,0-.412.2A15.206,15.206,0,0,1,45.2,28.085v1.846c0,.594.124.814.5.938a7,7,0,0,0,1.55.135,18.87,18.87,0,0,0,2.192-.154,5.046,5.046,0,0,0,.947-.191l.058.765c-.144.009-.173.009-.317.029l-.123.01-.46.047c-.612.068-1.855.135-2.536.135a3.451,3.451,0,0,1-2.1-.392c-.326-.268-.411-.623-.411-1.666V25.175a6.691,6.691,0,0,0-.038-.794h.784a4.738,4.738,0,0,0-.047.8Zm6.478-2.746a.985.985,0,1,1-.967-.985.983.983,0,0,1,.967.985m-1.569,0a.584.584,0,1,0,.574-.584.58.58,0,0,0-.574.584" transform="translate(6.714 3.582)" fill="#fff"/>
      <path id="パス_7352" data-name="パス 7352" d="M58.073,30.675a3.782,3.782,0,0,0,.862-.058v.7a6.762,6.762,0,0,0-.871-.047H53.374a5.041,5.041,0,0,0-.87.047v-.7a4.069,4.069,0,0,0,.861.058h2.909c.191-.852.479-2.689.526-3.292H54.245a5.69,5.69,0,0,0-.843.039v-.689a5.035,5.035,0,0,0,.852.058h2.564a.943.943,0,0,0,.45-.068l.315.277a1.887,1.887,0,0,0-.153.671c-.22,1.483-.306,2.057-.5,3Z" transform="translate(7.929 4.035)" fill="#fff"/>
      <path id="パス_7353" data-name="パス 7353" d="M64.39,26.175a1.228,1.228,0,0,0-.028.317l-.01.162v.192a5.1,5.1,0,0,1-.947,3.368,5.387,5.387,0,0,1-2.449,1.656,1.769,1.769,0,0,0-.441-.642,4.5,4.5,0,0,0,1.752-.879c1.014-.814,1.388-1.8,1.388-3.656a2.59,2.59,0,0,0-.039-.518Zm3.781-1.205a1.736,1.736,0,0,0-.23.382,5.759,5.759,0,0,1-2.794,2.728,1.9,1.9,0,0,0-.47-.546A4.65,4.65,0,0,0,67.261,25.2H61.825a9.6,9.6,0,0,0-1.128.047v-.737a6.949,6.949,0,0,0,1.138.067h5.541a.962.962,0,0,0,.411-.067Z" transform="translate(9.139 3.701)" fill="#fff"/>
      <path id="パス_7354" data-name="パス 7354" d="M73.031,27.59a.784.784,0,1,1-.777-.785.789.789,0,0,1,.777.785" transform="translate(10.793 4.048)" fill="#fff"/>
      <path id="パス_7355" data-name="パス 7355" d="M80.875,24.156a1.615,1.615,0,0,0-.209.393,7.558,7.558,0,0,1-.441.843,1.35,1.35,0,0,1,.344-.029l2.413-.038c.335-.01.364-.01.488-.068l.516.5a1.083,1.083,0,0,0-.191.468,8.99,8.99,0,0,1-5.2,5.885,1.531,1.531,0,0,0-.479-.565,8.228,8.228,0,0,0,5.023-5.617l-3.224.048a9.309,9.309,0,0,1-2.288,2.489,1.383,1.383,0,0,0-.535-.488,7.35,7.35,0,0,0,2.4-2.632,4.248,4.248,0,0,0,.6-1.388ZM84,24.1a7.4,7.4,0,0,1,.881,1.359l-.479.258a6.48,6.48,0,0,0-.879-1.387Zm.871-.411a7.3,7.3,0,0,1,.879,1.359l-.478.258a6.128,6.128,0,0,0-.881-1.388Z" transform="translate(11.642 3.577)" fill="#fff"/>
      <path id="パス_7356" data-name="パス 7356" d="M86.815,30.749v.68h-.737a5.04,5.04,0,0,0,.039-.718v-5.2a5.03,5.03,0,0,0-.029-.746,6.638,6.638,0,0,0,.746.029h5.091a4.839,4.839,0,0,0,.747-.029,4.894,4.894,0,0,0-.029.746v5.177a5.727,5.727,0,0,0,.038.738h-.737v-.68Zm5.13-5.32H86.816v4.7h5.129Z" transform="translate(13 3.74)" fill="#fff"/>
      <path id="パス_7357" data-name="パス 7357" d="M93.914,27.113a6.726,6.726,0,0,0,1.187.058h5.561a7.624,7.624,0,0,0,1.158-.047V27.9a10.97,10.97,0,0,0-1.168-.038H95.1a10.471,10.471,0,0,0-1.187.038Z" transform="translate(14.183 4.094)" fill="#fff"/>
      <path id="パス_7358" data-name="パス 7358" d="M109.559,31.644a18.8,18.8,0,0,0-3.063-2.957,11.47,11.47,0,0,1-3.7,2.861,2.139,2.139,0,0,0-.468-.632,9.568,9.568,0,0,0,3.177-2.173,10.239,10.239,0,0,0,2.181-3.244.473.473,0,0,1,.039-.086l.02-.047.018-.048a1.687,1.687,0,0,1-.229.009l-3.2.048a5.994,5.994,0,0,0-.986.077l-.018-.776a4.874,4.874,0,0,0,1,.048l3.416-.039a1.6,1.6,0,0,0,.612-.076l.4.411a1.742,1.742,0,0,0-.268.47,11.789,11.789,0,0,1-1.578,2.68,24.116,24.116,0,0,1,3.186,2.871Z" transform="translate(15.454 3.716)" fill="#fff"/>
      <path id="パス_7359" data-name="パス 7359" d="M112.5,26.189a5.677,5.677,0,0,0,.947,1.77,2.812,2.812,0,0,0-.335.506,5.194,5.194,0,0,1-.688-1.549c.018.6.018.641.018.755l.01.4.009.391v2.861a7.994,7.994,0,0,0,.058,1.111h-.708a9.043,9.043,0,0,0,.067-1.111V28.609c0-.488.009-.89.058-1.522a8.237,8.237,0,0,1-1.291,2.9,2.049,2.049,0,0,0-.345-.555,7.987,7.987,0,0,0,1.484-3.244h-.547a4.118,4.118,0,0,0-.669.038v-.6a3.873,3.873,0,0,0,.669.039h.633v-.948a5.607,5.607,0,0,0-.048-.985h.689a6.2,6.2,0,0,0-.048.985v.948h.317a3.32,3.32,0,0,0,.593-.039v.594a5.6,5.6,0,0,0-.593-.029Zm1.914-.144a6.507,6.507,0,0,1-.622,1.205,1.873,1.873,0,0,0-.479-.353,5.825,5.825,0,0,0,1.034-2.7l.612.152a4.719,4.719,0,0,0-.153.517c-.067.239-.144.488-.191.641h1.138V24.6a4.766,4.766,0,0,0-.058-.852h.68a4.577,4.577,0,0,0-.058.841v.919h1.4a5.462,5.462,0,0,0,.929-.056v.64a7.789,7.789,0,0,0-.929-.047h-1.4v1.579h1.713a6.35,6.35,0,0,0,.928-.058v.641a9.241,9.241,0,0,0-.937-.048h-1.512a7.489,7.489,0,0,0,2.68,2.766,2.4,2.4,0,0,0-.421.574,7.685,7.685,0,0,1-2.489-2.919c.01.173.01.22.02.3l.009.211.01.632v1.732a6.809,6.809,0,0,0,.058,1h-.68a7.241,7.241,0,0,0,.058-1.015V29.749c0-.259,0-.383.029-.852,0-.058,0-.154.009-.3a7.073,7.073,0,0,1-2.527,2.919,2.654,2.654,0,0,0-.4-.508,6.989,6.989,0,0,0,2.66-2.852h-1.034a6.8,6.8,0,0,0-.957.058v-.65a6.7,6.7,0,0,0,.957.058h1.264V26.045Z" transform="translate(16.659 3.583)" fill="#fff"/>
      <path id="パス_7360" data-name="パス 7360" d="M126.384,25.576a5.834,5.834,0,0,0,.928-.058v.688a7.157,7.157,0,0,0-.985-.056h-1.714a13.853,13.853,0,0,0,.2,2.01,9.06,9.06,0,0,0,.479,1.8,3.45,3.45,0,0,0,.794,1.358.629.629,0,0,0,.305.182c.211,0,.383-.517.536-1.569a1.689,1.689,0,0,0,.565.373,4.75,4.75,0,0,1-.468,1.493.729.729,0,0,1-.612.4c-.355,0-.776-.315-1.149-.871a8.488,8.488,0,0,1-1.082-3.148,17.746,17.746,0,0,1-.2-2.028h-4a7.78,7.78,0,0,0-.985.056v-.688a6.86,6.86,0,0,0,.985.058h3.981a2.615,2.615,0,0,0-.009-.288c0-.058,0-.287-.01-.679a4.135,4.135,0,0,0-.058-.746h.738a5.067,5.067,0,0,0-.058.9c0,.211,0,.4.018.814Zm-6.145,2.584a5.48,5.48,0,0,0-.86.047v-.641a5.157,5.157,0,0,0,.87.048h2.478a5.117,5.117,0,0,0,.862-.048v.641a5.361,5.361,0,0,0-.852-.047h-.977v2.583c.671-.143,1.168-.258,2.154-.526V30.8c-1.138.317-2.813.679-4.288.938-.2.038-.334.067-.429.1l-.144-.679a10.986,10.986,0,0,0,2.095-.3v-2.7Zm5.991-2.814a6.417,6.417,0,0,0-1.205-1.072l.44-.326a7.992,7.992,0,0,1,1.217,1.034Z" transform="translate(17.971 3.603)" fill="#fff"/>
      <path id="パス_7361" data-name="パス 7361" d="M131.861,23.771a9.272,9.272,0,0,0,4.25,3.245,2.015,2.015,0,0,0-.374.612,10.86,10.86,0,0,1-4.192-3.3,10.444,10.444,0,0,1-4.019,3.254,1.821,1.821,0,0,0-.4-.546,9.191,9.191,0,0,0,4.059-3.263Zm-3.234,5.34a8.247,8.247,0,0,0-1.091.058V28.48a8.279,8.279,0,0,0,1.091.056h5.894a8.2,8.2,0,0,0,1.091-.056v.688a8.357,8.357,0,0,0-1.091-.058h-3.436a15.743,15.743,0,0,1-1.2,2.259c1.243-.086,2.707-.221,3.732-.355-.535-.584-.785-.832-1.167-1.187l.5-.306a21.169,21.169,0,0,1,2.316,2.526l-.526.393c-.344-.488-.506-.709-.7-.938-1.407.191-2.574.315-4.642.5a11.133,11.133,0,0,0-1.616.173l-.115-.727a4.317,4.317,0,0,0,.488.029c.162,0,.162,0,1.014-.058a14.861,14.861,0,0,0,1.215-2.307Zm.612-2.383a5.031,5.031,0,0,0,.755.038h3.092a5.786,5.786,0,0,0,.8-.038v.641a5.882,5.882,0,0,0-.8-.038h-3.1a5.487,5.487,0,0,0-.747.038Z" transform="translate(19.199 3.589)" fill="#fff"/>
      <path id="パス_7362" data-name="パス 7362" d="M137.777,31.484a6.878,6.878,0,0,0,.056.937h-.708a6.37,6.37,0,0,0,.059-.947V28.5a9.705,9.705,0,0,1-1.312,1.129,1.893,1.893,0,0,0-.363-.535,7.487,7.487,0,0,0,2.908-3.2h-1.789a6.58,6.58,0,0,0-.765.038V25.3a6.128,6.128,0,0,0,.746.039h.576v-.89a4.12,4.12,0,0,0-.059-.738h.718a4.01,4.01,0,0,0-.058.747v.881h.565a3.348,3.348,0,0,0,.544-.029l.3.335c-.058.1-.134.229-.229.411a8.009,8.009,0,0,1-1.053,1.628,5.842,5.842,0,0,0,1.55,1.3,2.272,2.272,0,0,0-.335.527,6.564,6.564,0,0,1-1.349-1.206Zm3.321-6.872a4.682,4.682,0,0,0-.068-.871h.756a5.5,5.5,0,0,0-.067.871v2.067h1.253a6.042,6.042,0,0,0,.938-.058v.67c-.3-.029-.594-.048-.938-.048h-1.253v4.086h1.512a6.74,6.74,0,0,0,1.034-.056v.717a6.469,6.469,0,0,0-1.034-.067h-3.445a6.248,6.248,0,0,0-1.023.067v-.717a6.691,6.691,0,0,0,1.032.056h1.3V27.243h-.938c-.335,0-.651.02-.947.048v-.67a6.2,6.2,0,0,0,.947.058h.938Z" transform="translate(20.465 3.581)" fill="#fff"/>
    </g>
  </g>
</svg>
