<svg xmlns="http://www.w3.org/2000/svg" width="15.758" height="15.758" viewBox="0 0 15.758 15.758">
  <g id="グループ_3279" data-name="グループ 3279" transform="translate(-533 -9561)">
    <path id="パス_7252" data-name="パス 7252" d="M7.879,0A7.879,7.879,0,1,1,0,7.879,7.879,7.879,0,0,1,7.879,0Z" transform="translate(533 9561)" fill="none"/>
    <path id="パス_7251" data-name="パス 7251" d="M128.535,23.525a.415.415,0,0,1-.293-.708l2.634-2.629-2.634-2.629a.415.415,0,0,1,.586-.587l2.928,2.923a.415.415,0,0,1,0,.587L128.828,23.4A.413.413,0,0,1,128.535,23.525Z" transform="translate(411.399 9548.691)" fill="#fff"/>
  </g>
</svg>
