<svg xmlns="http://www.w3.org/2000/svg" width="37" height="30.045" viewBox="0 0 37 30.045"><g transform="translate(-321.189 -3343)"><rect width="37" height="30" transform="translate(321.189 3343)" fill="#fff"/><g transform="translate(717.5 8937.045) rotate(180)"><path d="M38.428-155.6a16.312,16.312,0,0,0-12.067,15.47c0,3.481,2.089,6.575,5.879,6.575a5.463,5.463,0,0,0,5.647-5.724c0-2.939-1.779-4.1-4.022-5.105-.619-.232-1.315-.851-1.315-1.47,0-1.315.774-4.718,7.116-7.735a2.259,2.259,0,0,0,.155-.7,1.3,1.3,0,0,0-1.315-1.315Zm-15.238,0A16.242,16.242,0,0,0,11.2-140.13c0,3.481,2.011,6.575,5.8,6.575a5.463,5.463,0,0,0,5.647-5.724c0-2.939-1.7-4.1-3.945-5.105-.619-.232-1.392-.851-1.392-1.47,0-1.16.7-4.641,7.194-7.735a2.259,2.259,0,0,0,.155-.7,1.37,1.37,0,0,0-1.392-1.315Z" transform="translate(348.8 5719.6)" fill="#00b6c9"/></g></g></svg>