<svg xmlns="http://www.w3.org/2000/svg" width="25.755" height="25.875" viewBox="0 0 25.755 25.875">
  <g id="グループ_3306" data-name="グループ 3306" transform="translate(0 0)">
    <path id="パス_953" data-name="パス 953" d="M1694.448,732.373a12.847,12.847,0,0,0-12.54-9.92,13.089,13.089,0,0,0-2.472.253,12.849,12.849,0,0,0-8.757,18.745.711.711,0,0,1,.056.578q-.826,3.007-1.645,6.008c-.089.329-.089.329.24.243,2.079-.546,4.154-1.085,6.231-1.637a.6.6,0,0,1,.465.053,12.839,12.839,0,0,0,18.421-14.323m-10.742,13.462a9.191,9.191,0,0,1-1.471.145,10.813,10.813,0,0,1-5.8-1.538.774.774,0,0,0-.659-.1c-1.139.315-2.286.6-3.426.9-.24.072-.263.02-.2-.2.3-1.084.587-2.162.9-3.234a.886.886,0,0,0-.117-.8,10.5,10.5,0,0,1,.378-11.943,10.664,10.664,0,0,1,19.036,3.918,10.647,10.647,0,0,1-8.642,12.85" transform="translate(-1669.04 -722.453)" fill="#fff" fill-rule="evenodd"/>
    <path id="パス_954" data-name="パス 954" d="M1788.583,852.968a4.373,4.373,0,0,1-1.334-.2,12.967,12.967,0,0,1-6.941-5.127,7.356,7.356,0,0,1-1.5-3,3.6,3.6,0,0,1,1.162-3.471,2.1,2.1,0,0,1,1.7-.237.663.663,0,0,1,.3.342c.373.888.741,1.761,1.106,2.649a.616.616,0,0,1-.038.506,4.03,4.03,0,0,1-.794,1.058.526.526,0,0,0-.071.736,8.8,8.8,0,0,0,4.368,3.753.52.52,0,0,0,.68-.164c.314-.388.646-.776.943-1.177a.523.523,0,0,1,.725-.191c.623.283,1.245.579,1.869.874.14.059.278.132.416.2.631.316.625.322.571,1.019a2.729,2.729,0,0,1-2.335,2.367,2.691,2.691,0,0,1-.828.066" transform="translate(-1772.353 -833.957)" fill="#fff" fill-rule="evenodd"/>
  </g>
</svg>
