<svg xmlns="http://www.w3.org/2000/svg" width="24.588" height="20.085" viewBox="0 0 24.588 20.085">
  <path id="パス_956" data-name="パス 956" d="M2564.3,790.083a10.433,10.433,0,0,0,5.285-.841,9.308,9.308,0,0,0,2.125-1.3,6.737,6.737,0,0,1-1.227-.2,5.08,5.08,0,0,1-2.929-2.161,4.946,4.946,0,0,1-.543-1.144c.057,0,.1,0,.141.01a4.99,4.99,0,0,0,2-.082.331.331,0,0,0,.1-.044,5.108,5.108,0,0,1-3.443-2.606,4.957,4.957,0,0,1-.591-2.409,5.619,5.619,0,0,0,1.11.445,4.422,4.422,0,0,0,1.156.163,5.093,5.093,0,0,1-2.221-4.368,4.878,4.878,0,0,1,.669-2.38,14.475,14.475,0,0,0,7.509,4.834,13.73,13.73,0,0,0,2.964.456c-.015-.089-.025-.161-.038-.232a5.042,5.042,0,0,1,3.821-5.859,4.948,4.948,0,0,1,4.772,1.374.2.2,0,0,0,.2.068,10.285,10.285,0,0,0,2.937-1.108l.146-.079c-.021.066-.032.107-.046.146a5.042,5.042,0,0,1-2.026,2.533.4.4,0,0,0-.1.086,9.689,9.689,0,0,0,2.814-.743.24.24,0,0,1-.063.122,10.115,10.115,0,0,1-2.293,2.357.249.249,0,0,0-.113.247,11.6,11.6,0,0,1-.028,1.508,13.926,13.926,0,0,1-.426,2.569,14.854,14.854,0,0,1-3.415,6.339,13.52,13.52,0,0,1-6.988,4.118,15.642,15.642,0,0,1-1.948.327,15.277,15.277,0,0,1-2.36.058,14.041,14.041,0,0,1-5.093-1.211,14.358,14.358,0,0,1-1.748-.924l-.112-.072m13.65.175h.03c0-.02,0-.04,0-.06h-.021c0,.02,0,.039,0,.059" transform="translate(-2564.304 -772.225)" fill="#fff"/>
</svg>
