<svg xmlns="http://www.w3.org/2000/svg" width="34.286" height="24" viewBox="0 0 34.286 24">
  <g id="icon-youtube" transform="translate(-985 -9963.002)">
    <path id="パス_68443" data-name="パス 68443" d="M33.569,3.748A4.294,4.294,0,0,0,30.538.717C27.865,0,17.143,0,17.143,0S6.421,0,3.748.717A4.294,4.294,0,0,0,.716,3.748,44.628,44.628,0,0,0,0,12a44.626,44.626,0,0,0,.716,8.252,4.294,4.294,0,0,0,3.031,3.031c2.674.716,13.4.716,13.4.716s10.722,0,13.4-.716a4.294,4.294,0,0,0,3.031-3.031A44.609,44.609,0,0,0,34.286,12a44.611,44.611,0,0,0-.717-8.253" transform="translate(985 9963.002)" fill="#fff"/>
    <path id="パス_68444" data-name="パス 68444" d="M48.594,34.583V24.3L57.5,29.44Z" transform="translate(950.12 9945.562)" fill="#123770"/>
  </g>
</svg>
