<svg xmlns="http://www.w3.org/2000/svg" xmlns:xlink="http://www.w3.org/1999/xlink" width="167.977" height="47.098" viewBox="0 0 167.977 47.098">
  <defs>
    <linearGradient id="linear-gradient" x1="0.5" x2="0.5" y2="1" gradientUnits="objectBoundingBox">
      <stop offset="0" stop-color="#2e4177"/>
      <stop offset="1" stop-color="#00aec7"/>
    </linearGradient>
  </defs>
  <g id="グループ_3570" data-name="グループ 3570" transform="translate(-103.813 -1006.175)" opacity="0.75">
    <path id="パス_7366" data-name="パス 7366" d="M1.642.325A3.264,3.264,0,0,1,.324.1.737.737,0,0,1-.187-.6a1,1,0,0,1,.515-.851,5.843,5.843,0,0,1,1.423-.626A10.024,10.024,0,0,0,4.937-3.651a7.69,7.69,0,0,0,2.348-3.18q1.744-3.99,3.243-7.593t2.865-7.1q1.365-3.5,2.789-7.228T19.138-36.7q.55-1.513.81-2.527A15.8,15.8,0,0,0,20.311-41q.793-.233,1.529-.456a9.808,9.808,0,0,0,1.547-.632A2.974,2.974,0,0,0,24.6-43.249a7.791,7.791,0,0,1,.7-1.068.628.628,0,0,1,.3-.121q.154-.019.276.224a3.808,3.808,0,0,1,.284.716q.116.4.246.828,1.485,4.751,3.09,9.66t3.15,9.592q1.545,4.683,2.915,8.684T37.9-7.754a10.719,10.719,0,0,0,1.7,3.306A6.135,6.135,0,0,0,41.655-2.76a11.565,11.565,0,0,0,2.41.827,3.577,3.577,0,0,1,1.446.57A1.1,1.1,0,0,1,46-.475.6.6,0,0,1,45.529.1a3.733,3.733,0,0,1-1.224.168q-1.042,0-2.724-.088T38.078,0q-1.821-.088-3.316-.088-1.253,0-2.723.019t-2.82.071Q27.869.057,26.9.057a3.128,3.128,0,0,1-1.242-.214.68.68,0,0,1-.492-.623.965.965,0,0,1,.584-.827A4.06,4.06,0,0,1,27.1-2.072a7.1,7.1,0,0,0,3.225-1.18,2.2,2.2,0,0,0,.835-2.085,19.542,19.542,0,0,0-.5-2.743q-.4-1.673-.914-3.54T28.779-15a.952.952,0,0,0-.44-.674,2.758,2.758,0,0,0-1.108-.154h-12a.89.89,0,0,0-.61.246,2.156,2.156,0,0,0-.5.9q-.214.744-.622,1.972T12.7-10.142q-.4,1.334-.7,2.446a15.247,15.247,0,0,0-.381,1.627,2.962,2.962,0,0,0,.841,2.589,6.476,6.476,0,0,0,3,1.455q1.938.51,1.938,1.338a.619.619,0,0,1-.464.59,3.577,3.577,0,0,1-1.27.182q-1.223,0-2.848-.075T9.329-.065a39.788,39.788,0,0,0-4,.2A36.733,36.733,0,0,1,1.642.325ZM17-18.443h9.509q.929,0,.929-.363a1.408,1.408,0,0,0-.032-.312q-.033-.143-.1-.358L22.505-34.9q-.334-1.02-.529-1.02-.13,0-.481.973L15.843-19.475a1.71,1.71,0,0,0-.13.52.411.411,0,0,0,.358.418A3.8,3.8,0,0,0,17-18.443ZM62.833.91A16.71,16.71,0,0,1,59.747.631Q58.26.352,56.96.008q-1.28-.352-2.258-.63A5.967,5.967,0,0,0,53.324-.9a1.82,1.82,0,0,0-.908.251,4.66,4.66,0,0,0-.823.594,1.2,1.2,0,0,1-.717.363,1.123,1.123,0,0,1-.689-.237.69.69,0,0,1-.315-.562A14.222,14.222,0,0,1,50.146-2.6,16.99,16.99,0,0,0,50.4-5.811l-.094-30.6a5.947,5.947,0,0,0-.713-2.972,3.778,3.778,0,0,0-2.107-1.754,1.98,1.98,0,0,1-.552-.348.809.809,0,0,1-.274-.646.581.581,0,0,1,.241-.511,1.5,1.5,0,0,1,.519-.233,26.245,26.245,0,0,0,2.667-.781q1.613-.548,3.083-1.125l2.112-.828a1.9,1.9,0,0,1,.7-.214.45.45,0,0,1,.363.168.6.6,0,0,1,.14.4q0,.317-.116,1.99t-.116,3.875l-.019,13.532a5.815,5.815,0,0,0,.14,1.544q.14.441.445.488a17.39,17.39,0,0,1,4.51-2.537,12.834,12.834,0,0,1,4.565-.959,10.846,10.846,0,0,1,6.014,1.718,12.348,12.348,0,0,1,4.23,4.658,13.91,13.91,0,0,1,1.569,6.655A16.259,16.259,0,0,1,75.82-6.367,13.548,13.548,0,0,1,70.6-1,15.326,15.326,0,0,1,62.833.91ZM64.2-1.369A5.31,5.31,0,0,0,68.01-2.9a10.018,10.018,0,0,0,2.461-4.122,17.982,17.982,0,0,0,.871-5.75,17.154,17.154,0,0,0-.848-5.218,10.965,10.965,0,0,0-2.642-4.476,6.237,6.237,0,0,0-4.632-1.811,11.056,11.056,0,0,0-3.9.675,9.972,9.972,0,0,0-3.088,1.788V-8.769a6.8,6.8,0,0,0,1.135,3.9,7.6,7.6,0,0,0,2.967,2.59A8.563,8.563,0,0,0,64.2-1.369ZM95,.91A13.364,13.364,0,0,1,88.268-.8,12.808,12.808,0,0,1,83.5-5.512a13.206,13.206,0,0,1-1.77-6.832,14.244,14.244,0,0,1,1.11-5.527,16.084,16.084,0,0,1,3.107-4.811,15.146,15.146,0,0,1,4.663-3.4,13.257,13.257,0,0,1,5.731-1.258A13.381,13.381,0,0,1,103.3-25.5a14.126,14.126,0,0,1,4.932,4.844,12.376,12.376,0,0,1,1.834,6.572,16.367,16.367,0,0,1-1.7,7.338,13.591,13.591,0,0,1-5.03,5.549A15.309,15.309,0,0,1,95,.91ZM96.33-1.36a7.537,7.537,0,0,0,3.4-.741,5.357,5.357,0,0,0,2.353-2.344,10.34,10.34,0,0,0,1.059-3.621,35.2,35.2,0,0,0,.279-4.463,18.079,18.079,0,0,0-1.015-6.117,11.845,11.845,0,0,0-2.836-4.613,5.966,5.966,0,0,0-4.3-1.768,7.222,7.222,0,0,0-2.69.477A5.4,5.4,0,0,0,90.4-22.861,7.975,7.975,0,0,0,88.759-19a30.868,30.868,0,0,0-.4,5.123A17.587,17.587,0,0,0,89.4-7.855a12.611,12.611,0,0,0,2.836,4.685A5.625,5.625,0,0,0,96.33-1.36Zm38.712,2.632q-.494,0-.494-.558a16.987,16.987,0,0,1,.162-1.974,17.342,17.342,0,0,0,.163-2.075q0-.186-.009-.312a.959.959,0,0,0-.028-.191,16.221,16.221,0,0,1-4.885,3.552,13.378,13.378,0,0,1-5.67,1.214,7.179,7.179,0,0,1-3.732-.991A6.959,6.959,0,0,1,117.912-2.9a9.373,9.373,0,0,1-.965-4.4V-20.133a3.971,3.971,0,0,0-.612-2.323,3.992,3.992,0,0,0-2.107-1.364,1.934,1.934,0,0,1-.623-.334.923.923,0,0,1-.279-.762.958.958,0,0,1,.283-.781,1.416,1.416,0,0,1,.692-.3,31.267,31.267,0,0,0,3.959-.423q1.561-.293,3.55-.787a2.254,2.254,0,0,1,.425-.112,2.707,2.707,0,0,1,.4-.028q.772,0,.707.91-.214,1.495-.321,2.5a24.428,24.428,0,0,0-.107,2.5v12.6a5.9,5.9,0,0,0,.686,2.836,5.7,5.7,0,0,0,1.831,2.055,4.341,4.341,0,0,0,2.416.8,14.2,14.2,0,0,0,2.637-.223,5.278,5.278,0,0,0,2.295-1.115,9.172,9.172,0,0,0,1.472-1.577,4.776,4.776,0,0,0,.869-3.016V-20.456a2.777,2.777,0,0,0-.68-2,4.03,4.03,0,0,0-1.636-1.037,5.857,5.857,0,0,0-1.737-.344,2.017,2.017,0,0,1-1.041-.275,1.035,1.035,0,0,1-.4-.944.878.878,0,0,1,.441-.855,2.11,2.11,0,0,1,1-.233q2.467-.122,4.016-.238a24.108,24.108,0,0,0,2.688-.334q1.139-.218,2.328-.525a1.737,1.737,0,0,1,.362-.107,1.95,1.95,0,0,1,.363-.042q.883,0,.883.733a1.513,1.513,0,0,1-.042.313,3.521,3.521,0,0,1-.125.424,8.583,8.583,0,0,0-.162,1.114q-.1.9-.2,1.876t-.1,1.513V-6.382a5.323,5.323,0,0,0,.358,2.323q.357.663.813.663t1.32-.06q.875-.06,1.255-.06a1.411,1.411,0,0,1,.743.2.818.818,0,0,1,.325.763,1.029,1.029,0,0,1-.25.786,1.329,1.329,0,0,1-.735.294A22.693,22.693,0,0,0,140.1-.466q-2.065.706-3.626,1.33l-.68.255A2.163,2.163,0,0,1,135.042,1.273ZM159.489.91A7.185,7.185,0,0,1,154-1.115a8.315,8.315,0,0,1-1.91-5.917V-22.075a.827.827,0,0,0-.409-.776,3.9,3.9,0,0,0-1.653-.256h-.56q-.363,0-.619-.535a2.417,2.417,0,0,1-.256-1.047.782.782,0,0,1,.157-.371.909.909,0,0,1,.279-.306,23.848,23.848,0,0,0,2.721-1.82q1.327-1.023,2.478-2.07t1.886-1.819l.647-.581a.937.937,0,0,1,.647-.237,1.358,1.358,0,0,1,.7.168q.283.168.2.755l-.363,3.245a1.023,1.023,0,0,0,.344,1.023,2.271,2.271,0,0,0,1.234.269h7.523q.222,0,.417.432a2.261,2.261,0,0,1,.195.941,4.319,4.319,0,0,1-.214,1.364q-.214.647-.492.647h-6.3a4.778,4.778,0,0,0-2.085.3q-.515.3-.515,1.466V-8.669a6.919,6.919,0,0,0,1.114,4.217A3.694,3.694,0,0,0,162.3-2.967a9.69,9.69,0,0,0,2.85-.321,8.508,8.508,0,0,0,1.79-.811.53.53,0,0,1,.317-.13.428.428,0,0,1,.4.33,2.044,2.044,0,0,1,.125.731q0,.343-1.176,1.347A13.166,13.166,0,0,1,163.556.046,9.634,9.634,0,0,1,159.489.91Z" transform="translate(104 1052)" fill="url(#linear-gradient)"/>
  </g>
</svg>
