<svg xmlns="http://www.w3.org/2000/svg" xmlns:xlink="http://www.w3.org/1999/xlink" width="258.427" height="72.458" viewBox="0 0 258.427 72.458">
  <defs>
    <linearGradient id="linear-gradient" x1="0.5" x2="0.5" y2="1" gradientUnits="objectBoundingBox">
      <stop offset="0" stop-color="#2e4177"/>
      <stop offset="1" stop-color="#00aec7"/>
    </linearGradient>
  </defs>
  <g id="グループ_3517" data-name="グループ 3517" transform="translate(-1201.573 -1248.542)">
    <path id="パス_7329" data-name="パス 7329" d="M-256.413.5a5.022,5.022,0,0,1-2.028-.35,1.135,1.135,0,0,1-.786-1.066,1.532,1.532,0,0,1,.792-1.309,8.989,8.989,0,0,1,2.189-.963,15.421,15.421,0,0,0,4.9-2.429,11.831,11.831,0,0,0,3.613-4.893q2.683-6.139,4.99-11.681t4.407-10.928q2.1-5.386,4.291-11.12t4.548-12.227q.847-2.328,1.247-3.887a24.309,24.309,0,0,0,.558-2.725q1.22-.358,2.352-.7a15.09,15.09,0,0,0,2.38-.972,4.576,4.576,0,0,0,1.859-1.786,11.986,11.986,0,0,1,1.084-1.644.966.966,0,0,1,.454-.187q.237-.029.424.345a5.858,5.858,0,0,1,.437,1.1q.179.614.379,1.273,2.284,7.309,4.754,14.862t4.847,14.757q2.377,7.2,4.485,13.359t3.6,10.741a16.491,16.491,0,0,0,2.608,5.086,9.438,9.438,0,0,0,3.176,2.6,17.793,17.793,0,0,0,3.707,1.273,5.5,5.5,0,0,1,2.224.877,1.685,1.685,0,0,1,.757,1.365.92.92,0,0,1-.728.886,5.744,5.744,0,0,1-1.883.258q-1.6,0-4.191-.135t-5.39-.271q-2.8-.136-5.1-.136-1.928,0-4.189.03t-4.338.109q-2.077.079-3.568.079a4.813,4.813,0,0,1-1.911-.329,1.046,1.046,0,0,1-.756-.959,1.485,1.485,0,0,1,.9-1.273,6.247,6.247,0,0,1,2.083-.715A10.93,10.93,0,0,0-212.28-5,3.378,3.378,0,0,0-211-8.209a30.065,30.065,0,0,0-.766-4.22q-.621-2.574-1.405-5.447t-1.5-5.2a1.465,1.465,0,0,0-.677-1.037,4.243,4.243,0,0,0-1.7-.237H-235.51a1.369,1.369,0,0,0-.938.379,3.317,3.317,0,0,0-.762,1.391q-.33,1.145-.957,3.034t-1.241,3.941q-.613,2.052-1.084,3.763a23.457,23.457,0,0,0-.587,2.5,4.556,4.556,0,0,0,1.294,3.983,9.963,9.963,0,0,0,4.622,2.239q2.981.784,2.981,2.058a.952.952,0,0,1-.713.908,5.5,5.5,0,0,1-1.954.28q-1.881,0-4.381-.115T-244.588-.1a61.212,61.212,0,0,0-6.152.3A56.512,56.512,0,0,1-256.413.5Zm23.631-28.873h14.63q1.43,0,1.43-.558a2.166,2.166,0,0,0-.05-.48q-.05-.22-.15-.55l-7.394-23.733q-.514-1.569-.814-1.569-.2,0-.741,1.5l-8.7,23.8a2.63,2.63,0,0,0-.2.8.632.632,0,0,0,.55.644A5.842,5.842,0,0,0-232.782-28.373ZM-162.274,1.4a25.708,25.708,0,0,1-4.748-.429q-2.287-.429-4.287-.959-1.969-.542-3.473-.97a9.18,9.18,0,0,0-2.12-.427A2.8,2.8,0,0,0-178.3-1a7.17,7.17,0,0,0-1.266.914,1.851,1.851,0,0,1-1.1.558,1.728,1.728,0,0,1-1.06-.364,1.061,1.061,0,0,1-.485-.864A21.88,21.88,0,0,1-181.792-4a26.138,26.138,0,0,0,.393-4.941l-.145-47.08a9.15,9.15,0,0,0-1.1-4.572,5.812,5.812,0,0,0-3.242-2.7,3.046,3.046,0,0,1-.849-.536,1.245,1.245,0,0,1-.421-.994.894.894,0,0,1,.371-.787,2.3,2.3,0,0,1,.8-.359,40.374,40.374,0,0,0,4.1-1.2q2.482-.843,4.743-1.73t3.25-1.273a2.915,2.915,0,0,1,1.075-.33.693.693,0,0,1,.559.258.931.931,0,0,1,.215.616q0,.488-.179,3.061T-172.4-60.6l-.03,20.819a8.946,8.946,0,0,0,.215,2.376q.215.679.685.751a26.753,26.753,0,0,1,6.939-3.9,19.745,19.745,0,0,1,7.023-1.476,16.686,16.686,0,0,1,9.252,2.643,19,19,0,0,1,6.508,7.166,21.4,21.4,0,0,1,2.414,10.238,25.013,25.013,0,0,1-2.9,12.2,20.844,20.844,0,0,1-8.025,8.252A23.579,23.579,0,0,1-162.274,1.4Zm2.1-3.506a8.169,8.169,0,0,0,5.869-2.35,15.413,15.413,0,0,0,3.786-6.342,27.665,27.665,0,0,0,1.341-8.847,26.39,26.39,0,0,0-1.3-8.028,16.869,16.869,0,0,0-4.065-6.886,9.6,9.6,0,0,0-7.126-2.786,17.01,17.01,0,0,0-6,1.039,15.342,15.342,0,0,0-4.751,2.75v20.066a10.459,10.459,0,0,0,1.747,6,11.7,11.7,0,0,0,4.564,3.985A13.174,13.174,0,0,0-160.177-2.106Zm47.4,3.506a20.561,20.561,0,0,1-10.361-2.629A19.7,19.7,0,0,1-130.48-8.48a20.317,20.317,0,0,1-2.723-10.51,21.913,21.913,0,0,1,1.708-8.5,24.744,24.744,0,0,1,4.78-7.4,23.3,23.3,0,0,1,7.174-5.236,20.4,20.4,0,0,1,8.817-1.936,20.586,20.586,0,0,1,10.712,2.829,21.733,21.733,0,0,1,7.588,7.452A19.04,19.04,0,0,1-89.6-21.677a25.181,25.181,0,0,1-2.608,11.29A20.91,20.91,0,0,1-99.948-1.85Q-105.078,1.4-112.781,1.4Zm2.042-3.492a11.6,11.6,0,0,0,5.23-1.141,8.241,8.241,0,0,0,3.62-3.606,15.908,15.908,0,0,0,1.629-5.571,54.158,54.158,0,0,0,.429-6.866,27.814,27.814,0,0,0-1.561-9.41,18.224,18.224,0,0,0-4.363-7.1,9.178,9.178,0,0,0-6.61-2.72,11.11,11.11,0,0,0-4.139.734,8.311,8.311,0,0,0-3.355,2.6,12.27,12.27,0,0,0-2.528,5.941A47.488,47.488,0,0,0-123-21.348a27.058,27.058,0,0,0,1.6,9.263,19.4,19.4,0,0,0,4.363,7.207A8.653,8.653,0,0,0-110.739-2.092Zm59.557,4.05q-.759,0-.759-.858a26.131,26.131,0,0,1,.25-3.037,26.681,26.681,0,0,0,.25-3.193q0-.286-.014-.48A1.476,1.476,0,0,0-51.5-5.9,24.956,24.956,0,0,1-59.015-.438,20.582,20.582,0,0,1-67.738,1.43,11.045,11.045,0,0,1-73.48-.095a10.706,10.706,0,0,1-4.056-4.362,14.421,14.421,0,0,1-1.485-6.768V-30.973a6.108,6.108,0,0,0-.942-3.573,6.141,6.141,0,0,0-3.242-2.1,2.976,2.976,0,0,1-.959-.514,1.42,1.42,0,0,1-.429-1.172,1.473,1.473,0,0,1,.436-1.2,2.178,2.178,0,0,1,1.064-.459A48.1,48.1,0,0,0-77-40.641q2.4-.451,5.462-1.21a3.467,3.467,0,0,1,.653-.172,4.165,4.165,0,0,1,.611-.044q1.187,0,1.088,1.4-.33,2.3-.494,3.85a37.584,37.584,0,0,0-.164,3.85v19.384A9.071,9.071,0,0,0-68.791-9.22a8.776,8.776,0,0,0,2.816,3.162,6.678,6.678,0,0,0,3.716,1.227A21.841,21.841,0,0,0-58.2-5.174a8.12,8.12,0,0,0,3.53-1.715,14.11,14.11,0,0,0,2.264-2.426,7.348,7.348,0,0,0,1.338-4.64V-31.47a4.273,4.273,0,0,0-1.047-3.078,6.2,6.2,0,0,0-2.516-1.6,9.01,9.01,0,0,0-2.673-.53,3.1,3.1,0,0,1-1.6-.423,1.592,1.592,0,0,1-.614-1.452,1.351,1.351,0,0,1,.679-1.316,3.245,3.245,0,0,1,1.537-.358q3.8-.187,6.179-.366a37.088,37.088,0,0,0,4.135-.514q1.752-.335,3.581-.807a2.672,2.672,0,0,1,.557-.164,3,3,0,0,1,.559-.064q1.358,0,1.358,1.128a2.329,2.329,0,0,1-.065.481,5.422,5.422,0,0,1-.193.652,13.208,13.208,0,0,0-.25,1.714q-.15,1.386-.3,2.886t-.15,2.328v23.13a8.189,8.189,0,0,0,.55,3.574q.55,1.02,1.25,1.02.684,0,2.031-.092t1.931-.092a2.171,2.171,0,0,1,1.144.3,1.258,1.258,0,0,1,.5,1.173,1.583,1.583,0,0,1-.385,1.209A2.045,2.045,0,0,1-36-2.273,34.912,34.912,0,0,0-43.4-.716Q-46.577.37-48.979,1.33l-1.046.393A3.327,3.327,0,0,1-51.182,1.958Zm37.61-.558q-5.509,0-8.448-3.116t-2.938-9.1V-33.961a1.272,1.272,0,0,0-.629-1.194,6,6,0,0,0-2.543-.394h-.861q-.558,0-.952-.823a3.718,3.718,0,0,1-.394-1.611,1.2,1.2,0,0,1,.242-.571,1.4,1.4,0,0,1,.43-.471,36.688,36.688,0,0,0,4.187-2.8q2.041-1.573,3.812-3.184t2.9-2.8q.588-.53,1-.894a1.441,1.441,0,0,1,1-.364,2.089,2.089,0,0,1,1.08.258q.435.258.307,1.161l-.558,4.992a1.574,1.574,0,0,0,.529,1.573,3.494,3.494,0,0,0,1.9.414H-1.943q.342,0,.642.665A3.478,3.478,0,0,1-1-38.555a6.645,6.645,0,0,1-.329,2.1q-.329,1-.757,1h-9.7A7.351,7.351,0,0,0-14.99-35q-.793.458-.793,2.255v19.411a10.645,10.645,0,0,0,1.714,6.488A5.682,5.682,0,0,0-9.243-4.564a14.908,14.908,0,0,0,4.385-.494A13.089,13.089,0,0,0-2.1-6.306a.816.816,0,0,1,.488-.2A.659.659,0,0,1-.993-6,3.144,3.144,0,0,1-.8-4.873Q-.8-4.345-2.61-2.8A20.256,20.256,0,0,1-7.315.071,14.822,14.822,0,0,1-13.572,1.4Z" transform="translate(1460.801 1319.042)" fill="url(#linear-gradient)"/>
  </g>
</svg>
