<svg xmlns="http://www.w3.org/2000/svg" xmlns:xlink="http://www.w3.org/1999/xlink" width="339.89" height="72.6" viewBox="0 0 339.89 72.6">
  <defs>
    <linearGradient id="linear-gradient" x1="0.5" x2="0.5" y2="1" gradientUnits="objectBoundingBox">
      <stop offset="0" stop-color="#2e4177"/>
      <stop offset="1" stop-color="#00aec7"/>
    </linearGradient>
  </defs>
  <g id="グループ_3522" data-name="グループ 3522" transform="translate(-788.713 -4026.5)">
    <path id="パス_7336" data-name="パス 7336" d="M2.527.5A5.022,5.022,0,0,1,.5.15,1.135,1.135,0,0,1-.287-.916,1.532,1.532,0,0,1,.5-2.224a8.99,8.99,0,0,1,2.189-.963A15.421,15.421,0,0,0,7.6-5.616a11.831,11.831,0,0,0,3.612-4.893q2.683-6.139,4.99-11.681T20.6-33.119Q22.7-38.5,24.9-44.238t4.548-12.227q.847-2.328,1.247-3.887a24.308,24.308,0,0,0,.558-2.725q1.22-.358,2.352-.7a15.09,15.09,0,0,0,2.38-.972,4.576,4.576,0,0,0,1.859-1.786,11.986,11.986,0,0,1,1.084-1.644.966.966,0,0,1,.454-.187q.237-.029.424.345a5.858,5.858,0,0,1,.437,1.1q.179.614.379,1.273,2.284,7.309,4.754,14.862T50.218-36.03Q52.6-28.825,54.7-22.67T58.3-11.93a16.491,16.491,0,0,0,2.608,5.086,9.438,9.438,0,0,0,3.176,2.6,17.793,17.793,0,0,0,3.707,1.273,5.5,5.5,0,0,1,2.224.877,1.685,1.685,0,0,1,.757,1.365.92.92,0,0,1-.728.886,5.744,5.744,0,0,1-1.883.258q-1.6,0-4.191-.135T58.581.006q-2.8-.136-5.1-.136-1.928,0-4.189.03T44.952.009q-2.077.079-3.568.079a4.813,4.813,0,0,1-1.911-.329,1.046,1.046,0,0,1-.756-.959,1.485,1.485,0,0,1,.9-1.273A6.247,6.247,0,0,1,41.7-3.187,10.93,10.93,0,0,0,46.659-5a3.378,3.378,0,0,0,1.284-3.207,30.064,30.064,0,0,0-.766-4.22Q46.556-15,45.772-17.876t-1.5-5.2a1.465,1.465,0,0,0-.677-1.037,4.243,4.243,0,0,0-1.7-.237H23.43a1.369,1.369,0,0,0-.938.379,3.317,3.317,0,0,0-.762,1.391q-.33,1.145-.957,3.034T19.532-15.6q-.613,2.052-1.084,3.763a23.457,23.457,0,0,0-.587,2.5,4.556,4.556,0,0,0,1.294,3.983,9.963,9.963,0,0,0,4.622,2.239q2.981.784,2.981,2.058a.952.952,0,0,1-.713.908,5.5,5.5,0,0,1-1.954.28q-1.881,0-4.381-.115T14.352-.1A61.212,61.212,0,0,0,8.2.2,56.512,56.512,0,0,1,2.527.5ZM26.158-28.373h14.63q1.43,0,1.43-.558a2.167,2.167,0,0,0-.05-.48q-.05-.22-.15-.55L34.623-53.694q-.514-1.569-.814-1.569-.2,0-.741,1.5l-8.7,23.8a2.63,2.63,0,0,0-.2.8.632.632,0,0,0,.55.644A5.842,5.842,0,0,0,26.158-28.373ZM74.825.3A3.072,3.072,0,0,1,73.369.006a.977.977,0,0,1-.544-.922,1.16,1.16,0,0,1,.615-1.123,8.91,8.91,0,0,1,1.685-.623,6.461,6.461,0,0,0,2.893-1.45,3.207,3.207,0,0,0,.877-2.35V-28.483a11.41,11.41,0,0,0-.713-4.265A3.827,3.827,0,0,0,75.2-35.016a1.69,1.69,0,0,1-.772-.515,1.389,1.389,0,0,1-.344-.96A1.242,1.242,0,0,1,75.1-37.864a42.721,42.721,0,0,0,6-2.263q3.2-1.463,5.2-2.579a8.685,8.685,0,0,1,1.052-.593,1.952,1.952,0,0,1,.738-.223q.645,0,.645.845,0,.358-.05,1.673t-.115,2.93q-.065,1.615-.135,3.041,0,.431.258.431a24.362,24.362,0,0,1,3.549-3.7,19.636,19.636,0,0,1,4.145-2.719,9.715,9.715,0,0,1,4.24-1.045,6.494,6.494,0,0,1,3.958,1.045,3.209,3.209,0,0,1,1.394,2.677,6.274,6.274,0,0,1-.652,2.592,8.42,8.42,0,0,1-1.7,2.462,3.12,3.12,0,0,1-2.219,1.045,4.068,4.068,0,0,1-1.517-.323q-.8-.323-1.689-.752-.858-.358-1.716-.7a4.447,4.447,0,0,0-1.658-.344,7,7,0,0,0-4.577,1.773q-2.12,1.773-2.12,7.005V-6.78a2.8,2.8,0,0,0,1.342,2.455,15.625,15.625,0,0,0,3.928,1.694,7.2,7.2,0,0,1,1.686.643,1.155,1.155,0,0,1,.586,1.073Q95.684.3,93.8.3A45.279,45.279,0,0,1,88.655.05,41.194,41.194,0,0,0,83.911-.2q-1.7,0-3,.1T78.221.15A32.506,32.506,0,0,1,74.825.3Zm52.41,1.17A16.718,16.718,0,0,1,118-1.18a18.683,18.683,0,0,1-6.516-7.246,21.953,21.953,0,0,1-2.394-10.3A23.958,23.958,0,0,1,111.994-30.5a22.991,22.991,0,0,1,7.8-8.406,19.649,19.649,0,0,1,10.833-3.135,18.584,18.584,0,0,1,12.183,4.167A2.558,2.558,0,0,1,143.888-36a3.25,3.25,0,0,1-.758,1.786,7.7,7.7,0,0,1-1.8,1.78,3.407,3.407,0,0,1-1.914.737,2.2,2.2,0,0,1-1.261-.423q-.616-.423-1.273-.91a34.03,34.03,0,0,0-5.031-3.33,10.017,10.017,0,0,0-4.544-1.456,8.174,8.174,0,0,0-7.152,4.057q-2.659,4.057-2.659,11.37a18.647,18.647,0,0,0,1.862,8.471,14.43,14.43,0,0,0,5.123,5.812,13.436,13.436,0,0,0,7.432,2.1,12.274,12.274,0,0,0,5.073-.965,17.424,17.424,0,0,0,4.543-3.19,3.843,3.843,0,0,1,.616-.452,1.226,1.226,0,0,1,.616-.194q1.128,0,1.128,1.458a3.709,3.709,0,0,1-.277,1.277,7.994,7.994,0,0,1-.962,1.707,17.6,17.6,0,0,1-3.684,3.827A19.175,19.175,0,0,1,133.7.379,18.5,18.5,0,0,1,127.235,1.47ZM150.36.3q-2,0-2-1.216,0-1.016,2.3-1.745a15.529,15.529,0,0,0,2.778-1.227,3.051,3.051,0,0,0,1.348-2.785V-56.02a12.512,12.512,0,0,0-.827-4.735,4.074,4.074,0,0,0-3.4-2.465q-.958-.2-.958-1.458a1.2,1.2,0,0,1,.858-1.287q1.719-.5,4.031-1.23t4.659-1.582q2.347-.852,3.917-1.492a2.383,2.383,0,0,1,.833-.23.73.73,0,0,1,.616.258.975.975,0,0,1,.2.616,8.942,8.942,0,0,1-.206,1.614,30.7,30.7,0,0,0-.377,3.263q-.171,2.221-.2,6.346v19.43a12.445,12.445,0,0,0,.136,2.126,3.409,3.409,0,0,0,.506,1.284q1.572-1.228,3.834-2.722a27.816,27.816,0,0,1,5.12-2.623,16.294,16.294,0,0,1,6.043-1.129A10.79,10.79,0,0,1,188-38.216a14.507,14.507,0,0,1,3.38,9.982V-6.945A3.327,3.327,0,0,0,192.6-4.038a10.321,10.321,0,0,0,2.7,1.377,6.816,6.816,0,0,1,1.656.709,1.176,1.176,0,0,1,.586,1.037Q197.546.3,195.488.3a28.881,28.881,0,0,1-3.355-.15q-1.209-.15-2.3-.25t-3.011-.1q-1.875,0-2.947.1t-2.209.25a26.959,26.959,0,0,1-3.283.15q-2.144,0-2.144-1.245A1.1,1.1,0,0,1,176.849-2a11.96,11.96,0,0,1,1.6-.665,8.384,8.384,0,0,0,2.6-1.377A3.541,3.541,0,0,0,182.2-7V-27.17a7.8,7.8,0,0,0-1.262-4.333,9.8,9.8,0,0,0-3.13-3.091,7.357,7.357,0,0,0-3.893-1.142,17.582,17.582,0,0,0-4.009.535,9.886,9.886,0,0,0-3.741,1.665,5.345,5.345,0,0,0-1.758,2.207,11.2,11.2,0,0,0-.448,3.716V-6.731a3.317,3.317,0,0,0,1.163,2.77,10.122,10.122,0,0,0,2.534,1.27A5.549,5.549,0,0,1,169.236-2,1.222,1.222,0,0,1,169.8-.945Q169.8.3,167.888.3a28.67,28.67,0,0,1-3.262-.15Q163.365,0,162.219-.1t-2.946-.1q-1.7,0-2.953.1t-2.606.25A31.248,31.248,0,0,1,150.36.3Zm53.453,0a2.787,2.787,0,0,1-1.35-.3.967.967,0,0,1-.55-.9,1.206,1.206,0,0,1,.65-1.15,6.236,6.236,0,0,1,1.45-.55,12.479,12.479,0,0,0,3.4-1.3,2.73,2.73,0,0,0,1.1-2.5V-28a10.186,10.186,0,0,0-1-4.85,4.5,4.5,0,0,0-3.5-2.25,1.156,1.156,0,0,1-.75-.45,1.807,1.807,0,0,1-.25-1.05q0-1.2.9-1.3a31.178,31.178,0,0,0,7.55-2.65q3.15-1.65,4.75-2.65a3.646,3.646,0,0,1,1.6-.7.707.707,0,0,1,.8.8q0,1.1-.25,3.5t-.5,5.2q-.25,2.8-.25,5.2V-6.4a2.775,2.775,0,0,0,1.1,2.4,10.408,10.408,0,0,0,3.4,1.4,6.235,6.235,0,0,1,1.45.55,1.206,1.206,0,0,1,.65,1.15q0,1.2-1.8,1.2-1.9,0-3.4-.15t-2.85-.25q-1.35-.1-3.15-.1-1.7,0-3.1.1t-2.75.25A31.158,31.158,0,0,1,203.814.3Zm9-51.1a5.786,5.786,0,0,1-4.25-1.75,5.786,5.786,0,0,1-1.75-4.25,5.905,5.905,0,0,1,1.75-4.35,5.786,5.786,0,0,1,4.25-1.75,6.074,6.074,0,0,1,4.4,1.75,5.821,5.821,0,0,1,1.8,4.35,5.706,5.706,0,0,1-1.8,4.25A6.074,6.074,0,0,1,212.814-50.8Zm35.4,52.9q-.487,0-1.1-1.463T246.092-1.9q-.73-1.728-1.445-3.723t-1.373-3.683q-2.317-6.083-4.91-11.9t-5.08-11.834a11.356,11.356,0,0,0-2.136-3.424,6.592,6.592,0,0,0-2.964-1.965,5.87,5.87,0,0,1-1.329-.673,1.272,1.272,0,0,1-.471-1.1q0-.658.794-.822a6.851,6.851,0,0,1,1.352-.164q2.145,0,3.2.114t2.1.264a21.5,21.5,0,0,0,2.89.15,25.078,25.078,0,0,0,3.077-.15q1.161-.15,2.437-.264t3.321-.114A5.694,5.694,0,0,1,246.9-41q.779.193.779.851a1.2,1.2,0,0,1-.7,1.13,13.873,13.873,0,0,1-1.57.7,2.9,2.9,0,0,0-1.573,1.521,5.981,5.981,0,0,0-.544,2.637q0,.758.071,1.487a5.151,5.151,0,0,0,.329,1.387l7.466,19.406a.313.313,0,0,0,.15.07.313.313,0,0,0,.15-.07l7.02-18.2a9.728,9.728,0,0,0,.541-1.977,11.253,11.253,0,0,0,.171-1.8,5.291,5.291,0,0,0-.658-2.908,4.1,4.1,0,0,0-2.145-1.523,13.7,13.7,0,0,1-1.712-.757,1.13,1.13,0,0,1-.558-1.073.833.833,0,0,1,.708-.852,5.313,5.313,0,0,1,1.408-.194q1.652.03,3.291.221a33.837,33.837,0,0,0,3.863.191,21.049,21.049,0,0,0,3.3-.191,19.966,19.966,0,0,1,2.945-.221A6.236,6.236,0,0,1,271.09-41a.786.786,0,0,1,.688.823q0,1.216-2.155,1.916a7.992,7.992,0,0,0-3.33,2.286,14.116,14.116,0,0,0-2.755,4.241l-7.8,19.089q-.23.517-.772,1.864t-1.155,2.907q-.613,1.56-1.084,2.765t-.587,1.436q-.117.261-.618,1.429T250.45.173A13.655,13.655,0,0,1,249.42,2.1Zm42.1-.63a17.017,17.017,0,0,1-9.63-2.758A18.593,18.593,0,0,1,274.164-9a26.123,26.123,0,0,1-2.358-11.363,21.8,21.8,0,0,1,2.752-10.869,21.965,21.965,0,0,1,7.355-7.853A18.3,18.3,0,0,1,292-42.037a15.485,15.485,0,0,1,7.3,1.687,13,13,0,0,1,5.067,4.623A12.339,12.339,0,0,1,306.227-29q0,3.333-3.028,3.333H282.475a2.33,2.33,0,0,0-1.979.764,5.059,5.059,0,0,0-.579,2.877,16.948,16.948,0,0,0,1.955,8.113A15.6,15.6,0,0,0,287.124-8.1a13.126,13.126,0,0,0,7.352,2.161A12.737,12.737,0,0,0,299.9-7.07a15.436,15.436,0,0,0,4.525-3.248,3.911,3.911,0,0,1,.628-.593.959.959,0,0,1,.558-.179q.888,0,.888,1.088a7.061,7.061,0,0,1-1.452,3.764,15.614,15.614,0,0,1-3.513,3.9A17.222,17.222,0,0,1,296.481.445,18.176,18.176,0,0,1,290.31,1.47Zm-7.692-30.619h8q2.544,0,4.027-.1a19.4,19.4,0,0,0,2.852-.4,1.008,1.008,0,0,0,.693-.78,5.93,5.93,0,0,0,.193-1.652,5.987,5.987,0,0,0-2.289-4.747,8.28,8.28,0,0,0-5.528-1.934,8.336,8.336,0,0,0-4.353,1.292,11.669,11.669,0,0,0-3.524,3.234,6.573,6.573,0,0,0-1.355,3.942Q281.33-29.148,282.617-29.148ZM324.179,1.4a19.905,19.905,0,0,1-6.018-.892,14.917,14.917,0,0,1-4.963-2.62,12.227,12.227,0,0,1-.937-4.062q-.294-2.817-.336-5.156,0-1.016,1.531-1.016a1.782,1.782,0,0,1,.983.28,1.27,1.27,0,0,1,.566.71,15.56,15.56,0,0,0,4.223,7.043,8.691,8.691,0,0,0,5.852,2.4,6.217,6.217,0,0,0,4.63-1.848,6.127,6.127,0,0,0,1.818-4.458,6.18,6.18,0,0,0-1.887-4.549,30.819,30.819,0,0,0-5.807-4.213,41.968,41.968,0,0,1-5.5-3.782,13.944,13.944,0,0,1-3.47-4.117,10.776,10.776,0,0,1-1.2-5.168,11.241,11.241,0,0,1,1.717-6.163,11.854,11.854,0,0,1,4.949-4.28,17.46,17.46,0,0,1,7.732-1.579,19.949,19.949,0,0,1,5.391.644,11.97,11.97,0,0,1,3.305,1.344,9.393,9.393,0,0,1,1.32,3.566,24.575,24.575,0,0,1,.52,5.03q0,.816-1.289.816a2.606,2.606,0,0,1-1.252-.337,1.8,1.8,0,0,1-.822-.765,13.484,13.484,0,0,0-3.28-5.326,6.748,6.748,0,0,0-4.734-1.823,6.826,6.826,0,0,0-4.3,1.471,5,5,0,0,0-1.892,4.2,5.7,5.7,0,0,0,1.624,3.97,21.951,21.951,0,0,0,5.248,3.8,37.924,37.924,0,0,1,8.866,6.28,10.86,10.86,0,0,1,2.835,7.854,11.485,11.485,0,0,1-4.158,9.265Q331.287,1.4,324.179,1.4Z" transform="translate(789 4097)" opacity="0.998" fill="url(#linear-gradient)"/>
  </g>
</svg>
