<svg xmlns="http://www.w3.org/2000/svg" xmlns:xlink="http://www.w3.org/1999/xlink" width="220.928" height="47.19" viewBox="0 0 220.928 47.19">
  <defs>
    <linearGradient id="linear-gradient" x1="0.5" x2="0.5" y2="1" gradientUnits="objectBoundingBox">
      <stop offset="0" stop-color="#2e4177"/>
      <stop offset="1" stop-color="#00aec7"/>
    </linearGradient>
  </defs>
  <g id="グループ_3581" data-name="グループ 3581" transform="translate(-75.813 -3013.175)">
    <path id="パス_7368" data-name="パス 7368" d="M1.642.325A3.264,3.264,0,0,1,.324.1.737.737,0,0,1-.187-.6a1,1,0,0,1,.515-.851,5.843,5.843,0,0,1,1.423-.626A10.024,10.024,0,0,0,4.937-3.651a7.69,7.69,0,0,0,2.348-3.18q1.744-3.99,3.243-7.593t2.865-7.1q1.365-3.5,2.789-7.228T19.138-36.7q.55-1.513.81-2.527A15.8,15.8,0,0,0,20.311-41q.793-.233,1.529-.456a9.808,9.808,0,0,0,1.547-.632A2.974,2.974,0,0,0,24.6-43.249a7.791,7.791,0,0,1,.7-1.068.628.628,0,0,1,.3-.121q.154-.019.276.224a3.808,3.808,0,0,1,.284.716q.116.4.246.828,1.485,4.751,3.09,9.66t3.15,9.592q1.545,4.683,2.915,8.684T37.9-7.754a10.719,10.719,0,0,0,1.7,3.306A6.135,6.135,0,0,0,41.655-2.76a11.565,11.565,0,0,0,2.41.827,3.577,3.577,0,0,1,1.446.57A1.1,1.1,0,0,1,46-.475.6.6,0,0,1,45.529.1a3.733,3.733,0,0,1-1.224.168q-1.042,0-2.724-.088T38.078,0q-1.821-.088-3.316-.088-1.253,0-2.723.019t-2.82.071Q27.869.057,26.9.057a3.128,3.128,0,0,1-1.242-.214.68.68,0,0,1-.492-.623.965.965,0,0,1,.584-.827A4.06,4.06,0,0,1,27.1-2.072a7.1,7.1,0,0,0,3.225-1.18,2.2,2.2,0,0,0,.835-2.085,19.542,19.542,0,0,0-.5-2.743q-.4-1.673-.914-3.54T28.779-15a.952.952,0,0,0-.44-.674,2.758,2.758,0,0,0-1.108-.154h-12a.89.89,0,0,0-.61.246,2.156,2.156,0,0,0-.5.9q-.214.744-.622,1.972T12.7-10.142q-.4,1.334-.7,2.446a15.247,15.247,0,0,0-.381,1.627,2.962,2.962,0,0,0,.841,2.589,6.476,6.476,0,0,0,3,1.455q1.938.51,1.938,1.338a.619.619,0,0,1-.464.59,3.577,3.577,0,0,1-1.27.182q-1.223,0-2.848-.075T9.329-.065a39.788,39.788,0,0,0-4,.2A36.733,36.733,0,0,1,1.642.325ZM17-18.443h9.509q.929,0,.929-.363a1.408,1.408,0,0,0-.032-.312q-.033-.143-.1-.358L22.505-34.9q-.334-1.02-.529-1.02-.13,0-.481.973L15.843-19.475a1.71,1.71,0,0,0-.13.52.411.411,0,0,0,.358.418A3.8,3.8,0,0,0,17-18.443ZM48.636.2A2,2,0,0,1,47.69,0a.635.635,0,0,1-.353-.6.754.754,0,0,1,.4-.73,5.791,5.791,0,0,1,1.1-.4,4.2,4.2,0,0,0,1.88-.942,2.085,2.085,0,0,0,.57-1.528V-18.514a7.416,7.416,0,0,0-.463-2.772,2.487,2.487,0,0,0-1.938-1.474,1.1,1.1,0,0,1-.5-.335.9.9,0,0,1-.223-.624.807.807,0,0,1,.66-.893,27.768,27.768,0,0,0,3.9-1.471q2.079-.951,3.382-1.676a5.646,5.646,0,0,1,.684-.385,1.269,1.269,0,0,1,.48-.145q.419,0,.419.549,0,.233-.033,1.088t-.075,1.9q-.042,1.05-.088,1.977,0,.28.168.28A15.835,15.835,0,0,1,59.962-24.9a12.763,12.763,0,0,1,2.694-1.767,6.315,6.315,0,0,1,2.756-.679,4.221,4.221,0,0,1,2.573.679,2.086,2.086,0,0,1,.906,1.74,4.078,4.078,0,0,1-.424,1.685,5.473,5.473,0,0,1-1.1,1.6,2.028,2.028,0,0,1-1.442.679,2.644,2.644,0,0,1-.986-.21q-.521-.21-1.1-.489-.558-.233-1.115-.456a2.89,2.89,0,0,0-1.078-.223,4.551,4.551,0,0,0-2.975,1.152q-1.378,1.152-1.378,4.554V-4.407a1.82,1.82,0,0,0,.872,1.6,10.157,10.157,0,0,0,2.553,1.1,4.678,4.678,0,0,1,1.1.418.75.75,0,0,1,.381.7q0,.79-1.225.79A29.431,29.431,0,0,1,57.626.033,26.776,26.776,0,0,0,54.542-.13q-1.105,0-1.948.065T50.844.1A21.129,21.129,0,0,1,48.636.2ZM82.7.956a10.867,10.867,0,0,1-6-1.723,12.144,12.144,0,0,1-4.236-4.71,14.27,14.27,0,0,1-1.556-6.694,15.573,15.573,0,0,1,1.89-7.651,14.944,14.944,0,0,1,5.067-5.464A12.772,12.772,0,0,1,84.9-27.324a12.079,12.079,0,0,1,7.919,2.709,1.662,1.662,0,0,1,.7,1.216,2.113,2.113,0,0,1-.493,1.161,5.006,5.006,0,0,1-1.171,1.157,2.215,2.215,0,0,1-1.244.479,1.433,1.433,0,0,1-.82-.275q-.4-.275-.828-.592a22.119,22.119,0,0,0-3.27-2.164,6.511,6.511,0,0,0-2.953-.947A5.313,5.313,0,0,0,78.1-21.943a13.422,13.422,0,0,0-1.728,7.39,12.121,12.121,0,0,0,1.21,5.506,9.379,9.379,0,0,0,3.33,3.778,8.733,8.733,0,0,0,4.831,1.364,7.978,7.978,0,0,0,3.3-.627,11.326,11.326,0,0,0,2.953-2.073,2.5,2.5,0,0,1,.4-.294.8.8,0,0,1,.4-.126q.733,0,.733.948a2.411,2.411,0,0,1-.18.83,5.2,5.2,0,0,1-.625,1.11A11.439,11.439,0,0,1,90.328-1.65,12.464,12.464,0,0,1,86.9.246,12.028,12.028,0,0,1,82.7.956ZM97.734.2q-1.3,0-1.3-.79,0-.66,1.5-1.134a10.094,10.094,0,0,0,1.806-.8,1.983,1.983,0,0,0,.876-1.81V-36.413a8.133,8.133,0,0,0-.538-3.078,2.648,2.648,0,0,0-2.209-1.6q-.623-.13-.623-.948a.781.781,0,0,1,.558-.837q1.117-.325,2.62-.8t3.029-1.028q1.525-.554,2.546-.97a1.549,1.549,0,0,1,.541-.149.475.475,0,0,1,.4.168.633.633,0,0,1,.13.4,5.812,5.812,0,0,1-.134,1.049,19.954,19.954,0,0,0-.245,2.121q-.111,1.444-.131,4.125v12.629a8.089,8.089,0,0,0,.088,1.382,2.216,2.216,0,0,0,.329.834q1.022-.8,2.492-1.769a18.08,18.08,0,0,1,3.328-1.7,10.591,10.591,0,0,1,3.928-.734,7.013,7.013,0,0,1,5.477,2.484,9.43,9.43,0,0,1,2.2,6.488V-4.514a2.162,2.162,0,0,0,.8,1.89,6.709,6.709,0,0,0,1.754.9,4.431,4.431,0,0,1,1.077.461.764.764,0,0,1,.381.674q0,.79-1.338.79a18.773,18.773,0,0,1-2.181-.1q-.786-.1-1.5-.163T121.432-.13q-1.219,0-1.915.065T118.08.1a17.523,17.523,0,0,1-2.134.1q-1.393,0-1.393-.809a.715.715,0,0,1,.4-.683,7.774,7.774,0,0,1,1.039-.432,5.45,5.45,0,0,0,1.689-.9,2.3,2.3,0,0,0,.752-1.927V-17.661a5.072,5.072,0,0,0-.82-2.816,6.37,6.37,0,0,0-2.034-2.009,4.782,4.782,0,0,0-2.53-.742,11.428,11.428,0,0,0-2.606.348,6.426,6.426,0,0,0-2.432,1.082,3.474,3.474,0,0,0-1.143,1.435,7.281,7.281,0,0,0-.291,2.416V-4.375a2.156,2.156,0,0,0,.756,1.8,6.58,6.58,0,0,0,1.647.826A3.607,3.607,0,0,1,110-1.3a.794.794,0,0,1,.367.684q0,.809-1.243.809a18.635,18.635,0,0,1-2.12-.1q-.82-.1-1.565-.163T103.527-.13q-1.1,0-1.92.065T99.914.1A20.311,20.311,0,0,1,97.734.2Zm34.745,0A1.812,1.812,0,0,1,131.6,0a.629.629,0,0,1-.357-.585.784.784,0,0,1,.423-.748,4.053,4.053,0,0,1,.943-.358,8.111,8.111,0,0,0,2.21-.845,1.775,1.775,0,0,0,.715-1.625V-18.2a6.621,6.621,0,0,0-.65-3.153,2.927,2.927,0,0,0-2.275-1.462.751.751,0,0,1-.488-.292,1.175,1.175,0,0,1-.162-.682q0-.78.585-.845a20.266,20.266,0,0,0,4.908-1.722q2.048-1.073,3.087-1.722a2.37,2.37,0,0,1,1.04-.455.46.46,0,0,1,.52.52q0,.715-.163,2.275t-.325,3.38q-.163,1.82-.163,3.38V-4.16a1.8,1.8,0,0,0,.715,1.56,6.765,6.765,0,0,0,2.21.91,4.053,4.053,0,0,1,.943.358.784.784,0,0,1,.423.748q0,.78-1.17.78-1.235,0-2.21-.1t-1.853-.163q-.877-.065-2.047-.065-1.105,0-2.015.065T134.656.1A20.253,20.253,0,0,1,132.479.2Zm5.85-33.215a3.761,3.761,0,0,1-2.762-1.138,3.761,3.761,0,0,1-1.138-2.763,3.839,3.839,0,0,1,1.138-2.827,3.761,3.761,0,0,1,2.762-1.138,3.948,3.948,0,0,1,2.86,1.138,3.784,3.784,0,0,1,1.17,2.827,3.709,3.709,0,0,1-1.17,2.763A3.948,3.948,0,0,1,138.329-33.02ZM161.337,1.365q-.317,0-.716-.951t-.661-1.651q-.474-1.123-.939-2.42t-.893-2.394q-1.506-3.954-3.192-7.737t-3.3-7.692a7.381,7.381,0,0,0-1.388-2.226,4.285,4.285,0,0,0-1.927-1.277,3.816,3.816,0,0,1-.864-.438.827.827,0,0,1-.306-.716q0-.428.516-.534a4.453,4.453,0,0,1,.879-.107q1.394,0,2.083.074t1.368.172a13.975,13.975,0,0,0,1.878.1,16.3,16.3,0,0,0,2-.1q.755-.1,1.584-.172t2.159-.074a3.7,3.7,0,0,1,.869.125q.506.125.506.553a.782.782,0,0,1-.455.734,9.019,9.019,0,0,1-1.021.455,1.886,1.886,0,0,0-1.023.989,3.887,3.887,0,0,0-.353,1.714q0,.493.046.966a3.348,3.348,0,0,0,.214.9L163.25-7.725a.2.2,0,0,0,.1.046.2.2,0,0,0,.1-.046l4.563-11.827a6.322,6.322,0,0,0,.352-1.285,7.313,7.313,0,0,0,.111-1.173,3.439,3.439,0,0,0-.428-1.89,2.668,2.668,0,0,0-1.394-.99,8.9,8.9,0,0,1-1.113-.492.734.734,0,0,1-.363-.7.542.542,0,0,1,.46-.554,3.453,3.453,0,0,1,.915-.126q1.074.019,2.139.144a22,22,0,0,0,2.511.124,13.682,13.682,0,0,0,2.148-.124,12.978,12.978,0,0,1,1.914-.144,4.053,4.053,0,0,1,.948.107.511.511,0,0,1,.447.535q0,.79-1.4,1.245a5.2,5.2,0,0,0-2.164,1.486,9.176,9.176,0,0,0-1.791,2.756L166.23-8.221q-.149.336-.5,1.212t-.751,1.89q-.4,1.014-.7,1.8t-.381.933q-.076.17-.4.929t-.7,1.574a8.877,8.877,0,0,1-.67,1.252ZM188.7.956a11.061,11.061,0,0,1-6.259-1.793,12.086,12.086,0,0,1-4.235-5.01,16.98,16.98,0,0,1-1.533-7.386,14.168,14.168,0,0,1,1.789-7.065,14.277,14.277,0,0,1,4.781-5.1,11.893,11.893,0,0,1,6.56-1.923,10.065,10.065,0,0,1,4.747,1.1,8.447,8.447,0,0,1,3.294,3.005,8.02,8.02,0,0,1,1.2,4.371q0,2.166-1.968,2.166h-13.47a1.515,1.515,0,0,0-1.286.5,3.288,3.288,0,0,0-.376,1.87,11.016,11.016,0,0,0,1.271,5.274,10.143,10.143,0,0,0,3.414,3.784,8.532,8.532,0,0,0,4.779,1.4,8.279,8.279,0,0,0,3.523-.738,10.033,10.033,0,0,0,2.941-2.111,2.544,2.544,0,0,1,.408-.385.623.623,0,0,1,.363-.116q.577,0,.577.707a4.59,4.59,0,0,1-.944,2.447,10.149,10.149,0,0,1-2.284,2.532A11.194,11.194,0,0,1,192.713.289,11.814,11.814,0,0,1,188.7.956Zm-5-19.9h5.2q1.653,0,2.617-.065a12.612,12.612,0,0,0,1.854-.26.655.655,0,0,0,.45-.507,3.854,3.854,0,0,0,.125-1.074,3.892,3.892,0,0,0-1.488-3.085,5.382,5.382,0,0,0-3.593-1.257,5.419,5.419,0,0,0-2.83.84,7.585,7.585,0,0,0-2.291,2.1,4.272,4.272,0,0,0-.881,2.562Q182.864-18.946,183.7-18.946ZM210.716.91A12.938,12.938,0,0,1,206.8.33a9.7,9.7,0,0,1-3.226-1.7,7.947,7.947,0,0,1-.609-2.641q-.191-1.831-.218-3.352,0-.66,1-.66a1.158,1.158,0,0,1,.639.182.826.826,0,0,1,.368.462A10.114,10.114,0,0,0,207.5-2.8a5.649,5.649,0,0,0,3.8,1.563,4.041,4.041,0,0,0,3.01-1.2,3.982,3.982,0,0,0,1.182-2.9A4.017,4.017,0,0,0,214.266-8.3a20.032,20.032,0,0,0-3.775-2.739,27.278,27.278,0,0,1-3.576-2.458,9.064,9.064,0,0,1-2.256-2.676,7,7,0,0,1-.777-3.359A7.307,7.307,0,0,1,205-23.535a7.7,7.7,0,0,1,3.217-2.782,11.349,11.349,0,0,1,5.026-1.026,12.967,12.967,0,0,1,3.5.418,7.781,7.781,0,0,1,2.149.873,6.106,6.106,0,0,1,.858,2.318,15.974,15.974,0,0,1,.338,3.269q0,.53-.838.53a1.694,1.694,0,0,1-.814-.219,1.172,1.172,0,0,1-.534-.5,8.765,8.765,0,0,0-2.132-3.462A4.386,4.386,0,0,0,212.7-25.3a4.437,4.437,0,0,0-2.8.956,3.251,3.251,0,0,0-1.23,2.727,3.7,3.7,0,0,0,1.056,2.581,14.268,14.268,0,0,0,3.411,2.467,24.651,24.651,0,0,1,5.763,4.082,7.059,7.059,0,0,1,1.843,5.105,7.466,7.466,0,0,1-2.7,6.022A11.037,11.037,0,0,1,210.716.91Z" transform="translate(76 3059)" fill="url(#linear-gradient)"/>
  </g>
</svg>
