<?xml version="1.0" encoding="UTF-8"?><svg id="_レイヤー_1" xmlns="http://www.w3.org/2000/svg" xmlns:xlink="http://www.w3.org/1999/xlink" viewBox="0 0 414.17 72"><defs><style>.cls-1{fill:url(#_名称未設定グラデーション);}.cls-1,.cls-2,.cls-3,.cls-4,.cls-5,.cls-6,.cls-7,.cls-8{stroke-width:0px;}.cls-2{fill:url(#_名称未設定グラデーション-6);}.cls-3{fill:url(#_名称未設定グラデーション-8);}.cls-4{fill:url(#_名称未設定グラデーション-4);}.cls-5{fill:url(#_名称未設定グラデーション-2);}.cls-6{fill:url(#_名称未設定グラデーション-7);}.cls-7{fill:url(#_名称未設定グラデーション-5);}.cls-8{fill:url(#_名称未設定グラデーション-3);}</style><linearGradient id="_名称未設定グラデーション" x1="35.86" y1="4.58" x2="35.86" y2="64.35" gradientUnits="userSpaceOnUse"><stop offset="0" stop-color="#2e4177"/><stop offset="1" stop-color="#00aec7"/></linearGradient><linearGradient id="_名称未設定グラデーション-2" x1="95.37" y1="4.58" x2="95.37" y2="64.35" xlink:href="#_名称未設定グラデーション"/><linearGradient id="_名称未設定グラデーション-3" x1="151.87" y1="4.58" x2="151.87" y2="64.35" xlink:href="#_名称未設定グラデーション"/><linearGradient id="_名称未設定グラデーション-4" x1="215.04" y1="4.58" x2="215.04" y2="64.35" xlink:href="#_名称未設定グラデーション"/><linearGradient id="_名称未設定グラデーション-5" x1="256.07" y1="4.59" x2="256.07" y2="64.36" xlink:href="#_名称未設定グラデーション"/><linearGradient id="_名称未設定グラデーション-6" x1="292.2" y1="4.58" x2="292.2" y2="64.35" xlink:href="#_名称未設定グラデーション"/><linearGradient id="_名称未設定グラデーション-7" x1="339.95" y1="4.58" x2="339.95" y2="64.35" xlink:href="#_名称未設定グラデーション"/><linearGradient id="_名称未設定グラデーション-8" x1="386.25" y1="4.59" x2="386.25" y2="64.36" xlink:href="#_名称未設定グラデーション"/></defs><path class="cls-1" d="M67.84,40.08c0,3.72-.63,7.41-1.89,11.07-1.26,3.66-3.22,6.96-5.87,9.89-2.65,2.93-6.02,5.3-10.12,7.1-4.1,1.8-8.96,2.7-14.57,2.7H15.99c-1.64,0-3.55.05-5.72.14-2.18.09-4.24.2-6.2.33-.13-.25-.19-.54-.19-.85v-.76c0-.69.11-1.15.33-1.37.22-.22.49-.36.8-.43,1.83-.31,3.3-.74,4.4-1.28,1.1-.54,1.66-1.47,1.66-2.79V16.42c0-1.26-.46-2.16-1.37-2.7-.92-.54-2.48-.99-4.68-1.37-.51-.13-.82-.33-.95-.61-.13-.28-.19-.68-.19-1.18v-.76c0-.31.06-.63.19-.95,1.33.13,2.51.21,3.55.24,1.04.03,2,.08,2.89.14.88.06,1.76.09,2.65.09h21.95c5.36,0,10.08.82,14.15,2.46,4.07,1.64,7.47,3.85,10.22,6.62,2.74,2.78,4.83,6.02,6.25,9.75,1.42,3.72,2.13,7.7,2.13,11.92ZM54.78,41.87c0-4.92-.57-9.15-1.7-12.68-1.14-3.53-2.79-6.42-4.97-8.66-2.18-2.24-4.89-3.88-8.14-4.92-3.25-1.04-6.95-1.56-11.12-1.56h-5.87v48.64c0,.63.09,1.17.28,1.61.19.44.57.79,1.14,1.04.57.25,1.36.44,2.37.57,1.01.13,2.37.19,4.07.19,8.2,0,14.24-2.18,18.12-6.53,3.88-4.35,5.82-10.25,5.82-17.69Z"/><path class="cls-5" d="M73.23,50.58c0-3.09.55-5.95,1.66-8.56,1.1-2.62,2.63-4.89,4.59-6.81,1.95-1.92,4.29-3.42,7-4.49,2.71-1.07,5.68-1.61,8.89-1.61s6.37.54,9.08,1.61c2.71,1.07,5.05,2.57,7,4.49,1.96,1.92,3.45,4.2,4.5,6.81,1.04,2.62,1.56,5.47,1.56,8.56s-.55,5.95-1.66,8.56c-1.1,2.62-2.65,4.87-4.64,6.76-1.99,1.89-4.34,3.38-7.05,4.45-2.71,1.07-5.68,1.61-8.89,1.61s-6.37-.54-9.08-1.61c-2.71-1.07-5.03-2.55-6.95-4.45-1.92-1.89-3.41-4.15-4.45-6.76-1.04-2.62-1.56-5.47-1.56-8.56ZM85.15,48.69c0,5.8.96,10.44,2.89,13.91,1.92,3.47,4.68,5.2,8.28,5.2,3.34,0,5.72-1.34,7.14-4.02,1.42-2.68,2.13-6.45,2.13-11.31,0-5.74-.98-10.38-2.93-13.91-1.96-3.53-4.7-5.3-8.23-5.3-3.34,0-5.72,1.37-7.14,4.12-1.42,2.74-2.13,6.51-2.13,11.31Z"/><path class="cls-8" d="M167.49,57.01c1.51-3.72,2.74-6.81,3.69-9.27s1.69-4.48,2.22-6.06c.54-1.58.9-2.82,1.09-3.74.19-.91.28-1.69.28-2.32,0-1.26-1.01-2.14-3.03-2.65-.44-.13-.76-.27-.95-.43-.19-.16-.28-.49-.28-.99,0-.19.03-.43.09-.71.06-.28.13-.58.19-.9,2.52.19,5.27.28,8.23.28,2.65,0,5.08-.09,7.29-.28.13.32.2.66.24,1.04.03.38.05.63.05.76,0,.69-.41,1.14-1.23,1.32-.88.19-1.59.36-2.13.52-.54.16-1.01.41-1.42.76-.41.35-.77.79-1.09,1.32-.32.54-.66,1.28-1.04,2.22l-13.72,33.87c-.25.12-.55.19-.9.19h-1.09c-.44,0-.87-.25-1.28-.76-.41-.5-.96-1.58-1.66-3.22l-9.27-21.76-10.6,25.55c-.25.12-.55.19-.9.19h-1.09c-.44,0-.87-.25-1.28-.76-.41-.5-.96-1.58-1.66-3.22l-12.4-30.09c-.38-.95-.73-1.69-1.04-2.22-.32-.54-.66-.96-1.04-1.28-.38-.31-.84-.55-1.37-.71-.54-.16-1.21-.33-2.03-.52-.82-.19-1.23-.72-1.23-1.61,0-.38.09-.91.28-1.61,1.51.13,3.12.21,4.83.24,1.7.03,3.78.05,6.25.05,2.27,0,4.22-.01,5.87-.05,1.64-.03,3.28-.11,4.92-.24.19.69.28,1.23.28,1.61,0,.82-.41,1.29-1.23,1.42-1.51.19-2.48.46-2.89.8-.41.35-.62.77-.62,1.28,0,.32.16.98.47,1.99.31,1.01.95,2.71,1.89,5.11l5.39,14.38,10.88-26.4c.25-.63.72-.95,1.42-.95.5,0,1.01.13,1.51.38l11.07,27.44Z"/><path class="cls-4" d="M233.92,65.06c0,.88.38,1.56,1.14,2.04.76.47,2.14.87,4.16,1.18.25.06.49.17.71.33.22.16.33.46.33.9,0,.38-.02.71-.05.99-.03.28-.08.55-.14.8-1.64-.13-3.28-.24-4.92-.33-1.64-.09-3.69-.14-6.15-.14-2.02,0-3.91.05-5.68.14-1.77.09-3.47.2-5.11.33-.13-.32-.19-.91-.19-1.8,0-.69.35-1.1,1.04-1.23,1.64-.32,2.74-.69,3.31-1.14.57-.44.85-1.14.85-2.08v-18.54c0-3.72-.46-6.29-1.37-7.71-.92-1.42-2.38-2.13-4.4-2.13-2.84,0-5.27.96-7.29,2.89-2.02,1.92-3.03,4.78-3.03,8.56v16.94c0,.95.28,1.64.85,2.08.57.44,1.67.82,3.31,1.14.69.13,1.04.54,1.04,1.23,0,.88-.06,1.48-.19,1.8-1.64-.13-3.34-.24-5.11-.33-1.77-.09-3.66-.14-5.68-.14-2.46,0-4.53.05-6.2.14-1.67.09-3.3.2-4.87.33-.06-.25-.11-.52-.14-.8-.03-.28-.05-.62-.05-.99,0-.44.11-.74.33-.9.22-.16.46-.27.71-.33,2.02-.38,3.41-.79,4.16-1.23.76-.44,1.13-1.14,1.13-2.08v-24.98c0-1.89-.35-3.34-1.04-4.35-.7-1.01-2.15-1.61-4.35-1.8-.82-.19-1.23-.69-1.23-1.51v-.71c0-.28.06-.55.19-.8.38,0,.93-.01,1.66-.05.72-.03,1.5-.06,2.32-.09.82-.03,1.64-.08,2.46-.14.82-.06,1.58-.13,2.27-.19,1.58-.19,3.09-.44,4.54-.76,1.45-.31,2.43-.47,2.93-.47,1.01,0,1.51.47,1.51,1.42,0,.69-.09,1.61-.28,2.74-.19,1.14-.28,2.71-.28,4.73,2.02-2.65,4.26-4.79,6.72-6.43,2.46-1.64,5.01-2.46,7.66-2.46,3.85,0,6.87,1.07,9.08,3.22,2.21,2.15,3.31,5.36,3.31,9.65v23.09Z"/><path class="cls-7" d="M267.71,71.3c-1.64-.13-3.52-.24-5.63-.33-2.11-.09-4.08-.14-5.91-.14-2.02,0-4.02.05-6.01.14-1.99.09-3.8.2-5.44.33-.06-.25-.11-.52-.14-.8-.03-.28-.05-.62-.05-.99,0-.44.11-.74.33-.9.22-.16.46-.27.71-.33,2.02-.38,3.41-.79,4.16-1.23.76-.44,1.14-1.14,1.14-2.08V15.38c0-1.89-.35-3.33-1.04-4.31-.69-.98-2.15-1.56-4.35-1.75-.82-.19-1.23-.69-1.23-1.51v-.76c0-.31.06-.57.19-.76.38,0,.93-.01,1.66-.05.72-.03,1.5-.06,2.32-.09.82-.03,1.64-.08,2.46-.14.82-.06,1.58-.13,2.27-.19,1.58-.19,3.09-.44,4.54-.76,1.45-.31,2.43-.47,2.93-.47,1.01,0,1.51.47,1.51,1.42,0,.69-.09,1.59-.28,2.7-.19,1.1-.28,2.67-.28,4.68v51.57c0,.95.38,1.64,1.14,2.08.76.44,2.14.85,4.16,1.23.69.13,1.04.54,1.04,1.23,0,.88-.06,1.48-.19,1.8Z"/><path class="cls-2" d="M270.06,50.58c0-3.09.55-5.95,1.66-8.56,1.1-2.62,2.63-4.89,4.59-6.81,1.96-1.92,4.29-3.42,7-4.49,2.71-1.07,5.68-1.61,8.89-1.61s6.37.54,9.08,1.61c2.71,1.07,5.05,2.57,7,4.49,1.96,1.92,3.45,4.2,4.5,6.81,1.04,2.62,1.56,5.47,1.56,8.56s-.55,5.95-1.66,8.56c-1.1,2.62-2.65,4.87-4.64,6.76-1.99,1.89-4.34,3.38-7.05,4.45-2.71,1.07-5.68,1.61-8.89,1.61s-6.37-.54-9.08-1.61c-2.71-1.07-5.03-2.55-6.95-4.45-1.92-1.89-3.41-4.15-4.45-6.76-1.04-2.62-1.56-5.47-1.56-8.56ZM281.98,48.69c0,5.8.96,10.44,2.89,13.91,1.92,3.47,4.68,5.2,8.28,5.2,3.34,0,5.72-1.34,7.14-4.02,1.42-2.68,2.13-6.45,2.13-11.31,0-5.74-.98-10.38-2.93-13.91-1.96-3.53-4.7-5.3-8.23-5.3-3.34,0-5.72,1.37-7.14,4.12-1.42,2.74-2.13,6.51-2.13,11.31Z"/><path class="cls-6" d="M359.63,67.89c.95,0,1.42.79,1.42,2.37-.82.57-1.85.99-3.08,1.28-1.23.28-2.48.43-3.74.43-2.84,0-5.01-.69-6.53-2.08s-2.4-3-2.65-4.83c-1.26,2.52-2.95,4.31-5.06,5.35-2.11,1.04-4.59,1.56-7.43,1.56-1.32,0-2.79-.11-4.4-.33-1.61-.22-3.09-.68-4.45-1.37-1.36-.69-2.51-1.67-3.45-2.93-.95-1.26-1.42-2.93-1.42-5.01,0-2.33.6-4.32,1.8-5.96,1.2-1.64,2.7-3.01,4.49-4.12,1.8-1.1,3.77-1.99,5.91-2.65,2.14-.66,4.16-1.21,6.06-1.66.82-.19,1.67-.39,2.55-.62.88-.22,1.58-.39,2.08-.52.69-.19,1.14-.46,1.32-.8.19-.35.28-1.25.28-2.7,0-3.22-.47-5.69-1.42-7.43-.95-1.73-2.55-2.6-4.83-2.6-1.83,0-3.14.57-3.93,1.7-.79,1.14-1.53,2.93-2.22,5.39-.19.69-.74,1.21-1.66,1.56-.92.35-2.07.71-3.45,1.09-.76.19-1.53.35-2.32.47-.79.13-1.5.19-2.13.19-.38,0-.63-.14-.76-.43-.13-.28-.19-.83-.19-1.66,0-1.58.58-3.12,1.75-4.64,1.17-1.51,2.63-2.85,4.4-4.02,1.77-1.17,3.71-2.1,5.82-2.79,2.11-.69,4.15-1.04,6.1-1.04,2.33,0,4.45.21,6.34.61,1.89.41,3.52,1.13,4.87,2.17,1.36,1.04,2.41,2.42,3.17,4.15s1.14,3.95,1.14,6.65v16.61c0,2.2.05,3.81.14,4.82s.27,1.76.52,2.26c.57,1.13,1.45,1.7,2.65,1.7.5,0,.93-.03,1.28-.09.35-.06.68-.09.99-.09ZM343.36,50.2l-2.08.38c-1.45.25-2.81.62-4.07,1.09-1.26.47-2.35,1.1-3.26,1.89-.92.79-1.64,1.77-2.18,2.93-.54,1.17-.8,2.57-.8,4.21,0,2.46.39,4.18,1.18,5.16.79.98,1.94,1.47,3.45,1.47,2.4,0,4.29-.88,5.68-2.65,1.39-1.77,2.08-4.23,2.08-7.38v-7.1Z"/><path class="cls-3" d="M404.33,62.03c0,.76.03,1.4.09,1.94.06.54.25.99.57,1.37.32.38.79.68,1.42.9.63.22,1.48.39,2.55.52.88.13,1.32.54,1.32,1.23v.95c0,.32-.06.57-.19.76-.82,0-2.1.05-3.83.14-1.74.09-3.2.24-4.4.43-1.39.19-2.76.43-4.12.71-1.36.28-2.29.43-2.79.43-.57,0-.93-.11-1.09-.33-.16-.22-.24-.58-.24-1.09v-5.68c-.82,1.14-1.67,2.18-2.55,3.12-.88.95-1.88,1.75-2.98,2.41-1.1.66-2.35,1.18-3.74,1.56-1.39.38-2.97.57-4.73.57-2.46,0-4.75-.44-6.86-1.32-2.11-.88-3.96-2.19-5.54-3.93-1.58-1.73-2.81-3.86-3.69-6.39-.88-2.52-1.33-5.39-1.33-8.61,0-3.47.68-6.61,2.03-9.42,1.36-2.81,3.08-5.19,5.16-7.14,2.08-1.95,4.35-3.45,6.81-4.49,2.46-1.04,4.83-1.56,7.1-1.56,1.83,0,3.52.17,5.06.52,1.54.35,3.29.84,5.25,1.47v-15.71c0-1.95-.32-3.39-.95-4.31-.63-.91-2.11-1.5-4.45-1.75-.38-.13-.69-.28-.95-.47-.25-.19-.38-.54-.38-1.04,0-.38.06-.88.19-1.51.44,0,1.01-.01,1.7-.05.69-.03,1.45-.06,2.27-.09.82-.03,1.64-.08,2.46-.14.82-.06,1.58-.13,2.27-.19,1.64-.19,3.17-.44,4.59-.76,1.42-.31,2.38-.47,2.89-.47,1.07,0,1.61.47,1.61,1.42,0,1.2-.09,2.57-.28,4.12-.19,1.55-.28,3.33-.28,5.35v46.55ZM393.64,37.62c-2.9-2.9-6.18-4.35-9.84-4.35-3.28,0-5.71,1.44-7.29,4.31-1.58,2.87-2.37,6.8-2.37,11.78,0,2.4.2,4.65.61,6.77.41,2.11,1.03,3.94,1.85,5.49.82,1.55,1.88,2.76,3.17,3.64,1.29.88,2.85,1.33,4.68,1.33,1.13,0,2.25-.36,3.36-1.09,1.1-.72,2.08-1.66,2.93-2.79s1.54-2.43,2.08-3.88c.54-1.45.8-2.9.8-4.35v-16.84Z"/></svg>