<svg xmlns="http://www.w3.org/2000/svg" xmlns:xlink="http://www.w3.org/1999/xlink" width="225.531" height="260.392" viewBox="0 0 225.531 260.392">
  <defs>
    <linearGradient id="linear-gradient" x1="0.5" x2="0.5" y2="1" gradientUnits="objectBoundingBox">
      <stop offset="0" stop-color="#2e4177"/>
      <stop offset="1" stop-color="#00aec7"/>
    </linearGradient>
  </defs>
  <path id="パス_24" data-name="パス 24" d="M125.573,138.921H193.13v34.707l-81.567,48.587L38.71,181.473a10.226,10.226,0,0,1-5.235-8.926v-8.964a6.626,6.626,0,0,1,3.325-5.745l165.675-94.9a6.624,6.624,0,0,0,.145-11.407L119.257.96a6.64,6.64,0,0,0-6.75-.076L3.31,63.952A6.612,6.612,0,0,0,0,69.682V192.34a10.1,10.1,0,0,0,5.174,8.819l105.887,59.233,114.47-65.335V81.651Zm-92.1-46.7A11.615,11.615,0,0,1,39.4,82.093L112.69,40.94a6.634,6.634,0,0,1,6.438-.023L138.455,51.6a6.614,6.614,0,0,1,.03,11.566l-83.629,46.8-11.536,6.453a6.619,6.619,0,0,1-9.847-5.776Z" transform="translate(0 0)" opacity="0.162" fill="url(#linear-gradient)"/>
</svg>
