<svg xmlns="http://www.w3.org/2000/svg" xmlns:xlink="http://www.w3.org/1999/xlink" width="287.852" height="203.822" viewBox="0 0 287.852 203.822">
  <defs>
    <linearGradient id="linear-gradient" x1="0.5" x2="0.5" y2="1" gradientUnits="objectBoundingBox">
      <stop offset="0" stop-color="#2e4177"/>
      <stop offset="1" stop-color="#00aec7"/>
    </linearGradient>
  </defs>
  <path id="パス_7371" data-name="パス 7371" d="M-142.024.344a3.549,3.549,0,0,1-1.318-.219q-.548-.219-.548-.628,0-.874,1.995-1.246A5.981,5.981,0,0,0-138.55-3.21a4.911,4.911,0,0,0,.876-3.28V-35.815a4.346,4.346,0,0,0-.915-3.133,6.789,6.789,0,0,0-3.422-1.407q-1.881-.371-1.881-1.338a.638.638,0,0,1,.482-.6,3.265,3.265,0,0,1,1.2-.191q1.661,0,2.94.042t2.472.093q1.192.052,2.584.052,1.254,0,2.313-.042t2.251-.084q1.193-.042,2.835-.042a3.222,3.222,0,0,1,1.195.182.627.627,0,0,1,.444.609.938.938,0,0,1-.463.817,4.159,4.159,0,0,1-1.418.5q-2.48.549-3.1,1.6a5.872,5.872,0,0,0-.619,2.957v12.532a3.571,3.571,0,0,0,.089.747q.089.412.349.412a1.549,1.549,0,0,0,.821-.352,5.724,5.724,0,0,0,.878-.761l12.83-13.335a4.877,4.877,0,0,0,.785-1.027,1.971,1.971,0,0,0,.265-.943q0-1.245-1.744-1.665a4.858,4.858,0,0,1-1.372-.557.9.9,0,0,1-.417-.781.638.638,0,0,1,.482-.6,3.265,3.265,0,0,1,1.2-.191h3.849q2,0,4.208-.055t4.155-.12q1.946-.065,3-.065a2.566,2.566,0,0,1,1.087.2.639.639,0,0,1,.437.586.937.937,0,0,1-.567.827,5.046,5.046,0,0,1-1.522.492,25.819,25.819,0,0,0-5.241,1.458,17.827,17.827,0,0,0-4.677,2.738q-2.208,1.8-4.134,3.6t-3.829,3.741q-1.9,1.936-4.084,4.244-.578.54.231,1.434l15.674,17q1.241,1.353,2.119,2.179A7.707,7.707,0,0,0-103.933-2.7a14.933,14.933,0,0,0,2.883.953,11.816,11.816,0,0,1,1.531.478.79.79,0,0,1,.577.749q0,.409-.567.628a4.407,4.407,0,0,1-1.544.219q-1.9,0-3.458-.107t-3.07-.181q-1.517-.074-3.412-.074-1.574,0-2.814.07t-3.468.07a3.265,3.265,0,0,1-1.2-.191.638.638,0,0,1-.482-.6q0-.828,1.6-1.2,2.083-.473,2.121-1.47a1.506,1.506,0,0,0-.293-.855q-.292-.428-.72-.939L-128.89-19.344a8.339,8.339,0,0,0-.822-.757,1.22,1.22,0,0,0-.692-.329q-.26,0-.326.444a5.645,5.645,0,0,0-.066.826q0,3.017.079,5.818t.209,6.418a9.72,9.72,0,0,0,.385,2.356,3.567,3.567,0,0,0,1.16,1.743,6.026,6.026,0,0,0,2.483,1.076,6.18,6.18,0,0,1,1.475.455.827.827,0,0,1,.52.772q0,.409-.539.619a3.686,3.686,0,0,1-1.328.209,27.5,27.5,0,0,1-2.989-.13L-131.4-.061a19.109,19.109,0,0,0-2.171-.107q-1.484,0-2.7.116T-138.8.2A31.374,31.374,0,0,1-142.024.344ZM-96.67.2A2.039,2.039,0,0,1-97.584,0a.63.63,0,0,1-.385-.6.748.748,0,0,1,.418-.73,6.662,6.662,0,0,1,1.077-.4,9.726,9.726,0,0,0,1.828-.725A1.781,1.781,0,0,0-93.794-4.2V-18.5a8.978,8.978,0,0,0-.376-2.773,2.4,2.4,0,0,0-1.9-1.529,1.509,1.509,0,0,1-.464-.312.876.876,0,0,1-.2-.647q0-.79.6-.893a23.68,23.68,0,0,0,4.12-1.42,24.781,24.781,0,0,0,3.4-1.875q.234-.13.452-.266a.819.819,0,0,1,.433-.136.342.342,0,0,1,.321.168.785.785,0,0,1,.1.4,17.707,17.707,0,0,1-.162,1.786,18.569,18.569,0,0,0-.163,2.223,4.091,4.091,0,0,0,.033.516.619.619,0,0,0,.1.321,17.746,17.746,0,0,1,4.711-3.26,12.946,12.946,0,0,1,5.49-1.133,6.785,6.785,0,0,1,5.416,2.562,9.853,9.853,0,0,1,2.155,6.568V-4.18a1.709,1.709,0,0,0,.854,1.713,15.333,15.333,0,0,0,1.829.738,7.2,7.2,0,0,1,.979.451.834.834,0,0,1,.459.776.551.551,0,0,1-.427.553A2.54,2.54,0,0,1-66.855.2,19.917,19.917,0,0,1-69.021.1q-.866-.1-1.667-.163T-72.658-.13q-1.1,0-1.952.065T-76.337.1a20.311,20.311,0,0,1-2.18.1A2.547,2.547,0,0,1-79.3.05.554.554,0,0,1-79.74-.5a.836.836,0,0,1,.449-.776,6.731,6.731,0,0,1,.969-.451,13.711,13.711,0,0,0,1.8-.738A1.725,1.725,0,0,0-75.7-4.18V-17.586a5.975,5.975,0,0,0-1.432-4.254,5.13,5.13,0,0,0-3.815-1.573,9.206,9.206,0,0,0-3.548.634,11.989,11.989,0,0,0-2.819,1.646,1.474,1.474,0,0,0-.39.635,2.438,2.438,0,0,0-.13.766V-4.18a1.771,1.771,0,0,0,.835,1.736A9.8,9.8,0,0,0-85.2-1.73q1.42.409,1.42,1.134a.65.65,0,0,1-.325.59,1.714,1.714,0,0,1-.9.2,20.033,20.033,0,0,1-2.17-.1q-.87-.1-1.642-.163T-90.764-.13q-1.105,0-1.948.065T-94.462.1A21.129,21.129,0,0,1-96.67.2ZM-48.982.91A13.364,13.364,0,0,1-55.717-.8a12.808,12.808,0,0,1-4.77-4.714,13.206,13.206,0,0,1-1.77-6.832,14.243,14.243,0,0,1,1.11-5.527,16.084,16.084,0,0,1,3.107-4.811,15.146,15.146,0,0,1,4.663-3.4,13.257,13.257,0,0,1,5.731-1.258A13.381,13.381,0,0,1-40.682-25.5a14.126,14.126,0,0,1,4.932,4.844,12.376,12.376,0,0,1,1.834,6.572,16.367,16.367,0,0,1-1.7,7.338A13.591,13.591,0,0,1-40.641-1.2,15.309,15.309,0,0,1-48.982.91Zm1.327-2.27a7.537,7.537,0,0,0,3.4-.741A5.357,5.357,0,0,0-41.9-4.445a10.34,10.34,0,0,0,1.059-3.621,35.2,35.2,0,0,0,.279-4.463,18.079,18.079,0,0,0-1.015-6.117,11.845,11.845,0,0,0-2.836-4.613,5.966,5.966,0,0,0-4.3-1.768,7.222,7.222,0,0,0-2.69.477,5.4,5.4,0,0,0-2.181,1.689A7.975,7.975,0,0,0-55.227-19a30.867,30.867,0,0,0-.4,5.123,17.587,17.587,0,0,0,1.038,6.021,12.611,12.611,0,0,0,2.836,4.685A5.625,5.625,0,0,0-47.655-1.36Zm29.692,3.025a.662.662,0,0,1-.383-.14.756.756,0,0,1-.279-.391l-9.167-22.614a5.72,5.72,0,0,0-1.4-2.225,4.862,4.862,0,0,0-1.96-1.185,5.428,5.428,0,0,1-.979-.484.855.855,0,0,1-.421-.762q0-.428.516-.534a4.453,4.453,0,0,1,.879-.107q1.07,0,1.875.074t1.613.172a15.345,15.345,0,0,0,1.823.1,18.829,18.829,0,0,0,1.98-.1q.92-.1,1.835-.172t2.013-.074a3.884,3.884,0,0,1,.847.125q.53.125.53.553a.78.78,0,0,1-.478.734q-.478.241-1,.455a1.7,1.7,0,0,0-1.017.9,3.689,3.689,0,0,0-.348,1.676,5.38,5.38,0,0,0,.363,1.916l4.618,12.028a.244.244,0,0,0,.268.2.246.246,0,0,0,.269-.2L-11.588-18.8a6.269,6.269,0,0,0,.367-1.371,9.217,9.217,0,0,0,.1-1.315,2.691,2.691,0,0,0-.964-2.058,7.116,7.116,0,0,0-2.069-1.327,5.383,5.383,0,0,1-.979-.483.855.855,0,0,1-.421-.762q0-.428.5-.535a4.552,4.552,0,0,1,.948-.107,19.577,19.577,0,0,1,2.4.153,22.827,22.827,0,0,0,2.779.153,28.293,28.293,0,0,0,3.139-.153,23.843,23.843,0,0,1,2.679-.153,3.687,3.687,0,0,1,.869.126q.506.126.506.554a.78.78,0,0,1-.478.734q-.478.241-1,.456a5.757,5.757,0,0,0-1.359.715,1.765,1.765,0,0,0-.644,1.549,4.97,4.97,0,0,0,.126,1.085,6.512,6.512,0,0,0,.367,1.129l4.516,11.7q.232.526.407.526.222,0,.407-.48L5.078-19.4a4.887,4.887,0,0,0,.367-1.328,7.377,7.377,0,0,0,.088-1.263,2.6,2.6,0,0,0-.686-1.848A3.767,3.767,0,0,0,3.39-24.852a8.8,8.8,0,0,1-1-.446.8.8,0,0,1-.478-.743q0-.428.506-.554a3.687,3.687,0,0,1,.869-.126,19.118,19.118,0,0,1,2.417.144,16.673,16.673,0,0,0,2.327.125,12.421,12.421,0,0,0,1.538-.07q.511-.07,1.014-.125t1.369-.075a4.271,4.271,0,0,1,.9.107q.493.107.493.535a.855.855,0,0,1-.421.762,5.383,5.383,0,0,1-.979.483,4.09,4.09,0,0,0-1.98,1.509,11.817,11.817,0,0,0-1.559,2.687l-9,21.773a.761.761,0,0,1-.755.493.8.8,0,0,1-.69-.493L-9.287-16.3q-.138-.388-.314-.434-.177,0-.362.48L-17.235,1.134A.766.766,0,0,1-17.963,1.665ZM15.274.2a2.745,2.745,0,0,1-.86-.145.554.554,0,0,1-.44-.553.813.813,0,0,1,.459-.766,8.331,8.331,0,0,1,1.036-.461A16.385,16.385,0,0,0,17.3-2.458,1.725,1.725,0,0,0,18.151-4.2V-36.413a7.242,7.242,0,0,0-.607-3.124,2.925,2.925,0,0,0-2.232-1.6q-.577-.13-.577-.9,0-.707.512-.837a31.421,31.421,0,0,0,3.16-.869q1.489-.5,2.807-1.028t2.338-.9a1.549,1.549,0,0,1,.541-.149.354.354,0,0,1,.331.191.769.769,0,0,1,.107.377q0,.547-.2,2.22a49.383,49.383,0,0,0-.218,5.075V-4.237A1.725,1.725,0,0,0,24.968-2.5a16.42,16.42,0,0,0,1.829.729,8.185,8.185,0,0,1,1.036.46.814.814,0,0,1,.459.767.554.554,0,0,1-.44.553,2.745,2.745,0,0,1-.86.145q-1.254,0-2.162-.088t-1.75-.144Q22.236-.13,21.066-.13q-1.1,0-1.942.065T17.431.1A19.642,19.642,0,0,1,15.274.2ZM42.882.956A11.061,11.061,0,0,1,36.622-.837a12.086,12.086,0,0,1-4.235-5.01,16.98,16.98,0,0,1-1.533-7.386A14.168,14.168,0,0,1,32.643-20.3a14.277,14.277,0,0,1,4.781-5.1,11.893,11.893,0,0,1,6.56-1.923,10.065,10.065,0,0,1,4.747,1.1,8.447,8.447,0,0,1,3.294,3.005,8.021,8.021,0,0,1,1.2,4.371q0,2.166-1.968,2.166H37.789a1.515,1.515,0,0,0-1.286.5,3.288,3.288,0,0,0-.376,1.87A11.016,11.016,0,0,0,37.4-9.046a10.143,10.143,0,0,0,3.414,3.784,8.532,8.532,0,0,0,4.779,1.4A8.279,8.279,0,0,0,49.114-4.6a10.033,10.033,0,0,0,2.941-2.111,2.543,2.543,0,0,1,.408-.385.623.623,0,0,1,.363-.116q.577,0,.577.707a4.59,4.59,0,0,1-.944,2.447,10.149,10.149,0,0,1-2.284,2.532A11.194,11.194,0,0,1,46.893.289,11.814,11.814,0,0,1,42.882.956Zm-5-19.9h5.2q1.653,0,2.617-.065a12.612,12.612,0,0,0,1.854-.26.655.655,0,0,0,.45-.507,3.854,3.854,0,0,0,.125-1.074,3.892,3.892,0,0,0-1.488-3.085,5.382,5.382,0,0,0-3.593-1.257,5.419,5.419,0,0,0-2.83.84,7.585,7.585,0,0,0-2.291,2.1,4.273,4.273,0,0,0-.881,2.562Q37.045-18.946,37.882-18.946ZM77.809,1.235q-.149,0-.47-.316T77.018.435q.057-.782.191-1.872t.153-1.878V-3.7A11.489,11.489,0,0,1,74.054-.556,9.243,9.243,0,0,1,68.81.91,10.974,10.974,0,0,1,62.4-.993a12.973,12.973,0,0,1-4.273-4.977A14.394,14.394,0,0,1,56.6-12.463a15.139,15.139,0,0,1,1.831-7.359,14.153,14.153,0,0,1,5.2-5.4,15,15,0,0,1,7.936-2.042,15.227,15.227,0,0,1,2.425.2,12.926,12.926,0,0,1,2.01.46,5.053,5.053,0,0,0,.845.195q.4,0,.4-1.315v-8.684a5.944,5.944,0,0,0-.751-3.508,3.486,3.486,0,0,0-2.254-1.217.81.81,0,0,1-.642-.9.782.782,0,0,1,.577-.837,45.564,45.564,0,0,0,4.664-1.364q1.955-.706,3.128-1.21a3.446,3.446,0,0,1,.724-.275,2.117,2.117,0,0,1,.367-.052.5.5,0,0,1,.549.522q0,.183-.088,1.031t-.2,2.414q-.111,1.566-.129,3.85L83.07-7.376a11.237,11.237,0,0,0,.325,3.2q.325.989,1.078.989.325,0,.987-.055t1.733-.14q1.076-.065,1.076.623a1.474,1.474,0,0,1-.33.907.887.887,0,0,1-.655.433,31.981,31.981,0,0,0-8.4,2.267q-.482.241-.682.315A1.125,1.125,0,0,1,77.809,1.235Zm-6.3-4.082a6.978,6.978,0,0,0,3-.745A8.373,8.373,0,0,0,77.192-5.6L77.22-18.26a5.576,5.576,0,0,0-.96-3.03,7.668,7.668,0,0,0-2.588-2.471,7.009,7.009,0,0,0-3.656-.969,6.173,6.173,0,0,0-3.2,1.032,8.048,8.048,0,0,0-2.864,3.35,14.051,14.051,0,0,0-1.176,6.3,14.2,14.2,0,0,0,.916,5.5,9.512,9.512,0,0,0,2.292,3.412,8.474,8.474,0,0,0,2.883,1.772A8.174,8.174,0,0,0,71.507-2.847Zm31.7,21.678q-5.807,0-9.148-2.065a6.319,6.319,0,0,1-3.34-5.6,7.611,7.611,0,0,1,.5-2.963,5.271,5.271,0,0,1,1.8-2.137q1.023-.818,2.428-1.916t2.748-2.154l2.9.469a13.88,13.88,0,0,0-3.941,3.373,6.648,6.648,0,0,0-1.2,4,5.36,5.36,0,0,0,2.279,4.387,8.983,8.983,0,0,0,5.678,1.769,9.692,9.692,0,0,0,6.231-1.755,8.287,8.287,0,0,0,2.31-3,8.826,8.826,0,0,0,.835-3.749,2.787,2.787,0,0,0-.9-2.137,6.968,6.968,0,0,0-2.945-1.377,30.365,30.365,0,0,0-5.449-.771q-6.336-.53-8.879-1.955a4.492,4.492,0,0,1-2.542-4.121,2.279,2.279,0,0,1,.357-1.212A4.983,4.983,0,0,1,94.152-5.34q1.325-1.02,2.088-1.6a11.708,11.708,0,0,0,1.2-1.027,4.148,4.148,0,0,0,.73-.994l2.567,1.124a6.471,6.471,0,0,0-2.311,1.331A2.29,2.29,0,0,0,97.513-5a1.729,1.729,0,0,0,.928,1.442,8.006,8.006,0,0,0,2.86.959q1.932.352,4.945.586,6.357.4,9.367,2.016a5.04,5.04,0,0,1,3.01,4.625,10.667,10.667,0,0,1-1.343,5.095,17.662,17.662,0,0,1-3.564,4.575,18.171,18.171,0,0,1-4.949,3.3A13.4,13.4,0,0,1,103.2,18.831Zm.818-27.976a4.374,4.374,0,0,0,3.8-2.427,11.666,11.666,0,0,0,1.483-6.17,8.9,8.9,0,0,0-.783-3.759,7.217,7.217,0,0,0-2.058-2.712,4.449,4.449,0,0,0-2.825-1.007,4,4,0,0,0-2.648,1.054,7.455,7.455,0,0,0-1.966,2.762,9.492,9.492,0,0,0-.737,3.8,11.384,11.384,0,0,0,.77,4.259,7.763,7.763,0,0,0,2.087,3.065A4.308,4.308,0,0,0,104.021-9.146Zm-.5,2.482a10.881,10.881,0,0,1-5.269-1.375A11.966,11.966,0,0,1,94.1-11.73a8.756,8.756,0,0,1-1.621-5.134,9.3,9.3,0,0,1,1.686-5.513A11.5,11.5,0,0,1,98.594-26.1a13.134,13.134,0,0,1,5.836-1.338,11.639,11.639,0,0,1,3.461.478q1.539.478,3.187.849a16.88,16.88,0,0,0,2.469.486,20.941,20.941,0,0,0,2.168.107q.855,0,1.959-.1t1.616-.1q.92,0,.92,1.146a2.482,2.482,0,0,1-.725,1.63.935.935,0,0,1-.614.363h-1.755q-1.736,0-2.063.52a3.281,3.281,0,0,0-.191.588,6.25,6.25,0,0,0-.135.94q-.046.575-.046,1.481a12.616,12.616,0,0,1-1.543,6.166,12.678,12.678,0,0,1-4.072,4.513A9.741,9.741,0,0,1,103.518-6.664ZM133.44.956a11.061,11.061,0,0,1-6.259-1.793,12.086,12.086,0,0,1-4.235-5.01,16.98,16.98,0,0,1-1.533-7.386A14.168,14.168,0,0,1,123.2-20.3a14.277,14.277,0,0,1,4.781-5.1,11.893,11.893,0,0,1,6.56-1.923,10.065,10.065,0,0,1,4.747,1.1,8.447,8.447,0,0,1,3.294,3.005,8.02,8.02,0,0,1,1.2,4.371q0,2.166-1.968,2.166h-13.47a1.515,1.515,0,0,0-1.286.5,3.288,3.288,0,0,0-.376,1.87,11.016,11.016,0,0,0,1.271,5.274,10.143,10.143,0,0,0,3.414,3.784,8.532,8.532,0,0,0,4.779,1.4,8.279,8.279,0,0,0,3.523-.738,10.033,10.033,0,0,0,2.941-2.111,2.544,2.544,0,0,1,.408-.385.623.623,0,0,1,.363-.116q.577,0,.577.707a4.59,4.59,0,0,1-.944,2.447,10.149,10.149,0,0,1-2.284,2.532A11.194,11.194,0,0,1,137.452.289,11.814,11.814,0,0,1,133.44.956Zm-5-19.9h5.2q1.653,0,2.617-.065a12.612,12.612,0,0,0,1.854-.26.655.655,0,0,0,.45-.507,3.854,3.854,0,0,0,.125-1.074,3.892,3.892,0,0,0-1.488-3.085,5.382,5.382,0,0,0-3.593-1.257,5.419,5.419,0,0,0-2.83.84,7.585,7.585,0,0,0-2.291,2.1,4.273,4.273,0,0,0-.881,2.562Q127.6-18.946,128.44-18.946ZM-40.108,70.91a4.741,4.741,0,0,1-2.683-.882,7.44,7.44,0,0,1-2.147-2.21,4.922,4.922,0,0,1-.841-2.649,4.784,4.784,0,0,1,1.209-3.42,10.816,10.816,0,0,1,3.727-2.333l6.328-2.655a3.559,3.559,0,0,0,1.556-.957,3.985,3.985,0,0,0,.3-1.7l.112-3.989a4.347,4.347,0,0,0-.839-2.916,3.132,3.132,0,0,0-2.639-1.169,5.5,5.5,0,0,0-1.856.334,4.654,4.654,0,0,0-1.512.836,1.255,1.255,0,0,0-.444.723,4.154,4.154,0,0,0-.111.973,7.051,7.051,0,0,0,.042.707,7.051,7.051,0,0,1,.042.707q0,.364-.9.935a11.666,11.666,0,0,1-2.028,1.013,5.424,5.424,0,0,1-1.893.441.851.851,0,0,1-.624-.238.821.821,0,0,1-.242-.611,4.2,4.2,0,0,1,.692-2.176A9.375,9.375,0,0,1-42.8,47.4a20.782,20.782,0,0,1,3.42-2.443,21.183,21.183,0,0,1,3.633-1.672,9.809,9.809,0,0,1,3.123-.613,5.8,5.8,0,0,1,4.461,1.865,6.452,6.452,0,0,1,1.641,4.768l-.325,14.733a3.607,3.607,0,0,0,.58,2.314,1.931,1.931,0,0,0,1.629.911,3.287,3.287,0,0,0,2.311-.753.785.785,0,0,1,.482-.287.715.715,0,0,1,.529.2.718.718,0,0,1,.2.53,2.453,2.453,0,0,1-.885,1.618,8.787,8.787,0,0,1-2.365,1.714,5.6,5.6,0,0,1-2.459.618q-3.216,0-5.2-3.493h-.177a16.978,16.978,0,0,1-4.019,2.661A9.516,9.516,0,0,1-40.108,70.91Zm3.338-3.516a4.337,4.337,0,0,0,1.852-.356,4.456,4.456,0,0,0,1.36-1,2.4,2.4,0,0,0,.477-.811,5.241,5.241,0,0,0,.236-1.515L-32.7,60a1.91,1.91,0,0,0-.1-.955.523.523,0,0,0-.5-.278,2.341,2.341,0,0,0-.408.055,3.929,3.929,0,0,0-.7.232,11.837,11.837,0,0,0-4.08,2.322,3.7,3.7,0,0,0-1.182,2.646,3.217,3.217,0,0,0,.932,2.557A2.964,2.964,0,0,0-36.77,67.394Zm18.4,2.8A2.039,2.039,0,0,1-19.286,70a.63.63,0,0,1-.385-.6.748.748,0,0,1,.418-.73,6.662,6.662,0,0,1,1.077-.4,9.726,9.726,0,0,0,1.828-.725,1.781,1.781,0,0,0,.853-1.745V51.5a8.978,8.978,0,0,0-.376-2.773,2.4,2.4,0,0,0-1.9-1.529,1.509,1.509,0,0,1-.464-.312.876.876,0,0,1-.2-.647q0-.79.6-.893a23.679,23.679,0,0,0,4.12-1.42,24.781,24.781,0,0,0,3.4-1.875q.234-.13.452-.266a.819.819,0,0,1,.433-.136.342.342,0,0,1,.321.168.785.785,0,0,1,.1.4,17.706,17.706,0,0,1-.163,1.786,18.569,18.569,0,0,0-.163,2.223,4.092,4.092,0,0,0,.033.516.619.619,0,0,0,.1.321A17.746,17.746,0,0,1-4.5,43.809a12.946,12.946,0,0,1,5.49-1.133,6.785,6.785,0,0,1,5.416,2.562,9.853,9.853,0,0,1,2.155,6.568V65.82a1.709,1.709,0,0,0,.854,1.713,15.333,15.333,0,0,0,1.829.738,7.2,7.2,0,0,1,.979.451.834.834,0,0,1,.459.776.551.551,0,0,1-.427.553,2.54,2.54,0,0,1-.817.145,19.918,19.918,0,0,1-2.166-.1q-.866-.1-1.667-.163T5.64,69.87q-1.105,0-1.952.065T1.962,70.1a20.313,20.313,0,0,1-2.18.1A2.546,2.546,0,0,1-1,70.05a.554.554,0,0,1-.44-.553.836.836,0,0,1,.449-.776,6.731,6.731,0,0,1,.969-.451,13.712,13.712,0,0,0,1.8-.738A1.725,1.725,0,0,0,2.6,65.82V52.414A5.976,5.976,0,0,0,1.171,48.16a5.13,5.13,0,0,0-3.815-1.573,9.206,9.206,0,0,0-3.548.634,11.989,11.989,0,0,0-2.819,1.646,1.474,1.474,0,0,0-.39.635,2.438,2.438,0,0,0-.13.766V65.82A1.77,1.77,0,0,0-8.7,67.555a9.8,9.8,0,0,0,1.791.715q1.42.409,1.42,1.134a.65.65,0,0,1-.325.59,1.714,1.714,0,0,1-.9.2,20.035,20.035,0,0,1-2.17-.1q-.87-.1-1.642-.163t-1.942-.065q-1.105,0-1.948.065t-1.75.163A21.131,21.131,0,0,1-18.371,70.195Zm55.626,1.04q-.149,0-.47-.316t-.321-.484q.057-.782.191-1.872t.153-1.878v-.39A11.489,11.489,0,0,1,33.5,69.444a9.243,9.243,0,0,1-5.244,1.466,10.974,10.974,0,0,1-6.412-1.9,12.973,12.973,0,0,1-4.273-4.977,14.394,14.394,0,0,1-1.529-6.493,15.139,15.139,0,0,1,1.831-7.359,14.154,14.154,0,0,1,5.2-5.4,15,15,0,0,1,7.936-2.042,15.227,15.227,0,0,1,2.425.2,12.925,12.925,0,0,1,2.01.46,5.052,5.052,0,0,0,.845.195q.4,0,.4-1.315V33.587a5.944,5.944,0,0,0-.751-3.508,3.486,3.486,0,0,0-2.254-1.217.81.81,0,0,1-.642-.9.782.782,0,0,1,.577-.837,45.565,45.565,0,0,0,4.664-1.364q1.955-.706,3.128-1.21a3.446,3.446,0,0,1,.724-.275,2.117,2.117,0,0,1,.367-.052.5.5,0,0,1,.549.522q0,.183-.088,1.031t-.2,2.414q-.111,1.566-.129,3.85l-.114,30.586a11.237,11.237,0,0,0,.325,3.2q.325.989,1.078.989.325,0,.987-.055t1.733-.14q1.076-.065,1.076.623a1.474,1.474,0,0,1-.33.907.887.887,0,0,1-.655.433,31.981,31.981,0,0,0-8.4,2.267q-.482.241-.682.315A1.125,1.125,0,0,1,37.255,71.235Zm-6.3-4.082a6.978,6.978,0,0,0,3-.745,8.374,8.374,0,0,0,2.69-2.006l.027-12.662a5.577,5.577,0,0,0-.96-3.03,7.668,7.668,0,0,0-2.588-2.471,7.009,7.009,0,0,0-3.656-.969,6.173,6.173,0,0,0-3.2,1.032,8.048,8.048,0,0,0-2.864,3.35,14.051,14.051,0,0,0-1.176,6.3,14.2,14.2,0,0,0,.916,5.5,9.512,9.512,0,0,0,2.292,3.413,8.475,8.475,0,0,0,2.883,1.772A8.173,8.173,0,0,0,30.954,67.153Zm-106.985,73.8a26.389,26.389,0,0,1-9.02-1.55,24.089,24.089,0,0,1-7.634-4.424,20.724,20.724,0,0,1-5.242-6.9,20.574,20.574,0,0,1-1.908-8.927,19.811,19.811,0,0,1,1.94-8.69,22.008,22.008,0,0,1,5.421-7.086,25.882,25.882,0,0,1,8.121-4.77,28.559,28.559,0,0,1,10.023-1.724,34.885,34.885,0,0,1,4.261.233,36.7,36.7,0,0,1,3.648.637q1.771.4,3.774,1.009a2.692,2.692,0,0,1,1.265.742,2.228,2.228,0,0,1,.487,1.336q.187,1.74.353,3.557t.212,4.031a.815.815,0,0,1-.46.833,1.345,1.345,0,0,1-1.078.115,1.19,1.19,0,0,1-.786-.9,26.678,26.678,0,0,0-1.353-3.815,7.119,7.119,0,0,0-2.281-2.816,11.274,11.274,0,0,0-3.829-1.836,18.833,18.833,0,0,0-5.171-.656,14.915,14.915,0,0,0-6.658,1.49,15.837,15.837,0,0,0-5.2,4.066,19.521,19.521,0,0,0-3.372,5.825,19.3,19.3,0,0,0-1.206,6.768,26.842,26.842,0,0,0,1.145,7.847,21.708,21.708,0,0,0,3.338,6.715,16.6,16.6,0,0,0,5.287,4.667,14.142,14.142,0,0,0,6.992,1.72,13.289,13.289,0,0,0,7.763-2.107,16.786,16.786,0,0,0,5.134-6.093,1.454,1.454,0,0,1,1.38-.921q.905.019.905,1.059a9.806,9.806,0,0,1-.232,1.789q-.232,1.156-.616,2.462t-.793,2.45a3.732,3.732,0,0,1-.72,1.169,3.808,3.808,0,0,1-1.248.641,24.975,24.975,0,0,1-5.781,1.534A44.723,44.723,0,0,1-76.032,140.956Zm27.338-.046a4.741,4.741,0,0,1-2.683-.882,7.44,7.44,0,0,1-2.147-2.21,4.922,4.922,0,0,1-.841-2.649,4.784,4.784,0,0,1,1.209-3.42,10.815,10.815,0,0,1,3.727-2.333l6.328-2.655a3.559,3.559,0,0,0,1.556-.957,3.985,3.985,0,0,0,.3-1.7l.112-3.989a4.347,4.347,0,0,0-.839-2.916,3.133,3.133,0,0,0-2.639-1.169,5.5,5.5,0,0,0-1.856.334,4.654,4.654,0,0,0-1.512.836,1.255,1.255,0,0,0-.444.723,4.154,4.154,0,0,0-.111.973,7.051,7.051,0,0,0,.042.707,7.051,7.051,0,0,1,.042.707q0,.364-.9.935a11.666,11.666,0,0,1-2.028,1.013,5.424,5.424,0,0,1-1.893.441.851.851,0,0,1-.624-.238.821.821,0,0,1-.242-.611,4.2,4.2,0,0,1,.692-2.176,9.375,9.375,0,0,1,2.059-2.271,20.782,20.782,0,0,1,3.42-2.443,21.183,21.183,0,0,1,3.633-1.672,9.809,9.809,0,0,1,3.123-.613,5.8,5.8,0,0,1,4.461,1.865,6.452,6.452,0,0,1,1.641,4.768l-.325,14.733a3.607,3.607,0,0,0,.58,2.314,1.931,1.931,0,0,0,1.629.911,3.287,3.287,0,0,0,2.311-.753.785.785,0,0,1,.482-.287.715.715,0,0,1,.529.2.718.718,0,0,1,.2.53,2.453,2.453,0,0,1-.885,1.618,8.787,8.787,0,0,1-2.365,1.714,5.6,5.6,0,0,1-2.459.618q-3.216,0-5.2-3.493h-.177a16.978,16.978,0,0,1-4.019,2.661A9.516,9.516,0,0,1-48.694,140.91Zm3.338-3.516a4.337,4.337,0,0,0,1.852-.356,4.456,4.456,0,0,0,1.36-1,2.4,2.4,0,0,0,.477-.811,5.241,5.241,0,0,0,.236-1.515l.149-3.712a1.91,1.91,0,0,0-.1-.955.523.523,0,0,0-.5-.278,2.34,2.34,0,0,0-.408.055,3.928,3.928,0,0,0-.7.232,11.837,11.837,0,0,0-4.08,2.322,3.7,3.7,0,0,0-1.182,2.646,3.218,3.218,0,0,0,.932,2.557A2.964,2.964,0,0,0-45.356,137.394Zm18.12,20.6a3.1,3.1,0,0,1-.854-.144q-.492-.144-.492-.554a.831.831,0,0,1,.469-.776,6.872,6.872,0,0,1,1.026-.451,10.254,10.254,0,0,0,1.9-.8,1.746,1.746,0,0,0,.778-1.666V121.288a5.454,5.454,0,0,0-.3-1.569,6.009,6.009,0,0,0-.933-1.8A2.539,2.539,0,0,0-27.3,116.9a.767.767,0,0,1-.456-.335,1.144,1.144,0,0,1-.158-.623,1.02,1.02,0,0,1,.158-.615.722.722,0,0,1,.391-.279,41.1,41.1,0,0,0,4.451-1.305q2.057-.739,3.729-1.483a.613.613,0,0,0,.244-.127.339.339,0,0,1,.225-.089.377.377,0,0,1,.345.214.9.9,0,0,1,.12.446,15.617,15.617,0,0,1-.163,1.806,16.358,16.358,0,0,0-.162,2.057,1.286,1.286,0,0,0,.084.642,13.531,13.531,0,0,1,2.354-1.686,23.611,23.611,0,0,1,3.895-1.867,11.844,11.844,0,0,1,4.206-.831,9.366,9.366,0,0,1,5.819,1.816,11.767,11.767,0,0,1,3.678,4.672,14.422,14.422,0,0,1,1.277,5.949,15.339,15.339,0,0,1-1.124,5.763,16.784,16.784,0,0,1-3.158,5.048,15.909,15.909,0,0,1-4.718,3.59A12.736,12.736,0,0,1-12.04,141a9.686,9.686,0,0,1-2.008-.255,18.426,18.426,0,0,1-2.31-.663,7.459,7.459,0,0,1-1.843-.918q-.065,0-.13.549t-.1,1.174q-.033.624-.033.838V153.4a1.743,1.743,0,0,0,.588,1.38,4.042,4.042,0,0,0,1.428.79q.84.275,1.64.527a6.421,6.421,0,0,1,1.027.441.816.816,0,0,1,.45.766.562.562,0,0,1-.454.544,2.69,2.69,0,0,1-.863.154,33.906,33.906,0,0,1-3.472-.162,31.642,31.642,0,0,0-3.259-.163q-1.1,0-1.948.065t-1.728.163A20.462,20.462,0,0,1-27.236,158Zm15.756-19.366a5.467,5.467,0,0,0,2.147-.566,8.423,8.423,0,0,0,2.521-1.847,10.147,10.147,0,0,0,2.1-3.444,14.682,14.682,0,0,0,.849-5.338,16.345,16.345,0,0,0-.881-5.912,8.6,8.6,0,0,0-2.169-3.351,6.74,6.74,0,0,0-2.632-1.5,8.843,8.843,0,0,0-2.29-.371,7.87,7.87,0,0,0-2.936.6,10.7,10.7,0,0,0-2.521,1.378q-1.015.774-1.015,1.267,0,1.129-.023,2.6t-.056,3q-.032,1.525-.055,2.749t-.023,1.789a9.579,9.579,0,0,0,1.014,4.282,9.914,9.914,0,0,0,2.613,3.363A5.238,5.238,0,0,0-11.48,138.631ZM7.458,140.2a1.812,1.812,0,0,1-.878-.2.629.629,0,0,1-.358-.585.784.784,0,0,1,.423-.747,4.054,4.054,0,0,1,.942-.357,8.111,8.111,0,0,0,2.21-.845,1.775,1.775,0,0,0,.715-1.625V121.8a6.621,6.621,0,0,0-.65-3.153,2.927,2.927,0,0,0-2.275-1.463.751.751,0,0,1-.487-.292,1.175,1.175,0,0,1-.162-.683q0-.78.585-.845a20.266,20.266,0,0,0,4.908-1.722q2.047-1.073,3.087-1.723a2.37,2.37,0,0,1,1.04-.455.46.46,0,0,1,.52.52q0,.715-.162,2.275t-.325,3.38q-.162,1.82-.162,3.38v14.82a1.8,1.8,0,0,0,.715,1.56,6.765,6.765,0,0,0,2.21.91,4.054,4.054,0,0,1,.943.357.784.784,0,0,1,.423.747q0,.78-1.17.78-1.235,0-2.21-.1t-1.853-.163q-.878-.065-2.047-.065-1.105,0-2.015.065t-1.788.163A20.252,20.252,0,0,1,7.458,140.2Zm5.85-33.215a3.884,3.884,0,0,1-3.9-3.9,3.839,3.839,0,0,1,1.137-2.827,3.761,3.761,0,0,1,2.762-1.138,3.948,3.948,0,0,1,2.86,1.138,3.784,3.784,0,0,1,1.17,2.827,3.709,3.709,0,0,1-1.17,2.762A3.948,3.948,0,0,1,13.308,106.98Zm21.477,33.93a7.185,7.185,0,0,1-5.491-2.025,8.315,8.315,0,0,1-1.91-5.917V117.925a.827.827,0,0,0-.409-.776,3.9,3.9,0,0,0-1.653-.256h-.56q-.363,0-.619-.535a2.417,2.417,0,0,1-.256-1.047.781.781,0,0,1,.157-.371.909.909,0,0,1,.279-.306,23.847,23.847,0,0,0,2.721-1.82q1.327-1.023,2.478-2.07t1.886-1.819l.647-.581a.937.937,0,0,1,.647-.237,1.358,1.358,0,0,1,.7.168q.283.168.2.755l-.363,3.245a1.023,1.023,0,0,0,.344,1.023,2.271,2.271,0,0,0,1.234.269h7.523q.222,0,.417.432a2.261,2.261,0,0,1,.2.941,4.319,4.319,0,0,1-.214,1.364q-.214.647-.492.647h-6.3a4.778,4.778,0,0,0-2.085.3q-.515.3-.515,1.466v12.617a6.919,6.919,0,0,0,1.114,4.217,3.694,3.694,0,0,0,3.137,1.485,9.69,9.69,0,0,0,2.85-.321,8.508,8.508,0,0,0,1.79-.811.53.53,0,0,1,.317-.13.428.428,0,0,1,.4.33,2.044,2.044,0,0,1,.125.731q0,.343-1.176,1.347a13.166,13.166,0,0,1-3.059,1.867A9.634,9.634,0,0,1,34.786,140.91Zm16.709,0a4.741,4.741,0,0,1-2.683-.882,7.44,7.44,0,0,1-2.147-2.21,4.922,4.922,0,0,1-.841-2.649,4.784,4.784,0,0,1,1.209-3.42,10.815,10.815,0,0,1,3.727-2.333l6.328-2.655a3.559,3.559,0,0,0,1.556-.957,3.985,3.985,0,0,0,.3-1.7l.112-3.989a4.347,4.347,0,0,0-.839-2.916,3.133,3.133,0,0,0-2.639-1.169,5.5,5.5,0,0,0-1.856.334,4.654,4.654,0,0,0-1.512.836,1.255,1.255,0,0,0-.444.723,4.154,4.154,0,0,0-.111.973,7.051,7.051,0,0,0,.042.707,7.051,7.051,0,0,1,.042.707q0,.364-.9.935a11.666,11.666,0,0,1-2.028,1.013,5.424,5.424,0,0,1-1.893.441.851.851,0,0,1-.624-.238.821.821,0,0,1-.242-.611,4.2,4.2,0,0,1,.692-2.176,9.375,9.375,0,0,1,2.059-2.271,20.782,20.782,0,0,1,3.42-2.443,21.183,21.183,0,0,1,3.633-1.672,9.809,9.809,0,0,1,3.123-.613,5.8,5.8,0,0,1,4.461,1.865,6.452,6.452,0,0,1,1.641,4.768l-.325,14.733a3.607,3.607,0,0,0,.58,2.314,1.931,1.931,0,0,0,1.629.911,3.287,3.287,0,0,0,2.311-.753.785.785,0,0,1,.482-.287.7.7,0,0,1,.733.734,2.453,2.453,0,0,1-.885,1.618,8.787,8.787,0,0,1-2.365,1.714,5.6,5.6,0,0,1-2.459.618q-3.216,0-5.2-3.493h-.177a16.978,16.978,0,0,1-4.019,2.661A9.516,9.516,0,0,1,51.5,140.91Zm3.338-3.516a4.337,4.337,0,0,0,1.852-.356,4.456,4.456,0,0,0,1.36-1,2.4,2.4,0,0,0,.477-.811,5.241,5.241,0,0,0,.236-1.515L58.908,130a1.91,1.91,0,0,0-.1-.955.523.523,0,0,0-.5-.278,2.34,2.34,0,0,0-.408.055,3.928,3.928,0,0,0-.7.232,11.837,11.837,0,0,0-4.08,2.322,3.7,3.7,0,0,0-1.182,2.646,3.218,3.218,0,0,0,.932,2.557A2.964,2.964,0,0,0,54.833,137.394Zm18.074,2.8a2.745,2.745,0,0,1-.86-.145.554.554,0,0,1-.44-.553.813.813,0,0,1,.459-.766,8.331,8.331,0,0,1,1.036-.461,16.384,16.384,0,0,0,1.828-.729,1.726,1.726,0,0,0,.853-1.741V103.587a7.241,7.241,0,0,0-.607-3.124,2.925,2.925,0,0,0-2.232-1.6q-.577-.13-.577-.9,0-.707.512-.837a31.422,31.422,0,0,0,3.16-.869q1.489-.5,2.807-1.028t2.338-.9a1.549,1.549,0,0,1,.541-.149.354.354,0,0,1,.331.191.769.769,0,0,1,.107.377q0,.547-.2,2.22a49.385,49.385,0,0,0-.218,5.075v33.725A1.725,1.725,0,0,0,82.6,137.5a16.422,16.422,0,0,0,1.829.729,8.183,8.183,0,0,1,1.036.46.814.814,0,0,1,.459.767.554.554,0,0,1-.44.553,2.745,2.745,0,0,1-.86.145q-1.254,0-2.162-.088t-1.75-.144q-.843-.055-2.013-.055-1.105,0-1.942.065t-1.694.163A19.641,19.641,0,0,1,72.907,140.2Zm21.821,1.092a4.244,4.244,0,0,1-4.159-4.159,4.182,4.182,0,1,1,4.159,4.159Z" transform="translate(143.891 45.825)" fill="url(#linear-gradient)"/>
</svg>
