<svg xmlns="http://www.w3.org/2000/svg" xmlns:xlink="http://www.w3.org/1999/xlink" width="1137.7" height="119.364" viewBox="0 0 1137.7 119.364">
  <defs>
    <linearGradient id="linear-gradient" x1="0.5" x2="0.5" y2="1" gradientUnits="objectBoundingBox">
      <stop offset="0" stop-color="#2e4177"/>
      <stop offset="1" stop-color="#00aec7"/>
    </linearGradient>
  </defs>
  <path id="パス_7328" data-name="パス 7328" d="M6.609.636A6.551,6.551,0,0,1,4.176.231Q3.163-.174,3.163-.928q0-1.614,3.682-2.3,4.56-.874,6.178-2.7t1.618-6.055V-66.12q0-4.1-1.688-5.783T6.636-74.5q-3.473-.684-3.472-2.469a1.179,1.179,0,0,1,.891-1.106,6.027,6.027,0,0,1,2.207-.353q3.066,0,5.428.077t4.563.172q2.2.1,4.771.1,2.316,0,4.269-.078t4.156-.156q2.2-.078,5.234-.078a5.948,5.948,0,0,1,2.206.336,1.157,1.157,0,0,1,.82,1.125,1.731,1.731,0,0,1-.855,1.508,7.677,7.677,0,0,1-2.618.925q-4.579,1.014-5.721,2.958a10.841,10.841,0,0,0-1.142,5.459v23.136a6.593,6.593,0,0,0,.164,1.379q.164.76.644.76a2.861,2.861,0,0,0,1.516-.65,10.568,10.568,0,0,0,1.621-1.405L55.005-67.483a9,9,0,0,0,1.449-1.9,3.639,3.639,0,0,0,.489-1.74q0-2.3-3.219-3.073a8.969,8.969,0,0,1-2.533-1.027,1.666,1.666,0,0,1-.771-1.442,1.179,1.179,0,0,1,.891-1.106,6.027,6.027,0,0,1,2.207-.353h7.106q3.69,0,7.768-.1t7.672-.222q3.593-.12,5.532-.12a4.736,4.736,0,0,1,2.007.377,1.18,1.18,0,0,1,.807,1.082,1.73,1.73,0,0,1-1.047,1.526,9.315,9.315,0,0,1-2.81.907,47.667,47.667,0,0,0-9.675,2.692,32.911,32.911,0,0,0-8.634,5.055q-4.076,3.321-7.631,6.653t-7.069,6.907q-3.514,3.574-7.539,7.836-1.067,1,.426,2.647L69.368-11.505q2.291,2.5,3.911,4.023a14.228,14.228,0,0,0,3.652,2.495,27.569,27.569,0,0,0,5.323,1.759,21.814,21.814,0,0,1,2.826.883A1.458,1.458,0,0,1,86.145-.964q0,.756-1.047,1.16a8.136,8.136,0,0,1-2.851.4Q78.731.6,75.863.4T70.2.067q-2.8-.137-6.3-.137-2.906,0-5.2.129T52.3.189a6.027,6.027,0,0,1-2.207-.353A1.179,1.179,0,0,1,49.2-1.269q0-1.528,2.962-2.214,3.846-.874,3.915-2.713a2.781,2.781,0,0,0-.54-1.579Q55-8.565,54.208-9.51l-23.351-26.2a15.391,15.391,0,0,0-1.518-1.4,2.253,2.253,0,0,0-1.278-.608q-.48,0-.6.82a10.421,10.421,0,0,0-.122,1.525q0,5.571.145,10.74t.385,11.848a17.945,17.945,0,0,0,.711,4.349A6.585,6.585,0,0,0,30.72-5.215,11.124,11.124,0,0,0,35.3-3.229a11.41,11.41,0,0,1,2.722.84,1.528,1.528,0,0,1,.96,1.425q0,.756-.995,1.142a6.805,6.805,0,0,1-2.452.386,50.766,50.766,0,0,1-5.518-.24q-2.106-.24-3.8-.437a35.278,35.278,0,0,0-4.009-.2q-2.739,0-4.977.215T12.563.378A57.922,57.922,0,0,1,6.609.636ZM90.341.36A3.765,3.765,0,0,1,88.653.008,1.162,1.162,0,0,1,87.941-1.1a1.381,1.381,0,0,1,.772-1.347A12.3,12.3,0,0,1,90.7-3.193a17.956,17.956,0,0,0,3.375-1.338,3.288,3.288,0,0,0,1.575-3.222V-34.146a16.574,16.574,0,0,0-.695-5.12,4.434,4.434,0,0,0-3.5-2.823,2.786,2.786,0,0,1-.857-.576,1.618,1.618,0,0,1-.377-1.194q0-1.459,1.114-1.648a43.716,43.716,0,0,0,7.606-2.622,45.75,45.75,0,0,0,6.273-3.462q.431-.24.835-.49a1.511,1.511,0,0,1,.8-.25.631.631,0,0,1,.592.31,1.449,1.449,0,0,1,.18.74,32.687,32.687,0,0,1-.3,3.3,34.283,34.283,0,0,0-.3,4.1,7.553,7.553,0,0,0,.06.952,1.142,1.142,0,0,0,.18.593,32.762,32.762,0,0,1,8.7-6.018,23.9,23.9,0,0,1,10.135-2.092,12.526,12.526,0,0,1,10,4.73q3.979,4.73,3.979,12.125V-7.718q0,2.4,1.576,3.162a28.3,28.3,0,0,0,3.376,1.362,13.283,13.283,0,0,1,1.808.833,1.539,1.539,0,0,1,.847,1.432,1.017,1.017,0,0,1-.787,1.021,4.689,4.689,0,0,1-1.508.267,36.77,36.77,0,0,1-4-.18q-1.6-.18-3.077-.3T134.67-.24q-2.04,0-3.6.12t-3.187.3a37.5,37.5,0,0,1-4.024.18,4.7,4.7,0,0,1-1.447-.267A1.023,1.023,0,0,1,121.6-.928a1.544,1.544,0,0,1,.83-1.432,12.426,12.426,0,0,1,1.79-.833,25.313,25.313,0,0,0,3.323-1.362q1.523-.762,1.523-3.162V-32.466q0-5.036-2.644-7.854a9.47,9.47,0,0,0-7.042-2.9,17,17,0,0,0-6.55,1.171,22.134,22.134,0,0,0-5.2,3.038,2.721,2.721,0,0,0-.72,1.172,4.5,4.5,0,0,0-.24,1.414V-7.718q0,2.4,1.541,3.2a18.093,18.093,0,0,0,3.306,1.32q2.621.756,2.621,2.094a1.2,1.2,0,0,1-.6,1.089,3.165,3.165,0,0,1-1.661.369,36.985,36.985,0,0,1-4.006-.18q-1.606-.18-3.032-.3t-3.586-.12q-2.04,0-3.6.12t-3.232.3A39.008,39.008,0,0,1,90.341.36Zm88.038,1.32a24.673,24.673,0,0,1-12.433-3.155,23.645,23.645,0,0,1-8.806-8.7,24.38,24.38,0,0,1-3.267-12.612,26.3,26.3,0,0,1,2.049-10.2,29.693,29.693,0,0,1,5.737-8.882,27.961,27.961,0,0,1,8.609-6.283,24.475,24.475,0,0,1,10.581-2.323A24.7,24.7,0,0,1,193.7-47.086a26.079,26.079,0,0,1,9.106,8.942,22.848,22.848,0,0,1,3.386,12.132,30.217,30.217,0,0,1-3.129,13.548A25.092,25.092,0,0,1,193.779-2.22Q187.623,1.68,178.379,1.68Zm2.451-4.191a13.915,13.915,0,0,0,6.277-1.369,9.89,9.89,0,0,0,4.343-4.327,19.09,19.09,0,0,0,1.955-6.685,64.991,64.991,0,0,0,.515-8.24,33.377,33.377,0,0,0-1.873-11.292,21.869,21.869,0,0,0-5.236-8.516,11.013,11.013,0,0,0-7.932-3.263,13.332,13.332,0,0,0-4.967.881,9.973,9.973,0,0,0-4.026,3.118,14.724,14.724,0,0,0-3.034,7.129,56.985,56.985,0,0,0-.737,9.458A32.469,32.469,0,0,0,168.031-14.5a23.281,23.281,0,0,0,5.236,8.648A10.384,10.384,0,0,0,180.83-2.511Zm54.817,5.584a1.221,1.221,0,0,1-.707-.258,1.4,1.4,0,0,1-.516-.721L217.5-39.654a10.561,10.561,0,0,0-2.588-4.108,8.975,8.975,0,0,0-3.618-2.188,10.022,10.022,0,0,1-1.807-.893,1.579,1.579,0,0,1-.778-1.407q0-.789.952-.986a8.221,8.221,0,0,1,1.622-.2q1.976,0,3.461.137t2.978.317a28.329,28.329,0,0,0,3.366.18,34.763,34.763,0,0,0,3.655-.18q1.7-.18,3.387-.317t3.716-.137a7.169,7.169,0,0,1,1.563.232q.978.232.978,1.021a1.439,1.439,0,0,1-.883,1.356q-.883.444-1.843.84a3.137,3.137,0,0,0-1.877,1.671,6.809,6.809,0,0,0-.643,3.094,9.932,9.932,0,0,0,.669,3.538l8.526,22.206a.451.451,0,0,0,.495.377.454.454,0,0,0,.5-.377l8.089-19.23a11.575,11.575,0,0,0,.677-2.531,17.013,17.013,0,0,0,.18-2.428,4.968,4.968,0,0,0-1.779-3.8,13.137,13.137,0,0,0-3.819-2.451,9.939,9.939,0,0,1-1.807-.892,1.579,1.579,0,0,1-.778-1.407q0-.789.927-.987a8.4,8.4,0,0,1,1.75-.2,36.141,36.141,0,0,1,4.427.283,42.142,42.142,0,0,0,5.13.283,52.233,52.233,0,0,0,5.8-.283,44.017,44.017,0,0,1,4.946-.283,6.807,6.807,0,0,1,1.6.233q.935.232.935,1.022a1.44,1.44,0,0,1-.882,1.355q-.882.445-1.842.841a10.629,10.629,0,0,0-2.509,1.32,3.258,3.258,0,0,0-1.189,2.859,9.176,9.176,0,0,0,.232,2,12.023,12.023,0,0,0,.677,2.084l8.338,21.594q.428.971.752.971.411,0,.752-.887l8.25-19.813a9.023,9.023,0,0,0,.677-2.452,13.62,13.62,0,0,0,.163-2.332,4.8,4.8,0,0,0-1.267-3.412,6.954,6.954,0,0,0-2.69-1.868,16.248,16.248,0,0,1-1.843-.823,1.475,1.475,0,0,1-.883-1.373q0-.789.935-1.022a6.807,6.807,0,0,1,1.6-.232,35.3,35.3,0,0,1,4.462.266,30.781,30.781,0,0,0,4.3.231,22.931,22.931,0,0,0,2.839-.128q.943-.128,1.872-.231t2.527-.138a7.885,7.885,0,0,1,1.665.2q.909.2.909.987a1.579,1.579,0,0,1-.778,1.407,9.939,9.939,0,0,1-1.807.892,7.551,7.551,0,0,0-3.655,2.785,21.816,21.816,0,0,0-2.879,4.96l-16.614,40.2A1.405,1.405,0,0,1,266.322,3a1.484,1.484,0,0,1-1.273-.909L251.663-30.084q-.255-.716-.579-.8-.326,0-.667.887L236.989,2.094A1.414,1.414,0,0,1,235.647,3.073ZM297.007.36A5.067,5.067,0,0,1,295.42.093a1.023,1.023,0,0,1-.813-1.021,1.5,1.5,0,0,1,.848-1.415,15.381,15.381,0,0,1,1.913-.85,30.247,30.247,0,0,0,3.375-1.345q1.575-.745,1.575-3.215V-67.224a13.369,13.369,0,0,0-1.12-5.768,5.4,5.4,0,0,0-4.12-2.957q-1.065-.24-1.065-1.665,0-1.3.945-1.545a58.006,58.006,0,0,0,5.834-1.6q2.75-.92,5.183-1.9t4.317-1.663a2.859,2.859,0,0,1,1-.276.653.653,0,0,1,.611.353,1.419,1.419,0,0,1,.2.7q0,1.011-.367,4.1a91.176,91.176,0,0,0-.4,9.369V-7.822q0,2.469,1.576,3.215a30.315,30.315,0,0,0,3.376,1.345,15.111,15.111,0,0,1,1.913.849A1.5,1.5,0,0,1,321.039-1a1.023,1.023,0,0,1-.813,1.021,5.067,5.067,0,0,1-1.587.267q-2.316,0-3.991-.163t-3.232-.265q-1.556-.1-3.716-.1-2.04,0-3.586.12t-3.127.3A36.262,36.262,0,0,1,297.007.36Zm50.967,1.4a20.421,20.421,0,0,1-11.556-3.309,22.312,22.312,0,0,1-7.819-9.249,31.347,31.347,0,0,1-2.829-13.635,26.156,26.156,0,0,1,3.3-13.043A26.358,26.358,0,0,1,337.9-46.9a21.956,21.956,0,0,1,12.111-3.549,18.582,18.582,0,0,1,8.764,2.024,15.594,15.594,0,0,1,6.081,5.548,14.807,14.807,0,0,1,2.222,8.069q0,4-3.634,4H338.573a2.8,2.8,0,0,0-2.375.917,6.071,6.071,0,0,0-.695,3.452,20.338,20.338,0,0,0,2.346,9.736,18.726,18.726,0,0,0,6.3,6.985,15.751,15.751,0,0,0,8.823,2.593,15.285,15.285,0,0,0,6.5-1.362,18.523,18.523,0,0,0,5.43-3.9,4.693,4.693,0,0,1,.754-.712,1.151,1.151,0,0,1,.669-.215q1.065,0,1.065,1.305a8.473,8.473,0,0,1-1.742,4.517,18.737,18.737,0,0,1-4.216,4.674A20.665,20.665,0,0,1,355.381.534,21.811,21.811,0,0,1,347.974,1.764Zm-9.231-36.743h9.6q3.053,0,4.832-.12a23.285,23.285,0,0,0,3.422-.48,1.21,1.21,0,0,0,.832-.936,7.116,7.116,0,0,0,.232-1.982,7.184,7.184,0,0,0-2.747-5.7,9.936,9.936,0,0,0-6.634-2.321,10,10,0,0,0-5.224,1.551,14,14,0,0,0-4.229,3.881,7.888,7.888,0,0,0-1.627,4.731Q337.2-34.978,338.744-34.978ZM412.456,2.28q-.276,0-.868-.584T411,.8q.1-1.444.352-3.456t.283-3.467v-.72a21.211,21.211,0,0,1-6.108,5.814,17.064,17.064,0,0,1-9.682,2.706A20.259,20.259,0,0,1,384-1.833a23.951,23.951,0,0,1-7.889-9.187,26.574,26.574,0,0,1-2.822-11.988,27.949,27.949,0,0,1,3.38-13.585,26.129,26.129,0,0,1,9.6-9.978,27.7,27.7,0,0,1,14.65-3.771,28.111,28.111,0,0,1,4.478.368,23.864,23.864,0,0,1,3.711.848,9.328,9.328,0,0,0,1.56.36q.735,0,.735-2.428V-67.224q0-4.71-1.386-6.477a6.436,6.436,0,0,0-4.161-2.247,1.5,1.5,0,0,1-1.185-1.665,1.444,1.444,0,0,1,1.065-1.545,84.12,84.12,0,0,0,8.61-2.519q3.609-1.3,5.775-2.234a6.363,6.363,0,0,1,1.336-.508,3.908,3.908,0,0,1,.678-.1.925.925,0,0,1,1.014.964q0,.337-.163,1.9t-.368,4.457q-.205,2.89-.239,7.107l-.21,56.466a20.746,20.746,0,0,0,.6,5.905q.6,1.825,1.989,1.825.6,0,1.822-.1t3.2-.258q1.986-.12,1.986,1.149a2.722,2.722,0,0,1-.609,1.674,1.637,1.637,0,0,1-1.209.8,59.042,59.042,0,0,0-15.5,4.185q-.891.444-1.26.582A2.077,2.077,0,0,1,412.456,2.28ZM400.821-5.256a12.883,12.883,0,0,0,5.529-1.376,15.459,15.459,0,0,0,4.967-3.7l.051-23.376A10.3,10.3,0,0,0,409.6-39.3a14.157,14.157,0,0,0-4.777-4.561,12.941,12.941,0,0,0-6.749-1.789,11.4,11.4,0,0,0-5.909,1.906,14.858,14.858,0,0,0-5.287,6.184Q384.7-33.287,384.7-25.943A26.22,26.22,0,0,0,386.393-15.8a17.561,17.561,0,0,0,4.232,6.3,15.645,15.645,0,0,0,5.322,3.271A15.089,15.089,0,0,0,400.821-5.256Zm58.516,40.02q-10.721,0-16.888-3.813t-6.167-10.343a14.051,14.051,0,0,1,.925-5.47,9.731,9.731,0,0,1,3.314-3.946Q442.41,9.683,445,7.654t5.073-3.977l5.353.866a25.625,25.625,0,0,0-7.275,6.228,12.272,12.272,0,0,0-2.211,7.377,9.9,9.9,0,0,0,4.208,8.1,16.584,16.584,0,0,0,10.483,3.265q7.5,0,11.5-3.24a15.3,15.3,0,0,0,4.264-5.54,16.294,16.294,0,0,0,1.541-6.922,5.146,5.146,0,0,0-1.669-3.945,12.864,12.864,0,0,0-5.437-2.542A56.058,56.058,0,0,0,460.777,5.9q-11.7-.979-16.391-3.608a8.292,8.292,0,0,1-4.693-7.608,4.207,4.207,0,0,1,.66-2.237,9.2,9.2,0,0,1,2.274-2.306q2.447-1.883,3.854-2.954a21.614,21.614,0,0,0,2.224-1.9,7.658,7.658,0,0,0,1.347-1.836l4.74,2.076a11.946,11.946,0,0,0-4.266,2.458,4.229,4.229,0,0,0-1.7,2.783,3.192,3.192,0,0,0,1.713,2.662,14.781,14.781,0,0,0,5.28,1.771q3.567.65,9.128,1.081,11.736.739,17.292,3.721T487.8,8.544a19.692,19.692,0,0,1-2.479,9.406,32.606,32.606,0,0,1-6.58,8.446,33.546,33.546,0,0,1-9.137,6.1A24.74,24.74,0,0,1,459.337,34.764Zm1.509-51.649q4.283,0,7.021-4.481a21.538,21.538,0,0,0,2.738-11.391,16.428,16.428,0,0,0-1.446-6.94,13.324,13.324,0,0,0-3.8-5.007,8.214,8.214,0,0,0-5.215-1.86,7.377,7.377,0,0,0-4.888,1.945,13.763,13.763,0,0,0-3.63,5.1,17.524,17.524,0,0,0-1.361,7.013,21.017,21.017,0,0,0,1.421,7.863,14.331,14.331,0,0,0,3.852,5.658A7.953,7.953,0,0,0,460.847-16.884Zm-.928,4.582a20.089,20.089,0,0,1-9.727-2.538,22.091,22.091,0,0,1-7.659-6.817,16.165,16.165,0,0,1-2.993-9.478,17.169,17.169,0,0,1,3.113-10.178,21.223,21.223,0,0,1,8.175-6.869,24.247,24.247,0,0,1,10.775-2.47,21.487,21.487,0,0,1,6.39.883q2.841.883,5.884,1.567a31.162,31.162,0,0,0,4.559.9,38.66,38.66,0,0,0,4,.2q1.579,0,3.617-.18t2.983-.18q1.7,0,1.7,2.115a4.582,4.582,0,0,1-1.339,3.009,1.727,1.727,0,0,1-1.134.669h-3.24q-3.2,0-3.808.96a6.059,6.059,0,0,0-.353,1.085,11.537,11.537,0,0,0-.248,1.736q-.085,1.062-.085,2.735a23.291,23.291,0,0,1-2.848,11.384,23.4,23.4,0,0,1-7.517,8.333A17.984,17.984,0,0,1,459.919-12.3Zm55.24,14.066A20.42,20.42,0,0,1,503.6-1.545a22.312,22.312,0,0,1-7.819-9.249,31.347,31.347,0,0,1-2.829-13.635,26.156,26.156,0,0,1,3.3-13.043,26.358,26.358,0,0,1,8.826-9.424,21.956,21.956,0,0,1,12.111-3.549,18.582,18.582,0,0,1,8.764,2.024,15.594,15.594,0,0,1,6.081,5.548A14.807,14.807,0,0,1,534.26-34.8q0,4-3.634,4H505.758a2.8,2.8,0,0,0-2.375.917,6.071,6.071,0,0,0-.695,3.452,20.338,20.338,0,0,0,2.346,9.736,18.726,18.726,0,0,0,6.3,6.985,15.751,15.751,0,0,0,8.823,2.593,15.285,15.285,0,0,0,6.5-1.362,18.522,18.522,0,0,0,5.43-3.9,4.7,4.7,0,0,1,.754-.712,1.151,1.151,0,0,1,.669-.215q1.065,0,1.065,1.305a8.473,8.473,0,0,1-1.742,4.517,18.735,18.735,0,0,1-4.216,4.674A20.666,20.666,0,0,1,522.565.534,21.811,21.811,0,0,1,515.159,1.764Zm-9.231-36.743h9.6q3.052,0,4.832-.12a23.286,23.286,0,0,0,3.422-.48,1.21,1.21,0,0,0,.832-.936,7.116,7.116,0,0,0,.232-1.982,7.184,7.184,0,0,0-2.747-5.7,9.936,9.936,0,0,0-6.634-2.321,10,10,0,0,0-5.224,1.551,14,14,0,0,0-4.229,3.881,7.888,7.888,0,0,0-1.627,4.731Q504.383-34.978,505.928-34.978ZM578.092,1.68A8.753,8.753,0,0,1,573.138.053a13.735,13.735,0,0,1-3.964-4.08,9.087,9.087,0,0,1-1.552-4.89,8.832,8.832,0,0,1,2.232-6.314,19.967,19.967,0,0,1,6.88-4.308l11.683-4.9a6.571,6.571,0,0,0,2.872-1.766,7.357,7.357,0,0,0,.557-3.139l.206-7.365a8.025,8.025,0,0,0-1.549-5.383,5.783,5.783,0,0,0-4.871-2.158,10.153,10.153,0,0,0-3.426.617,8.592,8.592,0,0,0-2.792,1.543,2.317,2.317,0,0,0-.82,1.335,7.668,7.668,0,0,0-.205,1.8,13.016,13.016,0,0,0,.078,1.306,13.016,13.016,0,0,1,.078,1.306q0,.671-1.657,1.726a21.536,21.536,0,0,1-3.743,1.869,10.014,10.014,0,0,1-3.495.815,1.571,1.571,0,0,1-1.151-.44,1.515,1.515,0,0,1-.446-1.128,7.756,7.756,0,0,1,1.277-4.018,17.308,17.308,0,0,1,3.8-4.193,38.369,38.369,0,0,1,6.313-4.509,39.107,39.107,0,0,1,6.708-3.087,18.109,18.109,0,0,1,5.765-1.132A10.709,10.709,0,0,1,600.151-47a11.911,11.911,0,0,1,3.03,8.8l-.6,27.2a6.66,6.66,0,0,0,1.071,4.271,3.564,3.564,0,0,0,3.007,1.682,6.069,6.069,0,0,0,4.266-1.389,1.449,1.449,0,0,1,.891-.531,1.32,1.32,0,0,1,.977.378,1.325,1.325,0,0,1,.377.978,4.529,4.529,0,0,1-1.633,2.987A16.223,16.223,0,0,1,607.17.54a10.343,10.343,0,0,1-4.54,1.14q-5.938,0-9.594-6.448h-.326a31.344,31.344,0,0,1-7.42,4.913A17.567,17.567,0,0,1,578.092,1.68Zm6.163-6.491a8.006,8.006,0,0,0,3.419-.658,8.226,8.226,0,0,0,2.512-1.839,4.437,4.437,0,0,0,.881-1.5,9.674,9.674,0,0,0,.435-2.8l.276-6.853a3.527,3.527,0,0,0-.19-1.763.965.965,0,0,0-.925-.513,4.322,4.322,0,0,0-.753.1,7.253,7.253,0,0,0-1.3.428q-5.351,2.07-7.533,4.286a6.835,6.835,0,0,0-2.182,4.884,5.94,5.94,0,0,0,1.721,4.721A5.472,5.472,0,0,0,584.255-4.811ZM618.222.36a3.765,3.765,0,0,1-1.688-.353,1.162,1.162,0,0,1-.712-1.106,1.381,1.381,0,0,1,.772-1.347,12.3,12.3,0,0,1,1.988-.747,17.955,17.955,0,0,0,3.375-1.338,3.288,3.288,0,0,0,1.575-3.222V-34.146a16.576,16.576,0,0,0-.695-5.12,4.434,4.434,0,0,0-3.5-2.823,2.786,2.786,0,0,1-.857-.576,1.618,1.618,0,0,1-.377-1.194q0-1.459,1.114-1.648a43.716,43.716,0,0,0,7.606-2.622,45.75,45.75,0,0,0,6.273-3.462q.431-.24.835-.49a1.511,1.511,0,0,1,.8-.25.631.631,0,0,1,.593.31,1.449,1.449,0,0,1,.18.74,32.683,32.683,0,0,1-.3,3.3,34.281,34.281,0,0,0-.3,4.1,7.558,7.558,0,0,0,.06.952,1.142,1.142,0,0,0,.18.593,32.761,32.761,0,0,1,8.7-6.018,23.9,23.9,0,0,1,10.135-2.092,12.526,12.526,0,0,1,10,4.73q3.979,4.73,3.979,12.125V-7.718q0,2.4,1.576,3.162A28.3,28.3,0,0,0,672.9-3.193a13.282,13.282,0,0,1,1.807.833,1.539,1.539,0,0,1,.848,1.432,1.017,1.017,0,0,1-.788,1.021,4.688,4.688,0,0,1-1.507.267,36.77,36.77,0,0,1-4-.18q-1.6-.18-3.077-.3t-3.638-.12q-2.04,0-3.6.12t-3.187.3a37.5,37.5,0,0,1-4.024.18,4.7,4.7,0,0,1-1.447-.267,1.023,1.023,0,0,1-.813-1.021,1.544,1.544,0,0,1,.83-1.432,12.424,12.424,0,0,1,1.79-.833,25.312,25.312,0,0,0,3.323-1.362q1.523-.762,1.523-3.162V-32.466q0-5.036-2.644-7.854a9.47,9.47,0,0,0-7.043-2.9,17,17,0,0,0-6.55,1.171,22.132,22.132,0,0,0-5.2,3.038,2.721,2.721,0,0,0-.72,1.172,4.5,4.5,0,0,0-.24,1.414V-7.718q0,2.4,1.541,3.2a18.1,18.1,0,0,0,3.306,1.32q2.621.756,2.621,2.094a1.2,1.2,0,0,1-.6,1.089,3.165,3.165,0,0,1-1.661.369,36.985,36.985,0,0,1-4.006-.18q-1.606-.18-3.032-.3t-3.586-.12q-2.04,0-3.6.12T622.3.18A39.007,39.007,0,0,1,618.222.36Zm102.7,1.92q-.276,0-.868-.584T719.456.8q.105-1.444.353-3.456t.283-3.467v-.72a21.21,21.21,0,0,1-6.108,5.814A17.064,17.064,0,0,1,704.3,1.68a20.259,20.259,0,0,1-11.838-3.513,23.951,23.951,0,0,1-7.889-9.187,26.574,26.574,0,0,1-2.822-11.988,27.949,27.949,0,0,1,3.38-13.585,26.13,26.13,0,0,1,9.6-9.978,27.7,27.7,0,0,1,14.65-3.771,28.111,28.111,0,0,1,4.477.368,23.864,23.864,0,0,1,3.711.848,9.329,9.329,0,0,0,1.56.36q.735,0,.735-2.428V-67.224q0-4.71-1.386-6.477a6.436,6.436,0,0,0-4.161-2.247,1.5,1.5,0,0,1-1.185-1.665,1.444,1.444,0,0,1,1.065-1.545,84.12,84.12,0,0,0,8.61-2.519q3.609-1.3,5.775-2.234a6.362,6.362,0,0,1,1.336-.508,3.908,3.908,0,0,1,.678-.1.925.925,0,0,1,1.014.964q0,.337-.163,1.9t-.368,4.457q-.205,2.89-.239,7.107l-.21,56.466a20.747,20.747,0,0,0,.6,5.905q.6,1.825,1.989,1.825.6,0,1.822-.1t3.2-.258q1.986-.12,1.986,1.149a2.722,2.722,0,0,1-.609,1.674,1.637,1.637,0,0,1-1.209.8,59.042,59.042,0,0,0-15.5,4.185q-.891.444-1.26.582A2.077,2.077,0,0,1,720.917,2.28ZM709.283-5.256a12.883,12.883,0,0,0,5.529-1.376,15.458,15.458,0,0,0,4.967-3.7l.051-23.376a10.3,10.3,0,0,0-1.773-5.594,14.157,14.157,0,0,0-4.778-4.561,12.94,12.94,0,0,0-6.749-1.789,11.4,11.4,0,0,0-5.909,1.906,14.857,14.857,0,0,0-5.287,6.184q-2.171,4.278-2.171,11.622A26.219,26.219,0,0,0,694.854-15.8a17.561,17.561,0,0,0,4.232,6.3,15.646,15.646,0,0,0,5.322,3.271A15.09,15.09,0,0,0,709.283-5.256ZM817.83,1.764A48.719,48.719,0,0,1,801.178-1.1a44.47,44.47,0,0,1-14.093-8.168A38.26,38.26,0,0,1,777.406-22a37.983,37.983,0,0,1-3.523-16.481,36.574,36.574,0,0,1,3.581-16.042,40.63,40.63,0,0,1,10.009-13.082,47.783,47.783,0,0,1,14.993-8.807,52.723,52.723,0,0,1,18.5-3.182,64.4,64.4,0,0,1,7.867.43,67.762,67.762,0,0,1,6.735,1.177q3.269.746,6.967,1.862a4.969,4.969,0,0,1,2.336,1.371,4.113,4.113,0,0,1,.9,2.466q.345,3.212.653,6.566t.392,7.442a1.5,1.5,0,0,1-.848,1.538,2.484,2.484,0,0,1-1.989.213,2.2,2.2,0,0,1-1.45-1.664,49.252,49.252,0,0,0-2.5-7.042,13.142,13.142,0,0,0-4.21-5.2,20.813,20.813,0,0,0-7.069-3.39,34.769,34.769,0,0,0-9.546-1.211,27.535,27.535,0,0,0-12.292,2.751,29.238,29.238,0,0,0-9.608,7.506,36.039,36.039,0,0,0-6.225,10.753,35.631,35.631,0,0,0-2.226,12.495,49.555,49.555,0,0,0,2.114,14.486,40.076,40.076,0,0,0,6.163,12.4A30.646,30.646,0,0,0,806.9-6.036,26.107,26.107,0,0,0,819.8-2.859q8.745,0,14.333-3.891A30.989,30.989,0,0,0,843.615-18a2.684,2.684,0,0,1,2.547-1.7q1.672.035,1.672,1.955a18.1,18.1,0,0,1-.428,3.3q-.427,2.135-1.138,4.545T844.8-5.372a6.889,6.889,0,0,1-1.328,2.159,7.031,7.031,0,0,1-2.3,1.184A46.109,46.109,0,0,1,830.5.8,82.564,82.564,0,0,1,817.83,1.764ZM868.3,1.68A8.753,8.753,0,0,1,863.345.053a13.735,13.735,0,0,1-3.964-4.08,9.087,9.087,0,0,1-1.552-4.89,8.832,8.832,0,0,1,2.232-6.314,19.967,19.967,0,0,1,6.88-4.308l11.683-4.9a6.571,6.571,0,0,0,2.872-1.766,7.357,7.357,0,0,0,.557-3.139l.206-7.365a8.025,8.025,0,0,0-1.549-5.383,5.783,5.783,0,0,0-4.871-2.158,10.153,10.153,0,0,0-3.426.617,8.592,8.592,0,0,0-2.792,1.543,2.317,2.317,0,0,0-.82,1.335,7.668,7.668,0,0,0-.205,1.8,13.016,13.016,0,0,0,.078,1.306,13.016,13.016,0,0,1,.078,1.306q0,.671-1.657,1.726a21.536,21.536,0,0,1-3.743,1.869,10.014,10.014,0,0,1-3.495.815,1.571,1.571,0,0,1-1.151-.44,1.515,1.515,0,0,1-.446-1.128,7.756,7.756,0,0,1,1.277-4.018,17.308,17.308,0,0,1,3.8-4.193,38.369,38.369,0,0,1,6.313-4.509,39.107,39.107,0,0,1,6.708-3.087,18.109,18.109,0,0,1,5.765-1.132A10.709,10.709,0,0,1,890.358-47a11.911,11.911,0,0,1,3.03,8.8l-.6,27.2a6.66,6.66,0,0,0,1.071,4.271,3.564,3.564,0,0,0,3.007,1.682,6.069,6.069,0,0,0,4.266-1.389,1.449,1.449,0,0,1,.891-.531A1.32,1.32,0,0,1,903-6.59a1.325,1.325,0,0,1,.377.978,4.529,4.529,0,0,1-1.633,2.987A16.223,16.223,0,0,1,897.377.54a10.343,10.343,0,0,1-4.54,1.14q-5.938,0-9.594-6.448h-.326A31.344,31.344,0,0,1,875.5.145,17.567,17.567,0,0,1,868.3,1.68Zm6.163-6.491a8.006,8.006,0,0,0,3.419-.658,8.226,8.226,0,0,0,2.512-1.839,4.437,4.437,0,0,0,.881-1.5,9.674,9.674,0,0,0,.435-2.8l.276-6.853a3.527,3.527,0,0,0-.19-1.763.965.965,0,0,0-.925-.513,4.322,4.322,0,0,0-.753.1,7.253,7.253,0,0,0-1.3.428q-5.351,2.07-7.533,4.286a6.835,6.835,0,0,0-2.182,4.884,5.94,5.94,0,0,0,1.721,4.721A5.472,5.472,0,0,0,874.462-4.811Zm33.452,38.036a5.721,5.721,0,0,1-1.577-.266q-.908-.266-.908-1.022a1.535,1.535,0,0,1,.865-1.433,12.684,12.684,0,0,1,1.895-.832,18.929,18.929,0,0,0,3.514-1.484,3.223,3.223,0,0,0,1.436-3.076V-34.545a10.067,10.067,0,0,0-.557-2.9,11.1,11.1,0,0,0-1.722-3.321,4.688,4.688,0,0,0-3.067-1.882,1.416,1.416,0,0,1-.842-.618,2.112,2.112,0,0,1-.292-1.15,1.884,1.884,0,0,1,.292-1.135,1.333,1.333,0,0,1,.722-.515,75.865,75.865,0,0,0,8.218-2.409q3.8-1.365,6.885-2.738a1.132,1.132,0,0,0,.451-.234.626.626,0,0,1,.415-.165.7.7,0,0,1,.637.395,1.657,1.657,0,0,1,.222.824,28.828,28.828,0,0,1-.3,3.334,30.2,30.2,0,0,0-.3,3.8,2.374,2.374,0,0,0,.156,1.185,24.98,24.98,0,0,1,4.345-3.113,43.589,43.589,0,0,1,7.191-3.447,21.866,21.866,0,0,1,7.765-1.535A17.292,17.292,0,0,1,954.1-46.815a21.724,21.724,0,0,1,6.789,8.625,26.625,26.625,0,0,1,2.357,10.982,28.318,28.318,0,0,1-2.075,10.639,30.985,30.985,0,0,1-5.829,9.319,29.372,29.372,0,0,1-8.709,6.627,23.512,23.512,0,0,1-10.664,2.478,17.883,17.883,0,0,1-3.707-.471A34.021,34.021,0,0,1,928,.16a13.768,13.768,0,0,1-3.4-1.694q-.12,0-.24,1.014t-.18,2.167q-.06,1.152-.06,1.548V24.729a3.218,3.218,0,0,0,1.086,2.547,7.462,7.462,0,0,0,2.636,1.459q1.551.507,3.028.972a11.856,11.856,0,0,1,1.9.815,1.506,1.506,0,0,1,.831,1.415,1.038,1.038,0,0,1-.838,1,4.967,4.967,0,0,1-1.594.284,62.591,62.591,0,0,1-6.411-.3,58.417,58.417,0,0,0-6.017-.3q-2.04,0-3.6.12t-3.189.3A37.77,37.77,0,0,1,907.914,33.225ZM937-2.528a10.093,10.093,0,0,0,3.964-1.045,15.551,15.551,0,0,0,4.655-3.411,18.734,18.734,0,0,0,3.885-6.358,27.106,27.106,0,0,0,1.567-9.854,30.177,30.177,0,0,0-1.627-10.915,15.881,15.881,0,0,0-4.005-6.187,12.443,12.443,0,0,0-4.86-2.776,16.326,16.326,0,0,0-4.227-.685,14.53,14.53,0,0,0-5.42,1.114,19.75,19.75,0,0,0-4.655,2.543q-1.873,1.43-1.873,2.339,0,2.085-.043,4.8t-.1,5.533q-.06,2.816-.1,5.075t-.042,3.3a17.684,17.684,0,0,0,1.872,7.906,18.3,18.3,0,0,0,4.823,6.209A9.67,9.67,0,0,0,937-2.528ZM971.965.36a3.345,3.345,0,0,1-1.62-.36,1.16,1.16,0,0,1-.66-1.08,1.447,1.447,0,0,1,.78-1.38,7.483,7.483,0,0,1,1.74-.66,14.974,14.974,0,0,0,4.08-1.56,3.276,3.276,0,0,0,1.32-3V-33.6a12.223,12.223,0,0,0-1.2-5.82,5.4,5.4,0,0,0-4.2-2.7,1.387,1.387,0,0,1-.9-.54,2.169,2.169,0,0,1-.3-1.26q0-1.44,1.08-1.56a37.413,37.413,0,0,0,9.06-3.18q3.78-1.98,5.7-3.18a4.375,4.375,0,0,1,1.92-.84.849.849,0,0,1,.96.96q0,1.32-.3,4.2t-.6,6.24q-.3,3.36-.3,6.24V-7.68a3.329,3.329,0,0,0,1.32,2.88,12.489,12.489,0,0,0,4.08,1.68,7.482,7.482,0,0,1,1.74.66,1.447,1.447,0,0,1,.78,1.38q0,1.44-2.16,1.44-2.28,0-4.08-.18t-3.42-.3q-1.62-.12-3.78-.12-2.04,0-3.72.12t-3.3.3A37.39,37.39,0,0,1,971.965.36Zm10.8-61.32a6.944,6.944,0,0,1-5.1-2.1,6.944,6.944,0,0,1-2.1-5.1,7.087,7.087,0,0,1,2.1-5.22,6.944,6.944,0,0,1,5.1-2.1,7.288,7.288,0,0,1,5.28,2.1,6.986,6.986,0,0,1,2.16,5.22,6.847,6.847,0,0,1-2.16,5.1A7.288,7.288,0,0,1,982.765-60.96Zm39.651,62.64q-6.611,0-10.137-3.739t-3.526-10.924V-40.753a1.526,1.526,0,0,0-.755-1.432,7.2,7.2,0,0,0-3.052-.472h-1.033q-.669,0-1.142-.988a4.462,4.462,0,0,1-.472-1.933,1.443,1.443,0,0,1,.291-.685,1.679,1.679,0,0,1,.516-.565,44.027,44.027,0,0,0,5.024-3.36q2.45-1.888,4.574-3.821t3.482-3.358q.705-.636,1.194-1.072a1.729,1.729,0,0,1,1.194-.437,2.506,2.506,0,0,1,1.3.309q.522.309.368,1.393l-.669,5.991a1.889,1.889,0,0,0,.635,1.888,4.193,4.193,0,0,0,2.279.5h13.888q.411,0,.771.8a4.174,4.174,0,0,1,.36,1.737,7.975,7.975,0,0,1-.395,2.518q-.395,1.194-.908,1.194h-11.636a8.822,8.822,0,0,0-3.848.549q-.952.549-.952,2.706v23.293q0,5.044,2.057,7.786a6.819,6.819,0,0,0,5.792,2.742,17.89,17.89,0,0,0,5.262-.593,15.709,15.709,0,0,0,3.3-1.5.979.979,0,0,1,.585-.24.791.791,0,0,1,.747.609,3.772,3.772,0,0,1,.232,1.35q0,.634-2.171,2.486a24.308,24.308,0,0,1-5.647,3.447A17.786,17.786,0,0,1,1022.416,1.68Zm30.848,0A8.753,8.753,0,0,1,1048.31.053a13.735,13.735,0,0,1-3.964-4.08,9.087,9.087,0,0,1-1.552-4.89,8.832,8.832,0,0,1,2.232-6.314,19.967,19.967,0,0,1,6.88-4.308l11.683-4.9a6.572,6.572,0,0,0,2.873-1.766,7.357,7.357,0,0,0,.557-3.139l.206-7.365a8.026,8.026,0,0,0-1.549-5.383,5.783,5.783,0,0,0-4.871-2.158,10.154,10.154,0,0,0-3.426.617,8.593,8.593,0,0,0-2.792,1.543,2.316,2.316,0,0,0-.82,1.335,7.671,7.671,0,0,0-.205,1.8,13.014,13.014,0,0,0,.078,1.306,13.018,13.018,0,0,1,.078,1.306q0,.671-1.657,1.726a21.538,21.538,0,0,1-3.743,1.869,10.014,10.014,0,0,1-3.495.815,1.571,1.571,0,0,1-1.151-.44,1.515,1.515,0,0,1-.446-1.128,7.756,7.756,0,0,1,1.277-4.018,17.309,17.309,0,0,1,3.8-4.193,38.366,38.366,0,0,1,6.313-4.509,39.106,39.106,0,0,1,6.708-3.087,18.109,18.109,0,0,1,5.765-1.132A10.709,10.709,0,0,1,1075.323-47a11.911,11.911,0,0,1,3.03,8.8l-.6,27.2a6.66,6.66,0,0,0,1.071,4.271,3.565,3.565,0,0,0,3.008,1.682,6.069,6.069,0,0,0,4.266-1.389,1.449,1.449,0,0,1,.891-.531,1.32,1.32,0,0,1,.977.378,1.325,1.325,0,0,1,.377.978,4.529,4.529,0,0,1-1.633,2.987A16.222,16.222,0,0,1,1082.342.54a10.343,10.343,0,0,1-4.54,1.14q-5.938,0-9.594-6.448h-.326a31.344,31.344,0,0,1-7.42,4.913A17.567,17.567,0,0,1,1053.264,1.68Zm6.163-6.491a8.006,8.006,0,0,0,3.419-.658,8.226,8.226,0,0,0,2.512-1.839,4.437,4.437,0,0,0,.881-1.5,9.677,9.677,0,0,0,.435-2.8l.276-6.853a3.525,3.525,0,0,0-.19-1.763.965.965,0,0,0-.925-.513,4.322,4.322,0,0,0-.753.1,7.253,7.253,0,0,0-1.3.428q-5.351,2.07-7.533,4.286a6.835,6.835,0,0,0-2.182,4.884,5.94,5.94,0,0,0,1.721,4.721A5.472,5.472,0,0,0,1059.427-4.811ZM1092.794.36a5.067,5.067,0,0,1-1.587-.267,1.023,1.023,0,0,1-.813-1.021,1.5,1.5,0,0,1,.848-1.415,15.387,15.387,0,0,1,1.912-.85,30.237,30.237,0,0,0,3.375-1.345q1.575-.745,1.575-3.215V-67.224a13.37,13.37,0,0,0-1.12-5.768,5.4,5.4,0,0,0-4.12-2.957q-1.065-.24-1.065-1.665,0-1.3.945-1.545a58.008,58.008,0,0,0,5.834-1.6q2.75-.92,5.182-1.9t4.317-1.663a2.86,2.86,0,0,1,1-.276.653.653,0,0,1,.611.353,1.419,1.419,0,0,1,.2.7q0,1.011-.367,4.1a91.18,91.18,0,0,0-.4,9.369V-7.822q0,2.469,1.576,3.215a30.321,30.321,0,0,0,3.376,1.345,15.1,15.1,0,0,1,1.912.849A1.5,1.5,0,0,1,1116.826-1a1.023,1.023,0,0,1-.813,1.021,5.067,5.067,0,0,1-1.587.267q-2.316,0-3.991-.163T1107.2-.138q-1.556-.1-3.716-.1-2.04,0-3.586.12t-3.127.3A36.262,36.262,0,0,1,1092.794.36Zm40.286,2.016A7.371,7.371,0,0,1,1127.7.082,7.372,7.372,0,0,1,1125.4-5.3a7.449,7.449,0,0,1,2.293-5.533,7.441,7.441,0,0,1,5.385-2.25,7.522,7.522,0,0,1,5.532,2.25,7.519,7.519,0,0,1,2.251,5.533,7.439,7.439,0,0,1-2.251,5.385A7.45,7.45,0,0,1,1133.08,2.376Z" transform="translate(-3.163 84.6)" fill="url(#linear-gradient)"/>
</svg>
