<svg xmlns="http://www.w3.org/2000/svg" xmlns:xlink="http://www.w3.org/1999/xlink" width="315.756" height="46.8" viewBox="0 0 315.756 46.8">
  <defs>
    <clipPath id="clip-path">
      <rect width="315.756" height="46.8" fill="none"/>
    </clipPath>
    <linearGradient id="linear-gradient" x1="0.5" x2="0.5" y2="1" gradientUnits="objectBoundingBox">
      <stop offset="0" stop-color="#2e4177"/>
      <stop offset="1" stop-color="#00aec7"/>
    </linearGradient>
  </defs>
  <g id="リピートグリッド_1" data-name="リピートグリッド 1" clip-path="url(#clip-path)">
    <g id="グループ_3594" data-name="グループ 3594" transform="translate(-30.16 -4476.11)">
      <path id="パス_7369" data-name="パス 7369" d="M2.838.287A3.265,3.265,0,0,1,1.642.1.638.638,0,0,1,1.16-.5q0-.874,1.881-1.246A8.308,8.308,0,0,0,6.7-3.187,3.849,3.849,0,0,0,7.884-6.351V-35.769a4.437,4.437,0,0,0-.914-3.156,6.639,6.639,0,0,0-3.422-1.43q-1.881-.371-1.881-1.338a.638.638,0,0,1,.482-.6,3.26,3.26,0,0,1,1.195-.191q1.662,0,2.987.065T8.9-42.3q1.238.051,2.676.051,1.392,0,2.566-.042T16.6-42.4q1.285-.065,2.928-.065a3.222,3.222,0,0,1,1.195.182.627.627,0,0,1,.444.609.938.938,0,0,1-.463.817,4.159,4.159,0,0,1-1.418.5,7.645,7.645,0,0,0-3.491,1.487,4.1,4.1,0,0,0-1.011,3.118V-6.37A3.761,3.761,0,0,0,16-3.253a8.886,8.886,0,0,0,3.657,1.5,5.144,5.144,0,0,1,1.417.455.835.835,0,0,1,.464.772.631.631,0,0,1-.445.6,3.093,3.093,0,0,1-1.2.19q-1.642,0-3-.088T14.277.027q-1.266-.065-2.7-.065-1.531,0-2.884.065T5.917.19Q4.5.287,2.838.287ZM25.431.2A2.039,2.039,0,0,1,24.517,0a.63.63,0,0,1-.385-.6.748.748,0,0,1,.418-.73,6.662,6.662,0,0,1,1.077-.4,9.726,9.726,0,0,0,1.828-.725A1.781,1.781,0,0,0,28.308-4.2V-18.5a8.978,8.978,0,0,0-.376-2.773,2.4,2.4,0,0,0-1.9-1.529,1.509,1.509,0,0,1-.464-.312.876.876,0,0,1-.2-.647q0-.79.6-.893a23.68,23.68,0,0,0,4.12-1.42,24.781,24.781,0,0,0,3.4-1.875q.234-.13.452-.266a.819.819,0,0,1,.433-.136.342.342,0,0,1,.321.168.785.785,0,0,1,.1.4,17.706,17.706,0,0,1-.162,1.786,18.569,18.569,0,0,0-.162,2.223,4.092,4.092,0,0,0,.032.516.619.619,0,0,0,.1.321,17.746,17.746,0,0,1,4.711-3.26,12.946,12.946,0,0,1,5.49-1.133,6.785,6.785,0,0,1,5.416,2.562,9.853,9.853,0,0,1,2.155,6.568V-4.18a1.709,1.709,0,0,0,.854,1.713,15.332,15.332,0,0,0,1.829.738,7.2,7.2,0,0,1,.979.451.834.834,0,0,1,.459.776.551.551,0,0,1-.427.553A2.54,2.54,0,0,1,55.246.2,19.917,19.917,0,0,1,53.08.1q-.866-.1-1.667-.163T49.443-.13q-1.105,0-1.952.065T45.764.1a20.311,20.311,0,0,1-2.18.1A2.547,2.547,0,0,1,42.8.05a.554.554,0,0,1-.44-.553.836.836,0,0,1,.449-.776,6.731,6.731,0,0,1,.969-.451,13.711,13.711,0,0,0,1.8-.738,1.725,1.725,0,0,0,.825-1.713V-17.586a5.976,5.976,0,0,0-1.432-4.254,5.13,5.13,0,0,0-3.815-1.573,9.206,9.206,0,0,0-3.548.634,11.989,11.989,0,0,0-2.819,1.646,1.474,1.474,0,0,0-.39.635,2.438,2.438,0,0,0-.13.766V-4.18a1.77,1.77,0,0,0,.835,1.736A9.8,9.8,0,0,0,36.9-1.73q1.42.409,1.42,1.134a.65.65,0,0,1-.325.59,1.714,1.714,0,0,1-.9.2,20.033,20.033,0,0,1-2.17-.1q-.87-.1-1.642-.163T31.337-.13q-1.1,0-1.948.065T27.639.1A21.129,21.129,0,0,1,25.431.2ZM60.618.2A2.008,2.008,0,0,1,59.681,0a.633.633,0,0,1-.363-.6.786.786,0,0,1,.394-.743,3.929,3.929,0,0,1,1.006-.372,4.957,4.957,0,0,0,2.192-.971,2.416,2.416,0,0,0,.584-1.8V-22.863q-.65,0-1.5-.032t-1.885-.1q-.251-.065-.58-.559a1.638,1.638,0,0,1-.33-.875.334.334,0,0,1,.195-.284q.2-.116.317-.181,1.057-.51,1.921-.936t1.857-.882a25.807,25.807,0,0,1,1.6-9.218A16.537,16.537,0,0,1,68.9-41.814a14.246,14.246,0,0,1,4.9-3.134,14.168,14.168,0,0,1,4.842-.942,11.158,11.158,0,0,1,5.762,1.152,3.561,3.561,0,0,1,1.84,3.162,3.026,3.026,0,0,1-.66,2.092,2.16,2.16,0,0,1-1.682.735,1.607,1.607,0,0,1-1.1-.474q-.516-.474-1.166-1.134a13.652,13.652,0,0,0-2.268-1.866,6.1,6.1,0,0,0-3.455-.889,5.475,5.475,0,0,0-4.68,2.514q-1.775,2.514-1.775,7.832v5.588a.631.631,0,0,0,.256.6,1.119,1.119,0,0,0,.573.149h7.842a.932.932,0,0,1,.661.242.772.772,0,0,1,.26.587,5.265,5.265,0,0,1-.117,1.059,3.748,3.748,0,0,1-.33.976q-.233.52-.567.52H71.09a2.212,2.212,0,0,0-1.319.265,1,1,0,0,0-.312.806V-4.854a2.49,2.49,0,0,0,.817,2.078A8.188,8.188,0,0,0,73.73-1.73q1.42.214,1.42,1.1a.694.694,0,0,1-.325.609,1.6,1.6,0,0,1-.9.219q-1.95,0-3.784-.163T66.617-.13q-1.105,0-1.971.065T62.849.1A21.828,21.828,0,0,1,60.618.2ZM93.125.91A13.364,13.364,0,0,1,86.39-.8a12.808,12.808,0,0,1-4.77-4.714,13.206,13.206,0,0,1-1.77-6.832,14.244,14.244,0,0,1,1.11-5.527,16.084,16.084,0,0,1,3.107-4.811,15.146,15.146,0,0,1,4.663-3.4,13.257,13.257,0,0,1,5.731-1.258,13.381,13.381,0,0,1,6.963,1.839,14.126,14.126,0,0,1,4.932,4.844,12.376,12.376,0,0,1,1.834,6.572,16.367,16.367,0,0,1-1.7,7.338,13.591,13.591,0,0,1-5.03,5.549A15.309,15.309,0,0,1,93.125.91Zm1.327-2.27a7.537,7.537,0,0,0,3.4-.741,5.357,5.357,0,0,0,2.353-2.344,10.34,10.34,0,0,0,1.059-3.621,35.2,35.2,0,0,0,.279-4.463,18.079,18.079,0,0,0-1.015-6.117,11.845,11.845,0,0,0-2.836-4.613,5.966,5.966,0,0,0-4.3-1.768,7.222,7.222,0,0,0-2.69.477,5.4,5.4,0,0,0-2.181,1.689A7.975,7.975,0,0,0,86.881-19a30.868,30.868,0,0,0-.4,5.123A17.587,17.587,0,0,0,87.52-7.855a12.611,12.611,0,0,0,2.836,4.685A5.625,5.625,0,0,0,94.452-1.36ZM113.219.2A2,2,0,0,1,112.272,0a.635.635,0,0,1-.353-.6.754.754,0,0,1,.4-.73,5.791,5.791,0,0,1,1.1-.4,4.2,4.2,0,0,0,1.88-.942,2.085,2.085,0,0,0,.57-1.528V-18.514a7.416,7.416,0,0,0-.463-2.772,2.487,2.487,0,0,0-1.938-1.474,1.1,1.1,0,0,1-.5-.335.9.9,0,0,1-.223-.624.807.807,0,0,1,.66-.893,27.768,27.768,0,0,0,3.9-1.471q2.079-.951,3.382-1.676a5.646,5.646,0,0,1,.684-.385,1.269,1.269,0,0,1,.48-.145q.419,0,.419.549,0,.233-.033,1.088t-.075,1.9q-.042,1.05-.088,1.977,0,.28.168.28a15.836,15.836,0,0,1,2.307-2.407,12.763,12.763,0,0,1,2.694-1.767,6.315,6.315,0,0,1,2.756-.679,4.221,4.221,0,0,1,2.573.679,2.086,2.086,0,0,1,.906,1.74,4.078,4.078,0,0,1-.424,1.685,5.473,5.473,0,0,1-1.1,1.6,2.028,2.028,0,0,1-1.442.679,2.645,2.645,0,0,1-.986-.21q-.521-.21-1.1-.489-.558-.233-1.115-.456a2.89,2.89,0,0,0-1.078-.223,4.551,4.551,0,0,0-2.975,1.152q-1.378,1.152-1.378,4.554V-4.407a1.82,1.82,0,0,0,.872,1.6,10.157,10.157,0,0,0,2.553,1.1,4.678,4.678,0,0,1,1.1.418.75.75,0,0,1,.381.7q0,.79-1.225.79a29.431,29.431,0,0,1-3.344-.163,26.776,26.776,0,0,0-3.084-.163q-1.1,0-1.948.065T115.426.1A21.129,21.129,0,0,1,113.219.2Zm23.327,0a2.327,2.327,0,0,1-.891-.168.618.618,0,0,1-.409-.623.754.754,0,0,1,.441-.707,6.506,6.506,0,0,1,1.054-.428,17.375,17.375,0,0,0,1.8-.747,1.718,1.718,0,0,0,.876-1.723V-18.5a9.348,9.348,0,0,0-.39-2.842,2.151,2.151,0,0,0-1.91-1.46.88.88,0,0,1-.45-.279,1.006,1.006,0,0,1-.19-.68q0-.743.576-.893a26.52,26.52,0,0,0,3-.942,18.885,18.885,0,0,0,2.418-1.133q1.114-.627,2.3-1.323a2.267,2.267,0,0,0,.316-.19.573.573,0,0,1,.344-.107q.465,0,.465.549,0,.474-.162,1.815a19.255,19.255,0,0,0-.163,2.251,1.354,1.354,0,0,0,.13.78h.13a20.18,20.18,0,0,1,4.074-3,11.711,11.711,0,0,1,5.9-1.378,6.421,6.421,0,0,1,3.834,1.149,7.775,7.775,0,0,1,2.571,3.524h.234a17.527,17.527,0,0,1,4.612-3.364,12.491,12.491,0,0,1,5.718-1.309,5.455,5.455,0,0,1,3.6,1.243,8.08,8.08,0,0,1,2.319,3.323,12.3,12.3,0,0,1,.823,4.563V-4.18a1.709,1.709,0,0,0,.854,1.713,15.333,15.333,0,0,0,1.829.738,5.515,5.515,0,0,1,1.025.428.76.76,0,0,1,.413.707.652.652,0,0,1-.311.6A1.813,1.813,0,0,1,182.4.2a19.917,19.917,0,0,1-2.166-.1q-.866-.1-1.644-.163T176.645-.13q-1.1,0-1.9.065T173.086.1a19.613,19.613,0,0,1-2.155.1A1.807,1.807,0,0,1,170.053,0a.637.637,0,0,1-.348-.6.8.8,0,0,1,.4-.753,3.889,3.889,0,0,1,1.016-.382,6.575,6.575,0,0,0,1.71-.7,1.735,1.735,0,0,0,.727-1.623V-17.586a6.741,6.741,0,0,0-.621-2.9,5.835,5.835,0,0,0-1.668-2.147,3.7,3.7,0,0,0-2.346-.825,8.915,8.915,0,0,0-2.6.38,7.109,7.109,0,0,0-2.4,1.3,4.82,4.82,0,0,0-1.5,3.983V-4.18a1.79,1.79,0,0,0,.805,1.736,8.854,8.854,0,0,0,1.78.715,3.538,3.538,0,0,1,1.025.4.811.811,0,0,1,.413.73.641.641,0,0,1-.334.6,1.835,1.835,0,0,1-.909.191,19.241,19.241,0,0,1-2.142-.1q-.842-.1-1.618-.163T159.507-.13q-1.1,0-1.9.065T155.946.1a19.628,19.628,0,0,1-2.156.1A1.84,1.84,0,0,1,152.937,0a.631.631,0,0,1-.371-.6.741.741,0,0,1,.45-.73q.45-.21.97-.4a10.569,10.569,0,0,0,1.71-.719,1.646,1.646,0,0,0,.773-1.6V-17.586a6.681,6.681,0,0,0-.621-2.892,5.9,5.9,0,0,0-1.659-2.138,3.659,3.659,0,0,0-2.336-.825,9.12,9.12,0,0,0-2.6.371A7.526,7.526,0,0,0,146.82-21.8q-1.435,1.055-1.435,3.926V-4.18a1.805,1.805,0,0,0,.731,1.684,8.5,8.5,0,0,0,1.706.766q.52.195.969.4a.741.741,0,0,1,.449.73.642.642,0,0,1-.348.59,1.737,1.737,0,0,1-.876.2,19.241,19.241,0,0,1-2.142-.1q-.842-.1-1.586-.163T142.376-.13q-1.1,0-1.929.065T138.734.1A20.577,20.577,0,0,1,136.545.2ZM192.878.91a4.741,4.741,0,0,1-2.683-.882,7.44,7.44,0,0,1-2.147-2.21,4.922,4.922,0,0,1-.841-2.649,4.784,4.784,0,0,1,1.209-3.42,10.815,10.815,0,0,1,3.727-2.333l6.328-2.655a3.559,3.559,0,0,0,1.556-.957,3.985,3.985,0,0,0,.3-1.7l.112-3.989A4.347,4.347,0,0,0,199.6-22.8a3.132,3.132,0,0,0-2.639-1.169,5.5,5.5,0,0,0-1.856.334,4.654,4.654,0,0,0-1.512.836,1.255,1.255,0,0,0-.444.723,4.154,4.154,0,0,0-.111.973,7.053,7.053,0,0,0,.042.707,7.053,7.053,0,0,1,.042.707q0,.364-.9.935a11.666,11.666,0,0,1-2.028,1.013,5.424,5.424,0,0,1-1.893.441.851.851,0,0,1-.624-.238.821.821,0,0,1-.242-.611,4.2,4.2,0,0,1,.692-2.176A9.375,9.375,0,0,1,190.19-22.6a20.782,20.782,0,0,1,3.42-2.443,21.183,21.183,0,0,1,3.633-1.672,9.809,9.809,0,0,1,3.123-.613,5.8,5.8,0,0,1,4.461,1.865,6.452,6.452,0,0,1,1.641,4.768l-.325,14.733a3.607,3.607,0,0,0,.58,2.314,1.931,1.931,0,0,0,1.629.911,3.287,3.287,0,0,0,2.311-.753.785.785,0,0,1,.482-.287.715.715,0,0,1,.529.2.718.718,0,0,1,.2.53,2.453,2.453,0,0,1-.885,1.618A8.787,8.787,0,0,1,208.628.292a5.6,5.6,0,0,1-2.459.618q-3.216,0-5.2-3.493H200.8A16.978,16.978,0,0,1,196.776.079,9.516,9.516,0,0,1,192.878.91Zm3.338-3.516a4.337,4.337,0,0,0,1.852-.356,4.456,4.456,0,0,0,1.36-1,2.4,2.4,0,0,0,.477-.811,5.241,5.241,0,0,0,.236-1.515L200.291-10a1.91,1.91,0,0,0-.1-.955.523.523,0,0,0-.5-.278,2.341,2.341,0,0,0-.408.055,3.929,3.929,0,0,0-.7.232,11.837,11.837,0,0,0-4.08,2.322,3.7,3.7,0,0,0-1.182,2.646,3.217,3.217,0,0,0,.932,2.557A2.964,2.964,0,0,0,196.216-2.606ZM224.813.91a7.185,7.185,0,0,1-5.491-2.025,8.315,8.315,0,0,1-1.91-5.917V-22.075a.827.827,0,0,0-.409-.776,3.9,3.9,0,0,0-1.653-.256h-.56q-.363,0-.619-.535a2.417,2.417,0,0,1-.256-1.047.782.782,0,0,1,.157-.371.909.909,0,0,1,.279-.306,23.848,23.848,0,0,0,2.721-1.82q1.327-1.023,2.478-2.07t1.886-1.819l.647-.581a.937.937,0,0,1,.647-.237,1.358,1.358,0,0,1,.7.168q.283.168.2.755l-.363,3.245a1.023,1.023,0,0,0,.344,1.023,2.271,2.271,0,0,0,1.234.269h7.523q.222,0,.417.432a2.261,2.261,0,0,1,.195.941,4.319,4.319,0,0,1-.214,1.364q-.214.647-.492.647h-6.3a4.778,4.778,0,0,0-2.085.3q-.515.3-.515,1.466V-8.669a6.919,6.919,0,0,0,1.114,4.217,3.694,3.694,0,0,0,3.137,1.485,9.691,9.691,0,0,0,2.85-.321,8.508,8.508,0,0,0,1.79-.811.53.53,0,0,1,.317-.13.428.428,0,0,1,.4.33,2.044,2.044,0,0,1,.125.731q0,.343-1.176,1.347A13.166,13.166,0,0,1,228.88.046,9.634,9.634,0,0,1,224.813.91ZM236.365.2a1.812,1.812,0,0,1-.878-.2.629.629,0,0,1-.357-.585.784.784,0,0,1,.423-.748,4.053,4.053,0,0,1,.943-.358,8.111,8.111,0,0,0,2.21-.845,1.775,1.775,0,0,0,.715-1.625V-18.2a6.621,6.621,0,0,0-.65-3.153,2.927,2.927,0,0,0-2.275-1.462.751.751,0,0,1-.488-.292,1.175,1.175,0,0,1-.162-.682q0-.78.585-.845a20.266,20.266,0,0,0,4.908-1.722q2.048-1.073,3.087-1.722a2.37,2.37,0,0,1,1.04-.455.46.46,0,0,1,.52.52q0,.715-.163,2.275t-.325,3.38q-.163,1.82-.163,3.38V-4.16a1.8,1.8,0,0,0,.715,1.56,6.765,6.765,0,0,0,2.21.91,4.053,4.053,0,0,1,.943.358.784.784,0,0,1,.423.748q0,.78-1.17.78-1.235,0-2.21-.1t-1.852-.163q-.878-.065-2.048-.065-1.105,0-2.015.065T238.542.1A20.253,20.253,0,0,1,236.365.2Zm5.85-33.215a3.761,3.761,0,0,1-2.762-1.138,3.761,3.761,0,0,1-1.138-2.763,3.839,3.839,0,0,1,1.138-2.827,3.761,3.761,0,0,1,2.762-1.138,3.948,3.948,0,0,1,2.86,1.138,3.784,3.784,0,0,1,1.17,2.827,3.709,3.709,0,0,1-1.17,2.763A3.948,3.948,0,0,1,242.215-33.02ZM265.995.91A13.364,13.364,0,0,1,259.26-.8a12.808,12.808,0,0,1-4.77-4.714,13.206,13.206,0,0,1-1.77-6.832,14.244,14.244,0,0,1,1.11-5.527,16.084,16.084,0,0,1,3.107-4.811,15.146,15.146,0,0,1,4.663-3.4,13.257,13.257,0,0,1,5.731-1.258,13.381,13.381,0,0,1,6.963,1.839,14.126,14.126,0,0,1,4.932,4.844,12.376,12.376,0,0,1,1.834,6.572,16.368,16.368,0,0,1-1.7,7.338,13.591,13.591,0,0,1-5.03,5.549A15.309,15.309,0,0,1,265.995.91Zm1.327-2.27a7.537,7.537,0,0,0,3.4-.741,5.357,5.357,0,0,0,2.353-2.344,10.341,10.341,0,0,0,1.059-3.621,35.2,35.2,0,0,0,.279-4.463,18.079,18.079,0,0,0-1.015-6.117,11.845,11.845,0,0,0-2.836-4.613,5.966,5.966,0,0,0-4.3-1.768,7.222,7.222,0,0,0-2.69.477,5.4,5.4,0,0,0-2.181,1.689A7.975,7.975,0,0,0,259.751-19a30.869,30.869,0,0,0-.4,5.123,17.587,17.587,0,0,0,1.038,6.021,12.611,12.611,0,0,0,2.836,4.685A5.625,5.625,0,0,0,267.322-1.36ZM285.858.2A2.039,2.039,0,0,1,284.943,0a.63.63,0,0,1-.385-.6.748.748,0,0,1,.418-.73,6.663,6.663,0,0,1,1.077-.4,9.726,9.726,0,0,0,1.828-.725,1.781,1.781,0,0,0,.853-1.745V-18.5a8.977,8.977,0,0,0-.376-2.773,2.4,2.4,0,0,0-1.9-1.529A1.509,1.509,0,0,1,286-23.11a.876.876,0,0,1-.2-.647q0-.79.6-.893a23.679,23.679,0,0,0,4.12-1.42,24.781,24.781,0,0,0,3.4-1.875q.234-.13.452-.266a.819.819,0,0,1,.433-.136.342.342,0,0,1,.321.168.785.785,0,0,1,.1.4,17.7,17.7,0,0,1-.163,1.786,18.574,18.574,0,0,0-.162,2.223,4.091,4.091,0,0,0,.033.516.619.619,0,0,0,.1.321,17.746,17.746,0,0,1,4.711-3.26,12.946,12.946,0,0,1,5.49-1.133,6.785,6.785,0,0,1,5.416,2.562,9.853,9.853,0,0,1,2.155,6.568V-4.18a1.709,1.709,0,0,0,.854,1.713,15.333,15.333,0,0,0,1.829.738,7.2,7.2,0,0,1,.979.451.834.834,0,0,1,.459.776.551.551,0,0,1-.427.553,2.54,2.54,0,0,1-.817.145,19.917,19.917,0,0,1-2.166-.1q-.866-.1-1.667-.163T309.869-.13q-1.1,0-1.952.065T306.191.1a20.311,20.311,0,0,1-2.18.1,2.547,2.547,0,0,1-.784-.145.554.554,0,0,1-.44-.553.836.836,0,0,1,.449-.776,6.73,6.73,0,0,1,.969-.451,13.712,13.712,0,0,0,1.8-.738,1.725,1.725,0,0,0,.825-1.713V-17.586A5.976,5.976,0,0,0,305.4-21.84a5.13,5.13,0,0,0-3.815-1.573,9.206,9.206,0,0,0-3.548.634,11.989,11.989,0,0,0-2.819,1.646,1.474,1.474,0,0,0-.39.635,2.438,2.438,0,0,0-.13.766V-4.18a1.771,1.771,0,0,0,.835,1.736,9.8,9.8,0,0,0,1.791.715q1.42.409,1.42,1.134a.65.65,0,0,1-.325.59,1.715,1.715,0,0,1-.9.2,20.033,20.033,0,0,1-2.17-.1q-.87-.1-1.642-.163T291.764-.13q-1.1,0-1.948.065T288.065.1A21.129,21.129,0,0,1,285.858.2Z" transform="translate(29 4522)" fill="url(#linear-gradient)"/>
    </g>
  </g>
</svg>
