<svg xmlns="http://www.w3.org/2000/svg" xmlns:xlink="http://www.w3.org/1999/xlink" width="485.778" height="72" viewBox="0 0 485.778 72">
  <defs>
    <linearGradient id="linear-gradient" x1="0.5" x2="0.5" y2="1" gradientUnits="objectBoundingBox">
      <stop offset="0" stop-color="#2e4177"/>
      <stop offset="1" stop-color="#00aec7"/>
    </linearGradient>
  </defs>
  <g id="グループ_3539" data-name="グループ 3539" transform="translate(-540.784 -5573)">
    <path id="パス_7337" data-name="パス 7337" d="M4.366.442A5.022,5.022,0,0,1,2.527.148a.982.982,0,0,1-.742-.922q0-1.345,2.894-1.917A12.782,12.782,0,0,0,10.3-4.9Q12.13-6.388,12.13-9.77V-55.03q0-3.412-1.406-4.855t-5.264-2.2q-2.894-.57-2.894-2.058a.982.982,0,0,1,.741-.922,5.016,5.016,0,0,1,1.838-.294q2.556,0,4.6.1t3.945.179Q15.591-65,17.8-65q2.142,0,3.948-.065t3.783-.165q1.977-.1,4.5-.1a4.957,4.957,0,0,1,1.838.28.964.964,0,0,1,.684.938,1.443,1.443,0,0,1-.713,1.257,6.4,6.4,0,0,1-2.181.771A11.762,11.762,0,0,0,24.3-59.8q-1.555,1.442-1.555,4.8V-9.8q0,3.3,1.868,4.8a13.67,13.67,0,0,0,5.626,2.314,7.913,7.913,0,0,1,2.18.7A1.284,1.284,0,0,1,33.128-.8a.971.971,0,0,1-.684.923A4.759,4.759,0,0,1,30.6.412Q28.078.412,26,.277T21.964.042q-1.948-.1-4.161-.1-2.355,0-4.437.1T9.1.292Q6.92.442,4.366.442ZM39.125.3A3.137,3.137,0,0,1,37.718.006a.969.969,0,0,1-.593-.922,1.151,1.151,0,0,1,.643-1.123,10.249,10.249,0,0,1,1.657-.623,14.963,14.963,0,0,0,2.813-1.115A2.74,2.74,0,0,0,43.55-6.461V-28.455a13.812,13.812,0,0,0-.579-4.266,3.7,3.7,0,0,0-2.918-2.352,2.322,2.322,0,0,1-.714-.48,1.348,1.348,0,0,1-.314-1q0-1.216.928-1.373a36.43,36.43,0,0,0,6.338-2.185,38.125,38.125,0,0,0,5.227-2.885q.359-.2.7-.409a1.259,1.259,0,0,1,.666-.209.526.526,0,0,1,.494.259,1.208,1.208,0,0,1,.15.616,27.239,27.239,0,0,1-.25,2.748,28.568,28.568,0,0,0-.25,3.42,6.294,6.294,0,0,0,.05.794.952.952,0,0,0,.15.494,27.3,27.3,0,0,1,7.248-5.015,19.917,19.917,0,0,1,8.446-1.743A10.438,10.438,0,0,1,77.252-38.1a15.158,15.158,0,0,1,3.316,10.1V-6.431A2.629,2.629,0,0,0,81.881-3.8a23.588,23.588,0,0,0,2.813,1.135,11.069,11.069,0,0,1,1.506.694,1.283,1.283,0,0,1,.706,1.194.847.847,0,0,1-.656.851A3.907,3.907,0,0,1,84.994.3,30.642,30.642,0,0,1,81.662.15Q80.33,0,79.1-.1T76.066-.2q-1.7,0-3,.1T70.407.15A31.248,31.248,0,0,1,67.053.3,3.918,3.918,0,0,1,65.848.077a.852.852,0,0,1-.677-.851,1.287,1.287,0,0,1,.691-1.194,10.355,10.355,0,0,1,1.491-.694A21.094,21.094,0,0,0,70.123-3.8a2.653,2.653,0,0,0,1.27-2.635V-27.055a9.193,9.193,0,0,0-2.2-6.545,7.892,7.892,0,0,0-5.869-2.42,14.163,14.163,0,0,0-5.459.976,18.444,18.444,0,0,0-4.337,2.532,2.268,2.268,0,0,0-.6.977,3.751,3.751,0,0,0-.2,1.178V-6.431a2.724,2.724,0,0,0,1.284,2.67,15.078,15.078,0,0,0,2.755,1.1q2.184.63,2.184,1.745a1,1,0,0,1-.5.908A2.638,2.638,0,0,1,57.064.3,30.821,30.821,0,0,1,53.726.15Q52.388,0,51.2-.1T48.211-.2q-1.7,0-3,.1T42.521.15A32.506,32.506,0,0,1,39.125.3ZM93.259.3A3.089,3.089,0,0,1,91.817.006a.974.974,0,0,1-.558-.922,1.21,1.21,0,0,1,.606-1.144,6.045,6.045,0,0,1,1.548-.572,7.627,7.627,0,0,0,3.372-1.495,3.717,3.717,0,0,0,.9-2.762V-35.173q-1,0-2.3-.05t-2.9-.15q-.386-.1-.893-.859a2.52,2.52,0,0,1-.507-1.347.513.513,0,0,1,.3-.437q.3-.179.487-.279,1.627-.784,2.955-1.441t2.857-1.356a39.7,39.7,0,0,1,2.455-14.182,25.441,25.441,0,0,1,5.869-9.055,21.917,21.917,0,0,1,7.534-4.821,21.8,21.8,0,0,1,7.449-1.45q6.034,0,8.865,1.773a5.479,5.479,0,0,1,2.83,4.865,4.656,4.656,0,0,1-1.015,3.218,3.324,3.324,0,0,1-2.588,1.13,2.472,2.472,0,0,1-1.694-.729q-.794-.729-1.794-1.745a21,21,0,0,0-3.489-2.871,9.392,9.392,0,0,0-5.316-1.368,8.423,8.423,0,0,0-7.2,3.868q-2.731,3.868-2.731,12.049v8.6a.97.97,0,0,0,.394.916,1.721,1.721,0,0,0,.881.229H120.2a1.433,1.433,0,0,1,1.017.373,1.188,1.188,0,0,1,.4.9,8.1,8.1,0,0,1-.18,1.63,5.766,5.766,0,0,1-.508,1.5q-.358.8-.872.8H109.369a3.4,3.4,0,0,0-2.029.408,1.537,1.537,0,0,0-.48,1.241V-7.467a3.83,3.83,0,0,0,1.257,3.2q1.257.994,5.315,1.609,2.184.33,2.184,1.687a1.068,1.068,0,0,1-.5.937A2.455,2.455,0,0,1,113.731.3q-3,0-5.822-.25T102.487-.2q-1.7,0-3.032.1T96.691.15A33.581,33.581,0,0,1,93.259.3Zm50.01,1.1a20.561,20.561,0,0,1-10.361-2.629A19.7,19.7,0,0,1,125.57-8.48a20.317,20.317,0,0,1-2.723-10.51,21.913,21.913,0,0,1,1.708-8.5,24.744,24.744,0,0,1,4.78-7.4,23.3,23.3,0,0,1,7.174-5.236,20.4,20.4,0,0,1,8.817-1.936,20.586,20.586,0,0,1,10.712,2.829,21.733,21.733,0,0,1,7.588,7.452,19.04,19.04,0,0,1,2.822,10.11,25.181,25.181,0,0,1-2.608,11.29A20.91,20.91,0,0,1,156.1-1.85Q150.972,1.4,143.269,1.4Zm2.042-3.492a11.6,11.6,0,0,0,5.23-1.141,8.241,8.241,0,0,0,3.62-3.606,15.908,15.908,0,0,0,1.629-5.571,54.16,54.16,0,0,0,.429-6.866,27.814,27.814,0,0,0-1.561-9.41,18.224,18.224,0,0,0-4.363-7.1,9.178,9.178,0,0,0-6.61-2.72,11.11,11.11,0,0,0-4.139.734,8.311,8.311,0,0,0-3.355,2.6,12.27,12.27,0,0,0-2.528,5.941,47.488,47.488,0,0,0-.614,7.881,27.058,27.058,0,0,0,1.6,9.263,19.4,19.4,0,0,0,4.363,7.207A8.653,8.653,0,0,0,145.312-2.092ZM174.183.3a3.072,3.072,0,0,1-1.456-.294.977.977,0,0,1-.544-.922,1.16,1.16,0,0,1,.615-1.123,8.91,8.91,0,0,1,1.685-.623,6.461,6.461,0,0,0,2.893-1.45,3.207,3.207,0,0,0,.877-2.35V-28.483a11.409,11.409,0,0,0-.713-4.265,3.827,3.827,0,0,0-2.981-2.268,1.69,1.69,0,0,1-.772-.515,1.389,1.389,0,0,1-.344-.96,1.242,1.242,0,0,1,1.016-1.373,42.72,42.72,0,0,0,6-2.263q3.2-1.463,5.2-2.579a8.684,8.684,0,0,1,1.052-.593,1.952,1.952,0,0,1,.738-.223q.645,0,.645.845,0,.358-.05,1.673t-.115,2.93q-.065,1.615-.135,3.041,0,.431.258.431a24.362,24.362,0,0,1,3.549-3.7,19.636,19.636,0,0,1,4.145-2.719,9.715,9.715,0,0,1,4.24-1.045,6.494,6.494,0,0,1,3.958,1.045,3.209,3.209,0,0,1,1.394,2.677,6.274,6.274,0,0,1-.652,2.592,8.42,8.42,0,0,1-1.7,2.462,3.12,3.12,0,0,1-2.219,1.045,4.068,4.068,0,0,1-1.517-.323q-.8-.323-1.689-.752-.858-.358-1.716-.7a4.447,4.447,0,0,0-1.658-.344,7,7,0,0,0-4.577,1.773q-2.12,1.773-2.12,7.005V-6.78a2.8,2.8,0,0,0,1.342,2.455,15.626,15.626,0,0,0,3.928,1.694,7.2,7.2,0,0,1,1.686.643,1.155,1.155,0,0,1,.586,1.073Q195.042.3,193.158.3a45.279,45.279,0,0,1-5.145-.25,41.194,41.194,0,0,0-4.745-.25q-1.7,0-3,.1t-2.693.25A32.506,32.506,0,0,1,174.183.3ZM210.07.3A3.58,3.58,0,0,1,208.7.042a.95.95,0,0,1-.629-.958A1.16,1.16,0,0,1,208.749-2a10.009,10.009,0,0,1,1.621-.658,26.731,26.731,0,0,0,2.777-1.15,2.644,2.644,0,0,0,1.348-2.65V-28.455a14.38,14.38,0,0,0-.6-4.373,3.309,3.309,0,0,0-2.939-2.246,1.354,1.354,0,0,1-.693-.429,1.547,1.547,0,0,1-.293-1.046q0-1.144.886-1.373a40.8,40.8,0,0,0,4.62-1.45,29.054,29.054,0,0,0,3.72-1.744q1.714-.964,3.544-2.036a3.486,3.486,0,0,0,.487-.293.882.882,0,0,1,.529-.165q.716,0,.716.845,0,.73-.25,2.792a29.622,29.622,0,0,0-.25,3.463,2.083,2.083,0,0,0,.2,1.2h.2a31.046,31.046,0,0,1,6.268-4.609,18.017,18.017,0,0,1,9.071-2.12,9.878,9.878,0,0,1,5.9,1.767,11.962,11.962,0,0,1,3.955,5.422h.359a26.964,26.964,0,0,1,7.1-5.175,19.217,19.217,0,0,1,8.8-2.014,8.392,8.392,0,0,1,5.544,1.912,12.431,12.431,0,0,1,3.567,5.112,18.925,18.925,0,0,1,1.266,7.02V-6.431A2.629,2.629,0,0,0,277.507-3.8a23.588,23.588,0,0,0,2.813,1.135A8.485,8.485,0,0,1,281.9-2a1.169,1.169,0,0,1,.635,1.087,1,1,0,0,1-.479.922A2.789,2.789,0,0,1,280.62.3a30.642,30.642,0,0,1-3.332-.15Q275.956,0,274.759-.1t-3-.1q-1.7,0-2.93.1t-2.546.25A30.175,30.175,0,0,1,262.97.3a2.78,2.78,0,0,1-1.349-.294.98.98,0,0,1-.535-.922,1.234,1.234,0,0,1,.621-1.158,5.981,5.981,0,0,1,1.563-.587,10.115,10.115,0,0,0,2.63-1.071,2.669,2.669,0,0,0,1.118-2.5V-27.055a10.37,10.37,0,0,0-.955-4.463,8.977,8.977,0,0,0-2.566-3.3,5.686,5.686,0,0,0-3.609-1.27,13.715,13.715,0,0,0-4,.585,10.937,10.937,0,0,0-3.688,2Q249.9-31.655,249.9-27.38V-6.431a2.755,2.755,0,0,0,1.239,2.67,13.621,13.621,0,0,0,2.739,1.1,5.443,5.443,0,0,1,1.577.623,1.247,1.247,0,0,1,.635,1.123.987.987,0,0,1-.514.922,2.823,2.823,0,0,1-1.4.294,29.6,29.6,0,0,1-3.3-.15q-1.3-.15-2.49-.25t-2.995-.1q-1.7,0-2.93.1t-2.547.25A30.2,30.2,0,0,1,236.6.3a2.831,2.831,0,0,1-1.313-.294.971.971,0,0,1-.571-.922,1.14,1.14,0,0,1,.692-1.123q.692-.323,1.492-.623a16.261,16.261,0,0,0,2.631-1.106,2.532,2.532,0,0,0,1.189-2.463V-27.055a10.278,10.278,0,0,0-.955-4.449,9.071,9.071,0,0,0-2.552-3.289,5.629,5.629,0,0,0-3.595-1.27,14.031,14.031,0,0,0-4,.571,11.578,11.578,0,0,0-3.745,1.955q-2.208,1.623-2.208,6.041V-6.431a2.777,2.777,0,0,0,1.125,2.591,13.079,13.079,0,0,0,2.625,1.179q.8.3,1.491.623A1.141,1.141,0,0,1,229.6-.916a.987.987,0,0,1-.535.908A2.672,2.672,0,0,1,227.72.3a29.6,29.6,0,0,1-3.3-.15q-1.3-.15-2.44-.25T219.04-.2q-1.7,0-2.968.1t-2.635.25A31.657,31.657,0,0,1,210.07.3Zm86.665,1.1A7.294,7.294,0,0,1,292.607.044a11.446,11.446,0,0,1-3.3-3.4,7.572,7.572,0,0,1-1.294-4.075,7.36,7.36,0,0,1,1.86-5.262,16.639,16.639,0,0,1,5.734-3.59l9.736-4.084a5.476,5.476,0,0,0,2.394-1.472,6.131,6.131,0,0,0,.464-2.616l.172-6.138a6.687,6.687,0,0,0-1.291-4.486,4.819,4.819,0,0,0-4.059-1.8,8.461,8.461,0,0,0-2.855.514,7.16,7.16,0,0,0-2.327,1.286,1.931,1.931,0,0,0-.684,1.112,6.392,6.392,0,0,0-.171,1.5,10.844,10.844,0,0,0,.065,1.088,10.844,10.844,0,0,1,.065,1.088q0,.559-1.38,1.438a17.948,17.948,0,0,1-3.12,1.558,8.345,8.345,0,0,1-2.913.679,1.309,1.309,0,0,1-.959-.366,1.262,1.262,0,0,1-.372-.94,6.463,6.463,0,0,1,1.064-3.348,14.423,14.423,0,0,1,3.167-3.494,31.971,31.971,0,0,1,5.261-3.758,32.59,32.59,0,0,1,5.59-2.573,15.091,15.091,0,0,1,4.8-.943,8.924,8.924,0,0,1,6.862,2.869,9.926,9.926,0,0,1,2.525,7.336l-.5,22.666a5.55,5.55,0,0,0,.892,3.559,2.97,2.97,0,0,0,2.506,1.4A5.057,5.057,0,0,0,324.1-5.364a1.207,1.207,0,0,1,.742-.442,1.1,1.1,0,0,1,.814.315,1.1,1.1,0,0,1,.314.815,3.774,3.774,0,0,1-1.361,2.489A13.519,13.519,0,0,1,320.967.45a8.619,8.619,0,0,1-3.784.95q-4.948,0-8-5.373h-.272A26.12,26.12,0,0,1,302.732.121,14.639,14.639,0,0,1,296.735,1.4Zm5.136-5.409a6.672,6.672,0,0,0,2.849-.548,6.855,6.855,0,0,0,2.093-1.533,3.7,3.7,0,0,0,.734-1.248,8.063,8.063,0,0,0,.363-2.33l.23-5.711a2.939,2.939,0,0,0-.159-1.47.8.8,0,0,0-.771-.427,3.6,3.6,0,0,0-.627.085,6.045,6.045,0,0,0-1.082.357,18.211,18.211,0,0,0-6.277,3.572,5.7,5.7,0,0,0-1.818,4.07,4.95,4.95,0,0,0,1.434,3.934A4.56,4.56,0,0,0,301.871-4.009Zm44,5.409q-5.509,0-8.448-3.116t-2.938-9.1V-33.961a1.272,1.272,0,0,0-.629-1.194,6,6,0,0,0-2.543-.394h-.861q-.558,0-.952-.823a3.719,3.719,0,0,1-.394-1.611,1.2,1.2,0,0,1,.242-.571,1.4,1.4,0,0,1,.43-.471,36.687,36.687,0,0,0,4.187-2.8Q336-43.4,337.772-45.009t2.9-2.8q.587-.53,1-.894a1.441,1.441,0,0,1,1-.364,2.089,2.089,0,0,1,1.08.258q.435.258.307,1.161l-.558,4.992a1.574,1.574,0,0,0,.529,1.573,3.494,3.494,0,0,0,1.9.414H357.5q.342,0,.642.665a3.478,3.478,0,0,1,.3,1.448,6.645,6.645,0,0,1-.329,2.1q-.329,1-.757,1h-9.7a7.351,7.351,0,0,0-3.207.458q-.793.458-.793,2.255v19.411a10.645,10.645,0,0,0,1.714,6.488A5.682,5.682,0,0,0,350.2-4.564a14.909,14.909,0,0,0,4.385-.494,13.089,13.089,0,0,0,2.754-1.248.816.816,0,0,1,.487-.2.659.659,0,0,1,.623.508,3.144,3.144,0,0,1,.193,1.125q0,.528-1.809,2.072A20.257,20.257,0,0,1,352.123.071,14.821,14.821,0,0,1,345.866,1.4ZM363.638.3a2.787,2.787,0,0,1-1.35-.3.967.967,0,0,1-.55-.9,1.206,1.206,0,0,1,.65-1.15,6.235,6.235,0,0,1,1.45-.55,12.478,12.478,0,0,0,3.4-1.3,2.73,2.73,0,0,0,1.1-2.5V-28a10.186,10.186,0,0,0-1-4.85,4.5,4.5,0,0,0-3.5-2.25,1.156,1.156,0,0,1-.75-.45,1.808,1.808,0,0,1-.25-1.05q0-1.2.9-1.3a31.178,31.178,0,0,0,7.55-2.65q3.15-1.65,4.75-2.65a3.646,3.646,0,0,1,1.6-.7.707.707,0,0,1,.8.8q0,1.1-.25,3.5t-.5,5.2q-.25,2.8-.25,5.2V-6.4a2.775,2.775,0,0,0,1.1,2.4,10.408,10.408,0,0,0,3.4,1.4,6.236,6.236,0,0,1,1.45.55,1.206,1.206,0,0,1,.65,1.15q0,1.2-1.8,1.2-1.9,0-3.4-.15t-2.85-.25q-1.35-.1-3.15-.1-1.7,0-3.1.1t-2.75.25A31.157,31.157,0,0,1,363.638.3Zm9-51.1a5.786,5.786,0,0,1-4.25-1.75,5.786,5.786,0,0,1-1.75-4.25,5.905,5.905,0,0,1,1.75-4.35,5.786,5.786,0,0,1,4.25-1.75,6.074,6.074,0,0,1,4.4,1.75,5.821,5.821,0,0,1,1.8,4.35,5.706,5.706,0,0,1-1.8,4.25A6.074,6.074,0,0,1,372.638-50.8ZM409.223,1.4a20.561,20.561,0,0,1-10.361-2.629,19.7,19.7,0,0,1-7.338-7.252,20.317,20.317,0,0,1-2.723-10.51,21.913,21.913,0,0,1,1.708-8.5,24.744,24.744,0,0,1,4.78-7.4,23.3,23.3,0,0,1,7.174-5.236,20.4,20.4,0,0,1,8.817-1.936,20.586,20.586,0,0,1,10.712,2.829,21.733,21.733,0,0,1,7.588,7.452,19.04,19.04,0,0,1,2.822,10.11,25.181,25.181,0,0,1-2.608,11.29,20.91,20.91,0,0,1-7.738,8.537Q416.926,1.4,409.223,1.4Zm2.042-3.492a11.6,11.6,0,0,0,5.23-1.141,8.241,8.241,0,0,0,3.62-3.606,15.907,15.907,0,0,0,1.629-5.571,54.157,54.157,0,0,0,.429-6.866,27.814,27.814,0,0,0-1.561-9.41,18.224,18.224,0,0,0-4.363-7.1,9.178,9.178,0,0,0-6.61-2.72,11.11,11.11,0,0,0-4.139.734,8.311,8.311,0,0,0-3.355,2.6,12.27,12.27,0,0,0-2.528,5.941A47.49,47.49,0,0,0,399-21.348a27.058,27.058,0,0,0,1.6,9.263,19.4,19.4,0,0,0,4.363,7.207A8.653,8.653,0,0,0,411.265-2.092ZM439.781.3a3.137,3.137,0,0,1-1.407-.294.969.969,0,0,1-.593-.922,1.151,1.151,0,0,1,.643-1.123,10.249,10.249,0,0,1,1.657-.623,14.963,14.963,0,0,0,2.813-1.115,2.74,2.74,0,0,0,1.313-2.685V-28.455a13.811,13.811,0,0,0-.579-4.266,3.7,3.7,0,0,0-2.918-2.352,2.322,2.322,0,0,1-.714-.48,1.348,1.348,0,0,1-.314-1q0-1.216.928-1.373a36.429,36.429,0,0,0,6.338-2.185,38.123,38.123,0,0,0,5.227-2.885q.359-.2.7-.409a1.26,1.26,0,0,1,.666-.209.526.526,0,0,1,.494.259,1.208,1.208,0,0,1,.15.616,27.243,27.243,0,0,1-.25,2.748,28.571,28.571,0,0,0-.25,3.42,6.3,6.3,0,0,0,.05.794.951.951,0,0,0,.15.494,27.3,27.3,0,0,1,7.248-5.015,19.917,19.917,0,0,1,8.446-1.743,10.438,10.438,0,0,1,8.333,3.941,15.158,15.158,0,0,1,3.316,10.1V-6.431A2.629,2.629,0,0,0,482.537-3.8a23.588,23.588,0,0,0,2.813,1.135,11.071,11.071,0,0,1,1.506.694,1.283,1.283,0,0,1,.706,1.194.847.847,0,0,1-.656.851A3.907,3.907,0,0,1,485.65.3a30.642,30.642,0,0,1-3.332-.15Q480.986,0,479.754-.1t-3.032-.1q-1.7,0-3,.1t-2.656.25a31.248,31.248,0,0,1-3.353.15A3.918,3.918,0,0,1,466.5.077a.852.852,0,0,1-.677-.851,1.287,1.287,0,0,1,.691-1.194,10.354,10.354,0,0,1,1.491-.694,21.094,21.094,0,0,0,2.77-1.135,2.653,2.653,0,0,0,1.27-2.635V-27.055a9.193,9.193,0,0,0-2.2-6.545,7.892,7.892,0,0,0-5.869-2.42,14.163,14.163,0,0,0-5.459.976,18.445,18.445,0,0,0-4.337,2.532,2.267,2.267,0,0,0-.6.977,3.751,3.751,0,0,0-.2,1.178V-6.431a2.724,2.724,0,0,0,1.284,2.67,15.077,15.077,0,0,0,2.755,1.1q2.184.63,2.184,1.745a1,1,0,0,1-.5.908A2.638,2.638,0,0,1,457.72.3a30.821,30.821,0,0,1-3.338-.15Q453.044,0,451.856-.1t-2.988-.1q-1.7,0-3,.1t-2.693.25A32.507,32.507,0,0,1,439.781.3Z" transform="translate(539 5643.6)" fill="url(#linear-gradient)"/>
  </g>
</svg>
