<?xml version="1.0" encoding="UTF-8"?><svg id="_レイヤー_1" xmlns="http://www.w3.org/2000/svg" xmlns:xlink="http://www.w3.org/1999/xlink" viewBox="0 0 342.17 72"><defs><style>.cls-1{fill:url(#_名称未設定グラデーション);}.cls-1,.cls-2,.cls-3,.cls-4,.cls-5,.cls-6,.cls-7{stroke-width:0px;}.cls-2{fill:url(#_名称未設定グラデーション-6);}.cls-3{fill:url(#_名称未設定グラデーション-4);}.cls-4{fill:url(#_名称未設定グラデーション-2);}.cls-5{fill:url(#_名称未設定グラデーション-7);}.cls-6{fill:url(#_名称未設定グラデーション-5);}.cls-7{fill:url(#_名称未設定グラデーション-3);}</style><linearGradient id="_名称未設定グラデーション" x1="25.17" y1="4.58" x2="25.17" y2="64.35" gradientUnits="userSpaceOnUse"><stop offset="0" stop-color="#2e4177"/><stop offset="1" stop-color="#00aec7"/></linearGradient><linearGradient id="_名称未設定グラデーション-2" x1="72.54" y1="4.58" x2="72.54" y2="64.35" xlink:href="#_名称未設定グラデーション"/><linearGradient id="_名称未設定グラデーション-3" x1="132.78" y1="4.58" x2="132.78" y2="64.35" xlink:href="#_名称未設定グラデーション"/><linearGradient id="_名称未設定グラデーション-4" x1="186.33" y1="4.58" x2="186.33" y2="64.35" xlink:href="#_名称未設定グラデーション"/><linearGradient id="_名称未設定グラデーション-5" x1="227.39" y1="4.58" x2="227.39" y2="64.35" xlink:href="#_名称未設定グラデーション"/><linearGradient id="_名称未設定グラデーション-6" x1="277.46" y1="4.58" x2="277.46" y2="64.35" xlink:href="#_名称未設定グラデーション"/><linearGradient id="_名称未設定グラデーション-7" x1="319.79" y1="4.58" x2="319.79" y2="64.35" xlink:href="#_名称未設定グラデーション"/></defs><path class="cls-1" d="M44.28,24.65c-.57.19-1.17.28-1.8.28-.88,0-1.51-.17-1.89-.52-.38-.35-.63-.71-.76-1.09-1.45-3.6-3.33-6.18-5.63-7.76-2.3-1.58-5.38-2.37-9.23-2.37-3.03,0-5.6.74-7.71,2.22-2.11,1.48-3.17,3.74-3.17,6.77,0,2.33.8,4.21,2.41,5.63,1.61,1.42,3.63,2.67,6.06,3.74,2.43,1.07,5.05,2.11,7.85,3.12,2.81,1.01,5.42,2.27,7.85,3.79,2.43,1.51,4.45,3.44,6.06,5.77,1.61,2.33,2.41,5.33,2.41,8.99,0,2.4-.41,4.73-1.23,7-.82,2.27-2.11,4.27-3.88,6.01-1.77,1.74-4.01,3.12-6.72,4.16-2.71,1.04-5.96,1.56-9.75,1.56-4.16,0-7.89-.45-11.17-1.34-3.28-.9-5.99-1.87-8.14-2.92-.19-2.71-.49-5.37-.9-7.99-.41-2.62-.87-5.16-1.37-7.62.63-.25,1.36-.38,2.18-.38.76,0,1.32.14,1.7.43.38.28.69.77.95,1.47.82,2.4,1.73,4.46,2.74,6.2,1.01,1.74,2.18,3.16,3.5,4.26,1.32,1.1,2.85,1.91,4.59,2.41,1.73.51,3.74.76,6.01.76,1.95,0,3.63-.27,5.01-.81,1.39-.54,2.52-1.25,3.41-2.13.88-.88,1.54-1.93,1.99-3.13.44-1.2.66-2.43.66-3.7,0-2.72-.77-4.85-2.32-6.4-1.55-1.55-3.47-2.84-5.77-3.88-2.3-1.04-4.79-2.02-7.48-2.94-2.68-.92-5.17-2.08-7.48-3.51-2.3-1.42-4.23-3.25-5.77-5.5-1.55-2.24-2.32-5.26-2.32-9.05,0-2.53.46-4.88,1.37-7.06.91-2.18,2.25-4.07,4.02-5.69,1.77-1.61,3.89-2.89,6.39-3.84,2.49-.95,5.35-1.42,8.56-1.42,2.65,0,5.31.28,8,.85,2.68.57,5.72,1.51,9.13,2.84.13,1.89.33,4.02.62,6.39.28,2.37.61,4.49.99,6.39Z"/><path class="cls-4" d="M88.55,62.12c.56-.44,1.07-.66,1.51-.66.31,0,.68.14,1.08.43.41.28.83.84,1.27,1.66-2.46,2.9-5.28,5.03-8.47,6.39-3.19,1.36-6.95,2.03-11.31,2.03-2.46,0-4.87-.39-7.24-1.18-2.37-.79-4.49-2.02-6.39-3.69-1.89-1.67-3.42-3.77-4.59-6.29-1.17-2.52-1.75-5.55-1.75-9.08s.68-6.61,2.03-9.42c1.36-2.81,3.08-5.19,5.16-7.14,2.08-1.95,4.35-3.45,6.81-4.49,2.46-1.04,4.83-1.56,7.1-1.56,6.12,0,10.74,1.77,13.86,5.3,3.12,3.53,4.68,8.36,4.68,14.48,0,.44-.22.66-.66.66l-27.06,1.14c0,4.92,1.1,8.69,3.3,11.31,2.2,2.62,5.5,3.93,9.9,3.93,1.95,0,3.86-.31,5.75-.95,1.89-.63,3.55-1.58,5-2.84ZM72.4,33.26c-2.45,0-4.41,1.06-5.88,3.17-1.47,2.11-2.21,5.44-2.21,9.98l14.67-.66c.94-.06,1.41-.47,1.41-1.23,0-1.2-.16-2.46-.47-3.79-.31-1.32-.8-2.54-1.46-3.64-.66-1.1-1.49-2.02-2.49-2.74-1-.72-2.2-1.09-3.58-1.09Z"/><path class="cls-7" d="M137.98,38.37c2.21-2.84,4.53-5.09,6.95-6.77,2.43-1.67,4.9-2.51,7.43-2.51,7.88,0,11.83,4.29,11.83,12.87v23.09c0,.88.38,1.55,1.14,1.99.76.44,2.14.85,4.16,1.23.69.13,1.04.54,1.04,1.23v.95c0,.32-.06.6-.19.85-1.58-.13-3.19-.24-4.83-.33-1.64-.09-3.69-.14-6.15-.14-2.08,0-3.99.05-5.72.14-1.74.09-3.45.2-5.16.33-.13-.63-.19-1.23-.19-1.8,0-.44.11-.74.33-.9.22-.16.46-.27.71-.33,1.7-.32,2.82-.69,3.36-1.14.54-.44.8-1.14.8-2.08v-18.54c0-3.72-.36-6.29-1.09-7.71-.73-1.42-2.07-2.13-4.02-2.13-2.84,0-5.24.96-7.19,2.89-1.96,1.92-2.93,4.78-2.93,8.56v16.94c0,.95.28,1.64.85,2.08.57.44,1.67.82,3.31,1.14.69.13,1.04.54,1.04,1.23v.95c0,.32-.06.6-.19.85-1.51-.13-3.03-.24-4.54-.33-1.51-.09-3.28-.14-5.3-.14s-3.99.05-5.72.14c-1.74.09-3.45.2-5.16.33-.13-.63-.19-1.23-.19-1.8,0-.44.11-.74.33-.9.22-.16.46-.27.71-.33,1.7-.32,2.82-.69,3.36-1.14.54-.44.8-1.14.8-2.08v-18.54c0-3.72-.36-6.29-1.09-7.71-.73-1.42-2.07-2.13-4.02-2.13-2.84,0-5.24.96-7.19,2.89-1.96,1.92-2.93,4.78-2.93,8.56v16.94c0,.95.28,1.64.85,2.08.57.44,1.67.82,3.31,1.14.69.13,1.04.54,1.04,1.23v.95c0,.32-.06.6-.19.85-1.64-.13-3.34-.24-5.11-.33-1.77-.09-3.66-.14-5.68-.14-2.46,0-4.53.05-6.2.14-1.67.09-3.3.2-4.87.33-.13-.63-.19-1.23-.19-1.8,0-.44.11-.74.33-.9.22-.16.46-.27.71-.33,2.02-.38,3.41-.79,4.16-1.23.76-.44,1.14-1.14,1.14-2.08v-24.98c0-1.89-.35-3.34-1.04-4.35-.69-1.01-2.15-1.61-4.35-1.8-.82-.19-1.23-.69-1.23-1.51v-.71c0-.28.06-.55.19-.8.38,0,.93-.01,1.66-.05.72-.03,1.5-.06,2.32-.09.82-.03,1.64-.08,2.46-.14.82-.06,1.58-.13,2.27-.19,1.58-.19,3.09-.44,4.54-.76,1.45-.31,2.43-.47,2.93-.47,1.01,0,1.51.47,1.51,1.42,0,.69-.09,1.61-.28,2.74-.19,1.14-.28,2.71-.28,4.73,2.02-2.65,4.24-4.79,6.67-6.43,2.43-1.64,4.9-2.46,7.43-2.46,6.62,0,10.47,3.09,11.54,9.27Z"/><path class="cls-3" d="M186.43,70.83c-2.46,0-4.57.05-6.34.14-1.77.09-3.47.2-5.11.33-.13-.63-.19-1.23-.19-1.8,0-.44.11-.74.33-.9.22-.16.46-.27.71-.33,2.02-.38,3.41-.79,4.16-1.23.76-.44,1.14-1.14,1.14-2.08v-24.98c0-1.89-.32-3.34-.95-4.35-.63-1.01-2.11-1.61-4.45-1.8-.82-.13-1.23-.63-1.23-1.51v-.71c0-.28.06-.55.19-.8.38,0,.93-.01,1.66-.05.72-.03,1.5-.06,2.32-.09.82-.03,1.64-.08,2.46-.14.82-.06,1.58-.13,2.27-.19,1.58-.19,3.09-.44,4.54-.76,1.45-.31,2.43-.47,2.93-.47,1.01,0,1.51.47,1.51,1.42,0,.69-.09,1.61-.28,2.74-.19,1.14-.28,2.71-.28,4.73v26.97c0,.95.41,1.64,1.23,2.08.82.44,2.18.85,4.07,1.23.69.13,1.04.54,1.04,1.23v.95c0,.32-.06.6-.19.85-1.58-.13-3.28-.24-5.11-.33-1.83-.09-3.97-.14-6.43-.14ZM179.52,15.29c0-2.02.65-3.67,1.94-4.97,1.29-1.29,2.92-1.94,4.87-1.94s3.66.65,4.92,1.94c1.26,1.29,1.89,2.95,1.89,4.97s-.63,3.68-1.89,4.97c-1.26,1.29-2.9,1.94-4.92,1.94s-3.58-.65-4.87-1.94c-1.29-1.29-1.94-2.95-1.94-4.97Z"/><path class="cls-6" d="M246.26,65.06c0,.88.38,1.56,1.14,2.04.76.47,2.14.87,4.16,1.18.25.06.49.17.71.33.22.16.33.46.33.9,0,.38-.02.71-.05.99-.03.28-.08.55-.14.8-1.64-.13-3.28-.24-4.92-.33-1.64-.09-3.69-.14-6.15-.14-2.02,0-3.91.05-5.68.14-1.77.09-3.47.2-5.11.33-.13-.32-.19-.91-.19-1.8,0-.69.35-1.1,1.04-1.23,1.64-.32,2.74-.69,3.31-1.14.57-.44.85-1.14.85-2.08v-18.54c0-3.72-.46-6.29-1.37-7.71-.92-1.42-2.38-2.13-4.4-2.13-2.84,0-5.27.96-7.29,2.89-2.02,1.92-3.03,4.78-3.03,8.56v16.94c0,.95.28,1.64.85,2.08.57.44,1.67.82,3.31,1.14.69.13,1.04.54,1.04,1.23,0,.88-.06,1.48-.19,1.8-1.64-.13-3.34-.24-5.11-.33-1.77-.09-3.66-.14-5.68-.14-2.46,0-4.53.05-6.2.14-1.67.09-3.3.2-4.87.33-.06-.25-.11-.52-.14-.8-.03-.28-.05-.62-.05-.99,0-.44.11-.74.33-.9.22-.16.46-.27.71-.33,2.02-.38,3.41-.79,4.16-1.23.76-.44,1.14-1.14,1.14-2.08v-24.98c0-1.89-.35-3.34-1.04-4.35-.69-1.01-2.15-1.61-4.35-1.8-.82-.19-1.23-.69-1.23-1.51v-.71c0-.28.06-.55.19-.8.38,0,.93-.01,1.66-.05.72-.03,1.5-.06,2.32-.09.82-.03,1.64-.08,2.46-.14.82-.06,1.58-.13,2.27-.19,1.58-.19,3.09-.44,4.54-.76,1.45-.31,2.43-.47,2.93-.47,1.01,0,1.51.47,1.51,1.42,0,.69-.09,1.61-.28,2.74-.19,1.14-.28,2.71-.28,4.73,2.02-2.65,4.26-4.79,6.72-6.43,2.46-1.64,5.01-2.46,7.66-2.46,3.85,0,6.87,1.07,9.08,3.22,2.21,2.15,3.31,5.36,3.31,9.65v23.09Z"/><path class="cls-2" d="M297.14,67.89c.95,0,1.42.79,1.42,2.37-.82.57-1.85.99-3.08,1.28-1.23.28-2.48.43-3.74.43-2.84,0-5.01-.69-6.53-2.08s-2.4-3-2.65-4.83c-1.26,2.52-2.95,4.31-5.06,5.35-2.11,1.04-4.59,1.56-7.43,1.56-1.32,0-2.79-.11-4.4-.33-1.61-.22-3.09-.68-4.45-1.37-1.36-.69-2.51-1.67-3.45-2.93-.95-1.26-1.42-2.93-1.42-5.01,0-2.33.6-4.32,1.8-5.96,1.2-1.64,2.7-3.01,4.49-4.12,1.8-1.1,3.77-1.99,5.91-2.65,2.14-.66,4.16-1.21,6.06-1.66.82-.19,1.67-.39,2.55-.62.88-.22,1.58-.39,2.08-.52.69-.19,1.13-.46,1.32-.8.19-.35.28-1.25.28-2.7,0-3.22-.47-5.69-1.42-7.43-.95-1.73-2.55-2.6-4.83-2.6-1.83,0-3.14.57-3.93,1.7-.79,1.14-1.53,2.93-2.22,5.39-.19.69-.74,1.21-1.66,1.56-.92.35-2.07.71-3.45,1.09-.76.19-1.53.35-2.32.47-.79.13-1.5.19-2.13.19-.38,0-.63-.14-.76-.43-.13-.28-.19-.83-.19-1.66,0-1.58.58-3.12,1.75-4.64,1.17-1.51,2.63-2.85,4.4-4.02,1.77-1.17,3.71-2.1,5.82-2.79,2.11-.69,4.15-1.04,6.1-1.04,2.33,0,4.45.21,6.34.61,1.89.41,3.52,1.13,4.87,2.17,1.36,1.04,2.41,2.42,3.17,4.15s1.14,3.95,1.14,6.65v16.61c0,2.2.05,3.81.14,4.82s.27,1.76.52,2.26c.57,1.13,1.45,1.7,2.65,1.7.5,0,.93-.03,1.28-.09.35-.06.68-.09.99-.09ZM280.87,50.2l-2.08.38c-1.45.25-2.81.62-4.07,1.09-1.26.47-2.35,1.1-3.26,1.89-.92.79-1.64,1.77-2.18,2.93-.54,1.17-.8,2.57-.8,4.21,0,2.46.39,4.18,1.18,5.16.79.98,1.94,1.47,3.45,1.47,2.4,0,4.29-.88,5.68-2.65,1.39-1.77,2.08-4.23,2.08-7.38v-7.1Z"/><path class="cls-5" d="M332.24,29.2c1.83,0,3.2.47,4.12,1.42.91.95,1.37,2.15,1.37,3.6,0,.44-.08.82-.24,1.14s-.5.66-1.04,1.04c-.54.38-1.28.8-2.22,1.28-.95.47-2.18,1.06-3.69,1.75-1.01-1.01-1.94-1.69-2.79-2.03s-1.69-.52-2.51-.52c-.76,0-1.5.13-2.22.38-.73.25-1.37.74-1.94,1.47-.57.73-1.03,1.69-1.37,2.89-.35,1.2-.52,2.74-.52,4.64v17.6c0,1.26.5,2.19,1.51,2.79,1.01.6,3,1.15,5.96,1.66.69.13,1.04.54,1.04,1.23,0,.88-.06,1.48-.19,1.8-.82-.06-1.83-.11-3.03-.14-1.2-.03-2.46-.08-3.79-.14-1.32-.06-2.63-.11-3.93-.14-1.29-.03-2.45-.05-3.45-.05-2.4,0-4.45.05-6.15.14s-3.31.2-4.83.33c-.13-.32-.19-.91-.19-1.8,0-.69.35-1.1,1.04-1.23,2.02-.38,3.41-.79,4.16-1.23.76-.44,1.13-1.14,1.13-2.08v-25.45c0-1.45-.27-2.62-.8-3.5-.54-.88-2.03-1.48-4.5-1.8-.88-.13-1.32-.6-1.32-1.42v-.76c0-.31.06-.57.19-.76.38,0,.91-.01,1.61-.05.69-.03,1.45-.06,2.27-.09.82-.03,1.64-.08,2.46-.14.82-.06,1.54-.16,2.18-.28,1.39-.19,2.82-.43,4.3-.71,1.48-.28,2.48-.43,2.98-.43.88,0,1.33.47,1.33,1.42v5.11c2.21-2.4,4.32-4.15,6.34-5.25,2.02-1.1,4.26-1.66,6.72-1.66Z"/></svg>