<svg xmlns="http://www.w3.org/2000/svg" xmlns:xlink="http://www.w3.org/1999/xlink" width="196.511" height="44.525" viewBox="0 0 196.511 44.525">
  <defs>
    <linearGradient id="linear-gradient" x1="0.5" x2="0.5" y2="1" gradientUnits="objectBoundingBox">
      <stop offset="0" stop-color="#2e4177"/>
      <stop offset="1" stop-color="#00aec7"/>
    </linearGradient>
  </defs>
  <g id="グループ_3575" data-name="グループ 3575" transform="translate(-89 -1779.84)">
    <path id="パス_7367" data-name="パス 7367" d="M13.6,1A17.153,17.153,0,0,1,8.439.246,14.475,14.475,0,0,1,4.057-1.986a5.1,5.1,0,0,1-.6-.632,2.671,2.671,0,0,1-.433-.762,17.137,17.137,0,0,1-.582-3.71q-.145-2.24-.2-4.038a.724.724,0,0,1,.381-.673,1.781,1.781,0,0,1,.9-.218,1.445,1.445,0,0,1,.735.172.942.942,0,0,1,.418.58,15.3,15.3,0,0,0,4.018,7.4,8.409,8.409,0,0,0,5.8,2.447A7.287,7.287,0,0,0,18.3-2.391a6.693,6.693,0,0,0,2.508-2.64,7.852,7.852,0,0,0,.894-3.759,8.441,8.441,0,0,0-.849-4.031,8.594,8.594,0,0,0-2.474-2.788,43.34,43.34,0,0,0-4.04-2.627q-2.592-1.587-5.09-3.273a15.937,15.937,0,0,1-4.123-3.967A9.419,9.419,0,0,1,3.5-31.085a11.555,11.555,0,0,1,1.674-6.2,11.623,11.623,0,0,1,4.848-4.3,16.934,16.934,0,0,1,7.629-1.583,17.05,17.05,0,0,1,4.288.5,22.455,22.455,0,0,1,3.065.99,2.228,2.228,0,0,1,.962.659A2.973,2.973,0,0,1,26.5-39.9q.371,1.365.741,3.186a18.344,18.344,0,0,1,.37,3.663q0,.754-1.05.754a2.413,2.413,0,0,1-1.1-.27,1.205,1.205,0,0,1-.664-.679,14.115,14.115,0,0,0-3.2-5.5,6.654,6.654,0,0,0-4.841-1.886,8.623,8.623,0,0,0-3.536.7,5.582,5.582,0,0,0-2.508,2.2,7.4,7.4,0,0,0-.94,3.969,5.19,5.19,0,0,0,1.2,3.307,14.766,14.766,0,0,0,3.253,2.909q2.052,1.4,4.532,2.934a39.877,39.877,0,0,1,4.858,3.367,13.709,13.709,0,0,1,3.387,4,10.981,10.981,0,0,1,1.237,5.38,12.834,12.834,0,0,1-1.821,6.963A11.532,11.532,0,0,1,21.31-.5,18.391,18.391,0,0,1,13.6,1ZM44.975.956A11.061,11.061,0,0,1,38.716-.837a12.086,12.086,0,0,1-4.235-5.01,16.98,16.98,0,0,1-1.533-7.386A14.168,14.168,0,0,1,34.736-20.3a14.277,14.277,0,0,1,4.781-5.1,11.893,11.893,0,0,1,6.56-1.923,10.065,10.065,0,0,1,4.747,1.1,8.447,8.447,0,0,1,3.294,3.005,8.021,8.021,0,0,1,1.2,4.371q0,2.166-1.968,2.166H39.883a1.515,1.515,0,0,0-1.286.5,3.288,3.288,0,0,0-.376,1.87A11.016,11.016,0,0,0,39.49-9.046,10.143,10.143,0,0,0,42.9-5.262a8.532,8.532,0,0,0,4.779,1.4A8.279,8.279,0,0,0,51.207-4.6a10.033,10.033,0,0,0,2.941-2.111,2.543,2.543,0,0,1,.408-.385.623.623,0,0,1,.363-.116q.577,0,.577.707a4.59,4.59,0,0,1-.944,2.447,10.149,10.149,0,0,1-2.284,2.532A11.194,11.194,0,0,1,48.987.289,11.814,11.814,0,0,1,44.975.956Zm-5-19.9h5.2q1.653,0,2.617-.065a12.612,12.612,0,0,0,1.854-.26.655.655,0,0,0,.45-.507,3.854,3.854,0,0,0,.125-1.074,3.892,3.892,0,0,0-1.488-3.085,5.382,5.382,0,0,0-3.593-1.257,5.419,5.419,0,0,0-2.83.84,7.585,7.585,0,0,0-2.291,2.1,4.273,4.273,0,0,0-.881,2.562Q39.138-18.946,39.975-18.946ZM60.155.2A2,2,0,0,1,59.208,0a.635.635,0,0,1-.353-.6.754.754,0,0,1,.4-.73,5.791,5.791,0,0,1,1.1-.4,4.2,4.2,0,0,0,1.88-.942A2.085,2.085,0,0,0,62.8-4.2V-18.514a7.416,7.416,0,0,0-.463-2.772A2.487,2.487,0,0,0,60.4-22.76a1.1,1.1,0,0,1-.5-.335.9.9,0,0,1-.223-.624.807.807,0,0,1,.66-.893,27.768,27.768,0,0,0,3.9-1.471q2.079-.951,3.382-1.676a5.645,5.645,0,0,1,.684-.385,1.269,1.269,0,0,1,.48-.145q.419,0,.419.549,0,.233-.033,1.088t-.075,1.9q-.042,1.05-.088,1.977,0,.28.168.28A15.836,15.836,0,0,1,71.481-24.9a12.763,12.763,0,0,1,2.694-1.767,6.315,6.315,0,0,1,2.756-.679,4.221,4.221,0,0,1,2.573.679,2.086,2.086,0,0,1,.906,1.74,4.078,4.078,0,0,1-.424,1.685,5.473,5.473,0,0,1-1.1,1.6,2.028,2.028,0,0,1-1.442.679,2.644,2.644,0,0,1-.986-.21q-.521-.21-1.1-.489-.558-.233-1.115-.456a2.89,2.89,0,0,0-1.078-.223,4.551,4.551,0,0,0-2.975,1.152q-1.378,1.152-1.378,4.554V-4.407a1.82,1.82,0,0,0,.872,1.6,10.157,10.157,0,0,0,2.553,1.1,4.678,4.678,0,0,1,1.1.418.75.75,0,0,1,.381.7q0,.79-1.225.79A29.431,29.431,0,0,1,69.145.033,26.776,26.776,0,0,0,66.061-.13q-1.105,0-1.948.065T62.362.1A21.129,21.129,0,0,1,60.155.2ZM95.21,1.365q-.317,0-.716-.951t-.661-1.651q-.474-1.123-.939-2.42T92-6.051Q90.494-10,88.809-13.788t-3.3-7.692a7.381,7.381,0,0,0-1.388-2.226,4.285,4.285,0,0,0-1.927-1.277,3.816,3.816,0,0,1-.864-.438.827.827,0,0,1-.306-.716q0-.428.516-.534a4.453,4.453,0,0,1,.879-.107q1.394,0,2.083.074t1.368.172a13.975,13.975,0,0,0,1.878.1,16.3,16.3,0,0,0,2-.1q.755-.1,1.584-.172t2.159-.074a3.7,3.7,0,0,1,.869.125q.506.125.506.553a.782.782,0,0,1-.455.734,9.019,9.019,0,0,1-1.021.455,1.886,1.886,0,0,0-1.023.989,3.887,3.887,0,0,0-.353,1.714q0,.493.046.966a3.348,3.348,0,0,0,.214.9L97.123-7.725a.2.2,0,0,0,.1.046.2.2,0,0,0,.1-.046l4.563-11.827a6.322,6.322,0,0,0,.352-1.285,7.313,7.313,0,0,0,.111-1.173,3.439,3.439,0,0,0-.428-1.89,2.668,2.668,0,0,0-1.394-.99,8.9,8.9,0,0,1-1.113-.492.734.734,0,0,1-.363-.7.542.542,0,0,1,.46-.554,3.453,3.453,0,0,1,.915-.126q1.074.019,2.139.144a21.994,21.994,0,0,0,2.511.124,13.682,13.682,0,0,0,2.148-.124,12.978,12.978,0,0,1,1.914-.144,4.053,4.053,0,0,1,.948.107.511.511,0,0,1,.447.535q0,.79-1.4,1.245a5.2,5.2,0,0,0-2.164,1.486,9.176,9.176,0,0,0-1.791,2.756L100.1-8.221q-.149.336-.5,1.212t-.751,1.89q-.4,1.014-.7,1.8t-.381.933q-.076.17-.4.929t-.7,1.574A8.875,8.875,0,0,1,96,1.365ZM112.933.2a1.812,1.812,0,0,1-.878-.2.629.629,0,0,1-.357-.585.784.784,0,0,1,.423-.748,4.053,4.053,0,0,1,.942-.358,8.111,8.111,0,0,0,2.21-.845,1.775,1.775,0,0,0,.715-1.625V-18.2a6.621,6.621,0,0,0-.65-3.153,2.927,2.927,0,0,0-2.275-1.462.751.751,0,0,1-.488-.292,1.175,1.175,0,0,1-.162-.682q0-.78.585-.845a20.266,20.266,0,0,0,4.908-1.722q2.047-1.073,3.088-1.722a2.37,2.37,0,0,1,1.04-.455.46.46,0,0,1,.52.52q0,.715-.162,2.275t-.325,3.38q-.163,1.82-.163,3.38V-4.16a1.8,1.8,0,0,0,.715,1.56,6.765,6.765,0,0,0,2.21.91,4.053,4.053,0,0,1,.942.358.784.784,0,0,1,.423.748q0,.78-1.17.78-1.235,0-2.21-.1t-1.853-.163q-.877-.065-2.048-.065-1.1,0-2.015.065T115.111.1A20.253,20.253,0,0,1,112.933.2Zm5.85-33.215a3.761,3.761,0,0,1-2.763-1.138,3.761,3.761,0,0,1-1.137-2.763,3.839,3.839,0,0,1,1.137-2.827,3.761,3.761,0,0,1,2.763-1.138,3.948,3.948,0,0,1,2.86,1.138,3.784,3.784,0,0,1,1.17,2.827,3.709,3.709,0,0,1-1.17,2.763A3.948,3.948,0,0,1,118.783-33.02ZM141.085.956a10.867,10.867,0,0,1-6-1.723,12.144,12.144,0,0,1-4.236-4.71,14.27,14.27,0,0,1-1.556-6.694,15.572,15.572,0,0,1,1.89-7.651,14.944,14.944,0,0,1,5.067-5.464,12.772,12.772,0,0,1,7.041-2.038,12.079,12.079,0,0,1,7.919,2.709,1.662,1.662,0,0,1,.7,1.216,2.113,2.113,0,0,1-.493,1.161,5.006,5.006,0,0,1-1.171,1.157A2.215,2.215,0,0,1,149-20.6a1.433,1.433,0,0,1-.82-.275q-.4-.275-.828-.592a22.118,22.118,0,0,0-3.27-2.164,6.511,6.511,0,0,0-2.953-.947,5.313,5.313,0,0,0-4.649,2.637,13.422,13.422,0,0,0-1.728,7.39,12.121,12.121,0,0,0,1.21,5.506,9.38,9.38,0,0,0,3.33,3.778,8.733,8.733,0,0,0,4.831,1.364,7.978,7.978,0,0,0,3.3-.627,11.326,11.326,0,0,0,2.953-2.073,2.5,2.5,0,0,1,.4-.294.8.8,0,0,1,.4-.126q.733,0,.733.948a2.411,2.411,0,0,1-.18.83,5.2,5.2,0,0,1-.625,1.11A11.439,11.439,0,0,1,148.71-1.65a12.464,12.464,0,0,1-3.426,1.9A12.028,12.028,0,0,1,141.085.956Zm25.626,0a11.061,11.061,0,0,1-6.259-1.793,12.086,12.086,0,0,1-4.235-5.01,16.98,16.98,0,0,1-1.533-7.386,14.168,14.168,0,0,1,1.789-7.065,14.277,14.277,0,0,1,4.781-5.1,11.893,11.893,0,0,1,6.56-1.923,10.065,10.065,0,0,1,4.747,1.1,8.447,8.447,0,0,1,3.294,3.005,8.02,8.02,0,0,1,1.2,4.371q0,2.166-1.968,2.166h-13.47a1.515,1.515,0,0,0-1.286.5,3.288,3.288,0,0,0-.376,1.87,11.016,11.016,0,0,0,1.271,5.274,10.143,10.143,0,0,0,3.414,3.784,8.532,8.532,0,0,0,4.779,1.4,8.279,8.279,0,0,0,3.523-.738,10.033,10.033,0,0,0,2.941-2.111,2.544,2.544,0,0,1,.408-.385.623.623,0,0,1,.363-.116q.577,0,.577.707a4.59,4.59,0,0,1-.944,2.447,10.149,10.149,0,0,1-2.284,2.532A11.194,11.194,0,0,1,170.723.289,11.814,11.814,0,0,1,166.712.956Zm-5-19.9h5.2q1.653,0,2.617-.065a12.612,12.612,0,0,0,1.854-.26.655.655,0,0,0,.45-.507,3.854,3.854,0,0,0,.125-1.074,3.892,3.892,0,0,0-1.488-3.085,5.382,5.382,0,0,0-3.593-1.257,5.419,5.419,0,0,0-2.83.84,7.585,7.585,0,0,0-2.291,2.1,4.272,4.272,0,0,0-.881,2.562Q160.875-18.946,161.712-18.946ZM188.727.91a12.938,12.938,0,0,1-3.912-.58,9.7,9.7,0,0,1-3.226-1.7,7.947,7.947,0,0,1-.609-2.641q-.191-1.831-.218-3.352,0-.66,1-.66a1.158,1.158,0,0,1,.639.182.826.826,0,0,1,.368.462A10.114,10.114,0,0,0,185.508-2.8a5.649,5.649,0,0,0,3.8,1.563,4.041,4.041,0,0,0,3.01-1.2,3.982,3.982,0,0,0,1.182-2.9A4.017,4.017,0,0,0,192.277-8.3a20.032,20.032,0,0,0-3.775-2.739,27.278,27.278,0,0,1-3.576-2.458,9.064,9.064,0,0,1-2.256-2.676,7,7,0,0,1-.777-3.359,7.307,7.307,0,0,1,1.116-4.006,7.7,7.7,0,0,1,3.217-2.782,11.349,11.349,0,0,1,5.026-1.026,12.967,12.967,0,0,1,3.5.418,7.781,7.781,0,0,1,2.149.873,6.106,6.106,0,0,1,.858,2.318,15.974,15.974,0,0,1,.338,3.269q0,.53-.838.53a1.694,1.694,0,0,1-.814-.219,1.172,1.172,0,0,1-.534-.5,8.765,8.765,0,0,0-2.132-3.462,4.386,4.386,0,0,0-3.077-1.185,4.437,4.437,0,0,0-2.8.956,3.251,3.251,0,0,0-1.23,2.727,3.7,3.7,0,0,0,1.056,2.581,14.268,14.268,0,0,0,3.411,2.467,24.651,24.651,0,0,1,5.763,4.082,7.059,7.059,0,0,1,1.843,5.105,7.466,7.466,0,0,1-2.7,6.022A11.037,11.037,0,0,1,188.727.91Z" transform="translate(86.758 1823)" fill="url(#linear-gradient)"/>
  </g>
</svg>
