<svg xmlns="http://www.w3.org/2000/svg" xmlns:xlink="http://www.w3.org/1999/xlink" width="302.324" height="68.5" viewBox="0 0 302.324 68.5">
  <defs>
    <linearGradient id="linear-gradient" x1="0.5" x2="0.5" y2="1" gradientUnits="objectBoundingBox">
      <stop offset="0" stop-color="#2e4177"/>
      <stop offset="1" stop-color="#00aec7"/>
    </linearGradient>
  </defs>
  <g id="グループ_3518" data-name="グループ 3518" transform="translate(-363.448 -2213)">
    <path id="パス_7330" data-name="パス 7330" d="M20.922,1.542A26.389,26.389,0,0,1,12.983.379,22.269,22.269,0,0,1,6.242-3.055a7.85,7.85,0,0,1-.924-.973A4.109,4.109,0,0,1,4.652-5.2a26.364,26.364,0,0,1-.9-5.708q-.223-3.447-.307-6.212a1.114,1.114,0,0,1,.586-1.036,2.74,2.74,0,0,1,1.386-.336,2.224,2.224,0,0,1,1.13.265,1.45,1.45,0,0,1,.643.893Q9.281-9.72,13.376-5.956a12.937,12.937,0,0,0,8.916,3.764,11.211,11.211,0,0,0,5.867-1.486A10.3,10.3,0,0,0,32.018-7.74a12.081,12.081,0,0,0,1.376-5.784,12.987,12.987,0,0,0-1.306-6.2,13.221,13.221,0,0,0-3.806-4.29,66.677,66.677,0,0,0-6.216-4.042q-3.987-2.442-7.831-5.035a24.519,24.519,0,0,1-6.344-6.1,14.491,14.491,0,0,1-2.5-8.629,17.776,17.776,0,0,1,2.576-9.534,17.881,17.881,0,0,1,7.458-6.608A26.052,26.052,0,0,1,27.161-66.4a26.23,26.23,0,0,1,6.6.765,34.547,34.547,0,0,1,4.715,1.523,3.427,3.427,0,0,1,1.48,1.014,4.574,4.574,0,0,1,.823,1.717q.57,2.1,1.14,4.9a28.221,28.221,0,0,1,.57,5.636q0,1.159-1.616,1.159a3.712,3.712,0,0,1-1.693-.415,1.854,1.854,0,0,1-1.021-1.045,21.715,21.715,0,0,0-4.928-8.462,10.236,10.236,0,0,0-7.448-2.9,13.266,13.266,0,0,0-5.44,1.071,8.587,8.587,0,0,0-3.859,3.383,11.385,11.385,0,0,0-1.447,6.105,7.984,7.984,0,0,0,1.848,5.088,22.718,22.718,0,0,0,5,4.476q3.156,2.156,6.972,4.514a61.348,61.348,0,0,1,7.474,5.18,21.091,21.091,0,0,1,5.21,6.152,16.894,16.894,0,0,1,1.9,8.277,19.744,19.744,0,0,1-2.8,10.713A17.741,17.741,0,0,1,32.784-.771,28.294,28.294,0,0,1,20.922,1.542Zm48.27-.072a17.017,17.017,0,0,1-9.63-2.758A18.593,18.593,0,0,1,53.047-9a26.123,26.123,0,0,1-2.358-11.363,21.8,21.8,0,0,1,2.752-10.869A21.965,21.965,0,0,1,60.8-39.08a18.3,18.3,0,0,1,10.092-2.958,15.485,15.485,0,0,1,7.3,1.687,13,13,0,0,1,5.067,4.623A12.339,12.339,0,0,1,85.109-29q0,3.333-3.028,3.333H61.358a2.33,2.33,0,0,0-1.979.764A5.059,5.059,0,0,0,58.8-22.03a16.948,16.948,0,0,0,1.955,8.113A15.6,15.6,0,0,0,66.007-8.1a13.126,13.126,0,0,0,7.352,2.161A12.737,12.737,0,0,0,78.78-7.07,15.436,15.436,0,0,0,83.3-10.317a3.912,3.912,0,0,1,.628-.593.959.959,0,0,1,.558-.179q.888,0,.888,1.088a7.061,7.061,0,0,1-1.452,3.764,15.614,15.614,0,0,1-3.513,3.9A17.222,17.222,0,0,1,75.364.445,18.176,18.176,0,0,1,69.192,1.47ZM61.5-29.148h8q2.544,0,4.027-.1a19.4,19.4,0,0,0,2.852-.4,1.008,1.008,0,0,0,.693-.78,5.929,5.929,0,0,0,.193-1.652,5.987,5.987,0,0,0-2.289-4.747,8.28,8.28,0,0,0-5.528-1.934,8.336,8.336,0,0,0-4.353,1.292,11.669,11.669,0,0,0-3.524,3.234,6.573,6.573,0,0,0-1.355,3.942Q60.212-29.148,61.5-29.148ZM92.546.3A3.072,3.072,0,0,1,91.09.006a.977.977,0,0,1-.544-.922,1.16,1.16,0,0,1,.615-1.123,8.91,8.91,0,0,1,1.685-.623,6.461,6.461,0,0,0,2.893-1.45,3.207,3.207,0,0,0,.877-2.35V-28.483a11.41,11.41,0,0,0-.713-4.265,3.827,3.827,0,0,0-2.981-2.268,1.69,1.69,0,0,1-.772-.515,1.389,1.389,0,0,1-.344-.96,1.242,1.242,0,0,1,1.016-1.373,42.721,42.721,0,0,0,6-2.263q3.2-1.463,5.2-2.579a8.685,8.685,0,0,1,1.052-.593,1.952,1.952,0,0,1,.738-.223q.645,0,.645.845,0,.358-.05,1.673t-.115,2.93q-.065,1.615-.135,3.041,0,.431.258.431a24.362,24.362,0,0,1,3.549-3.7,19.636,19.636,0,0,1,4.145-2.719,9.715,9.715,0,0,1,4.24-1.045,6.494,6.494,0,0,1,3.958,1.045,3.209,3.209,0,0,1,1.394,2.677,6.274,6.274,0,0,1-.652,2.592,8.42,8.42,0,0,1-1.7,2.462,3.12,3.12,0,0,1-2.219,1.045,4.068,4.068,0,0,1-1.517-.323q-.8-.323-1.689-.752-.858-.358-1.716-.7a4.447,4.447,0,0,0-1.658-.344,7,7,0,0,0-4.577,1.773q-2.12,1.773-2.12,7.005V-6.78a2.8,2.8,0,0,0,1.342,2.455,15.625,15.625,0,0,0,3.928,1.694,7.2,7.2,0,0,1,1.686.643,1.155,1.155,0,0,1,.586,1.073Q113.405.3,111.521.3a45.279,45.279,0,0,1-5.145-.25,41.194,41.194,0,0,0-4.745-.25q-1.7,0-3,.1T95.942.15A32.506,32.506,0,0,1,92.546.3Zm53.931,1.8q-.487,0-1.1-1.463T144.358-1.9q-.73-1.728-1.445-3.723t-1.373-3.683q-2.317-6.083-4.91-11.9t-5.08-11.834a11.356,11.356,0,0,0-2.136-3.424,6.592,6.592,0,0,0-2.964-1.965,5.871,5.871,0,0,1-1.329-.673,1.272,1.272,0,0,1-.471-1.1q0-.658.794-.822a6.851,6.851,0,0,1,1.352-.164q2.145,0,3.2.114t2.1.264a21.5,21.5,0,0,0,2.89.15,25.078,25.078,0,0,0,3.077-.15q1.161-.15,2.437-.264t3.321-.114a5.694,5.694,0,0,1,1.337.193q.779.193.779.851a1.2,1.2,0,0,1-.7,1.13,13.873,13.873,0,0,1-1.57.7A2.9,2.9,0,0,0,142.1-36.8a5.981,5.981,0,0,0-.544,2.637q0,.758.071,1.487a5.151,5.151,0,0,0,.329,1.387l7.466,19.406a.313.313,0,0,0,.15.07.313.313,0,0,0,.15-.07l7.02-18.2a9.725,9.725,0,0,0,.541-1.977,11.252,11.252,0,0,0,.171-1.8,5.291,5.291,0,0,0-.658-2.908,4.1,4.1,0,0,0-2.145-1.523,13.7,13.7,0,0,1-1.712-.757,1.13,1.13,0,0,1-.558-1.073.833.833,0,0,1,.708-.852,5.313,5.313,0,0,1,1.408-.194q1.652.03,3.291.221a33.837,33.837,0,0,0,3.863.191,21.049,21.049,0,0,0,3.3-.191,19.967,19.967,0,0,1,2.945-.221,6.236,6.236,0,0,1,1.458.165.786.786,0,0,1,.688.823q0,1.216-2.155,1.916a7.992,7.992,0,0,0-3.33,2.286,14.117,14.117,0,0,0-2.755,4.241L154-12.648q-.23.517-.772,1.864t-1.155,2.907q-.613,1.56-1.084,2.765t-.587,1.436q-.117.261-.618,1.429T148.717.173a13.655,13.655,0,0,1-1.03,1.927ZM173.743.3a2.787,2.787,0,0,1-1.35-.3.967.967,0,0,1-.55-.9,1.206,1.206,0,0,1,.65-1.15,6.236,6.236,0,0,1,1.45-.55,12.479,12.479,0,0,0,3.4-1.3,2.73,2.73,0,0,0,1.1-2.5V-28a10.186,10.186,0,0,0-1-4.85,4.5,4.5,0,0,0-3.5-2.25,1.156,1.156,0,0,1-.75-.45,1.807,1.807,0,0,1-.25-1.05q0-1.2.9-1.3a31.178,31.178,0,0,0,7.55-2.65q3.15-1.65,4.75-2.65a3.646,3.646,0,0,1,1.6-.7.707.707,0,0,1,.8.8q0,1.1-.25,3.5t-.5,5.2q-.25,2.8-.25,5.2V-6.4a2.775,2.775,0,0,0,1.1,2.4,10.408,10.408,0,0,0,3.4,1.4,6.235,6.235,0,0,1,1.45.55,1.206,1.206,0,0,1,.65,1.15q0,1.2-1.8,1.2-1.9,0-3.4-.15t-2.85-.25q-1.35-.1-3.15-.1-1.7,0-3.1.1t-2.75.25A31.158,31.158,0,0,1,173.743.3Zm9-51.1a5.786,5.786,0,0,1-4.25-1.75,5.786,5.786,0,0,1-1.75-4.25,5.905,5.905,0,0,1,1.75-4.35,5.786,5.786,0,0,1,4.25-1.75,6.074,6.074,0,0,1,4.4,1.75,5.821,5.821,0,0,1,1.8,4.35,5.706,5.706,0,0,1-1.8,4.25A6.074,6.074,0,0,1,182.743-50.8ZM217.055,1.47a16.718,16.718,0,0,1-9.238-2.651A18.683,18.683,0,0,1,201.3-8.427a21.953,21.953,0,0,1-2.394-10.3A23.958,23.958,0,0,1,201.814-30.5a22.991,22.991,0,0,1,7.8-8.406,19.649,19.649,0,0,1,10.833-3.135,18.584,18.584,0,0,1,12.183,4.167A2.558,2.558,0,0,1,233.708-36a3.25,3.25,0,0,1-.758,1.786,7.7,7.7,0,0,1-1.8,1.78,3.407,3.407,0,0,1-1.914.737,2.2,2.2,0,0,1-1.261-.423q-.616-.423-1.273-.91a34.028,34.028,0,0,0-5.031-3.33,10.017,10.017,0,0,0-4.544-1.456,8.174,8.174,0,0,0-7.152,4.057q-2.659,4.057-2.659,11.37a18.647,18.647,0,0,0,1.862,8.471A14.43,14.43,0,0,0,214.3-8.106a13.436,13.436,0,0,0,7.432,2.1,12.274,12.274,0,0,0,5.073-.965,17.425,17.425,0,0,0,4.543-3.19,3.843,3.843,0,0,1,.616-.452,1.226,1.226,0,0,1,.616-.194q1.128,0,1.128,1.458a3.709,3.709,0,0,1-.277,1.277,7.994,7.994,0,0,1-.962,1.707,17.6,17.6,0,0,1-3.684,3.827,19.175,19.175,0,0,1-5.27,2.918A18.5,18.5,0,0,1,217.055,1.47Zm39.425,0a17.017,17.017,0,0,1-9.63-2.758A18.593,18.593,0,0,1,240.334-9a26.123,26.123,0,0,1-2.358-11.363,21.8,21.8,0,0,1,2.752-10.869,21.965,21.965,0,0,1,7.355-7.853,18.3,18.3,0,0,1,10.092-2.958,15.485,15.485,0,0,1,7.3,1.687,13,13,0,0,1,5.067,4.623A12.339,12.339,0,0,1,272.4-29q0,3.333-3.028,3.333H248.645a2.33,2.33,0,0,0-1.979.764,5.059,5.059,0,0,0-.579,2.877,16.949,16.949,0,0,0,1.955,8.113A15.6,15.6,0,0,0,253.294-8.1a13.126,13.126,0,0,0,7.352,2.161,12.737,12.737,0,0,0,5.42-1.135,15.435,15.435,0,0,0,4.525-3.248,3.911,3.911,0,0,1,.628-.593.959.959,0,0,1,.558-.179q.887,0,.887,1.088a7.061,7.061,0,0,1-1.452,3.764,15.613,15.613,0,0,1-3.513,3.9A17.221,17.221,0,0,1,262.651.445,18.176,18.176,0,0,1,256.479,1.47Zm-7.692-30.619h8q2.544,0,4.027-.1a19.4,19.4,0,0,0,2.852-.4,1.008,1.008,0,0,0,.693-.78,5.929,5.929,0,0,0,.193-1.652,5.987,5.987,0,0,0-2.289-4.747,8.28,8.28,0,0,0-5.528-1.934,8.336,8.336,0,0,0-4.353,1.292,11.669,11.669,0,0,0-3.524,3.234,6.573,6.573,0,0,0-1.355,3.942Q247.5-29.148,248.787-29.148ZM290.349,1.4a19.905,19.905,0,0,1-6.018-.892,14.917,14.917,0,0,1-4.963-2.62,12.227,12.227,0,0,1-.937-4.062q-.294-2.817-.336-5.156,0-1.016,1.531-1.016a1.782,1.782,0,0,1,.983.28,1.27,1.27,0,0,1,.566.71A15.56,15.56,0,0,0,285.4-4.313a8.691,8.691,0,0,0,5.852,2.4,6.217,6.217,0,0,0,4.63-1.848A6.127,6.127,0,0,0,297.7-8.216a6.18,6.18,0,0,0-1.887-4.549A30.819,30.819,0,0,0,290-16.978a41.968,41.968,0,0,1-5.5-3.782,13.944,13.944,0,0,1-3.47-4.117,10.776,10.776,0,0,1-1.2-5.168,11.241,11.241,0,0,1,1.717-6.163,11.854,11.854,0,0,1,4.949-4.28,17.46,17.46,0,0,1,7.732-1.579,19.949,19.949,0,0,1,5.391.644,11.97,11.97,0,0,1,3.305,1.344,9.393,9.393,0,0,1,1.32,3.566,24.575,24.575,0,0,1,.52,5.03q0,.816-1.289.816a2.606,2.606,0,0,1-1.252-.337,1.8,1.8,0,0,1-.822-.765,13.484,13.484,0,0,0-3.28-5.326,6.748,6.748,0,0,0-4.734-1.823,6.826,6.826,0,0,0-4.3,1.471,5,5,0,0,0-1.892,4.2,5.7,5.7,0,0,0,1.624,3.97,21.951,21.951,0,0,0,5.248,3.8,37.924,37.924,0,0,1,8.866,6.28,10.86,10.86,0,0,1,2.835,7.854,11.485,11.485,0,0,1-4.158,9.265Q297.457,1.4,290.349,1.4Z" transform="translate(360 2279.4)" opacity="0.998" fill="url(#linear-gradient)"/>
  </g>
</svg>
